<?xml version="1.0" encoding="UTF-8" standalone="no"?>
<!-- Created with Inkscape (http://www.inkscape.org/) -->

<svg
   version="1.1"
   id="svg9"
   xml:space="preserve"
   width="1511.8134"
   height="755.90533"
   viewBox="0 0 1511.8134 755.90533"
   sodipodi:docname="clavier.svg"
   inkscape:version="1.1.1 (3bf5ae0d25, 2021-09-20)"
   xmlns:inkscape="http://www.inkscape.org/namespaces/inkscape"
   xmlns:sodipodi="http://sodipodi.sourceforge.net/DTD/sodipodi-0.dtd"
   xmlns="http://www.w3.org/2000/svg"
   xmlns:svg="http://www.w3.org/2000/svg"><defs
     id="defs13"><clipPath
       clipPathUnits="userSpaceOnUse"
       id="clipPath25"><path
         d="M 0,566.929 H 1133.858 V 0 H 0 Z"
         id="path23" /></clipPath></defs><sodipodi:namedview
     id="namedview11"
     pagecolor="#505050"
     bordercolor="#eeeeee"
     borderopacity="1"
     inkscape:pageshadow="0"
     inkscape:pageopacity="0"
     inkscape:pagecheckerboard="0"
     showgrid="false"
     inkscape:zoom="1.0702398"
     inkscape:cx="756.37252"
     inkscape:cy="377.95267"
     inkscape:window-width="1920"
     inkscape:window-height="1017"
     inkscape:window-x="-8"
     inkscape:window-y="-8"
     inkscape:window-maximized="1"
     inkscape:current-layer="g15" /><g
     id="g15"
     inkscape:groupmode="layer"
     inkscape:label="clavier"
     transform="matrix(1.3333333,0,0,-1.3333333,0,755.90533)"><path
       d="m 141.852,411.148 h 38.27 v -38.27 h -38.27 z m 54,0 h 38.27 v -38.27 h -38.27 z m 54,0 h 38.27 v -38.27 h -38.27 z m 54,0 h 38.27 v -38.27 h -38.27 z m 54,0 h 38.27 v -38.27 h -38.27 z m 54,0 h 38.266 v -38.27 h -38.266 z m 54,0 h 38.27 v -38.27 h -38.27 z m 54,0 h 38.27 v -38.27 h -38.27 z m 54,0 h 38.271 v -38.27 h -38.271 z m 54,0 h 38.271 v -38.27 h -38.271 z m 54,0 h 38.271 v -38.27 h -38.271 z m 54,0 h 38.271 v -38.27 h -38.271 z m 54,0 h 38.271 v -38.27 h -38.271 z m 162,0 h 38.271 v -38.27 h -38.271 z m -81,0 v -13.32 h -5.739 v 9.156 h -17.715 v -9.156 h -2.339 v -6.523 h 2.339 v -17.77 h 4.887 v -3.402 h 7.938 v 3.402 h 4.89 v 12.668 h 5.739 v -13.324 h 38.269 v 13.324 h 5.738 v -12.668 h 4.891 v -3.402 h 7.937 v 3.402 h 4.891 v 17.77 h 2.34 v 6.523 h -2.34 v 9.156 h -17.719 v -9.156 h -5.738 v 13.32 z m -715.5,-54 h 38.27 v -38.27 h -38.27 z m 67.5,0 h 38.27 v -38.27 h -38.27 z m 54,0 h 38.27 v -38.27 h -38.27 z m 54,0 h 38.27 v -38.27 h -38.27 z m 54,0 h 38.27 v -38.27 h -38.27 z m 54,0 h 38.27 v -38.27 h -38.27 z m 54,0 h 38.27 v -38.27 h -38.27 z m 54,0 h 38.27 v -38.27 h -38.27 z m 54,0 h 38.271 v -38.27 h -38.271 z m 54,0 h 38.271 v -38.27 h -38.271 z m 54,0 h 38.271 v -38.27 h -38.271 z m 54,0 h 38.271 v -38.27 h -38.271 z m 54,0 h 38.271 v -38.27 h -38.271 z m 135,0 h 38.271 v -38.27 h -38.271 z m -42.325,-1.207 v -2.339 h -17.773 v -4.887 h -3.402 v -7.938 h 3.402 v -4.89 h 12.672 v -5.739 h -13.324 v -38.269 h 13.324 v -5.738 h -12.672 v -4.891 h -3.402 v -7.938 h 3.402 v -4.89 h 17.773 v -2.34 h 6.52 v 2.34 h 9.156 v 17.719 h -9.156 v 5.738 h 13.32 v 38.269 h -13.32 v 5.739 h 9.156 v 17.715 h -9.156 v 2.339 z M 162.102,303.148 h 38.266 v -38.27 h -38.266 z m 74.25,0 h 38.27 v -38.27 h -38.27 z m 54,0 h 38.27 v -38.27 h -38.27 z m 54,0 h 38.27 v -38.27 h -38.27 z m 54,0 h 38.27 v -38.27 h -38.27 z m 54,0 h 38.27 v -38.27 h -38.27 z m 54,0 h 38.27 v -38.27 h -38.27 z m 54,0 h 38.27 v -38.27 h -38.27 z m 54,0 h 38.271 v -38.27 h -38.271 z m 54,0 h 38.271 v -38.27 h -38.271 z m 54,0 h 38.271 v -38.27 h -38.271 z m 54,0 h 38.271 v -38.27 h -38.271 z m 53.996,0 h 38.273 v -38.27 h -38.273 z m 121.504,0 h 38.271 v -38.27 h -38.271 z m -803.25,-54 h 38.27 v -38.271 h -38.27 z m 60.75,0 h 38.27 v -38.271 h -38.27 z m 54,0 h 38.27 v -38.271 h -38.27 z m 54,0 h 38.27 v -38.271 h -38.27 z m 54,0 h 38.27 v -38.271 h -38.27 z m 54,0 h 38.27 v -38.271 h -38.27 z m 54,0 h 38.27 v -38.271 h -38.27 z m 54,0 h 38.27 v -38.271 h -38.27 z m 54,0 h 38.271 v -38.271 h -38.271 z m 54,0 h 38.271 v -38.271 h -38.271 z m 54,0 h 38.271 v -38.271 h -38.271 z m 54,0 h 38.271 v -38.271 h -38.271 z m 74.25,0 h 38.271 v -38.271 h -38.271 z m 74.25,0 h 38.271 v -38.271 h -38.271 z m 54,0 h 38.271 v -38.271 h -38.271 z m -803.25,-54 h 38.27 v -38.271 h -38.27 z m 67.5,0 h 38.266 v -38.271 h -38.266 z m 67.5,0 h 38.27 v -38.271 h -38.27 z m 398.25,0 h 38.271 v -38.271 h -38.271 z m 54,0 h 38.271 v -38.271 h -38.271 z m 54,0 h 38.271 v -38.271 h -38.271 z m 54,0 h 38.271 v -38.271 h -38.271 z m 54,0 h 38.271 v -38.271 h -38.271 z m 54,0 h 38.271 v -38.271 h -38.271 z m -465.75,0 V 181.824 H 372.359 v 9.156 h -17.714 v -9.156 h -2.34 v -6.519 h 2.34 v -17.77 h 4.89 v -3.406 h 7.938 v 3.406 h 4.886 v 12.668 h 113.743 v -13.324 h 38.265 v 13.324 H 638.109 V 157.535 H 643 v -3.406 h 7.937 v 3.406 h 4.887 v 17.77 h 2.34 v 6.519 h -2.34 v 9.156 h -17.715 v -9.156 H 524.367 v 13.324 z"
       style="fill:none;stroke:#231f20;stroke-width:0.5;stroke-linecap:butt;stroke-linejoin:miter;stroke-miterlimit:4;stroke-dasharray:none;stroke-opacity:1"
       id="path17" /><g
       id="g19"><g
         id="g21"
         clip-path="url(#clipPath25)"><g
           id="g27"
           transform="translate(990.8193,145.8408)"><path
             d="m 0,0 h -849.68 c -5.254,0 -9.513,4.259 -9.513,9.514 v 255.57 c 0,5.254 4.259,9.513 9.513,9.513 H 0 c 5.254,0 9.513,-4.259 9.513,-9.513 V 9.514 C 9.513,4.259 5.254,0 0,0 Z"
             style="fill:none;stroke:#231f20;stroke-width:0.5;stroke-linecap:butt;stroke-linejoin:miter;stroke-miterlimit:4;stroke-dasharray:none;stroke-opacity:1"
             id="path29" /></g><g
           id="g31"
           transform="translate(155.4854,447.0957)"><path
             d="m 0,0 1.542,6.206 h 13.993 l 1.462,5.806 H -4.024 L -9.089,-5.806 H 4.925 L 3.423,-11.011 H -10.61 l -1.622,-5.805 H 9.79 L 14.014,0 Z"
             style="fill:none;stroke:#231f20;stroke-width:0.5;stroke-linecap:butt;stroke-linejoin:miter;stroke-miterlimit:4;stroke-dasharray:none;stroke-opacity:1"
             id="path33" /></g><g
           id="g35"
           transform="translate(183.0122,448.6973)"><path
             d="M 0,0 1.281,4.805 H -8.528 L -9.81,0 h 1.942 l -3.924,-13.613 h -1.661 l -1.281,-4.805 h 9.809 l 1.281,4.805 H -5.305 L -1.942,0 Z"
             style="fill:none;stroke:#231f20;stroke-width:0.5;stroke-linecap:butt;stroke-linejoin:miter;stroke-miterlimit:4;stroke-dasharray:none;stroke-opacity:1"
             id="path37" /></g><g
           id="g39"
           transform="translate(209.5381,459.1074)"><path
             d="M 0,0 -9.029,-8.648 -13.453,0 h -6.787 l -8.208,-28.828 h 8.008 l 4.945,19.839 4.184,-8.188 8.548,8.188 -5.665,-19.839 H -0.42 L 6.787,0 Z"
             style="fill:none;stroke:#231f20;stroke-width:0.5;stroke-linecap:butt;stroke-linejoin:miter;stroke-miterlimit:4;stroke-dasharray:none;stroke-opacity:1"
             id="path41" /></g><g
           id="g43"
           transform="translate(229.5576,445.0937)"><path
             d="m 0,0 h -3.924 l 3.083,8.208 h 2.162 z m -5.666,14.014 -11.831,-28.828 h 8.028 l 3.363,9.008 h 5.165 l -1.441,-9.008 h 8.028 l 3.583,28.828 z"
             style="fill:none;stroke:#231f20;stroke-width:0.5;stroke-linecap:butt;stroke-linejoin:miter;stroke-miterlimit:4;stroke-dasharray:none;stroke-opacity:1"
             id="path45" /></g><g
           id="g47"
           transform="translate(268.6157,459.1074)"><path
             d="M 0,0 H -7.567 L -13.073,-6.847 -14.935,0 h -7.567 l 3.363,-14.414 -11.591,-14.414 h 8.608 l 4.845,6.326 1.482,-6.326 h 8.608 l -3.864,14.414 z"
             style="fill:none;stroke:#231f20;stroke-width:0.5;stroke-linecap:butt;stroke-linejoin:miter;stroke-miterlimit:4;stroke-dasharray:none;stroke-opacity:1"
             id="path49" /></g><g
           id="g51"
           transform="translate(268.9561,447.0957)"><path
             d="M 0,0 -1.642,-5.806 H 19.979 L 21.461,0 Z"
             style="fill:none;stroke:#231f20;stroke-width:0.5;stroke-linecap:butt;stroke-linejoin:miter;stroke-miterlimit:4;stroke-dasharray:none;stroke-opacity:1"
             id="path53" /></g><g
           id="g55"
           transform="translate(306.3525,441.29)"><path
             d="M 0,0 -1.501,-5.205 H -7.708 L -6.406,0 Z m 9.109,12.012 1.461,5.805 H -8.949 l -8.208,-28.828 H 4.865 L 9.089,5.806 H -4.925 l 1.542,6.206 z"
             style="fill:none;stroke:#231f20;stroke-width:0.5;stroke-linecap:butt;stroke-linejoin:miter;stroke-miterlimit:4;stroke-dasharray:none;stroke-opacity:1"
             id="path57" /></g><g
           id="g59"
           transform="translate(333.0186,447.0957)"><path
             d="m 0,0 h -6.566 l 1.541,6.206 h 6.807 z m -10.59,12.012 -5.065,-17.818 h 14.013 l -1.501,-5.205 h -12.032 l -1.621,-5.805 H 3.223 l 7.207,28.828 z"
             style="fill:none;stroke:#231f20;stroke-width:0.5;stroke-linecap:butt;stroke-linejoin:miter;stroke-miterlimit:4;stroke-dasharray:none;stroke-opacity:1"
             id="path61" /></g><g
           id="g63"
           transform="translate(396.2314,446.5352)"><path
             d="m 0,0 -26.009,14.965 c -8.105,4.663 -17.292,7.118 -26.642,7.118 h -209.398 c -8.937,0 -16.182,-7.245 -16.182,-16.183 V -7.87 -301.372 c 0,-8.162 6.616,-14.778 14.778,-14.778 h 866.804 c 9.792,0 17.729,7.937 17.729,17.728 v 273.331 c 0,9.511 -7.711,17.221 -17.222,17.221 H 29.457 C 19.119,-7.87 8.961,-5.156 0,0 Z"
             style="fill:none;stroke:#231f20;stroke-width:0.5;stroke-linecap:butt;stroke-linejoin:miter;stroke-miterlimit:4;stroke-dasharray:none;stroke-opacity:1"
             id="path65" /></g></g></g></g></svg>
