M48
; DRILL file {KiCad 9.0.3} date 2025-07-20T18:39:22+0200
; FORMAT={-:-/ absolute / inch / decimal}
; #@! TF.CreationDate,2025-07-20T18:39:22+02:00
; #@! TF.GenerationSoftware,Kicad,Pcbnew,9.0.3
; #@! TF.FileFunction,Plated,1,2,PTH
FMAT,2
INCH
; #@! TA.AperFunction,Plated,PTH,ViaDrill
T1C0.0118
; #@! TA.AperFunction,Plated,PTH,ComponentDrill
T2C0.0236
; #@! TA.AperFunction,Plated,PTH,ComponentDrill
T3C0.0394
; #@! TA.AperFunction,Plated,PTH,ComponentDrill
T4C0.0591
%
G90
G05
T1
X0.3118Y-0.6543
X0.3126Y-0.7874
X0.5059Y-0.4291
X0.5358Y-0.0579
X0.6465Y-0.7874
X0.6642Y-0.2138
X0.6693Y-0.2835
X0.6709Y0.1705
X0.7061Y-0.6999
X0.7071Y-0.7547
X0.7071Y-0.8201
X0.7165Y-0.2126
X0.7539Y0.0854
X0.8286Y-0.6974
X0.8453Y0.1697
X0.8761Y-0.1799
X0.8946Y-0.4713
X0.9224Y-1.4823
X0.9535Y-1.4484
X0.9535Y-1.5165
X0.9535Y-1.6236
X0.9535Y-1.6913
X0.9579Y-0.7543
X0.9579Y-0.8205
X0.9945Y-3.4894
X1.0047Y-0.1122
X1.0047Y-0.787
X1.0402Y-0.9607
X1.0402Y-2.2205
X1.0598Y-1.4496
X1.0598Y-1.5173
X1.0598Y-1.6236
X1.0598Y-1.6913
X1.0906Y-1.4839
X1.0945Y-1.6571
X1.9579Y-3.4937
X2.9126Y-3.4902
X3.7396Y-3.1844
X3.8311Y-3.2161
X3.8311Y-3.3083
X4.022Y-3.0512
X4.8236Y-3.4689
X4.8379Y-3.5999
X5.4346Y-2.6185
X5.4453Y-2.1705
X5.4689Y-2.6319
X5.502Y-2.6515
X5.6201Y-2.2807
X5.7012Y-0.787
X5.7045Y-1.4851
X5.7214Y-3.2144
X5.7419Y-2.3781
X5.7739Y-3.3713
X5.7815Y-2.2807
X5.7947Y-3.6167
X5.7985Y-2.3225
X5.8055Y-2.4417
X5.8213Y-2.9386
X5.8289Y-2.7663
X5.8621Y-2.3861
X5.9498Y-2.8005
X5.976Y-2.9374
X6.2709Y-2.6724
X6.2789Y-2.8005
X6.3389Y-3.5072
X6.6289Y-3.1163
X6.6489Y-2.7313
X7.0189Y-3.1063
X7.0189Y-3.2163
X7.1791Y-3.4476
X7.1791Y-3.5854
X7.7658Y-3.1157
X7.9278Y-3.0945
X8.5992Y-3.4804
X8.7411Y-3.1498
X9.7078Y-2.9402
X9.7078Y-3.1331
X9.8591Y-3.4804
X11.1189Y-0.9607
X11.1189Y-2.2205
X11.1189Y-3.4804
X11.2787Y-3.2575
T3
X4.0271Y-3.1563
X4.0271Y-3.2563
X4.1271Y-3.1563
X4.1271Y-3.2563
X4.2271Y-3.1563
X4.2271Y-3.2563
T4
X0.2355Y-0.2575
X0.3328Y-2.5065
X0.4228Y-1.0065
X0.4855Y-0.1575
X0.4948Y-3.2546
X0.5178Y-1.7565
X0.5828Y-2.4065
X0.6728Y-0.9065
X0.7448Y-3.1546
X0.7678Y-1.6565
X1.1509Y-0.2575
X1.1778Y-2.5065
X1.3578Y-1.0065
X1.4009Y-0.1575
X1.4278Y-2.4065
X1.4348Y-3.2546
X1.5478Y-1.7565
X1.6078Y-0.9065
X1.6848Y-3.1546
X1.7978Y-1.6565
X1.8996Y-0.2575
X1.9278Y-2.5065
X2.1078Y-1.0065
X2.1496Y-0.1575
X2.1778Y-2.4065
X2.2978Y-1.7565
X2.3578Y-0.9065
X2.3748Y-3.2546
X2.5478Y-1.6565
X2.6248Y-3.1546
X2.6496Y-0.2575
X2.6778Y-2.5065
X2.8578Y-1.0065
X2.8996Y-0.1575
X2.9278Y-2.4065
X3.0478Y-1.7565
X3.1078Y-0.9065
X3.2978Y-1.6565
X3.3996Y-0.2575
X3.4278Y-2.5065
X3.6078Y-1.0065
X3.6496Y-0.1575
X3.6778Y-2.4065
X3.7978Y-1.7565
X3.8578Y-0.9065
X4.0478Y-1.6565
X4.1496Y-0.2575
X4.1778Y-2.5065
X4.3578Y-1.0065
X4.3996Y-0.1575
X4.4278Y-2.4065
X4.5478Y-1.7565
X4.6078Y-0.9065
X4.7978Y-1.6565
X4.8996Y-0.2575
X4.9278Y-2.5065
X5.1078Y-1.0065
X5.1496Y-0.1575
X5.1778Y-2.4065
X5.1883Y-3.2552
X5.2978Y-1.7565
X5.3578Y-0.9065
X5.4383Y-3.1552
X5.5478Y-1.6565
X5.6778Y-2.5065
X5.8578Y-1.0065
X5.9278Y-2.4065
X5.9813Y-0.2575
X6.0478Y-1.7565
X6.1078Y-0.9065
X6.2313Y-0.1575
X6.2978Y-1.6565
X6.4278Y-2.5065
X6.6078Y-1.0065
X6.6778Y-2.4065
X6.7323Y-0.2575
X6.7978Y-1.7565
X6.8578Y-0.9065
X6.9823Y-0.1575
X7.0478Y-1.6565
X7.1778Y-2.5065
X7.3578Y-1.0065
X7.4278Y-2.4065
X7.4823Y-0.2575
X7.5478Y-1.7565
X7.6078Y-0.9065
X7.7323Y-0.1575
X7.7978Y-1.6565
X7.9048Y-3.2546
X7.9278Y-2.5065
X8.1078Y-1.0065
X8.1548Y-3.1546
X8.1778Y-2.4065
X8.2323Y-0.2575
X8.2978Y-1.7565
X8.3578Y-0.9065
X8.4823Y-0.1575
X8.5478Y-1.6565
X8.6548Y-3.2546
X8.6778Y-2.5065
X8.8578Y-1.0065
X8.9048Y-3.1546
X8.9278Y-2.4065
X8.9835Y-0.2575
X9.0478Y-1.7565
X9.1078Y-0.9065
X9.2335Y-0.1575
X9.2978Y-1.6565
X9.6078Y-1.0065
X9.7078Y-2.5065
X9.7335Y-0.2575
X9.7978Y-1.7565
X9.8578Y-0.9065
X9.9578Y-2.4065
X9.9665Y-3.2575
X9.9835Y-0.1575
X10.0478Y-1.6565
X10.2165Y-3.1575
X10.7165Y-3.2575
X10.7378Y-2.5065
X10.8626Y-0.2584
X10.9665Y-3.1575
X10.9878Y-2.4065
X11.1126Y-0.1584
X11.1484Y-1.3827
X11.3984Y-1.2827
X11.4665Y-3.2575
X11.7165Y-3.1575
T2
X0.5906Y0.1299G85X0.5906Y0.1063
G05
X0.5906Y-0.0248G85X0.5906Y-0.0681
G05
X0.9307Y0.1299G85X0.9307Y0.1063
G05
X0.9307Y-0.0248G85X0.9307Y-0.0681
G05
M30
