%TF.GenerationSoftware,KiCad,Pcbnew,9.0.3*%
%TF.CreationDate,2025-07-20T18:38:52+02:00*%
%TF.ProjectId,keeb2,6b656562-322e-46b6-9963-61645f706362,rev?*%
%TF.SameCoordinates,Original*%
%TF.FileFunction,Soldermask,Top*%
%TF.FilePolarity,Negative*%
%FSLAX46Y46*%
G04 Gerber Fmt 4.6, Leading zero omitted, Abs format (unit mm)*
G04 Created by KiCad (PCBNEW 9.0.3) date 2025-07-20 18:38:52*
%MOMM*%
%LPD*%
G01*
G04 APERTURE LIST*
%ADD10C,1.700000*%
%ADD11C,4.000000*%
%ADD12C,2.200000*%
%ADD13C,2.100000*%
%ADD14C,3.050000*%
%ADD15R,1.700000X1.700000*%
%ADD16C,0.650000*%
%ADD17O,1.000000X1.600000*%
%ADD18O,1.000000X2.100000*%
G04 APERTURE END LIST*
D10*
%TO.C,SW29*%
X242766900Y-28104600D03*
D11*
X247846900Y-28104600D03*
D10*
X252926900Y-28104600D03*
D12*
X250386900Y-23024600D03*
X244036900Y-25564600D03*
%TD*%
D10*
%TO.C,SW14*%
X226911750Y-9080000D03*
D11*
X231991750Y-9080000D03*
D10*
X237071750Y-9080000D03*
D12*
X234531750Y-4000000D03*
X228181750Y-6540000D03*
%TD*%
D10*
%TO.C,SW66*%
X218560750Y-85207500D03*
D11*
X223640750Y-85207500D03*
D10*
X228720750Y-85207500D03*
D12*
X226180750Y-80127500D03*
X219830750Y-82667500D03*
%TD*%
D10*
%TO.C,SW56*%
X200094900Y-66204600D03*
D11*
X205174900Y-66204600D03*
D10*
X210254900Y-66204600D03*
D12*
X207714900Y-61124600D03*
X201364900Y-63664600D03*
%TD*%
D10*
%TO.C,SW17*%
X9467900Y-28104600D03*
D11*
X14547900Y-28104600D03*
D10*
X19627900Y-28104600D03*
D12*
X17087900Y-23024600D03*
X10737900Y-25564600D03*
%TD*%
D10*
%TO.C,SW34*%
X76142900Y-47154600D03*
D11*
X81222900Y-47154600D03*
D10*
X86302900Y-47154600D03*
D12*
X83762900Y-42074600D03*
X77412900Y-44614600D03*
%TD*%
D13*
%TO.C,H7*%
X193250000Y-80250000D03*
%TD*%
D14*
%TO.C,SW16*%
X267820000Y-2102500D03*
D11*
X267820000Y-17342500D03*
D10*
X274640000Y-9102500D03*
D11*
X279720000Y-9102500D03*
D10*
X284800000Y-9102500D03*
D14*
X291620000Y-2102500D03*
D11*
X291620000Y-17342500D03*
D12*
X282260000Y-4022500D03*
X275910000Y-6562500D03*
%TD*%
D13*
%TO.C,H4*%
X66750000Y-60750000D03*
%TD*%
D10*
%TO.C,SW33*%
X57092900Y-47154600D03*
D11*
X62172900Y-47154600D03*
D10*
X67252900Y-47154600D03*
D12*
X64712900Y-42074600D03*
X58362900Y-44614600D03*
%TD*%
D10*
%TO.C,SW59*%
X271468900Y-66204600D03*
D11*
X276548900Y-66204600D03*
D10*
X281628900Y-66204600D03*
D12*
X279088900Y-61124600D03*
X272738900Y-63664600D03*
%TD*%
D13*
%TO.C,H3*%
X29750000Y-85250000D03*
%TD*%
D10*
%TO.C,SW22*%
X109416900Y-28104600D03*
D11*
X114496900Y-28104600D03*
D10*
X119576900Y-28104600D03*
D12*
X117036900Y-23024600D03*
X110686900Y-25564600D03*
%TD*%
D10*
%TO.C,SW63*%
X59048750Y-85207500D03*
D11*
X64128750Y-85207500D03*
D10*
X69208750Y-85207500D03*
D12*
X66668750Y-80127500D03*
X60318750Y-82667500D03*
%TD*%
D10*
%TO.C,SW12*%
X188780000Y-9080000D03*
D11*
X193860000Y-9080000D03*
D10*
X198940000Y-9080000D03*
D12*
X196400000Y-4000000D03*
X190050000Y-6540000D03*
%TD*%
D10*
%TO.C,SW50*%
X85794900Y-66204600D03*
D11*
X90874900Y-66204600D03*
D10*
X95954900Y-66204600D03*
D12*
X93414900Y-61124600D03*
X87064900Y-63664600D03*
%TD*%
D10*
%TO.C,SW65*%
X199510750Y-85207500D03*
D11*
X204590750Y-85207500D03*
D10*
X209670750Y-85207500D03*
D12*
X207130750Y-80127500D03*
X200780750Y-82667500D03*
%TD*%
D10*
%TO.C,SW26*%
X185616900Y-28104600D03*
D11*
X190696900Y-28104600D03*
D10*
X195776900Y-28104600D03*
D12*
X193236900Y-23024600D03*
X186886900Y-25564600D03*
%TD*%
D14*
%TO.C,SW64*%
X85591750Y-78222500D03*
D11*
X85591750Y-93462500D03*
D10*
X130511750Y-85222500D03*
D11*
X135591750Y-85222500D03*
D10*
X140671750Y-85222500D03*
D14*
X185591750Y-78222500D03*
D11*
X185591750Y-93462500D03*
D12*
X138131750Y-80142500D03*
X131781750Y-82682500D03*
%TD*%
D13*
%TO.C,H5*%
X132750000Y-51750000D03*
%TD*%
D10*
%TO.C,SW39*%
X171392900Y-47154600D03*
D11*
X176472900Y-47154600D03*
D10*
X181552900Y-47154600D03*
D12*
X179012900Y-42074600D03*
X172662900Y-44614600D03*
%TD*%
D10*
%TO.C,SW36*%
X114242900Y-47154600D03*
D11*
X119322900Y-47154600D03*
D10*
X124402900Y-47154600D03*
D12*
X121862900Y-42074600D03*
X115512900Y-44614600D03*
%TD*%
D10*
%TO.C,SW38*%
X152342900Y-47154600D03*
D11*
X157422900Y-47154600D03*
D10*
X162502900Y-47154600D03*
D12*
X159962900Y-42074600D03*
X153612900Y-44614600D03*
%TD*%
D13*
%TO.C,H9*%
X271250000Y-33250000D03*
%TD*%
D10*
%TO.C,SW5*%
X46980000Y-9080000D03*
D11*
X52060000Y-9080000D03*
D10*
X57140000Y-9080000D03*
D12*
X54600000Y-4000000D03*
X48250000Y-6540000D03*
%TD*%
D10*
%TO.C,SW51*%
X104844900Y-66204600D03*
D11*
X109924900Y-66204600D03*
D10*
X115004900Y-66204600D03*
D12*
X112464900Y-61124600D03*
X106114900Y-63664600D03*
%TD*%
D10*
%TO.C,SW19*%
X52266900Y-28104600D03*
D11*
X57346900Y-28104600D03*
D10*
X62426900Y-28104600D03*
D12*
X59886900Y-23024600D03*
X53536900Y-25564600D03*
%TD*%
D10*
%TO.C,SW37*%
X133292900Y-47154600D03*
D11*
X138372900Y-47154600D03*
D10*
X143452900Y-47154600D03*
D12*
X140912900Y-42074600D03*
X134562900Y-44614600D03*
%TD*%
D13*
%TO.C,H1*%
X30250000Y-33250000D03*
%TD*%
D10*
%TO.C,SW47*%
X28644900Y-66204600D03*
D11*
X33724900Y-66204600D03*
D10*
X38804900Y-66204600D03*
D12*
X36264900Y-61124600D03*
X29914900Y-63664600D03*
%TD*%
D10*
%TO.C,SW4*%
X27961750Y-9080000D03*
D11*
X33041750Y-9080000D03*
D10*
X38121750Y-9080000D03*
D12*
X35581750Y-4000000D03*
X29231750Y-6540000D03*
%TD*%
D10*
%TO.C,SW10*%
X150654600Y-9080000D03*
D11*
X155734600Y-9080000D03*
D10*
X160814600Y-9080000D03*
D12*
X158274600Y-4000000D03*
X151924600Y-6540000D03*
%TD*%
D10*
%TO.C,SW24*%
X147516900Y-28104600D03*
D11*
X152596900Y-28104600D03*
D10*
X157676900Y-28104600D03*
D12*
X155136900Y-23024600D03*
X148786900Y-25564600D03*
%TD*%
D10*
%TO.C,SW69*%
X289980000Y-85280000D03*
D11*
X295060000Y-85280000D03*
D10*
X300140000Y-85280000D03*
D12*
X297600000Y-80200000D03*
X291250000Y-82740000D03*
%TD*%
D14*
%TO.C,SW44*%
X279980000Y-25760000D03*
X279980000Y-49560000D03*
D10*
X281900000Y-37660000D03*
D11*
X286980000Y-37660000D03*
D10*
X292060000Y-37660000D03*
D11*
X295220000Y-25760000D03*
X295220000Y-49560000D03*
D12*
X289520000Y-32580000D03*
X283170000Y-35120000D03*
%TD*%
D10*
%TO.C,SW62*%
X35172750Y-85207500D03*
D11*
X40252750Y-85207500D03*
D10*
X45332750Y-85207500D03*
D12*
X42792750Y-80127500D03*
X36442750Y-82667500D03*
%TD*%
D10*
%TO.C,SW58*%
X245306900Y-66204600D03*
D11*
X250386900Y-66204600D03*
D10*
X255466900Y-66204600D03*
D12*
X252926900Y-61124600D03*
X246576900Y-63664600D03*
%TD*%
D10*
%TO.C,SW41*%
X209492900Y-47154600D03*
D11*
X214572900Y-47154600D03*
D10*
X219652900Y-47154600D03*
D12*
X217112900Y-42074600D03*
X210762900Y-44614600D03*
%TD*%
D10*
%TO.C,SW57*%
X219144900Y-66204600D03*
D11*
X224224900Y-66204600D03*
D10*
X229304900Y-66204600D03*
D12*
X226764900Y-61124600D03*
X220414900Y-63664600D03*
%TD*%
D10*
%TO.C,SW21*%
X90366900Y-28104600D03*
D11*
X95446900Y-28104600D03*
D10*
X100526900Y-28104600D03*
D12*
X97986900Y-23024600D03*
X91636900Y-25564600D03*
%TD*%
D10*
%TO.C,SW31*%
X11880900Y-47154600D03*
D11*
X16960900Y-47154600D03*
D10*
X22040900Y-47154600D03*
D12*
X19500900Y-42074600D03*
X13150900Y-44614600D03*
%TD*%
D10*
%TO.C,SW32*%
X38042900Y-47154600D03*
D11*
X43122900Y-47154600D03*
D10*
X48202900Y-47154600D03*
D12*
X45662900Y-42074600D03*
X39312900Y-44614600D03*
%TD*%
D10*
%TO.C,SW61*%
X11296750Y-85207500D03*
D11*
X16376750Y-85207500D03*
D10*
X21456750Y-85207500D03*
D12*
X18916750Y-80127500D03*
X12566750Y-82667500D03*
%TD*%
D10*
%TO.C,SW42*%
X228542900Y-47154600D03*
D11*
X233622900Y-47154600D03*
D10*
X238702900Y-47154600D03*
D12*
X236162900Y-42074600D03*
X229812900Y-44614600D03*
%TD*%
D10*
%TO.C,SW11*%
X169730000Y-9080000D03*
D11*
X174810000Y-9080000D03*
D10*
X179890000Y-9080000D03*
D12*
X177350000Y-4000000D03*
X171000000Y-6540000D03*
%TD*%
D13*
%TO.C,H8*%
X242250000Y-14250000D03*
%TD*%
D10*
%TO.C,SW20*%
X71316900Y-28104600D03*
D11*
X76396900Y-28104600D03*
D10*
X81476900Y-28104600D03*
D12*
X78936900Y-23024600D03*
X72586900Y-25564600D03*
%TD*%
D10*
%TO.C,SW15*%
X245961750Y-9080000D03*
D11*
X251041750Y-9080000D03*
D10*
X256121750Y-9080000D03*
D12*
X253581750Y-4000000D03*
X247231750Y-6540000D03*
%TD*%
D10*
%TO.C,SW25*%
X166566900Y-28104600D03*
D11*
X171646900Y-28104600D03*
D10*
X176726900Y-28104600D03*
D12*
X174186900Y-23024600D03*
X167836900Y-25564600D03*
%TD*%
D10*
%TO.C,SW53*%
X142944900Y-66204600D03*
D11*
X148024900Y-66204600D03*
D10*
X153104900Y-66204600D03*
D12*
X150564900Y-61124600D03*
X144214900Y-63664600D03*
%TD*%
D10*
%TO.C,SW9*%
X123180000Y-9080000D03*
D11*
X128260000Y-9080000D03*
D10*
X133340000Y-9080000D03*
D12*
X130800000Y-4000000D03*
X124450000Y-6540000D03*
%TD*%
D10*
%TO.C,SW54*%
X161994900Y-66204600D03*
D11*
X167074900Y-66204600D03*
D10*
X172154900Y-66204600D03*
D12*
X169614900Y-61124600D03*
X163264900Y-63664600D03*
%TD*%
D10*
%TO.C,SW46*%
X7181900Y-66204600D03*
D11*
X12261900Y-66204600D03*
D10*
X17341900Y-66204600D03*
D12*
X14801900Y-61124600D03*
X8451900Y-63664600D03*
%TD*%
D10*
%TO.C,SW67*%
X251880000Y-85280000D03*
D11*
X256960000Y-85280000D03*
D10*
X262040000Y-85280000D03*
D12*
X259500000Y-80200000D03*
X253150000Y-82740000D03*
%TD*%
D10*
%TO.C,SW7*%
X85080000Y-9080000D03*
D11*
X90160000Y-9080000D03*
D10*
X95240000Y-9080000D03*
D12*
X92700000Y-4000000D03*
X86350000Y-6540000D03*
%TD*%
D13*
%TO.C,H10*%
X279750000Y-70250000D03*
%TD*%
D10*
%TO.C,SW13*%
X207830000Y-9080000D03*
D11*
X212910000Y-9080000D03*
D10*
X217990000Y-9080000D03*
D12*
X215450000Y-4000000D03*
X209100000Y-6540000D03*
%TD*%
D10*
%TO.C,SW55*%
X181044900Y-66204600D03*
D11*
X186124900Y-66204600D03*
D10*
X191204900Y-66204600D03*
D12*
X188664900Y-61124600D03*
X182314900Y-63664600D03*
%TD*%
D13*
%TO.C,H6*%
X167750000Y-34250000D03*
%TD*%
D10*
%TO.C,SW68*%
X270930000Y-85280000D03*
D11*
X276010000Y-85280000D03*
D10*
X281090000Y-85280000D03*
D12*
X278550000Y-80200000D03*
X272200000Y-82740000D03*
%TD*%
D10*
%TO.C,SW6*%
X66030000Y-9080000D03*
D11*
X71110000Y-9080000D03*
D10*
X76190000Y-9080000D03*
D12*
X73650000Y-4000000D03*
X67300000Y-6540000D03*
%TD*%
D10*
%TO.C,SW49*%
X66744900Y-66204600D03*
D11*
X71824900Y-66204600D03*
D10*
X76904900Y-66204600D03*
D12*
X74364900Y-61124600D03*
X68014900Y-63664600D03*
%TD*%
D10*
%TO.C,SW8*%
X104130000Y-9080000D03*
D11*
X109210000Y-9080000D03*
D10*
X114290000Y-9080000D03*
D12*
X111750000Y-4000000D03*
X105400000Y-6540000D03*
%TD*%
D10*
%TO.C,SW35*%
X95192900Y-47154600D03*
D11*
X100272900Y-47154600D03*
D10*
X105352900Y-47154600D03*
D12*
X102812900Y-42074600D03*
X96462900Y-44614600D03*
%TD*%
D10*
%TO.C,SW3*%
X4711750Y-9080000D03*
D11*
X9791750Y-9080000D03*
D10*
X14871750Y-9080000D03*
D12*
X12331750Y-4000000D03*
X5981750Y-6540000D03*
%TD*%
D10*
%TO.C,SW48*%
X47694900Y-66204600D03*
D11*
X52774900Y-66204600D03*
D10*
X57854900Y-66204600D03*
D12*
X55314900Y-61124600D03*
X48964900Y-63664600D03*
%TD*%
D10*
%TO.C,SW52*%
X123894900Y-66204600D03*
D11*
X128974900Y-66204600D03*
D10*
X134054900Y-66204600D03*
D12*
X131514900Y-61124600D03*
X125164900Y-63664600D03*
%TD*%
D10*
%TO.C,SW23*%
X128466900Y-28104600D03*
D11*
X133546900Y-28104600D03*
D10*
X138626900Y-28104600D03*
D12*
X136086900Y-23024600D03*
X129736900Y-25564600D03*
%TD*%
D13*
%TO.C,H2*%
X43250000Y-14750000D03*
%TD*%
D10*
%TO.C,SW28*%
X223716900Y-28104600D03*
D11*
X228796900Y-28104600D03*
D10*
X233876900Y-28104600D03*
D12*
X231336900Y-23024600D03*
X224986900Y-25564600D03*
%TD*%
D10*
%TO.C,SW43*%
X247592900Y-47154600D03*
D11*
X252672900Y-47154600D03*
D10*
X257752900Y-47154600D03*
D12*
X255212900Y-42074600D03*
X248862900Y-44614600D03*
%TD*%
D10*
%TO.C,SW27*%
X204666900Y-28104600D03*
D11*
X209746900Y-28104600D03*
D10*
X214826900Y-28104600D03*
D12*
X212286900Y-23024600D03*
X205936900Y-25564600D03*
%TD*%
D10*
%TO.C,SW18*%
X33216900Y-28104600D03*
D11*
X38296900Y-28104600D03*
D10*
X43376900Y-28104600D03*
D12*
X40836900Y-23024600D03*
X34486900Y-25564600D03*
%TD*%
D10*
%TO.C,J1*%
X102287500Y-82710000D03*
X102287500Y-80170000D03*
X104827500Y-82710000D03*
X104827500Y-80170000D03*
X107367500Y-82710000D03*
D15*
X107367500Y-80170000D03*
%TD*%
D10*
%TO.C,SW40*%
X190442900Y-47154600D03*
D11*
X195522900Y-47154600D03*
D10*
X200602900Y-47154600D03*
D12*
X198062900Y-42074600D03*
X191712900Y-44614600D03*
%TD*%
D16*
%TO.C,USB1*%
X16430000Y-650000D03*
X22210000Y-650000D03*
D17*
X15000000Y3000000D03*
D18*
X15000000Y-1180000D03*
D17*
X23640000Y3000000D03*
D18*
X23640000Y-1180000D03*
%TD*%
M02*
