%TF.GenerationSoftware,KiCad,Pcbnew,8.0.5*%
%TF.CreationDate,2024-10-15T14:40:16+02:00*%
%TF.ProjectId,keeb2,6b656562-322e-46b6-9963-61645f706362,rev?*%
%TF.SameCoordinates,Original*%
%TF.FileFunction,Legend,Bot*%
%TF.FilePolarity,Positive*%
%FSLAX46Y46*%
G04 Gerber Fmt 4.6, Leading zero omitted, Abs format (unit mm)*
G04 Created by KiCad (PCBNEW 8.0.5) date 2024-10-15 14:40:16*
%MOMM*%
%LPD*%
G01*
G04 APERTURE LIST*
%ADD10C,0.100000*%
%ADD11C,0.150000*%
%ADD12C,0.120000*%
G04 APERTURE END LIST*
D10*
X64722881Y-69080419D02*
X64151453Y-69080419D01*
X64437167Y-69080419D02*
X64437167Y-68080419D01*
X64437167Y-68080419D02*
X64341929Y-68223276D01*
X64341929Y-68223276D02*
X64246691Y-68318514D01*
X64246691Y-68318514D02*
X64151453Y-68366133D01*
X65056215Y-68080419D02*
X65675262Y-68080419D01*
X65675262Y-68080419D02*
X65341929Y-68461371D01*
X65341929Y-68461371D02*
X65484786Y-68461371D01*
X65484786Y-68461371D02*
X65580024Y-68508990D01*
X65580024Y-68508990D02*
X65627643Y-68556609D01*
X65627643Y-68556609D02*
X65675262Y-68651847D01*
X65675262Y-68651847D02*
X65675262Y-68889942D01*
X65675262Y-68889942D02*
X65627643Y-68985180D01*
X65627643Y-68985180D02*
X65580024Y-69032800D01*
X65580024Y-69032800D02*
X65484786Y-69080419D01*
X65484786Y-69080419D02*
X65199072Y-69080419D01*
X65199072Y-69080419D02*
X65103834Y-69032800D01*
X65103834Y-69032800D02*
X65056215Y-68985180D01*
X66151453Y-69032800D02*
X66151453Y-69080419D01*
X66151453Y-69080419D02*
X66103834Y-69175657D01*
X66103834Y-69175657D02*
X66056215Y-69223276D01*
X66722881Y-68508990D02*
X66627643Y-68461371D01*
X66627643Y-68461371D02*
X66580024Y-68413752D01*
X66580024Y-68413752D02*
X66532405Y-68318514D01*
X66532405Y-68318514D02*
X66532405Y-68270895D01*
X66532405Y-68270895D02*
X66580024Y-68175657D01*
X66580024Y-68175657D02*
X66627643Y-68128038D01*
X66627643Y-68128038D02*
X66722881Y-68080419D01*
X66722881Y-68080419D02*
X66913357Y-68080419D01*
X66913357Y-68080419D02*
X67008595Y-68128038D01*
X67008595Y-68128038D02*
X67056214Y-68175657D01*
X67056214Y-68175657D02*
X67103833Y-68270895D01*
X67103833Y-68270895D02*
X67103833Y-68318514D01*
X67103833Y-68318514D02*
X67056214Y-68413752D01*
X67056214Y-68413752D02*
X67008595Y-68461371D01*
X67008595Y-68461371D02*
X66913357Y-68508990D01*
X66913357Y-68508990D02*
X66722881Y-68508990D01*
X66722881Y-68508990D02*
X66627643Y-68556609D01*
X66627643Y-68556609D02*
X66580024Y-68604228D01*
X66580024Y-68604228D02*
X66532405Y-68699466D01*
X66532405Y-68699466D02*
X66532405Y-68889942D01*
X66532405Y-68889942D02*
X66580024Y-68985180D01*
X66580024Y-68985180D02*
X66627643Y-69032800D01*
X66627643Y-69032800D02*
X66722881Y-69080419D01*
X66722881Y-69080419D02*
X66913357Y-69080419D01*
X66913357Y-69080419D02*
X67008595Y-69032800D01*
X67008595Y-69032800D02*
X67056214Y-68985180D01*
X67056214Y-68985180D02*
X67103833Y-68889942D01*
X67103833Y-68889942D02*
X67103833Y-68699466D01*
X67103833Y-68699466D02*
X67056214Y-68604228D01*
X67056214Y-68604228D02*
X67008595Y-68556609D01*
X67008595Y-68556609D02*
X66913357Y-68508990D01*
X67960976Y-68413752D02*
X67960976Y-69080419D01*
X67722881Y-68032800D02*
X67484786Y-68747085D01*
X67484786Y-68747085D02*
X68103833Y-68747085D01*
X68389548Y-68080419D02*
X69008595Y-68080419D01*
X69008595Y-68080419D02*
X68675262Y-68461371D01*
X68675262Y-68461371D02*
X68818119Y-68461371D01*
X68818119Y-68461371D02*
X68913357Y-68508990D01*
X68913357Y-68508990D02*
X68960976Y-68556609D01*
X68960976Y-68556609D02*
X69008595Y-68651847D01*
X69008595Y-68651847D02*
X69008595Y-68889942D01*
X69008595Y-68889942D02*
X68960976Y-68985180D01*
X68960976Y-68985180D02*
X68913357Y-69032800D01*
X68913357Y-69032800D02*
X68818119Y-69080419D01*
X68818119Y-69080419D02*
X68532405Y-69080419D01*
X68532405Y-69080419D02*
X68437167Y-69032800D01*
X68437167Y-69032800D02*
X68389548Y-68985180D01*
X69627643Y-68080419D02*
X69722881Y-68080419D01*
X69722881Y-68080419D02*
X69818119Y-68128038D01*
X69818119Y-68128038D02*
X69865738Y-68175657D01*
X69865738Y-68175657D02*
X69913357Y-68270895D01*
X69913357Y-68270895D02*
X69960976Y-68461371D01*
X69960976Y-68461371D02*
X69960976Y-68699466D01*
X69960976Y-68699466D02*
X69913357Y-68889942D01*
X69913357Y-68889942D02*
X69865738Y-68985180D01*
X69865738Y-68985180D02*
X69818119Y-69032800D01*
X69818119Y-69032800D02*
X69722881Y-69080419D01*
X69722881Y-69080419D02*
X69627643Y-69080419D01*
X69627643Y-69080419D02*
X69532405Y-69032800D01*
X69532405Y-69032800D02*
X69484786Y-68985180D01*
X69484786Y-68985180D02*
X69437167Y-68889942D01*
X69437167Y-68889942D02*
X69389548Y-68699466D01*
X69389548Y-68699466D02*
X69389548Y-68461371D01*
X69389548Y-68461371D02*
X69437167Y-68270895D01*
X69437167Y-68270895D02*
X69484786Y-68175657D01*
X69484786Y-68175657D02*
X69532405Y-68128038D01*
X69532405Y-68128038D02*
X69627643Y-68080419D01*
X71151453Y-69080419D02*
X71151453Y-68413752D01*
X71151453Y-68508990D02*
X71199072Y-68461371D01*
X71199072Y-68461371D02*
X71294310Y-68413752D01*
X71294310Y-68413752D02*
X71437167Y-68413752D01*
X71437167Y-68413752D02*
X71532405Y-68461371D01*
X71532405Y-68461371D02*
X71580024Y-68556609D01*
X71580024Y-68556609D02*
X71580024Y-69080419D01*
X71580024Y-68556609D02*
X71627643Y-68461371D01*
X71627643Y-68461371D02*
X71722881Y-68413752D01*
X71722881Y-68413752D02*
X71865738Y-68413752D01*
X71865738Y-68413752D02*
X71960977Y-68461371D01*
X71960977Y-68461371D02*
X72008596Y-68556609D01*
X72008596Y-68556609D02*
X72008596Y-69080419D01*
X72484786Y-69080419D02*
X72484786Y-68413752D01*
X72484786Y-68508990D02*
X72532405Y-68461371D01*
X72532405Y-68461371D02*
X72627643Y-68413752D01*
X72627643Y-68413752D02*
X72770500Y-68413752D01*
X72770500Y-68413752D02*
X72865738Y-68461371D01*
X72865738Y-68461371D02*
X72913357Y-68556609D01*
X72913357Y-68556609D02*
X72913357Y-69080419D01*
X72913357Y-68556609D02*
X72960976Y-68461371D01*
X72960976Y-68461371D02*
X73056214Y-68413752D01*
X73056214Y-68413752D02*
X73199071Y-68413752D01*
X73199071Y-68413752D02*
X73294310Y-68461371D01*
X73294310Y-68461371D02*
X73341929Y-68556609D01*
X73341929Y-68556609D02*
X73341929Y-69080419D01*
X75692000Y-81923000D02*
X75692000Y-69136580D01*
X61849000Y-81923000D02*
X61849000Y-69136580D01*
X75692000Y-69723000D02*
X61849000Y-69723000D01*
X75692000Y-69723000D02*
X61849000Y-69723000D01*
X75692000Y-69723000D02*
X74565496Y-70309421D01*
X75692000Y-69723000D02*
X74565496Y-69136579D01*
X61849000Y-69723000D02*
X62975504Y-69136579D01*
X61849000Y-69723000D02*
X62975504Y-70309421D01*
X76978381Y-69080419D02*
X76406953Y-69080419D01*
X76692667Y-69080419D02*
X76692667Y-68080419D01*
X76692667Y-68080419D02*
X76597429Y-68223276D01*
X76597429Y-68223276D02*
X76502191Y-68318514D01*
X76502191Y-68318514D02*
X76406953Y-68366133D01*
X77597429Y-68080419D02*
X77692667Y-68080419D01*
X77692667Y-68080419D02*
X77787905Y-68128038D01*
X77787905Y-68128038D02*
X77835524Y-68175657D01*
X77835524Y-68175657D02*
X77883143Y-68270895D01*
X77883143Y-68270895D02*
X77930762Y-68461371D01*
X77930762Y-68461371D02*
X77930762Y-68699466D01*
X77930762Y-68699466D02*
X77883143Y-68889942D01*
X77883143Y-68889942D02*
X77835524Y-68985180D01*
X77835524Y-68985180D02*
X77787905Y-69032800D01*
X77787905Y-69032800D02*
X77692667Y-69080419D01*
X77692667Y-69080419D02*
X77597429Y-69080419D01*
X77597429Y-69080419D02*
X77502191Y-69032800D01*
X77502191Y-69032800D02*
X77454572Y-68985180D01*
X77454572Y-68985180D02*
X77406953Y-68889942D01*
X77406953Y-68889942D02*
X77359334Y-68699466D01*
X77359334Y-68699466D02*
X77359334Y-68461371D01*
X77359334Y-68461371D02*
X77406953Y-68270895D01*
X77406953Y-68270895D02*
X77454572Y-68175657D01*
X77454572Y-68175657D02*
X77502191Y-68128038D01*
X77502191Y-68128038D02*
X77597429Y-68080419D01*
X78406953Y-69032800D02*
X78406953Y-69080419D01*
X78406953Y-69080419D02*
X78359334Y-69175657D01*
X78359334Y-69175657D02*
X78311715Y-69223276D01*
X79264095Y-68080419D02*
X79073619Y-68080419D01*
X79073619Y-68080419D02*
X78978381Y-68128038D01*
X78978381Y-68128038D02*
X78930762Y-68175657D01*
X78930762Y-68175657D02*
X78835524Y-68318514D01*
X78835524Y-68318514D02*
X78787905Y-68508990D01*
X78787905Y-68508990D02*
X78787905Y-68889942D01*
X78787905Y-68889942D02*
X78835524Y-68985180D01*
X78835524Y-68985180D02*
X78883143Y-69032800D01*
X78883143Y-69032800D02*
X78978381Y-69080419D01*
X78978381Y-69080419D02*
X79168857Y-69080419D01*
X79168857Y-69080419D02*
X79264095Y-69032800D01*
X79264095Y-69032800D02*
X79311714Y-68985180D01*
X79311714Y-68985180D02*
X79359333Y-68889942D01*
X79359333Y-68889942D02*
X79359333Y-68651847D01*
X79359333Y-68651847D02*
X79311714Y-68556609D01*
X79311714Y-68556609D02*
X79264095Y-68508990D01*
X79264095Y-68508990D02*
X79168857Y-68461371D01*
X79168857Y-68461371D02*
X78978381Y-68461371D01*
X78978381Y-68461371D02*
X78883143Y-68508990D01*
X78883143Y-68508990D02*
X78835524Y-68556609D01*
X78835524Y-68556609D02*
X78787905Y-68651847D01*
X80216476Y-68080419D02*
X80026000Y-68080419D01*
X80026000Y-68080419D02*
X79930762Y-68128038D01*
X79930762Y-68128038D02*
X79883143Y-68175657D01*
X79883143Y-68175657D02*
X79787905Y-68318514D01*
X79787905Y-68318514D02*
X79740286Y-68508990D01*
X79740286Y-68508990D02*
X79740286Y-68889942D01*
X79740286Y-68889942D02*
X79787905Y-68985180D01*
X79787905Y-68985180D02*
X79835524Y-69032800D01*
X79835524Y-69032800D02*
X79930762Y-69080419D01*
X79930762Y-69080419D02*
X80121238Y-69080419D01*
X80121238Y-69080419D02*
X80216476Y-69032800D01*
X80216476Y-69032800D02*
X80264095Y-68985180D01*
X80264095Y-68985180D02*
X80311714Y-68889942D01*
X80311714Y-68889942D02*
X80311714Y-68651847D01*
X80311714Y-68651847D02*
X80264095Y-68556609D01*
X80264095Y-68556609D02*
X80216476Y-68508990D01*
X80216476Y-68508990D02*
X80121238Y-68461371D01*
X80121238Y-68461371D02*
X79930762Y-68461371D01*
X79930762Y-68461371D02*
X79835524Y-68508990D01*
X79835524Y-68508990D02*
X79787905Y-68556609D01*
X79787905Y-68556609D02*
X79740286Y-68651847D01*
X80883143Y-68508990D02*
X80787905Y-68461371D01*
X80787905Y-68461371D02*
X80740286Y-68413752D01*
X80740286Y-68413752D02*
X80692667Y-68318514D01*
X80692667Y-68318514D02*
X80692667Y-68270895D01*
X80692667Y-68270895D02*
X80740286Y-68175657D01*
X80740286Y-68175657D02*
X80787905Y-68128038D01*
X80787905Y-68128038D02*
X80883143Y-68080419D01*
X80883143Y-68080419D02*
X81073619Y-68080419D01*
X81073619Y-68080419D02*
X81168857Y-68128038D01*
X81168857Y-68128038D02*
X81216476Y-68175657D01*
X81216476Y-68175657D02*
X81264095Y-68270895D01*
X81264095Y-68270895D02*
X81264095Y-68318514D01*
X81264095Y-68318514D02*
X81216476Y-68413752D01*
X81216476Y-68413752D02*
X81168857Y-68461371D01*
X81168857Y-68461371D02*
X81073619Y-68508990D01*
X81073619Y-68508990D02*
X80883143Y-68508990D01*
X80883143Y-68508990D02*
X80787905Y-68556609D01*
X80787905Y-68556609D02*
X80740286Y-68604228D01*
X80740286Y-68604228D02*
X80692667Y-68699466D01*
X80692667Y-68699466D02*
X80692667Y-68889942D01*
X80692667Y-68889942D02*
X80740286Y-68985180D01*
X80740286Y-68985180D02*
X80787905Y-69032800D01*
X80787905Y-69032800D02*
X80883143Y-69080419D01*
X80883143Y-69080419D02*
X81073619Y-69080419D01*
X81073619Y-69080419D02*
X81168857Y-69032800D01*
X81168857Y-69032800D02*
X81216476Y-68985180D01*
X81216476Y-68985180D02*
X81264095Y-68889942D01*
X81264095Y-68889942D02*
X81264095Y-68699466D01*
X81264095Y-68699466D02*
X81216476Y-68604228D01*
X81216476Y-68604228D02*
X81168857Y-68556609D01*
X81168857Y-68556609D02*
X81073619Y-68508990D01*
X81883143Y-68080419D02*
X81978381Y-68080419D01*
X81978381Y-68080419D02*
X82073619Y-68128038D01*
X82073619Y-68128038D02*
X82121238Y-68175657D01*
X82121238Y-68175657D02*
X82168857Y-68270895D01*
X82168857Y-68270895D02*
X82216476Y-68461371D01*
X82216476Y-68461371D02*
X82216476Y-68699466D01*
X82216476Y-68699466D02*
X82168857Y-68889942D01*
X82168857Y-68889942D02*
X82121238Y-68985180D01*
X82121238Y-68985180D02*
X82073619Y-69032800D01*
X82073619Y-69032800D02*
X81978381Y-69080419D01*
X81978381Y-69080419D02*
X81883143Y-69080419D01*
X81883143Y-69080419D02*
X81787905Y-69032800D01*
X81787905Y-69032800D02*
X81740286Y-68985180D01*
X81740286Y-68985180D02*
X81692667Y-68889942D01*
X81692667Y-68889942D02*
X81645048Y-68699466D01*
X81645048Y-68699466D02*
X81645048Y-68461371D01*
X81645048Y-68461371D02*
X81692667Y-68270895D01*
X81692667Y-68270895D02*
X81740286Y-68175657D01*
X81740286Y-68175657D02*
X81787905Y-68128038D01*
X81787905Y-68128038D02*
X81883143Y-68080419D01*
X83406953Y-69080419D02*
X83406953Y-68413752D01*
X83406953Y-68508990D02*
X83454572Y-68461371D01*
X83454572Y-68461371D02*
X83549810Y-68413752D01*
X83549810Y-68413752D02*
X83692667Y-68413752D01*
X83692667Y-68413752D02*
X83787905Y-68461371D01*
X83787905Y-68461371D02*
X83835524Y-68556609D01*
X83835524Y-68556609D02*
X83835524Y-69080419D01*
X83835524Y-68556609D02*
X83883143Y-68461371D01*
X83883143Y-68461371D02*
X83978381Y-68413752D01*
X83978381Y-68413752D02*
X84121238Y-68413752D01*
X84121238Y-68413752D02*
X84216477Y-68461371D01*
X84216477Y-68461371D02*
X84264096Y-68556609D01*
X84264096Y-68556609D02*
X84264096Y-69080419D01*
X84740286Y-69080419D02*
X84740286Y-68413752D01*
X84740286Y-68508990D02*
X84787905Y-68461371D01*
X84787905Y-68461371D02*
X84883143Y-68413752D01*
X84883143Y-68413752D02*
X85026000Y-68413752D01*
X85026000Y-68413752D02*
X85121238Y-68461371D01*
X85121238Y-68461371D02*
X85168857Y-68556609D01*
X85168857Y-68556609D02*
X85168857Y-69080419D01*
X85168857Y-68556609D02*
X85216476Y-68461371D01*
X85216476Y-68461371D02*
X85311714Y-68413752D01*
X85311714Y-68413752D02*
X85454571Y-68413752D01*
X85454571Y-68413752D02*
X85549810Y-68461371D01*
X85549810Y-68461371D02*
X85597429Y-68556609D01*
X85597429Y-68556609D02*
X85597429Y-69080419D01*
X75692000Y-84209000D02*
X75692000Y-69136580D01*
X86360000Y-84209000D02*
X86360000Y-69136580D01*
X75692000Y-69723000D02*
X86360000Y-69723000D01*
X75692000Y-69723000D02*
X86360000Y-69723000D01*
X75692000Y-69723000D02*
X76818504Y-69136579D01*
X75692000Y-69723000D02*
X76818504Y-70309421D01*
X86360000Y-69723000D02*
X85233496Y-70309421D01*
X86360000Y-69723000D02*
X85233496Y-69136579D01*
D11*
X335702819Y-101782714D02*
X334702819Y-101782714D01*
X334702819Y-101782714D02*
X334702819Y-102020809D01*
X334702819Y-102020809D02*
X334750438Y-102163666D01*
X334750438Y-102163666D02*
X334845676Y-102258904D01*
X334845676Y-102258904D02*
X334940914Y-102306523D01*
X334940914Y-102306523D02*
X335131390Y-102354142D01*
X335131390Y-102354142D02*
X335274247Y-102354142D01*
X335274247Y-102354142D02*
X335464723Y-102306523D01*
X335464723Y-102306523D02*
X335559961Y-102258904D01*
X335559961Y-102258904D02*
X335655200Y-102163666D01*
X335655200Y-102163666D02*
X335702819Y-102020809D01*
X335702819Y-102020809D02*
X335702819Y-101782714D01*
X335702819Y-103306523D02*
X335702819Y-102735095D01*
X335702819Y-103020809D02*
X334702819Y-103020809D01*
X334702819Y-103020809D02*
X334845676Y-102925571D01*
X334845676Y-102925571D02*
X334940914Y-102830333D01*
X334940914Y-102830333D02*
X334988533Y-102735095D01*
X334702819Y-104211285D02*
X334702819Y-103735095D01*
X334702819Y-103735095D02*
X335179009Y-103687476D01*
X335179009Y-103687476D02*
X335131390Y-103735095D01*
X335131390Y-103735095D02*
X335083771Y-103830333D01*
X335083771Y-103830333D02*
X335083771Y-104068428D01*
X335083771Y-104068428D02*
X335131390Y-104163666D01*
X335131390Y-104163666D02*
X335179009Y-104211285D01*
X335179009Y-104211285D02*
X335274247Y-104258904D01*
X335274247Y-104258904D02*
X335512342Y-104258904D01*
X335512342Y-104258904D02*
X335607580Y-104211285D01*
X335607580Y-104211285D02*
X335655200Y-104163666D01*
X335655200Y-104163666D02*
X335702819Y-104068428D01*
X335702819Y-104068428D02*
X335702819Y-103830333D01*
X335702819Y-103830333D02*
X335655200Y-103735095D01*
X335655200Y-103735095D02*
X335607580Y-103687476D01*
X250104819Y-101782714D02*
X249104819Y-101782714D01*
X249104819Y-101782714D02*
X249104819Y-102020809D01*
X249104819Y-102020809D02*
X249152438Y-102163666D01*
X249152438Y-102163666D02*
X249247676Y-102258904D01*
X249247676Y-102258904D02*
X249342914Y-102306523D01*
X249342914Y-102306523D02*
X249533390Y-102354142D01*
X249533390Y-102354142D02*
X249676247Y-102354142D01*
X249676247Y-102354142D02*
X249866723Y-102306523D01*
X249866723Y-102306523D02*
X249961961Y-102258904D01*
X249961961Y-102258904D02*
X250057200Y-102163666D01*
X250057200Y-102163666D02*
X250104819Y-102020809D01*
X250104819Y-102020809D02*
X250104819Y-101782714D01*
X250104819Y-103306523D02*
X250104819Y-102735095D01*
X250104819Y-103020809D02*
X249104819Y-103020809D01*
X249104819Y-103020809D02*
X249247676Y-102925571D01*
X249247676Y-102925571D02*
X249342914Y-102830333D01*
X249342914Y-102830333D02*
X249390533Y-102735095D01*
X250104819Y-104258904D02*
X250104819Y-103687476D01*
X250104819Y-103973190D02*
X249104819Y-103973190D01*
X249104819Y-103973190D02*
X249247676Y-103877952D01*
X249247676Y-103877952D02*
X249342914Y-103782714D01*
X249342914Y-103782714D02*
X249390533Y-103687476D01*
X197399819Y-158932714D02*
X196399819Y-158932714D01*
X196399819Y-158932714D02*
X196399819Y-159170809D01*
X196399819Y-159170809D02*
X196447438Y-159313666D01*
X196447438Y-159313666D02*
X196542676Y-159408904D01*
X196542676Y-159408904D02*
X196637914Y-159456523D01*
X196637914Y-159456523D02*
X196828390Y-159504142D01*
X196828390Y-159504142D02*
X196971247Y-159504142D01*
X196971247Y-159504142D02*
X197161723Y-159456523D01*
X197161723Y-159456523D02*
X197256961Y-159408904D01*
X197256961Y-159408904D02*
X197352200Y-159313666D01*
X197352200Y-159313666D02*
X197399819Y-159170809D01*
X197399819Y-159170809D02*
X197399819Y-158932714D01*
X196399819Y-160408904D02*
X196399819Y-159932714D01*
X196399819Y-159932714D02*
X196876009Y-159885095D01*
X196876009Y-159885095D02*
X196828390Y-159932714D01*
X196828390Y-159932714D02*
X196780771Y-160027952D01*
X196780771Y-160027952D02*
X196780771Y-160266047D01*
X196780771Y-160266047D02*
X196828390Y-160361285D01*
X196828390Y-160361285D02*
X196876009Y-160408904D01*
X196876009Y-160408904D02*
X196971247Y-160456523D01*
X196971247Y-160456523D02*
X197209342Y-160456523D01*
X197209342Y-160456523D02*
X197304580Y-160408904D01*
X197304580Y-160408904D02*
X197352200Y-160361285D01*
X197352200Y-160361285D02*
X197399819Y-160266047D01*
X197399819Y-160266047D02*
X197399819Y-160027952D01*
X197399819Y-160027952D02*
X197352200Y-159932714D01*
X197352200Y-159932714D02*
X197304580Y-159885095D01*
X197399819Y-161408904D02*
X197399819Y-160837476D01*
X197399819Y-161123190D02*
X196399819Y-161123190D01*
X196399819Y-161123190D02*
X196542676Y-161027952D01*
X196542676Y-161027952D02*
X196637914Y-160932714D01*
X196637914Y-160932714D02*
X196685533Y-160837476D01*
X80305819Y-158932714D02*
X79305819Y-158932714D01*
X79305819Y-158932714D02*
X79305819Y-159170809D01*
X79305819Y-159170809D02*
X79353438Y-159313666D01*
X79353438Y-159313666D02*
X79448676Y-159408904D01*
X79448676Y-159408904D02*
X79543914Y-159456523D01*
X79543914Y-159456523D02*
X79734390Y-159504142D01*
X79734390Y-159504142D02*
X79877247Y-159504142D01*
X79877247Y-159504142D02*
X80067723Y-159456523D01*
X80067723Y-159456523D02*
X80162961Y-159408904D01*
X80162961Y-159408904D02*
X80258200Y-159313666D01*
X80258200Y-159313666D02*
X80305819Y-159170809D01*
X80305819Y-159170809D02*
X80305819Y-158932714D01*
X79639152Y-160361285D02*
X80305819Y-160361285D01*
X79258200Y-160123190D02*
X79972485Y-159885095D01*
X79972485Y-159885095D02*
X79972485Y-160504142D01*
X79305819Y-161361285D02*
X79305819Y-160885095D01*
X79305819Y-160885095D02*
X79782009Y-160837476D01*
X79782009Y-160837476D02*
X79734390Y-160885095D01*
X79734390Y-160885095D02*
X79686771Y-160980333D01*
X79686771Y-160980333D02*
X79686771Y-161218428D01*
X79686771Y-161218428D02*
X79734390Y-161313666D01*
X79734390Y-161313666D02*
X79782009Y-161361285D01*
X79782009Y-161361285D02*
X79877247Y-161408904D01*
X79877247Y-161408904D02*
X80115342Y-161408904D01*
X80115342Y-161408904D02*
X80210580Y-161361285D01*
X80210580Y-161361285D02*
X80258200Y-161313666D01*
X80258200Y-161313666D02*
X80305819Y-161218428D01*
X80305819Y-161218428D02*
X80305819Y-160980333D01*
X80305819Y-160980333D02*
X80258200Y-160885095D01*
X80258200Y-160885095D02*
X80210580Y-160837476D01*
X96815819Y-102259905D02*
X95815819Y-102259905D01*
X95815819Y-102259905D02*
X95815819Y-102498000D01*
X95815819Y-102498000D02*
X95863438Y-102640857D01*
X95863438Y-102640857D02*
X95958676Y-102736095D01*
X95958676Y-102736095D02*
X96053914Y-102783714D01*
X96053914Y-102783714D02*
X96244390Y-102831333D01*
X96244390Y-102831333D02*
X96387247Y-102831333D01*
X96387247Y-102831333D02*
X96577723Y-102783714D01*
X96577723Y-102783714D02*
X96672961Y-102736095D01*
X96672961Y-102736095D02*
X96768200Y-102640857D01*
X96768200Y-102640857D02*
X96815819Y-102498000D01*
X96815819Y-102498000D02*
X96815819Y-102259905D01*
X95815819Y-103164667D02*
X95815819Y-103783714D01*
X95815819Y-103783714D02*
X96196771Y-103450381D01*
X96196771Y-103450381D02*
X96196771Y-103593238D01*
X96196771Y-103593238D02*
X96244390Y-103688476D01*
X96244390Y-103688476D02*
X96292009Y-103736095D01*
X96292009Y-103736095D02*
X96387247Y-103783714D01*
X96387247Y-103783714D02*
X96625342Y-103783714D01*
X96625342Y-103783714D02*
X96720580Y-103736095D01*
X96720580Y-103736095D02*
X96768200Y-103688476D01*
X96768200Y-103688476D02*
X96815819Y-103593238D01*
X96815819Y-103593238D02*
X96815819Y-103307524D01*
X96815819Y-103307524D02*
X96768200Y-103212286D01*
X96768200Y-103212286D02*
X96720580Y-103164667D01*
X231054819Y-101782714D02*
X230054819Y-101782714D01*
X230054819Y-101782714D02*
X230054819Y-102020809D01*
X230054819Y-102020809D02*
X230102438Y-102163666D01*
X230102438Y-102163666D02*
X230197676Y-102258904D01*
X230197676Y-102258904D02*
X230292914Y-102306523D01*
X230292914Y-102306523D02*
X230483390Y-102354142D01*
X230483390Y-102354142D02*
X230626247Y-102354142D01*
X230626247Y-102354142D02*
X230816723Y-102306523D01*
X230816723Y-102306523D02*
X230911961Y-102258904D01*
X230911961Y-102258904D02*
X231007200Y-102163666D01*
X231007200Y-102163666D02*
X231054819Y-102020809D01*
X231054819Y-102020809D02*
X231054819Y-101782714D01*
X231054819Y-103306523D02*
X231054819Y-102735095D01*
X231054819Y-103020809D02*
X230054819Y-103020809D01*
X230054819Y-103020809D02*
X230197676Y-102925571D01*
X230197676Y-102925571D02*
X230292914Y-102830333D01*
X230292914Y-102830333D02*
X230340533Y-102735095D01*
X230054819Y-103925571D02*
X230054819Y-104020809D01*
X230054819Y-104020809D02*
X230102438Y-104116047D01*
X230102438Y-104116047D02*
X230150057Y-104163666D01*
X230150057Y-104163666D02*
X230245295Y-104211285D01*
X230245295Y-104211285D02*
X230435771Y-104258904D01*
X230435771Y-104258904D02*
X230673866Y-104258904D01*
X230673866Y-104258904D02*
X230864342Y-104211285D01*
X230864342Y-104211285D02*
X230959580Y-104163666D01*
X230959580Y-104163666D02*
X231007200Y-104116047D01*
X231007200Y-104116047D02*
X231054819Y-104020809D01*
X231054819Y-104020809D02*
X231054819Y-103925571D01*
X231054819Y-103925571D02*
X231007200Y-103830333D01*
X231007200Y-103830333D02*
X230959580Y-103782714D01*
X230959580Y-103782714D02*
X230864342Y-103735095D01*
X230864342Y-103735095D02*
X230673866Y-103687476D01*
X230673866Y-103687476D02*
X230435771Y-103687476D01*
X230435771Y-103687476D02*
X230245295Y-103735095D01*
X230245295Y-103735095D02*
X230150057Y-103782714D01*
X230150057Y-103782714D02*
X230102438Y-103830333D01*
X230102438Y-103830333D02*
X230054819Y-103925571D01*
X364150819Y-139882714D02*
X363150819Y-139882714D01*
X363150819Y-139882714D02*
X363150819Y-140120809D01*
X363150819Y-140120809D02*
X363198438Y-140263666D01*
X363198438Y-140263666D02*
X363293676Y-140358904D01*
X363293676Y-140358904D02*
X363388914Y-140406523D01*
X363388914Y-140406523D02*
X363579390Y-140454142D01*
X363579390Y-140454142D02*
X363722247Y-140454142D01*
X363722247Y-140454142D02*
X363912723Y-140406523D01*
X363912723Y-140406523D02*
X364007961Y-140358904D01*
X364007961Y-140358904D02*
X364103200Y-140263666D01*
X364103200Y-140263666D02*
X364150819Y-140120809D01*
X364150819Y-140120809D02*
X364150819Y-139882714D01*
X363484152Y-141311285D02*
X364150819Y-141311285D01*
X363103200Y-141073190D02*
X363817485Y-140835095D01*
X363817485Y-140835095D02*
X363817485Y-141454142D01*
X363484152Y-142263666D02*
X364150819Y-142263666D01*
X363103200Y-142025571D02*
X363817485Y-141787476D01*
X363817485Y-141787476D02*
X363817485Y-142406523D01*
X244770819Y-139882714D02*
X243770819Y-139882714D01*
X243770819Y-139882714D02*
X243770819Y-140120809D01*
X243770819Y-140120809D02*
X243818438Y-140263666D01*
X243818438Y-140263666D02*
X243913676Y-140358904D01*
X243913676Y-140358904D02*
X244008914Y-140406523D01*
X244008914Y-140406523D02*
X244199390Y-140454142D01*
X244199390Y-140454142D02*
X244342247Y-140454142D01*
X244342247Y-140454142D02*
X244532723Y-140406523D01*
X244532723Y-140406523D02*
X244627961Y-140358904D01*
X244627961Y-140358904D02*
X244723200Y-140263666D01*
X244723200Y-140263666D02*
X244770819Y-140120809D01*
X244770819Y-140120809D02*
X244770819Y-139882714D01*
X243770819Y-140787476D02*
X243770819Y-141406523D01*
X243770819Y-141406523D02*
X244151771Y-141073190D01*
X244151771Y-141073190D02*
X244151771Y-141216047D01*
X244151771Y-141216047D02*
X244199390Y-141311285D01*
X244199390Y-141311285D02*
X244247009Y-141358904D01*
X244247009Y-141358904D02*
X244342247Y-141406523D01*
X244342247Y-141406523D02*
X244580342Y-141406523D01*
X244580342Y-141406523D02*
X244675580Y-141358904D01*
X244675580Y-141358904D02*
X244723200Y-141311285D01*
X244723200Y-141311285D02*
X244770819Y-141216047D01*
X244770819Y-141216047D02*
X244770819Y-140930333D01*
X244770819Y-140930333D02*
X244723200Y-140835095D01*
X244723200Y-140835095D02*
X244675580Y-140787476D01*
X244199390Y-141977952D02*
X244151771Y-141882714D01*
X244151771Y-141882714D02*
X244104152Y-141835095D01*
X244104152Y-141835095D02*
X244008914Y-141787476D01*
X244008914Y-141787476D02*
X243961295Y-141787476D01*
X243961295Y-141787476D02*
X243866057Y-141835095D01*
X243866057Y-141835095D02*
X243818438Y-141882714D01*
X243818438Y-141882714D02*
X243770819Y-141977952D01*
X243770819Y-141977952D02*
X243770819Y-142168428D01*
X243770819Y-142168428D02*
X243818438Y-142263666D01*
X243818438Y-142263666D02*
X243866057Y-142311285D01*
X243866057Y-142311285D02*
X243961295Y-142358904D01*
X243961295Y-142358904D02*
X244008914Y-142358904D01*
X244008914Y-142358904D02*
X244104152Y-142311285D01*
X244104152Y-142311285D02*
X244151771Y-142263666D01*
X244151771Y-142263666D02*
X244199390Y-142168428D01*
X244199390Y-142168428D02*
X244199390Y-141977952D01*
X244199390Y-141977952D02*
X244247009Y-141882714D01*
X244247009Y-141882714D02*
X244294628Y-141835095D01*
X244294628Y-141835095D02*
X244389866Y-141787476D01*
X244389866Y-141787476D02*
X244580342Y-141787476D01*
X244580342Y-141787476D02*
X244675580Y-141835095D01*
X244675580Y-141835095D02*
X244723200Y-141882714D01*
X244723200Y-141882714D02*
X244770819Y-141977952D01*
X244770819Y-141977952D02*
X244770819Y-142168428D01*
X244770819Y-142168428D02*
X244723200Y-142263666D01*
X244723200Y-142263666D02*
X244675580Y-142311285D01*
X244675580Y-142311285D02*
X244580342Y-142358904D01*
X244580342Y-142358904D02*
X244389866Y-142358904D01*
X244389866Y-142358904D02*
X244294628Y-142311285D01*
X244294628Y-142311285D02*
X244247009Y-142263666D01*
X244247009Y-142263666D02*
X244199390Y-142168428D01*
X302301819Y-139882714D02*
X301301819Y-139882714D01*
X301301819Y-139882714D02*
X301301819Y-140120809D01*
X301301819Y-140120809D02*
X301349438Y-140263666D01*
X301349438Y-140263666D02*
X301444676Y-140358904D01*
X301444676Y-140358904D02*
X301539914Y-140406523D01*
X301539914Y-140406523D02*
X301730390Y-140454142D01*
X301730390Y-140454142D02*
X301873247Y-140454142D01*
X301873247Y-140454142D02*
X302063723Y-140406523D01*
X302063723Y-140406523D02*
X302158961Y-140358904D01*
X302158961Y-140358904D02*
X302254200Y-140263666D01*
X302254200Y-140263666D02*
X302301819Y-140120809D01*
X302301819Y-140120809D02*
X302301819Y-139882714D01*
X301635152Y-141311285D02*
X302301819Y-141311285D01*
X301254200Y-141073190D02*
X301968485Y-140835095D01*
X301968485Y-140835095D02*
X301968485Y-141454142D01*
X302301819Y-142358904D02*
X302301819Y-141787476D01*
X302301819Y-142073190D02*
X301301819Y-142073190D01*
X301301819Y-142073190D02*
X301444676Y-141977952D01*
X301444676Y-141977952D02*
X301539914Y-141882714D01*
X301539914Y-141882714D02*
X301587533Y-141787476D01*
X364023819Y-177982714D02*
X363023819Y-177982714D01*
X363023819Y-177982714D02*
X363023819Y-178220809D01*
X363023819Y-178220809D02*
X363071438Y-178363666D01*
X363071438Y-178363666D02*
X363166676Y-178458904D01*
X363166676Y-178458904D02*
X363261914Y-178506523D01*
X363261914Y-178506523D02*
X363452390Y-178554142D01*
X363452390Y-178554142D02*
X363595247Y-178554142D01*
X363595247Y-178554142D02*
X363785723Y-178506523D01*
X363785723Y-178506523D02*
X363880961Y-178458904D01*
X363880961Y-178458904D02*
X363976200Y-178363666D01*
X363976200Y-178363666D02*
X364023819Y-178220809D01*
X364023819Y-178220809D02*
X364023819Y-177982714D01*
X363023819Y-179411285D02*
X363023819Y-179220809D01*
X363023819Y-179220809D02*
X363071438Y-179125571D01*
X363071438Y-179125571D02*
X363119057Y-179077952D01*
X363119057Y-179077952D02*
X363261914Y-178982714D01*
X363261914Y-178982714D02*
X363452390Y-178935095D01*
X363452390Y-178935095D02*
X363833342Y-178935095D01*
X363833342Y-178935095D02*
X363928580Y-178982714D01*
X363928580Y-178982714D02*
X363976200Y-179030333D01*
X363976200Y-179030333D02*
X364023819Y-179125571D01*
X364023819Y-179125571D02*
X364023819Y-179316047D01*
X364023819Y-179316047D02*
X363976200Y-179411285D01*
X363976200Y-179411285D02*
X363928580Y-179458904D01*
X363928580Y-179458904D02*
X363833342Y-179506523D01*
X363833342Y-179506523D02*
X363595247Y-179506523D01*
X363595247Y-179506523D02*
X363500009Y-179458904D01*
X363500009Y-179458904D02*
X363452390Y-179411285D01*
X363452390Y-179411285D02*
X363404771Y-179316047D01*
X363404771Y-179316047D02*
X363404771Y-179125571D01*
X363404771Y-179125571D02*
X363452390Y-179030333D01*
X363452390Y-179030333D02*
X363500009Y-178982714D01*
X363500009Y-178982714D02*
X363595247Y-178935095D01*
X364023819Y-179982714D02*
X364023819Y-180173190D01*
X364023819Y-180173190D02*
X363976200Y-180268428D01*
X363976200Y-180268428D02*
X363928580Y-180316047D01*
X363928580Y-180316047D02*
X363785723Y-180411285D01*
X363785723Y-180411285D02*
X363595247Y-180458904D01*
X363595247Y-180458904D02*
X363214295Y-180458904D01*
X363214295Y-180458904D02*
X363119057Y-180411285D01*
X363119057Y-180411285D02*
X363071438Y-180363666D01*
X363071438Y-180363666D02*
X363023819Y-180268428D01*
X363023819Y-180268428D02*
X363023819Y-180077952D01*
X363023819Y-180077952D02*
X363071438Y-179982714D01*
X363071438Y-179982714D02*
X363119057Y-179935095D01*
X363119057Y-179935095D02*
X363214295Y-179887476D01*
X363214295Y-179887476D02*
X363452390Y-179887476D01*
X363452390Y-179887476D02*
X363547628Y-179935095D01*
X363547628Y-179935095D02*
X363595247Y-179982714D01*
X363595247Y-179982714D02*
X363642866Y-180077952D01*
X363642866Y-180077952D02*
X363642866Y-180268428D01*
X363642866Y-180268428D02*
X363595247Y-180363666D01*
X363595247Y-180363666D02*
X363547628Y-180411285D01*
X363547628Y-180411285D02*
X363452390Y-180458904D01*
X332845819Y-119308714D02*
X331845819Y-119308714D01*
X331845819Y-119308714D02*
X331845819Y-119546809D01*
X331845819Y-119546809D02*
X331893438Y-119689666D01*
X331893438Y-119689666D02*
X331988676Y-119784904D01*
X331988676Y-119784904D02*
X332083914Y-119832523D01*
X332083914Y-119832523D02*
X332274390Y-119880142D01*
X332274390Y-119880142D02*
X332417247Y-119880142D01*
X332417247Y-119880142D02*
X332607723Y-119832523D01*
X332607723Y-119832523D02*
X332702961Y-119784904D01*
X332702961Y-119784904D02*
X332798200Y-119689666D01*
X332798200Y-119689666D02*
X332845819Y-119546809D01*
X332845819Y-119546809D02*
X332845819Y-119308714D01*
X332179152Y-120737285D02*
X332845819Y-120737285D01*
X331798200Y-120499190D02*
X332512485Y-120261095D01*
X332512485Y-120261095D02*
X332512485Y-120880142D01*
X331845819Y-121165857D02*
X331845819Y-121784904D01*
X331845819Y-121784904D02*
X332226771Y-121451571D01*
X332226771Y-121451571D02*
X332226771Y-121594428D01*
X332226771Y-121594428D02*
X332274390Y-121689666D01*
X332274390Y-121689666D02*
X332322009Y-121737285D01*
X332322009Y-121737285D02*
X332417247Y-121784904D01*
X332417247Y-121784904D02*
X332655342Y-121784904D01*
X332655342Y-121784904D02*
X332750580Y-121737285D01*
X332750580Y-121737285D02*
X332798200Y-121689666D01*
X332798200Y-121689666D02*
X332845819Y-121594428D01*
X332845819Y-121594428D02*
X332845819Y-121308714D01*
X332845819Y-121308714D02*
X332798200Y-121213476D01*
X332798200Y-121213476D02*
X332750580Y-121165857D01*
X287950819Y-177982714D02*
X286950819Y-177982714D01*
X286950819Y-177982714D02*
X286950819Y-178220809D01*
X286950819Y-178220809D02*
X286998438Y-178363666D01*
X286998438Y-178363666D02*
X287093676Y-178458904D01*
X287093676Y-178458904D02*
X287188914Y-178506523D01*
X287188914Y-178506523D02*
X287379390Y-178554142D01*
X287379390Y-178554142D02*
X287522247Y-178554142D01*
X287522247Y-178554142D02*
X287712723Y-178506523D01*
X287712723Y-178506523D02*
X287807961Y-178458904D01*
X287807961Y-178458904D02*
X287903200Y-178363666D01*
X287903200Y-178363666D02*
X287950819Y-178220809D01*
X287950819Y-178220809D02*
X287950819Y-177982714D01*
X286950819Y-179411285D02*
X286950819Y-179220809D01*
X286950819Y-179220809D02*
X286998438Y-179125571D01*
X286998438Y-179125571D02*
X287046057Y-179077952D01*
X287046057Y-179077952D02*
X287188914Y-178982714D01*
X287188914Y-178982714D02*
X287379390Y-178935095D01*
X287379390Y-178935095D02*
X287760342Y-178935095D01*
X287760342Y-178935095D02*
X287855580Y-178982714D01*
X287855580Y-178982714D02*
X287903200Y-179030333D01*
X287903200Y-179030333D02*
X287950819Y-179125571D01*
X287950819Y-179125571D02*
X287950819Y-179316047D01*
X287950819Y-179316047D02*
X287903200Y-179411285D01*
X287903200Y-179411285D02*
X287855580Y-179458904D01*
X287855580Y-179458904D02*
X287760342Y-179506523D01*
X287760342Y-179506523D02*
X287522247Y-179506523D01*
X287522247Y-179506523D02*
X287427009Y-179458904D01*
X287427009Y-179458904D02*
X287379390Y-179411285D01*
X287379390Y-179411285D02*
X287331771Y-179316047D01*
X287331771Y-179316047D02*
X287331771Y-179125571D01*
X287331771Y-179125571D02*
X287379390Y-179030333D01*
X287379390Y-179030333D02*
X287427009Y-178982714D01*
X287427009Y-178982714D02*
X287522247Y-178935095D01*
X286950819Y-180411285D02*
X286950819Y-179935095D01*
X286950819Y-179935095D02*
X287427009Y-179887476D01*
X287427009Y-179887476D02*
X287379390Y-179935095D01*
X287379390Y-179935095D02*
X287331771Y-180030333D01*
X287331771Y-180030333D02*
X287331771Y-180268428D01*
X287331771Y-180268428D02*
X287379390Y-180363666D01*
X287379390Y-180363666D02*
X287427009Y-180411285D01*
X287427009Y-180411285D02*
X287522247Y-180458904D01*
X287522247Y-180458904D02*
X287760342Y-180458904D01*
X287760342Y-180458904D02*
X287855580Y-180411285D01*
X287855580Y-180411285D02*
X287903200Y-180363666D01*
X287903200Y-180363666D02*
X287950819Y-180268428D01*
X287950819Y-180268428D02*
X287950819Y-180030333D01*
X287950819Y-180030333D02*
X287903200Y-179935095D01*
X287903200Y-179935095D02*
X287855580Y-179887476D01*
X104943819Y-177982714D02*
X103943819Y-177982714D01*
X103943819Y-177982714D02*
X103943819Y-178220809D01*
X103943819Y-178220809D02*
X103991438Y-178363666D01*
X103991438Y-178363666D02*
X104086676Y-178458904D01*
X104086676Y-178458904D02*
X104181914Y-178506523D01*
X104181914Y-178506523D02*
X104372390Y-178554142D01*
X104372390Y-178554142D02*
X104515247Y-178554142D01*
X104515247Y-178554142D02*
X104705723Y-178506523D01*
X104705723Y-178506523D02*
X104800961Y-178458904D01*
X104800961Y-178458904D02*
X104896200Y-178363666D01*
X104896200Y-178363666D02*
X104943819Y-178220809D01*
X104943819Y-178220809D02*
X104943819Y-177982714D01*
X103943819Y-179411285D02*
X103943819Y-179220809D01*
X103943819Y-179220809D02*
X103991438Y-179125571D01*
X103991438Y-179125571D02*
X104039057Y-179077952D01*
X104039057Y-179077952D02*
X104181914Y-178982714D01*
X104181914Y-178982714D02*
X104372390Y-178935095D01*
X104372390Y-178935095D02*
X104753342Y-178935095D01*
X104753342Y-178935095D02*
X104848580Y-178982714D01*
X104848580Y-178982714D02*
X104896200Y-179030333D01*
X104896200Y-179030333D02*
X104943819Y-179125571D01*
X104943819Y-179125571D02*
X104943819Y-179316047D01*
X104943819Y-179316047D02*
X104896200Y-179411285D01*
X104896200Y-179411285D02*
X104848580Y-179458904D01*
X104848580Y-179458904D02*
X104753342Y-179506523D01*
X104753342Y-179506523D02*
X104515247Y-179506523D01*
X104515247Y-179506523D02*
X104420009Y-179458904D01*
X104420009Y-179458904D02*
X104372390Y-179411285D01*
X104372390Y-179411285D02*
X104324771Y-179316047D01*
X104324771Y-179316047D02*
X104324771Y-179125571D01*
X104324771Y-179125571D02*
X104372390Y-179030333D01*
X104372390Y-179030333D02*
X104420009Y-178982714D01*
X104420009Y-178982714D02*
X104515247Y-178935095D01*
X104943819Y-180458904D02*
X104943819Y-179887476D01*
X104943819Y-180173190D02*
X103943819Y-180173190D01*
X103943819Y-180173190D02*
X104086676Y-180077952D01*
X104086676Y-180077952D02*
X104181914Y-179982714D01*
X104181914Y-179982714D02*
X104229533Y-179887476D01*
X80305819Y-177855714D02*
X79305819Y-177855714D01*
X79305819Y-177855714D02*
X79305819Y-178093809D01*
X79305819Y-178093809D02*
X79353438Y-178236666D01*
X79353438Y-178236666D02*
X79448676Y-178331904D01*
X79448676Y-178331904D02*
X79543914Y-178379523D01*
X79543914Y-178379523D02*
X79734390Y-178427142D01*
X79734390Y-178427142D02*
X79877247Y-178427142D01*
X79877247Y-178427142D02*
X80067723Y-178379523D01*
X80067723Y-178379523D02*
X80162961Y-178331904D01*
X80162961Y-178331904D02*
X80258200Y-178236666D01*
X80258200Y-178236666D02*
X80305819Y-178093809D01*
X80305819Y-178093809D02*
X80305819Y-177855714D01*
X79305819Y-179284285D02*
X79305819Y-179093809D01*
X79305819Y-179093809D02*
X79353438Y-178998571D01*
X79353438Y-178998571D02*
X79401057Y-178950952D01*
X79401057Y-178950952D02*
X79543914Y-178855714D01*
X79543914Y-178855714D02*
X79734390Y-178808095D01*
X79734390Y-178808095D02*
X80115342Y-178808095D01*
X80115342Y-178808095D02*
X80210580Y-178855714D01*
X80210580Y-178855714D02*
X80258200Y-178903333D01*
X80258200Y-178903333D02*
X80305819Y-178998571D01*
X80305819Y-178998571D02*
X80305819Y-179189047D01*
X80305819Y-179189047D02*
X80258200Y-179284285D01*
X80258200Y-179284285D02*
X80210580Y-179331904D01*
X80210580Y-179331904D02*
X80115342Y-179379523D01*
X80115342Y-179379523D02*
X79877247Y-179379523D01*
X79877247Y-179379523D02*
X79782009Y-179331904D01*
X79782009Y-179331904D02*
X79734390Y-179284285D01*
X79734390Y-179284285D02*
X79686771Y-179189047D01*
X79686771Y-179189047D02*
X79686771Y-178998571D01*
X79686771Y-178998571D02*
X79734390Y-178903333D01*
X79734390Y-178903333D02*
X79782009Y-178855714D01*
X79782009Y-178855714D02*
X79877247Y-178808095D01*
X79305819Y-179998571D02*
X79305819Y-180093809D01*
X79305819Y-180093809D02*
X79353438Y-180189047D01*
X79353438Y-180189047D02*
X79401057Y-180236666D01*
X79401057Y-180236666D02*
X79496295Y-180284285D01*
X79496295Y-180284285D02*
X79686771Y-180331904D01*
X79686771Y-180331904D02*
X79924866Y-180331904D01*
X79924866Y-180331904D02*
X80115342Y-180284285D01*
X80115342Y-180284285D02*
X80210580Y-180236666D01*
X80210580Y-180236666D02*
X80258200Y-180189047D01*
X80258200Y-180189047D02*
X80305819Y-180093809D01*
X80305819Y-180093809D02*
X80305819Y-179998571D01*
X80305819Y-179998571D02*
X80258200Y-179903333D01*
X80258200Y-179903333D02*
X80210580Y-179855714D01*
X80210580Y-179855714D02*
X80115342Y-179808095D01*
X80115342Y-179808095D02*
X79924866Y-179760476D01*
X79924866Y-179760476D02*
X79686771Y-179760476D01*
X79686771Y-179760476D02*
X79496295Y-179808095D01*
X79496295Y-179808095D02*
X79401057Y-179855714D01*
X79401057Y-179855714D02*
X79353438Y-179903333D01*
X79353438Y-179903333D02*
X79305819Y-179998571D01*
X207051819Y-139882714D02*
X206051819Y-139882714D01*
X206051819Y-139882714D02*
X206051819Y-140120809D01*
X206051819Y-140120809D02*
X206099438Y-140263666D01*
X206099438Y-140263666D02*
X206194676Y-140358904D01*
X206194676Y-140358904D02*
X206289914Y-140406523D01*
X206289914Y-140406523D02*
X206480390Y-140454142D01*
X206480390Y-140454142D02*
X206623247Y-140454142D01*
X206623247Y-140454142D02*
X206813723Y-140406523D01*
X206813723Y-140406523D02*
X206908961Y-140358904D01*
X206908961Y-140358904D02*
X207004200Y-140263666D01*
X207004200Y-140263666D02*
X207051819Y-140120809D01*
X207051819Y-140120809D02*
X207051819Y-139882714D01*
X206051819Y-140787476D02*
X206051819Y-141406523D01*
X206051819Y-141406523D02*
X206432771Y-141073190D01*
X206432771Y-141073190D02*
X206432771Y-141216047D01*
X206432771Y-141216047D02*
X206480390Y-141311285D01*
X206480390Y-141311285D02*
X206528009Y-141358904D01*
X206528009Y-141358904D02*
X206623247Y-141406523D01*
X206623247Y-141406523D02*
X206861342Y-141406523D01*
X206861342Y-141406523D02*
X206956580Y-141358904D01*
X206956580Y-141358904D02*
X207004200Y-141311285D01*
X207004200Y-141311285D02*
X207051819Y-141216047D01*
X207051819Y-141216047D02*
X207051819Y-140930333D01*
X207051819Y-140930333D02*
X207004200Y-140835095D01*
X207004200Y-140835095D02*
X206956580Y-140787476D01*
X206051819Y-142263666D02*
X206051819Y-142073190D01*
X206051819Y-142073190D02*
X206099438Y-141977952D01*
X206099438Y-141977952D02*
X206147057Y-141930333D01*
X206147057Y-141930333D02*
X206289914Y-141835095D01*
X206289914Y-141835095D02*
X206480390Y-141787476D01*
X206480390Y-141787476D02*
X206861342Y-141787476D01*
X206861342Y-141787476D02*
X206956580Y-141835095D01*
X206956580Y-141835095D02*
X207004200Y-141882714D01*
X207004200Y-141882714D02*
X207051819Y-141977952D01*
X207051819Y-141977952D02*
X207051819Y-142168428D01*
X207051819Y-142168428D02*
X207004200Y-142263666D01*
X207004200Y-142263666D02*
X206956580Y-142311285D01*
X206956580Y-142311285D02*
X206861342Y-142358904D01*
X206861342Y-142358904D02*
X206623247Y-142358904D01*
X206623247Y-142358904D02*
X206528009Y-142311285D01*
X206528009Y-142311285D02*
X206480390Y-142263666D01*
X206480390Y-142263666D02*
X206432771Y-142168428D01*
X206432771Y-142168428D02*
X206432771Y-141977952D01*
X206432771Y-141977952D02*
X206480390Y-141882714D01*
X206480390Y-141882714D02*
X206528009Y-141835095D01*
X206528009Y-141835095D02*
X206623247Y-141787476D01*
X235954766Y-178765580D02*
X236002385Y-178813200D01*
X236002385Y-178813200D02*
X236145242Y-178860819D01*
X236145242Y-178860819D02*
X236240480Y-178860819D01*
X236240480Y-178860819D02*
X236383337Y-178813200D01*
X236383337Y-178813200D02*
X236478575Y-178717961D01*
X236478575Y-178717961D02*
X236526194Y-178622723D01*
X236526194Y-178622723D02*
X236573813Y-178432247D01*
X236573813Y-178432247D02*
X236573813Y-178289390D01*
X236573813Y-178289390D02*
X236526194Y-178098914D01*
X236526194Y-178098914D02*
X236478575Y-178003676D01*
X236478575Y-178003676D02*
X236383337Y-177908438D01*
X236383337Y-177908438D02*
X236240480Y-177860819D01*
X236240480Y-177860819D02*
X236145242Y-177860819D01*
X236145242Y-177860819D02*
X236002385Y-177908438D01*
X236002385Y-177908438D02*
X235954766Y-177956057D01*
X235621432Y-177860819D02*
X235002385Y-177860819D01*
X235002385Y-177860819D02*
X235335718Y-178241771D01*
X235335718Y-178241771D02*
X235192861Y-178241771D01*
X235192861Y-178241771D02*
X235097623Y-178289390D01*
X235097623Y-178289390D02*
X235050004Y-178337009D01*
X235050004Y-178337009D02*
X235002385Y-178432247D01*
X235002385Y-178432247D02*
X235002385Y-178670342D01*
X235002385Y-178670342D02*
X235050004Y-178765580D01*
X235050004Y-178765580D02*
X235097623Y-178813200D01*
X235097623Y-178813200D02*
X235192861Y-178860819D01*
X235192861Y-178860819D02*
X235478575Y-178860819D01*
X235478575Y-178860819D02*
X235573813Y-178813200D01*
X235573813Y-178813200D02*
X235621432Y-178765580D01*
X121199819Y-158932714D02*
X120199819Y-158932714D01*
X120199819Y-158932714D02*
X120199819Y-159170809D01*
X120199819Y-159170809D02*
X120247438Y-159313666D01*
X120247438Y-159313666D02*
X120342676Y-159408904D01*
X120342676Y-159408904D02*
X120437914Y-159456523D01*
X120437914Y-159456523D02*
X120628390Y-159504142D01*
X120628390Y-159504142D02*
X120771247Y-159504142D01*
X120771247Y-159504142D02*
X120961723Y-159456523D01*
X120961723Y-159456523D02*
X121056961Y-159408904D01*
X121056961Y-159408904D02*
X121152200Y-159313666D01*
X121152200Y-159313666D02*
X121199819Y-159170809D01*
X121199819Y-159170809D02*
X121199819Y-158932714D01*
X120533152Y-160361285D02*
X121199819Y-160361285D01*
X120152200Y-160123190D02*
X120866485Y-159885095D01*
X120866485Y-159885095D02*
X120866485Y-160504142D01*
X120199819Y-160789857D02*
X120199819Y-161456523D01*
X120199819Y-161456523D02*
X121199819Y-161027952D01*
X158918819Y-159059714D02*
X157918819Y-159059714D01*
X157918819Y-159059714D02*
X157918819Y-159297809D01*
X157918819Y-159297809D02*
X157966438Y-159440666D01*
X157966438Y-159440666D02*
X158061676Y-159535904D01*
X158061676Y-159535904D02*
X158156914Y-159583523D01*
X158156914Y-159583523D02*
X158347390Y-159631142D01*
X158347390Y-159631142D02*
X158490247Y-159631142D01*
X158490247Y-159631142D02*
X158680723Y-159583523D01*
X158680723Y-159583523D02*
X158775961Y-159535904D01*
X158775961Y-159535904D02*
X158871200Y-159440666D01*
X158871200Y-159440666D02*
X158918819Y-159297809D01*
X158918819Y-159297809D02*
X158918819Y-159059714D01*
X158252152Y-160488285D02*
X158918819Y-160488285D01*
X157871200Y-160250190D02*
X158585485Y-160012095D01*
X158585485Y-160012095D02*
X158585485Y-160631142D01*
X158918819Y-161059714D02*
X158918819Y-161250190D01*
X158918819Y-161250190D02*
X158871200Y-161345428D01*
X158871200Y-161345428D02*
X158823580Y-161393047D01*
X158823580Y-161393047D02*
X158680723Y-161488285D01*
X158680723Y-161488285D02*
X158490247Y-161535904D01*
X158490247Y-161535904D02*
X158109295Y-161535904D01*
X158109295Y-161535904D02*
X158014057Y-161488285D01*
X158014057Y-161488285D02*
X157966438Y-161440666D01*
X157966438Y-161440666D02*
X157918819Y-161345428D01*
X157918819Y-161345428D02*
X157918819Y-161154952D01*
X157918819Y-161154952D02*
X157966438Y-161059714D01*
X157966438Y-161059714D02*
X158014057Y-161012095D01*
X158014057Y-161012095D02*
X158109295Y-160964476D01*
X158109295Y-160964476D02*
X158347390Y-160964476D01*
X158347390Y-160964476D02*
X158442628Y-161012095D01*
X158442628Y-161012095D02*
X158490247Y-161059714D01*
X158490247Y-161059714D02*
X158537866Y-161154952D01*
X158537866Y-161154952D02*
X158537866Y-161345428D01*
X158537866Y-161345428D02*
X158490247Y-161440666D01*
X158490247Y-161440666D02*
X158442628Y-161488285D01*
X158442628Y-161488285D02*
X158347390Y-161535904D01*
X168951819Y-139882714D02*
X167951819Y-139882714D01*
X167951819Y-139882714D02*
X167951819Y-140120809D01*
X167951819Y-140120809D02*
X167999438Y-140263666D01*
X167999438Y-140263666D02*
X168094676Y-140358904D01*
X168094676Y-140358904D02*
X168189914Y-140406523D01*
X168189914Y-140406523D02*
X168380390Y-140454142D01*
X168380390Y-140454142D02*
X168523247Y-140454142D01*
X168523247Y-140454142D02*
X168713723Y-140406523D01*
X168713723Y-140406523D02*
X168808961Y-140358904D01*
X168808961Y-140358904D02*
X168904200Y-140263666D01*
X168904200Y-140263666D02*
X168951819Y-140120809D01*
X168951819Y-140120809D02*
X168951819Y-139882714D01*
X167951819Y-140787476D02*
X167951819Y-141406523D01*
X167951819Y-141406523D02*
X168332771Y-141073190D01*
X168332771Y-141073190D02*
X168332771Y-141216047D01*
X168332771Y-141216047D02*
X168380390Y-141311285D01*
X168380390Y-141311285D02*
X168428009Y-141358904D01*
X168428009Y-141358904D02*
X168523247Y-141406523D01*
X168523247Y-141406523D02*
X168761342Y-141406523D01*
X168761342Y-141406523D02*
X168856580Y-141358904D01*
X168856580Y-141358904D02*
X168904200Y-141311285D01*
X168904200Y-141311285D02*
X168951819Y-141216047D01*
X168951819Y-141216047D02*
X168951819Y-140930333D01*
X168951819Y-140930333D02*
X168904200Y-140835095D01*
X168904200Y-140835095D02*
X168856580Y-140787476D01*
X168285152Y-142263666D02*
X168951819Y-142263666D01*
X167904200Y-142025571D02*
X168618485Y-141787476D01*
X168618485Y-141787476D02*
X168618485Y-142406523D01*
X236208766Y-172161580D02*
X236256385Y-172209200D01*
X236256385Y-172209200D02*
X236399242Y-172256819D01*
X236399242Y-172256819D02*
X236494480Y-172256819D01*
X236494480Y-172256819D02*
X236637337Y-172209200D01*
X236637337Y-172209200D02*
X236732575Y-172113961D01*
X236732575Y-172113961D02*
X236780194Y-172018723D01*
X236780194Y-172018723D02*
X236827813Y-171828247D01*
X236827813Y-171828247D02*
X236827813Y-171685390D01*
X236827813Y-171685390D02*
X236780194Y-171494914D01*
X236780194Y-171494914D02*
X236732575Y-171399676D01*
X236732575Y-171399676D02*
X236637337Y-171304438D01*
X236637337Y-171304438D02*
X236494480Y-171256819D01*
X236494480Y-171256819D02*
X236399242Y-171256819D01*
X236399242Y-171256819D02*
X236256385Y-171304438D01*
X236256385Y-171304438D02*
X236208766Y-171352057D01*
X235827813Y-171352057D02*
X235780194Y-171304438D01*
X235780194Y-171304438D02*
X235684956Y-171256819D01*
X235684956Y-171256819D02*
X235446861Y-171256819D01*
X235446861Y-171256819D02*
X235351623Y-171304438D01*
X235351623Y-171304438D02*
X235304004Y-171352057D01*
X235304004Y-171352057D02*
X235256385Y-171447295D01*
X235256385Y-171447295D02*
X235256385Y-171542533D01*
X235256385Y-171542533D02*
X235304004Y-171685390D01*
X235304004Y-171685390D02*
X235875432Y-172256819D01*
X235875432Y-172256819D02*
X235256385Y-172256819D01*
X78417569Y-103556733D02*
X77941378Y-103223400D01*
X78417569Y-102985305D02*
X77417569Y-102985305D01*
X77417569Y-102985305D02*
X77417569Y-103366257D01*
X77417569Y-103366257D02*
X77465188Y-103461495D01*
X77465188Y-103461495D02*
X77512807Y-103509114D01*
X77512807Y-103509114D02*
X77608045Y-103556733D01*
X77608045Y-103556733D02*
X77750902Y-103556733D01*
X77750902Y-103556733D02*
X77846140Y-103509114D01*
X77846140Y-103509114D02*
X77893759Y-103461495D01*
X77893759Y-103461495D02*
X77941378Y-103366257D01*
X77941378Y-103366257D02*
X77941378Y-102985305D01*
X77417569Y-103890067D02*
X77417569Y-104509114D01*
X77417569Y-104509114D02*
X77798521Y-104175781D01*
X77798521Y-104175781D02*
X77798521Y-104318638D01*
X77798521Y-104318638D02*
X77846140Y-104413876D01*
X77846140Y-104413876D02*
X77893759Y-104461495D01*
X77893759Y-104461495D02*
X77988997Y-104509114D01*
X77988997Y-104509114D02*
X78227092Y-104509114D01*
X78227092Y-104509114D02*
X78322330Y-104461495D01*
X78322330Y-104461495D02*
X78369950Y-104413876D01*
X78369950Y-104413876D02*
X78417569Y-104318638D01*
X78417569Y-104318638D02*
X78417569Y-104032924D01*
X78417569Y-104032924D02*
X78369950Y-103937686D01*
X78369950Y-103937686D02*
X78322330Y-103890067D01*
X140376819Y-159059714D02*
X139376819Y-159059714D01*
X139376819Y-159059714D02*
X139376819Y-159297809D01*
X139376819Y-159297809D02*
X139424438Y-159440666D01*
X139424438Y-159440666D02*
X139519676Y-159535904D01*
X139519676Y-159535904D02*
X139614914Y-159583523D01*
X139614914Y-159583523D02*
X139805390Y-159631142D01*
X139805390Y-159631142D02*
X139948247Y-159631142D01*
X139948247Y-159631142D02*
X140138723Y-159583523D01*
X140138723Y-159583523D02*
X140233961Y-159535904D01*
X140233961Y-159535904D02*
X140329200Y-159440666D01*
X140329200Y-159440666D02*
X140376819Y-159297809D01*
X140376819Y-159297809D02*
X140376819Y-159059714D01*
X139710152Y-160488285D02*
X140376819Y-160488285D01*
X139329200Y-160250190D02*
X140043485Y-160012095D01*
X140043485Y-160012095D02*
X140043485Y-160631142D01*
X139805390Y-161154952D02*
X139757771Y-161059714D01*
X139757771Y-161059714D02*
X139710152Y-161012095D01*
X139710152Y-161012095D02*
X139614914Y-160964476D01*
X139614914Y-160964476D02*
X139567295Y-160964476D01*
X139567295Y-160964476D02*
X139472057Y-161012095D01*
X139472057Y-161012095D02*
X139424438Y-161059714D01*
X139424438Y-161059714D02*
X139376819Y-161154952D01*
X139376819Y-161154952D02*
X139376819Y-161345428D01*
X139376819Y-161345428D02*
X139424438Y-161440666D01*
X139424438Y-161440666D02*
X139472057Y-161488285D01*
X139472057Y-161488285D02*
X139567295Y-161535904D01*
X139567295Y-161535904D02*
X139614914Y-161535904D01*
X139614914Y-161535904D02*
X139710152Y-161488285D01*
X139710152Y-161488285D02*
X139757771Y-161440666D01*
X139757771Y-161440666D02*
X139805390Y-161345428D01*
X139805390Y-161345428D02*
X139805390Y-161154952D01*
X139805390Y-161154952D02*
X139853009Y-161059714D01*
X139853009Y-161059714D02*
X139900628Y-161012095D01*
X139900628Y-161012095D02*
X139995866Y-160964476D01*
X139995866Y-160964476D02*
X140186342Y-160964476D01*
X140186342Y-160964476D02*
X140281580Y-161012095D01*
X140281580Y-161012095D02*
X140329200Y-161059714D01*
X140329200Y-161059714D02*
X140376819Y-161154952D01*
X140376819Y-161154952D02*
X140376819Y-161345428D01*
X140376819Y-161345428D02*
X140329200Y-161440666D01*
X140329200Y-161440666D02*
X140281580Y-161488285D01*
X140281580Y-161488285D02*
X140186342Y-161535904D01*
X140186342Y-161535904D02*
X139995866Y-161535904D01*
X139995866Y-161535904D02*
X139900628Y-161488285D01*
X139900628Y-161488285D02*
X139853009Y-161440666D01*
X139853009Y-161440666D02*
X139805390Y-161345428D01*
X226228819Y-140009714D02*
X225228819Y-140009714D01*
X225228819Y-140009714D02*
X225228819Y-140247809D01*
X225228819Y-140247809D02*
X225276438Y-140390666D01*
X225276438Y-140390666D02*
X225371676Y-140485904D01*
X225371676Y-140485904D02*
X225466914Y-140533523D01*
X225466914Y-140533523D02*
X225657390Y-140581142D01*
X225657390Y-140581142D02*
X225800247Y-140581142D01*
X225800247Y-140581142D02*
X225990723Y-140533523D01*
X225990723Y-140533523D02*
X226085961Y-140485904D01*
X226085961Y-140485904D02*
X226181200Y-140390666D01*
X226181200Y-140390666D02*
X226228819Y-140247809D01*
X226228819Y-140247809D02*
X226228819Y-140009714D01*
X225228819Y-140914476D02*
X225228819Y-141533523D01*
X225228819Y-141533523D02*
X225609771Y-141200190D01*
X225609771Y-141200190D02*
X225609771Y-141343047D01*
X225609771Y-141343047D02*
X225657390Y-141438285D01*
X225657390Y-141438285D02*
X225705009Y-141485904D01*
X225705009Y-141485904D02*
X225800247Y-141533523D01*
X225800247Y-141533523D02*
X226038342Y-141533523D01*
X226038342Y-141533523D02*
X226133580Y-141485904D01*
X226133580Y-141485904D02*
X226181200Y-141438285D01*
X226181200Y-141438285D02*
X226228819Y-141343047D01*
X226228819Y-141343047D02*
X226228819Y-141057333D01*
X226228819Y-141057333D02*
X226181200Y-140962095D01*
X226181200Y-140962095D02*
X226133580Y-140914476D01*
X225228819Y-141866857D02*
X225228819Y-142533523D01*
X225228819Y-142533523D02*
X226228819Y-142104952D01*
X364150819Y-158932714D02*
X363150819Y-158932714D01*
X363150819Y-158932714D02*
X363150819Y-159170809D01*
X363150819Y-159170809D02*
X363198438Y-159313666D01*
X363198438Y-159313666D02*
X363293676Y-159408904D01*
X363293676Y-159408904D02*
X363388914Y-159456523D01*
X363388914Y-159456523D02*
X363579390Y-159504142D01*
X363579390Y-159504142D02*
X363722247Y-159504142D01*
X363722247Y-159504142D02*
X363912723Y-159456523D01*
X363912723Y-159456523D02*
X364007961Y-159408904D01*
X364007961Y-159408904D02*
X364103200Y-159313666D01*
X364103200Y-159313666D02*
X364150819Y-159170809D01*
X364150819Y-159170809D02*
X364150819Y-158932714D01*
X363150819Y-160408904D02*
X363150819Y-159932714D01*
X363150819Y-159932714D02*
X363627009Y-159885095D01*
X363627009Y-159885095D02*
X363579390Y-159932714D01*
X363579390Y-159932714D02*
X363531771Y-160027952D01*
X363531771Y-160027952D02*
X363531771Y-160266047D01*
X363531771Y-160266047D02*
X363579390Y-160361285D01*
X363579390Y-160361285D02*
X363627009Y-160408904D01*
X363627009Y-160408904D02*
X363722247Y-160456523D01*
X363722247Y-160456523D02*
X363960342Y-160456523D01*
X363960342Y-160456523D02*
X364055580Y-160408904D01*
X364055580Y-160408904D02*
X364103200Y-160361285D01*
X364103200Y-160361285D02*
X364150819Y-160266047D01*
X364150819Y-160266047D02*
X364150819Y-160027952D01*
X364150819Y-160027952D02*
X364103200Y-159932714D01*
X364103200Y-159932714D02*
X364055580Y-159885095D01*
X364150819Y-160932714D02*
X364150819Y-161123190D01*
X364150819Y-161123190D02*
X364103200Y-161218428D01*
X364103200Y-161218428D02*
X364055580Y-161266047D01*
X364055580Y-161266047D02*
X363912723Y-161361285D01*
X363912723Y-161361285D02*
X363722247Y-161408904D01*
X363722247Y-161408904D02*
X363341295Y-161408904D01*
X363341295Y-161408904D02*
X363246057Y-161361285D01*
X363246057Y-161361285D02*
X363198438Y-161313666D01*
X363198438Y-161313666D02*
X363150819Y-161218428D01*
X363150819Y-161218428D02*
X363150819Y-161027952D01*
X363150819Y-161027952D02*
X363198438Y-160932714D01*
X363198438Y-160932714D02*
X363246057Y-160885095D01*
X363246057Y-160885095D02*
X363341295Y-160837476D01*
X363341295Y-160837476D02*
X363579390Y-160837476D01*
X363579390Y-160837476D02*
X363674628Y-160885095D01*
X363674628Y-160885095D02*
X363722247Y-160932714D01*
X363722247Y-160932714D02*
X363769866Y-161027952D01*
X363769866Y-161027952D02*
X363769866Y-161218428D01*
X363769866Y-161218428D02*
X363722247Y-161313666D01*
X363722247Y-161313666D02*
X363674628Y-161361285D01*
X363674628Y-161361285D02*
X363579390Y-161408904D01*
X282997819Y-139882714D02*
X281997819Y-139882714D01*
X281997819Y-139882714D02*
X281997819Y-140120809D01*
X281997819Y-140120809D02*
X282045438Y-140263666D01*
X282045438Y-140263666D02*
X282140676Y-140358904D01*
X282140676Y-140358904D02*
X282235914Y-140406523D01*
X282235914Y-140406523D02*
X282426390Y-140454142D01*
X282426390Y-140454142D02*
X282569247Y-140454142D01*
X282569247Y-140454142D02*
X282759723Y-140406523D01*
X282759723Y-140406523D02*
X282854961Y-140358904D01*
X282854961Y-140358904D02*
X282950200Y-140263666D01*
X282950200Y-140263666D02*
X282997819Y-140120809D01*
X282997819Y-140120809D02*
X282997819Y-139882714D01*
X282331152Y-141311285D02*
X282997819Y-141311285D01*
X281950200Y-141073190D02*
X282664485Y-140835095D01*
X282664485Y-140835095D02*
X282664485Y-141454142D01*
X281997819Y-142025571D02*
X281997819Y-142120809D01*
X281997819Y-142120809D02*
X282045438Y-142216047D01*
X282045438Y-142216047D02*
X282093057Y-142263666D01*
X282093057Y-142263666D02*
X282188295Y-142311285D01*
X282188295Y-142311285D02*
X282378771Y-142358904D01*
X282378771Y-142358904D02*
X282616866Y-142358904D01*
X282616866Y-142358904D02*
X282807342Y-142311285D01*
X282807342Y-142311285D02*
X282902580Y-142263666D01*
X282902580Y-142263666D02*
X282950200Y-142216047D01*
X282950200Y-142216047D02*
X282997819Y-142120809D01*
X282997819Y-142120809D02*
X282997819Y-142025571D01*
X282997819Y-142025571D02*
X282950200Y-141930333D01*
X282950200Y-141930333D02*
X282902580Y-141882714D01*
X282902580Y-141882714D02*
X282807342Y-141835095D01*
X282807342Y-141835095D02*
X282616866Y-141787476D01*
X282616866Y-141787476D02*
X282378771Y-141787476D01*
X282378771Y-141787476D02*
X282188295Y-141835095D01*
X282188295Y-141835095D02*
X282093057Y-141882714D01*
X282093057Y-141882714D02*
X282045438Y-141930333D01*
X282045438Y-141930333D02*
X281997819Y-142025571D01*
X85512819Y-139755714D02*
X84512819Y-139755714D01*
X84512819Y-139755714D02*
X84512819Y-139993809D01*
X84512819Y-139993809D02*
X84560438Y-140136666D01*
X84560438Y-140136666D02*
X84655676Y-140231904D01*
X84655676Y-140231904D02*
X84750914Y-140279523D01*
X84750914Y-140279523D02*
X84941390Y-140327142D01*
X84941390Y-140327142D02*
X85084247Y-140327142D01*
X85084247Y-140327142D02*
X85274723Y-140279523D01*
X85274723Y-140279523D02*
X85369961Y-140231904D01*
X85369961Y-140231904D02*
X85465200Y-140136666D01*
X85465200Y-140136666D02*
X85512819Y-139993809D01*
X85512819Y-139993809D02*
X85512819Y-139755714D01*
X84512819Y-140660476D02*
X84512819Y-141279523D01*
X84512819Y-141279523D02*
X84893771Y-140946190D01*
X84893771Y-140946190D02*
X84893771Y-141089047D01*
X84893771Y-141089047D02*
X84941390Y-141184285D01*
X84941390Y-141184285D02*
X84989009Y-141231904D01*
X84989009Y-141231904D02*
X85084247Y-141279523D01*
X85084247Y-141279523D02*
X85322342Y-141279523D01*
X85322342Y-141279523D02*
X85417580Y-141231904D01*
X85417580Y-141231904D02*
X85465200Y-141184285D01*
X85465200Y-141184285D02*
X85512819Y-141089047D01*
X85512819Y-141089047D02*
X85512819Y-140803333D01*
X85512819Y-140803333D02*
X85465200Y-140708095D01*
X85465200Y-140708095D02*
X85417580Y-140660476D01*
X84512819Y-141898571D02*
X84512819Y-141993809D01*
X84512819Y-141993809D02*
X84560438Y-142089047D01*
X84560438Y-142089047D02*
X84608057Y-142136666D01*
X84608057Y-142136666D02*
X84703295Y-142184285D01*
X84703295Y-142184285D02*
X84893771Y-142231904D01*
X84893771Y-142231904D02*
X85131866Y-142231904D01*
X85131866Y-142231904D02*
X85322342Y-142184285D01*
X85322342Y-142184285D02*
X85417580Y-142136666D01*
X85417580Y-142136666D02*
X85465200Y-142089047D01*
X85465200Y-142089047D02*
X85512819Y-141993809D01*
X85512819Y-141993809D02*
X85512819Y-141898571D01*
X85512819Y-141898571D02*
X85465200Y-141803333D01*
X85465200Y-141803333D02*
X85417580Y-141755714D01*
X85417580Y-141755714D02*
X85322342Y-141708095D01*
X85322342Y-141708095D02*
X85131866Y-141660476D01*
X85131866Y-141660476D02*
X84893771Y-141660476D01*
X84893771Y-141660476D02*
X84703295Y-141708095D01*
X84703295Y-141708095D02*
X84608057Y-141755714D01*
X84608057Y-141755714D02*
X84560438Y-141803333D01*
X84560438Y-141803333D02*
X84512819Y-141898571D01*
X263566819Y-139882714D02*
X262566819Y-139882714D01*
X262566819Y-139882714D02*
X262566819Y-140120809D01*
X262566819Y-140120809D02*
X262614438Y-140263666D01*
X262614438Y-140263666D02*
X262709676Y-140358904D01*
X262709676Y-140358904D02*
X262804914Y-140406523D01*
X262804914Y-140406523D02*
X262995390Y-140454142D01*
X262995390Y-140454142D02*
X263138247Y-140454142D01*
X263138247Y-140454142D02*
X263328723Y-140406523D01*
X263328723Y-140406523D02*
X263423961Y-140358904D01*
X263423961Y-140358904D02*
X263519200Y-140263666D01*
X263519200Y-140263666D02*
X263566819Y-140120809D01*
X263566819Y-140120809D02*
X263566819Y-139882714D01*
X262566819Y-140787476D02*
X262566819Y-141406523D01*
X262566819Y-141406523D02*
X262947771Y-141073190D01*
X262947771Y-141073190D02*
X262947771Y-141216047D01*
X262947771Y-141216047D02*
X262995390Y-141311285D01*
X262995390Y-141311285D02*
X263043009Y-141358904D01*
X263043009Y-141358904D02*
X263138247Y-141406523D01*
X263138247Y-141406523D02*
X263376342Y-141406523D01*
X263376342Y-141406523D02*
X263471580Y-141358904D01*
X263471580Y-141358904D02*
X263519200Y-141311285D01*
X263519200Y-141311285D02*
X263566819Y-141216047D01*
X263566819Y-141216047D02*
X263566819Y-140930333D01*
X263566819Y-140930333D02*
X263519200Y-140835095D01*
X263519200Y-140835095D02*
X263471580Y-140787476D01*
X263566819Y-141882714D02*
X263566819Y-142073190D01*
X263566819Y-142073190D02*
X263519200Y-142168428D01*
X263519200Y-142168428D02*
X263471580Y-142216047D01*
X263471580Y-142216047D02*
X263328723Y-142311285D01*
X263328723Y-142311285D02*
X263138247Y-142358904D01*
X263138247Y-142358904D02*
X262757295Y-142358904D01*
X262757295Y-142358904D02*
X262662057Y-142311285D01*
X262662057Y-142311285D02*
X262614438Y-142263666D01*
X262614438Y-142263666D02*
X262566819Y-142168428D01*
X262566819Y-142168428D02*
X262566819Y-141977952D01*
X262566819Y-141977952D02*
X262614438Y-141882714D01*
X262614438Y-141882714D02*
X262662057Y-141835095D01*
X262662057Y-141835095D02*
X262757295Y-141787476D01*
X262757295Y-141787476D02*
X262995390Y-141787476D01*
X262995390Y-141787476D02*
X263090628Y-141835095D01*
X263090628Y-141835095D02*
X263138247Y-141882714D01*
X263138247Y-141882714D02*
X263185866Y-141977952D01*
X263185866Y-141977952D02*
X263185866Y-142168428D01*
X263185866Y-142168428D02*
X263138247Y-142263666D01*
X263138247Y-142263666D02*
X263090628Y-142311285D01*
X263090628Y-142311285D02*
X262995390Y-142358904D01*
X345481819Y-158932714D02*
X344481819Y-158932714D01*
X344481819Y-158932714D02*
X344481819Y-159170809D01*
X344481819Y-159170809D02*
X344529438Y-159313666D01*
X344529438Y-159313666D02*
X344624676Y-159408904D01*
X344624676Y-159408904D02*
X344719914Y-159456523D01*
X344719914Y-159456523D02*
X344910390Y-159504142D01*
X344910390Y-159504142D02*
X345053247Y-159504142D01*
X345053247Y-159504142D02*
X345243723Y-159456523D01*
X345243723Y-159456523D02*
X345338961Y-159408904D01*
X345338961Y-159408904D02*
X345434200Y-159313666D01*
X345434200Y-159313666D02*
X345481819Y-159170809D01*
X345481819Y-159170809D02*
X345481819Y-158932714D01*
X344481819Y-160408904D02*
X344481819Y-159932714D01*
X344481819Y-159932714D02*
X344958009Y-159885095D01*
X344958009Y-159885095D02*
X344910390Y-159932714D01*
X344910390Y-159932714D02*
X344862771Y-160027952D01*
X344862771Y-160027952D02*
X344862771Y-160266047D01*
X344862771Y-160266047D02*
X344910390Y-160361285D01*
X344910390Y-160361285D02*
X344958009Y-160408904D01*
X344958009Y-160408904D02*
X345053247Y-160456523D01*
X345053247Y-160456523D02*
X345291342Y-160456523D01*
X345291342Y-160456523D02*
X345386580Y-160408904D01*
X345386580Y-160408904D02*
X345434200Y-160361285D01*
X345434200Y-160361285D02*
X345481819Y-160266047D01*
X345481819Y-160266047D02*
X345481819Y-160027952D01*
X345481819Y-160027952D02*
X345434200Y-159932714D01*
X345434200Y-159932714D02*
X345386580Y-159885095D01*
X344910390Y-161027952D02*
X344862771Y-160932714D01*
X344862771Y-160932714D02*
X344815152Y-160885095D01*
X344815152Y-160885095D02*
X344719914Y-160837476D01*
X344719914Y-160837476D02*
X344672295Y-160837476D01*
X344672295Y-160837476D02*
X344577057Y-160885095D01*
X344577057Y-160885095D02*
X344529438Y-160932714D01*
X344529438Y-160932714D02*
X344481819Y-161027952D01*
X344481819Y-161027952D02*
X344481819Y-161218428D01*
X344481819Y-161218428D02*
X344529438Y-161313666D01*
X344529438Y-161313666D02*
X344577057Y-161361285D01*
X344577057Y-161361285D02*
X344672295Y-161408904D01*
X344672295Y-161408904D02*
X344719914Y-161408904D01*
X344719914Y-161408904D02*
X344815152Y-161361285D01*
X344815152Y-161361285D02*
X344862771Y-161313666D01*
X344862771Y-161313666D02*
X344910390Y-161218428D01*
X344910390Y-161218428D02*
X344910390Y-161027952D01*
X344910390Y-161027952D02*
X344958009Y-160932714D01*
X344958009Y-160932714D02*
X345005628Y-160885095D01*
X345005628Y-160885095D02*
X345100866Y-160837476D01*
X345100866Y-160837476D02*
X345291342Y-160837476D01*
X345291342Y-160837476D02*
X345386580Y-160885095D01*
X345386580Y-160885095D02*
X345434200Y-160932714D01*
X345434200Y-160932714D02*
X345481819Y-161027952D01*
X345481819Y-161027952D02*
X345481819Y-161218428D01*
X345481819Y-161218428D02*
X345434200Y-161313666D01*
X345434200Y-161313666D02*
X345386580Y-161361285D01*
X345386580Y-161361285D02*
X345291342Y-161408904D01*
X345291342Y-161408904D02*
X345100866Y-161408904D01*
X345100866Y-161408904D02*
X345005628Y-161361285D01*
X345005628Y-161361285D02*
X344958009Y-161313666D01*
X344958009Y-161313666D02*
X344910390Y-161218428D01*
X128946819Y-177982714D02*
X127946819Y-177982714D01*
X127946819Y-177982714D02*
X127946819Y-178220809D01*
X127946819Y-178220809D02*
X127994438Y-178363666D01*
X127994438Y-178363666D02*
X128089676Y-178458904D01*
X128089676Y-178458904D02*
X128184914Y-178506523D01*
X128184914Y-178506523D02*
X128375390Y-178554142D01*
X128375390Y-178554142D02*
X128518247Y-178554142D01*
X128518247Y-178554142D02*
X128708723Y-178506523D01*
X128708723Y-178506523D02*
X128803961Y-178458904D01*
X128803961Y-178458904D02*
X128899200Y-178363666D01*
X128899200Y-178363666D02*
X128946819Y-178220809D01*
X128946819Y-178220809D02*
X128946819Y-177982714D01*
X127946819Y-179411285D02*
X127946819Y-179220809D01*
X127946819Y-179220809D02*
X127994438Y-179125571D01*
X127994438Y-179125571D02*
X128042057Y-179077952D01*
X128042057Y-179077952D02*
X128184914Y-178982714D01*
X128184914Y-178982714D02*
X128375390Y-178935095D01*
X128375390Y-178935095D02*
X128756342Y-178935095D01*
X128756342Y-178935095D02*
X128851580Y-178982714D01*
X128851580Y-178982714D02*
X128899200Y-179030333D01*
X128899200Y-179030333D02*
X128946819Y-179125571D01*
X128946819Y-179125571D02*
X128946819Y-179316047D01*
X128946819Y-179316047D02*
X128899200Y-179411285D01*
X128899200Y-179411285D02*
X128851580Y-179458904D01*
X128851580Y-179458904D02*
X128756342Y-179506523D01*
X128756342Y-179506523D02*
X128518247Y-179506523D01*
X128518247Y-179506523D02*
X128423009Y-179458904D01*
X128423009Y-179458904D02*
X128375390Y-179411285D01*
X128375390Y-179411285D02*
X128327771Y-179316047D01*
X128327771Y-179316047D02*
X128327771Y-179125571D01*
X128327771Y-179125571D02*
X128375390Y-179030333D01*
X128375390Y-179030333D02*
X128423009Y-178982714D01*
X128423009Y-178982714D02*
X128518247Y-178935095D01*
X128042057Y-179887476D02*
X127994438Y-179935095D01*
X127994438Y-179935095D02*
X127946819Y-180030333D01*
X127946819Y-180030333D02*
X127946819Y-180268428D01*
X127946819Y-180268428D02*
X127994438Y-180363666D01*
X127994438Y-180363666D02*
X128042057Y-180411285D01*
X128042057Y-180411285D02*
X128137295Y-180458904D01*
X128137295Y-180458904D02*
X128232533Y-180458904D01*
X128232533Y-180458904D02*
X128375390Y-180411285D01*
X128375390Y-180411285D02*
X128946819Y-179839857D01*
X128946819Y-179839857D02*
X128946819Y-180458904D01*
X209076419Y-174227095D02*
X209885942Y-174227095D01*
X209885942Y-174227095D02*
X209981180Y-174274714D01*
X209981180Y-174274714D02*
X210028800Y-174322333D01*
X210028800Y-174322333D02*
X210076419Y-174417571D01*
X210076419Y-174417571D02*
X210076419Y-174608047D01*
X210076419Y-174608047D02*
X210028800Y-174703285D01*
X210028800Y-174703285D02*
X209981180Y-174750904D01*
X209981180Y-174750904D02*
X209885942Y-174798523D01*
X209885942Y-174798523D02*
X209076419Y-174798523D01*
X210076419Y-175798523D02*
X210076419Y-175227095D01*
X210076419Y-175512809D02*
X209076419Y-175512809D01*
X209076419Y-175512809D02*
X209219276Y-175417571D01*
X209219276Y-175417571D02*
X209314514Y-175322333D01*
X209314514Y-175322333D02*
X209362133Y-175227095D01*
X82718819Y-120832714D02*
X81718819Y-120832714D01*
X81718819Y-120832714D02*
X81718819Y-121070809D01*
X81718819Y-121070809D02*
X81766438Y-121213666D01*
X81766438Y-121213666D02*
X81861676Y-121308904D01*
X81861676Y-121308904D02*
X81956914Y-121356523D01*
X81956914Y-121356523D02*
X82147390Y-121404142D01*
X82147390Y-121404142D02*
X82290247Y-121404142D01*
X82290247Y-121404142D02*
X82480723Y-121356523D01*
X82480723Y-121356523D02*
X82575961Y-121308904D01*
X82575961Y-121308904D02*
X82671200Y-121213666D01*
X82671200Y-121213666D02*
X82718819Y-121070809D01*
X82718819Y-121070809D02*
X82718819Y-120832714D01*
X82718819Y-122356523D02*
X82718819Y-121785095D01*
X82718819Y-122070809D02*
X81718819Y-122070809D01*
X81718819Y-122070809D02*
X81861676Y-121975571D01*
X81861676Y-121975571D02*
X81956914Y-121880333D01*
X81956914Y-121880333D02*
X82004533Y-121785095D01*
X81718819Y-123213666D02*
X81718819Y-123023190D01*
X81718819Y-123023190D02*
X81766438Y-122927952D01*
X81766438Y-122927952D02*
X81814057Y-122880333D01*
X81814057Y-122880333D02*
X81956914Y-122785095D01*
X81956914Y-122785095D02*
X82147390Y-122737476D01*
X82147390Y-122737476D02*
X82528342Y-122737476D01*
X82528342Y-122737476D02*
X82623580Y-122785095D01*
X82623580Y-122785095D02*
X82671200Y-122832714D01*
X82671200Y-122832714D02*
X82718819Y-122927952D01*
X82718819Y-122927952D02*
X82718819Y-123118428D01*
X82718819Y-123118428D02*
X82671200Y-123213666D01*
X82671200Y-123213666D02*
X82623580Y-123261285D01*
X82623580Y-123261285D02*
X82528342Y-123308904D01*
X82528342Y-123308904D02*
X82290247Y-123308904D01*
X82290247Y-123308904D02*
X82195009Y-123261285D01*
X82195009Y-123261285D02*
X82147390Y-123213666D01*
X82147390Y-123213666D02*
X82099771Y-123118428D01*
X82099771Y-123118428D02*
X82099771Y-122927952D01*
X82099771Y-122927952D02*
X82147390Y-122832714D01*
X82147390Y-122832714D02*
X82195009Y-122785095D01*
X82195009Y-122785095D02*
X82290247Y-122737476D01*
X216449819Y-158805714D02*
X215449819Y-158805714D01*
X215449819Y-158805714D02*
X215449819Y-159043809D01*
X215449819Y-159043809D02*
X215497438Y-159186666D01*
X215497438Y-159186666D02*
X215592676Y-159281904D01*
X215592676Y-159281904D02*
X215687914Y-159329523D01*
X215687914Y-159329523D02*
X215878390Y-159377142D01*
X215878390Y-159377142D02*
X216021247Y-159377142D01*
X216021247Y-159377142D02*
X216211723Y-159329523D01*
X216211723Y-159329523D02*
X216306961Y-159281904D01*
X216306961Y-159281904D02*
X216402200Y-159186666D01*
X216402200Y-159186666D02*
X216449819Y-159043809D01*
X216449819Y-159043809D02*
X216449819Y-158805714D01*
X215449819Y-160281904D02*
X215449819Y-159805714D01*
X215449819Y-159805714D02*
X215926009Y-159758095D01*
X215926009Y-159758095D02*
X215878390Y-159805714D01*
X215878390Y-159805714D02*
X215830771Y-159900952D01*
X215830771Y-159900952D02*
X215830771Y-160139047D01*
X215830771Y-160139047D02*
X215878390Y-160234285D01*
X215878390Y-160234285D02*
X215926009Y-160281904D01*
X215926009Y-160281904D02*
X216021247Y-160329523D01*
X216021247Y-160329523D02*
X216259342Y-160329523D01*
X216259342Y-160329523D02*
X216354580Y-160281904D01*
X216354580Y-160281904D02*
X216402200Y-160234285D01*
X216402200Y-160234285D02*
X216449819Y-160139047D01*
X216449819Y-160139047D02*
X216449819Y-159900952D01*
X216449819Y-159900952D02*
X216402200Y-159805714D01*
X216402200Y-159805714D02*
X216354580Y-159758095D01*
X215545057Y-160710476D02*
X215497438Y-160758095D01*
X215497438Y-160758095D02*
X215449819Y-160853333D01*
X215449819Y-160853333D02*
X215449819Y-161091428D01*
X215449819Y-161091428D02*
X215497438Y-161186666D01*
X215497438Y-161186666D02*
X215545057Y-161234285D01*
X215545057Y-161234285D02*
X215640295Y-161281904D01*
X215640295Y-161281904D02*
X215735533Y-161281904D01*
X215735533Y-161281904D02*
X215878390Y-161234285D01*
X215878390Y-161234285D02*
X216449819Y-160662857D01*
X216449819Y-160662857D02*
X216449819Y-161281904D01*
X154473819Y-102258905D02*
X153473819Y-102258905D01*
X153473819Y-102258905D02*
X153473819Y-102497000D01*
X153473819Y-102497000D02*
X153521438Y-102639857D01*
X153521438Y-102639857D02*
X153616676Y-102735095D01*
X153616676Y-102735095D02*
X153711914Y-102782714D01*
X153711914Y-102782714D02*
X153902390Y-102830333D01*
X153902390Y-102830333D02*
X154045247Y-102830333D01*
X154045247Y-102830333D02*
X154235723Y-102782714D01*
X154235723Y-102782714D02*
X154330961Y-102735095D01*
X154330961Y-102735095D02*
X154426200Y-102639857D01*
X154426200Y-102639857D02*
X154473819Y-102497000D01*
X154473819Y-102497000D02*
X154473819Y-102258905D01*
X153473819Y-103687476D02*
X153473819Y-103497000D01*
X153473819Y-103497000D02*
X153521438Y-103401762D01*
X153521438Y-103401762D02*
X153569057Y-103354143D01*
X153569057Y-103354143D02*
X153711914Y-103258905D01*
X153711914Y-103258905D02*
X153902390Y-103211286D01*
X153902390Y-103211286D02*
X154283342Y-103211286D01*
X154283342Y-103211286D02*
X154378580Y-103258905D01*
X154378580Y-103258905D02*
X154426200Y-103306524D01*
X154426200Y-103306524D02*
X154473819Y-103401762D01*
X154473819Y-103401762D02*
X154473819Y-103592238D01*
X154473819Y-103592238D02*
X154426200Y-103687476D01*
X154426200Y-103687476D02*
X154378580Y-103735095D01*
X154378580Y-103735095D02*
X154283342Y-103782714D01*
X154283342Y-103782714D02*
X154045247Y-103782714D01*
X154045247Y-103782714D02*
X153950009Y-103735095D01*
X153950009Y-103735095D02*
X153902390Y-103687476D01*
X153902390Y-103687476D02*
X153854771Y-103592238D01*
X153854771Y-103592238D02*
X153854771Y-103401762D01*
X153854771Y-103401762D02*
X153902390Y-103306524D01*
X153902390Y-103306524D02*
X153950009Y-103258905D01*
X153950009Y-103258905D02*
X154045247Y-103211286D01*
X210046766Y-165909580D02*
X210094385Y-165957200D01*
X210094385Y-165957200D02*
X210237242Y-166004819D01*
X210237242Y-166004819D02*
X210332480Y-166004819D01*
X210332480Y-166004819D02*
X210475337Y-165957200D01*
X210475337Y-165957200D02*
X210570575Y-165861961D01*
X210570575Y-165861961D02*
X210618194Y-165766723D01*
X210618194Y-165766723D02*
X210665813Y-165576247D01*
X210665813Y-165576247D02*
X210665813Y-165433390D01*
X210665813Y-165433390D02*
X210618194Y-165242914D01*
X210618194Y-165242914D02*
X210570575Y-165147676D01*
X210570575Y-165147676D02*
X210475337Y-165052438D01*
X210475337Y-165052438D02*
X210332480Y-165004819D01*
X210332480Y-165004819D02*
X210237242Y-165004819D01*
X210237242Y-165004819D02*
X210094385Y-165052438D01*
X210094385Y-165052438D02*
X210046766Y-165100057D01*
X209142004Y-165004819D02*
X209618194Y-165004819D01*
X209618194Y-165004819D02*
X209665813Y-165481009D01*
X209665813Y-165481009D02*
X209618194Y-165433390D01*
X209618194Y-165433390D02*
X209522956Y-165385771D01*
X209522956Y-165385771D02*
X209284861Y-165385771D01*
X209284861Y-165385771D02*
X209189623Y-165433390D01*
X209189623Y-165433390D02*
X209142004Y-165481009D01*
X209142004Y-165481009D02*
X209094385Y-165576247D01*
X209094385Y-165576247D02*
X209094385Y-165814342D01*
X209094385Y-165814342D02*
X209142004Y-165909580D01*
X209142004Y-165909580D02*
X209189623Y-165957200D01*
X209189623Y-165957200D02*
X209284861Y-166004819D01*
X209284861Y-166004819D02*
X209522956Y-166004819D01*
X209522956Y-166004819D02*
X209618194Y-165957200D01*
X209618194Y-165957200D02*
X209665813Y-165909580D01*
X130978819Y-139755714D02*
X129978819Y-139755714D01*
X129978819Y-139755714D02*
X129978819Y-139993809D01*
X129978819Y-139993809D02*
X130026438Y-140136666D01*
X130026438Y-140136666D02*
X130121676Y-140231904D01*
X130121676Y-140231904D02*
X130216914Y-140279523D01*
X130216914Y-140279523D02*
X130407390Y-140327142D01*
X130407390Y-140327142D02*
X130550247Y-140327142D01*
X130550247Y-140327142D02*
X130740723Y-140279523D01*
X130740723Y-140279523D02*
X130835961Y-140231904D01*
X130835961Y-140231904D02*
X130931200Y-140136666D01*
X130931200Y-140136666D02*
X130978819Y-139993809D01*
X130978819Y-139993809D02*
X130978819Y-139755714D01*
X129978819Y-140660476D02*
X129978819Y-141279523D01*
X129978819Y-141279523D02*
X130359771Y-140946190D01*
X130359771Y-140946190D02*
X130359771Y-141089047D01*
X130359771Y-141089047D02*
X130407390Y-141184285D01*
X130407390Y-141184285D02*
X130455009Y-141231904D01*
X130455009Y-141231904D02*
X130550247Y-141279523D01*
X130550247Y-141279523D02*
X130788342Y-141279523D01*
X130788342Y-141279523D02*
X130883580Y-141231904D01*
X130883580Y-141231904D02*
X130931200Y-141184285D01*
X130931200Y-141184285D02*
X130978819Y-141089047D01*
X130978819Y-141089047D02*
X130978819Y-140803333D01*
X130978819Y-140803333D02*
X130931200Y-140708095D01*
X130931200Y-140708095D02*
X130883580Y-140660476D01*
X130074057Y-141660476D02*
X130026438Y-141708095D01*
X130026438Y-141708095D02*
X129978819Y-141803333D01*
X129978819Y-141803333D02*
X129978819Y-142041428D01*
X129978819Y-142041428D02*
X130026438Y-142136666D01*
X130026438Y-142136666D02*
X130074057Y-142184285D01*
X130074057Y-142184285D02*
X130169295Y-142231904D01*
X130169295Y-142231904D02*
X130264533Y-142231904D01*
X130264533Y-142231904D02*
X130407390Y-142184285D01*
X130407390Y-142184285D02*
X130978819Y-141612857D01*
X130978819Y-141612857D02*
X130978819Y-142231904D01*
X91100819Y-102131905D02*
X90100819Y-102131905D01*
X90100819Y-102131905D02*
X90100819Y-102370000D01*
X90100819Y-102370000D02*
X90148438Y-102512857D01*
X90148438Y-102512857D02*
X90243676Y-102608095D01*
X90243676Y-102608095D02*
X90338914Y-102655714D01*
X90338914Y-102655714D02*
X90529390Y-102703333D01*
X90529390Y-102703333D02*
X90672247Y-102703333D01*
X90672247Y-102703333D02*
X90862723Y-102655714D01*
X90862723Y-102655714D02*
X90957961Y-102608095D01*
X90957961Y-102608095D02*
X91053200Y-102512857D01*
X91053200Y-102512857D02*
X91100819Y-102370000D01*
X91100819Y-102370000D02*
X91100819Y-102131905D01*
X90196057Y-103084286D02*
X90148438Y-103131905D01*
X90148438Y-103131905D02*
X90100819Y-103227143D01*
X90100819Y-103227143D02*
X90100819Y-103465238D01*
X90100819Y-103465238D02*
X90148438Y-103560476D01*
X90148438Y-103560476D02*
X90196057Y-103608095D01*
X90196057Y-103608095D02*
X90291295Y-103655714D01*
X90291295Y-103655714D02*
X90386533Y-103655714D01*
X90386533Y-103655714D02*
X90529390Y-103608095D01*
X90529390Y-103608095D02*
X91100819Y-103036667D01*
X91100819Y-103036667D02*
X91100819Y-103655714D01*
X316525819Y-120832714D02*
X315525819Y-120832714D01*
X315525819Y-120832714D02*
X315525819Y-121070809D01*
X315525819Y-121070809D02*
X315573438Y-121213666D01*
X315573438Y-121213666D02*
X315668676Y-121308904D01*
X315668676Y-121308904D02*
X315763914Y-121356523D01*
X315763914Y-121356523D02*
X315954390Y-121404142D01*
X315954390Y-121404142D02*
X316097247Y-121404142D01*
X316097247Y-121404142D02*
X316287723Y-121356523D01*
X316287723Y-121356523D02*
X316382961Y-121308904D01*
X316382961Y-121308904D02*
X316478200Y-121213666D01*
X316478200Y-121213666D02*
X316525819Y-121070809D01*
X316525819Y-121070809D02*
X316525819Y-120832714D01*
X315621057Y-121785095D02*
X315573438Y-121832714D01*
X315573438Y-121832714D02*
X315525819Y-121927952D01*
X315525819Y-121927952D02*
X315525819Y-122166047D01*
X315525819Y-122166047D02*
X315573438Y-122261285D01*
X315573438Y-122261285D02*
X315621057Y-122308904D01*
X315621057Y-122308904D02*
X315716295Y-122356523D01*
X315716295Y-122356523D02*
X315811533Y-122356523D01*
X315811533Y-122356523D02*
X315954390Y-122308904D01*
X315954390Y-122308904D02*
X316525819Y-121737476D01*
X316525819Y-121737476D02*
X316525819Y-122356523D01*
X315954390Y-122927952D02*
X315906771Y-122832714D01*
X315906771Y-122832714D02*
X315859152Y-122785095D01*
X315859152Y-122785095D02*
X315763914Y-122737476D01*
X315763914Y-122737476D02*
X315716295Y-122737476D01*
X315716295Y-122737476D02*
X315621057Y-122785095D01*
X315621057Y-122785095D02*
X315573438Y-122832714D01*
X315573438Y-122832714D02*
X315525819Y-122927952D01*
X315525819Y-122927952D02*
X315525819Y-123118428D01*
X315525819Y-123118428D02*
X315573438Y-123213666D01*
X315573438Y-123213666D02*
X315621057Y-123261285D01*
X315621057Y-123261285D02*
X315716295Y-123308904D01*
X315716295Y-123308904D02*
X315763914Y-123308904D01*
X315763914Y-123308904D02*
X315859152Y-123261285D01*
X315859152Y-123261285D02*
X315906771Y-123213666D01*
X315906771Y-123213666D02*
X315954390Y-123118428D01*
X315954390Y-123118428D02*
X315954390Y-122927952D01*
X315954390Y-122927952D02*
X316002009Y-122832714D01*
X316002009Y-122832714D02*
X316049628Y-122785095D01*
X316049628Y-122785095D02*
X316144866Y-122737476D01*
X316144866Y-122737476D02*
X316335342Y-122737476D01*
X316335342Y-122737476D02*
X316430580Y-122785095D01*
X316430580Y-122785095D02*
X316478200Y-122832714D01*
X316478200Y-122832714D02*
X316525819Y-122927952D01*
X316525819Y-122927952D02*
X316525819Y-123118428D01*
X316525819Y-123118428D02*
X316478200Y-123213666D01*
X316478200Y-123213666D02*
X316430580Y-123261285D01*
X316430580Y-123261285D02*
X316335342Y-123308904D01*
X316335342Y-123308904D02*
X316144866Y-123308904D01*
X316144866Y-123308904D02*
X316049628Y-123261285D01*
X316049628Y-123261285D02*
X316002009Y-123213666D01*
X316002009Y-123213666D02*
X315954390Y-123118428D01*
X223127766Y-184763580D02*
X223175385Y-184811200D01*
X223175385Y-184811200D02*
X223318242Y-184858819D01*
X223318242Y-184858819D02*
X223413480Y-184858819D01*
X223413480Y-184858819D02*
X223556337Y-184811200D01*
X223556337Y-184811200D02*
X223651575Y-184715961D01*
X223651575Y-184715961D02*
X223699194Y-184620723D01*
X223699194Y-184620723D02*
X223746813Y-184430247D01*
X223746813Y-184430247D02*
X223746813Y-184287390D01*
X223746813Y-184287390D02*
X223699194Y-184096914D01*
X223699194Y-184096914D02*
X223651575Y-184001676D01*
X223651575Y-184001676D02*
X223556337Y-183906438D01*
X223556337Y-183906438D02*
X223413480Y-183858819D01*
X223413480Y-183858819D02*
X223318242Y-183858819D01*
X223318242Y-183858819D02*
X223175385Y-183906438D01*
X223175385Y-183906438D02*
X223127766Y-183954057D01*
X222270623Y-183858819D02*
X222461099Y-183858819D01*
X222461099Y-183858819D02*
X222556337Y-183906438D01*
X222556337Y-183906438D02*
X222603956Y-183954057D01*
X222603956Y-183954057D02*
X222699194Y-184096914D01*
X222699194Y-184096914D02*
X222746813Y-184287390D01*
X222746813Y-184287390D02*
X222746813Y-184668342D01*
X222746813Y-184668342D02*
X222699194Y-184763580D01*
X222699194Y-184763580D02*
X222651575Y-184811200D01*
X222651575Y-184811200D02*
X222556337Y-184858819D01*
X222556337Y-184858819D02*
X222365861Y-184858819D01*
X222365861Y-184858819D02*
X222270623Y-184811200D01*
X222270623Y-184811200D02*
X222223004Y-184763580D01*
X222223004Y-184763580D02*
X222175385Y-184668342D01*
X222175385Y-184668342D02*
X222175385Y-184430247D01*
X222175385Y-184430247D02*
X222223004Y-184335009D01*
X222223004Y-184335009D02*
X222270623Y-184287390D01*
X222270623Y-184287390D02*
X222365861Y-184239771D01*
X222365861Y-184239771D02*
X222556337Y-184239771D01*
X222556337Y-184239771D02*
X222651575Y-184287390D01*
X222651575Y-184287390D02*
X222699194Y-184335009D01*
X222699194Y-184335009D02*
X222746813Y-184430247D01*
X287950819Y-101782714D02*
X286950819Y-101782714D01*
X286950819Y-101782714D02*
X286950819Y-102020809D01*
X286950819Y-102020809D02*
X286998438Y-102163666D01*
X286998438Y-102163666D02*
X287093676Y-102258904D01*
X287093676Y-102258904D02*
X287188914Y-102306523D01*
X287188914Y-102306523D02*
X287379390Y-102354142D01*
X287379390Y-102354142D02*
X287522247Y-102354142D01*
X287522247Y-102354142D02*
X287712723Y-102306523D01*
X287712723Y-102306523D02*
X287807961Y-102258904D01*
X287807961Y-102258904D02*
X287903200Y-102163666D01*
X287903200Y-102163666D02*
X287950819Y-102020809D01*
X287950819Y-102020809D02*
X287950819Y-101782714D01*
X287950819Y-103306523D02*
X287950819Y-102735095D01*
X287950819Y-103020809D02*
X286950819Y-103020809D01*
X286950819Y-103020809D02*
X287093676Y-102925571D01*
X287093676Y-102925571D02*
X287188914Y-102830333D01*
X287188914Y-102830333D02*
X287236533Y-102735095D01*
X286950819Y-103639857D02*
X286950819Y-104258904D01*
X286950819Y-104258904D02*
X287331771Y-103925571D01*
X287331771Y-103925571D02*
X287331771Y-104068428D01*
X287331771Y-104068428D02*
X287379390Y-104163666D01*
X287379390Y-104163666D02*
X287427009Y-104211285D01*
X287427009Y-104211285D02*
X287522247Y-104258904D01*
X287522247Y-104258904D02*
X287760342Y-104258904D01*
X287760342Y-104258904D02*
X287855580Y-104211285D01*
X287855580Y-104211285D02*
X287903200Y-104163666D01*
X287903200Y-104163666D02*
X287950819Y-104068428D01*
X287950819Y-104068428D02*
X287950819Y-103782714D01*
X287950819Y-103782714D02*
X287903200Y-103687476D01*
X287903200Y-103687476D02*
X287855580Y-103639857D01*
X318938819Y-159059714D02*
X317938819Y-159059714D01*
X317938819Y-159059714D02*
X317938819Y-159297809D01*
X317938819Y-159297809D02*
X317986438Y-159440666D01*
X317986438Y-159440666D02*
X318081676Y-159535904D01*
X318081676Y-159535904D02*
X318176914Y-159583523D01*
X318176914Y-159583523D02*
X318367390Y-159631142D01*
X318367390Y-159631142D02*
X318510247Y-159631142D01*
X318510247Y-159631142D02*
X318700723Y-159583523D01*
X318700723Y-159583523D02*
X318795961Y-159535904D01*
X318795961Y-159535904D02*
X318891200Y-159440666D01*
X318891200Y-159440666D02*
X318938819Y-159297809D01*
X318938819Y-159297809D02*
X318938819Y-159059714D01*
X317938819Y-160535904D02*
X317938819Y-160059714D01*
X317938819Y-160059714D02*
X318415009Y-160012095D01*
X318415009Y-160012095D02*
X318367390Y-160059714D01*
X318367390Y-160059714D02*
X318319771Y-160154952D01*
X318319771Y-160154952D02*
X318319771Y-160393047D01*
X318319771Y-160393047D02*
X318367390Y-160488285D01*
X318367390Y-160488285D02*
X318415009Y-160535904D01*
X318415009Y-160535904D02*
X318510247Y-160583523D01*
X318510247Y-160583523D02*
X318748342Y-160583523D01*
X318748342Y-160583523D02*
X318843580Y-160535904D01*
X318843580Y-160535904D02*
X318891200Y-160488285D01*
X318891200Y-160488285D02*
X318938819Y-160393047D01*
X318938819Y-160393047D02*
X318938819Y-160154952D01*
X318938819Y-160154952D02*
X318891200Y-160059714D01*
X318891200Y-160059714D02*
X318843580Y-160012095D01*
X317938819Y-160916857D02*
X317938819Y-161583523D01*
X317938819Y-161583523D02*
X318938819Y-161154952D01*
X268519819Y-177855714D02*
X267519819Y-177855714D01*
X267519819Y-177855714D02*
X267519819Y-178093809D01*
X267519819Y-178093809D02*
X267567438Y-178236666D01*
X267567438Y-178236666D02*
X267662676Y-178331904D01*
X267662676Y-178331904D02*
X267757914Y-178379523D01*
X267757914Y-178379523D02*
X267948390Y-178427142D01*
X267948390Y-178427142D02*
X268091247Y-178427142D01*
X268091247Y-178427142D02*
X268281723Y-178379523D01*
X268281723Y-178379523D02*
X268376961Y-178331904D01*
X268376961Y-178331904D02*
X268472200Y-178236666D01*
X268472200Y-178236666D02*
X268519819Y-178093809D01*
X268519819Y-178093809D02*
X268519819Y-177855714D01*
X267519819Y-179284285D02*
X267519819Y-179093809D01*
X267519819Y-179093809D02*
X267567438Y-178998571D01*
X267567438Y-178998571D02*
X267615057Y-178950952D01*
X267615057Y-178950952D02*
X267757914Y-178855714D01*
X267757914Y-178855714D02*
X267948390Y-178808095D01*
X267948390Y-178808095D02*
X268329342Y-178808095D01*
X268329342Y-178808095D02*
X268424580Y-178855714D01*
X268424580Y-178855714D02*
X268472200Y-178903333D01*
X268472200Y-178903333D02*
X268519819Y-178998571D01*
X268519819Y-178998571D02*
X268519819Y-179189047D01*
X268519819Y-179189047D02*
X268472200Y-179284285D01*
X268472200Y-179284285D02*
X268424580Y-179331904D01*
X268424580Y-179331904D02*
X268329342Y-179379523D01*
X268329342Y-179379523D02*
X268091247Y-179379523D01*
X268091247Y-179379523D02*
X267996009Y-179331904D01*
X267996009Y-179331904D02*
X267948390Y-179284285D01*
X267948390Y-179284285D02*
X267900771Y-179189047D01*
X267900771Y-179189047D02*
X267900771Y-178998571D01*
X267900771Y-178998571D02*
X267948390Y-178903333D01*
X267948390Y-178903333D02*
X267996009Y-178855714D01*
X267996009Y-178855714D02*
X268091247Y-178808095D01*
X267853152Y-180236666D02*
X268519819Y-180236666D01*
X267472200Y-179998571D02*
X268186485Y-179760476D01*
X268186485Y-179760476D02*
X268186485Y-180379523D01*
X361491066Y-107262819D02*
X361824399Y-106786628D01*
X362062494Y-107262819D02*
X362062494Y-106262819D01*
X362062494Y-106262819D02*
X361681542Y-106262819D01*
X361681542Y-106262819D02*
X361586304Y-106310438D01*
X361586304Y-106310438D02*
X361538685Y-106358057D01*
X361538685Y-106358057D02*
X361491066Y-106453295D01*
X361491066Y-106453295D02*
X361491066Y-106596152D01*
X361491066Y-106596152D02*
X361538685Y-106691390D01*
X361538685Y-106691390D02*
X361586304Y-106739009D01*
X361586304Y-106739009D02*
X361681542Y-106786628D01*
X361681542Y-106786628D02*
X362062494Y-106786628D01*
X360919637Y-106691390D02*
X361014875Y-106643771D01*
X361014875Y-106643771D02*
X361062494Y-106596152D01*
X361062494Y-106596152D02*
X361110113Y-106500914D01*
X361110113Y-106500914D02*
X361110113Y-106453295D01*
X361110113Y-106453295D02*
X361062494Y-106358057D01*
X361062494Y-106358057D02*
X361014875Y-106310438D01*
X361014875Y-106310438D02*
X360919637Y-106262819D01*
X360919637Y-106262819D02*
X360729161Y-106262819D01*
X360729161Y-106262819D02*
X360633923Y-106310438D01*
X360633923Y-106310438D02*
X360586304Y-106358057D01*
X360586304Y-106358057D02*
X360538685Y-106453295D01*
X360538685Y-106453295D02*
X360538685Y-106500914D01*
X360538685Y-106500914D02*
X360586304Y-106596152D01*
X360586304Y-106596152D02*
X360633923Y-106643771D01*
X360633923Y-106643771D02*
X360729161Y-106691390D01*
X360729161Y-106691390D02*
X360919637Y-106691390D01*
X360919637Y-106691390D02*
X361014875Y-106739009D01*
X361014875Y-106739009D02*
X361062494Y-106786628D01*
X361062494Y-106786628D02*
X361110113Y-106881866D01*
X361110113Y-106881866D02*
X361110113Y-107072342D01*
X361110113Y-107072342D02*
X361062494Y-107167580D01*
X361062494Y-107167580D02*
X361014875Y-107215200D01*
X361014875Y-107215200D02*
X360919637Y-107262819D01*
X360919637Y-107262819D02*
X360729161Y-107262819D01*
X360729161Y-107262819D02*
X360633923Y-107215200D01*
X360633923Y-107215200D02*
X360586304Y-107167580D01*
X360586304Y-107167580D02*
X360538685Y-107072342D01*
X360538685Y-107072342D02*
X360538685Y-106881866D01*
X360538685Y-106881866D02*
X360586304Y-106786628D01*
X360586304Y-106786628D02*
X360633923Y-106739009D01*
X360633923Y-106739009D02*
X360729161Y-106691390D01*
X268773819Y-101782714D02*
X267773819Y-101782714D01*
X267773819Y-101782714D02*
X267773819Y-102020809D01*
X267773819Y-102020809D02*
X267821438Y-102163666D01*
X267821438Y-102163666D02*
X267916676Y-102258904D01*
X267916676Y-102258904D02*
X268011914Y-102306523D01*
X268011914Y-102306523D02*
X268202390Y-102354142D01*
X268202390Y-102354142D02*
X268345247Y-102354142D01*
X268345247Y-102354142D02*
X268535723Y-102306523D01*
X268535723Y-102306523D02*
X268630961Y-102258904D01*
X268630961Y-102258904D02*
X268726200Y-102163666D01*
X268726200Y-102163666D02*
X268773819Y-102020809D01*
X268773819Y-102020809D02*
X268773819Y-101782714D01*
X268773819Y-103306523D02*
X268773819Y-102735095D01*
X268773819Y-103020809D02*
X267773819Y-103020809D01*
X267773819Y-103020809D02*
X267916676Y-102925571D01*
X267916676Y-102925571D02*
X268011914Y-102830333D01*
X268011914Y-102830333D02*
X268059533Y-102735095D01*
X267869057Y-103687476D02*
X267821438Y-103735095D01*
X267821438Y-103735095D02*
X267773819Y-103830333D01*
X267773819Y-103830333D02*
X267773819Y-104068428D01*
X267773819Y-104068428D02*
X267821438Y-104163666D01*
X267821438Y-104163666D02*
X267869057Y-104211285D01*
X267869057Y-104211285D02*
X267964295Y-104258904D01*
X267964295Y-104258904D02*
X268059533Y-104258904D01*
X268059533Y-104258904D02*
X268202390Y-104211285D01*
X268202390Y-104211285D02*
X268773819Y-103639857D01*
X268773819Y-103639857D02*
X268773819Y-104258904D01*
X84097916Y-98497819D02*
X84431249Y-98021628D01*
X84669344Y-98497819D02*
X84669344Y-97497819D01*
X84669344Y-97497819D02*
X84288392Y-97497819D01*
X84288392Y-97497819D02*
X84193154Y-97545438D01*
X84193154Y-97545438D02*
X84145535Y-97593057D01*
X84145535Y-97593057D02*
X84097916Y-97688295D01*
X84097916Y-97688295D02*
X84097916Y-97831152D01*
X84097916Y-97831152D02*
X84145535Y-97926390D01*
X84145535Y-97926390D02*
X84193154Y-97974009D01*
X84193154Y-97974009D02*
X84288392Y-98021628D01*
X84288392Y-98021628D02*
X84669344Y-98021628D01*
X83193154Y-97497819D02*
X83669344Y-97497819D01*
X83669344Y-97497819D02*
X83716963Y-97974009D01*
X83716963Y-97974009D02*
X83669344Y-97926390D01*
X83669344Y-97926390D02*
X83574106Y-97878771D01*
X83574106Y-97878771D02*
X83336011Y-97878771D01*
X83336011Y-97878771D02*
X83240773Y-97926390D01*
X83240773Y-97926390D02*
X83193154Y-97974009D01*
X83193154Y-97974009D02*
X83145535Y-98069247D01*
X83145535Y-98069247D02*
X83145535Y-98307342D01*
X83145535Y-98307342D02*
X83193154Y-98402580D01*
X83193154Y-98402580D02*
X83240773Y-98450200D01*
X83240773Y-98450200D02*
X83336011Y-98497819D01*
X83336011Y-98497819D02*
X83574106Y-98497819D01*
X83574106Y-98497819D02*
X83669344Y-98450200D01*
X83669344Y-98450200D02*
X83716963Y-98402580D01*
X192700819Y-102258905D02*
X191700819Y-102258905D01*
X191700819Y-102258905D02*
X191700819Y-102497000D01*
X191700819Y-102497000D02*
X191748438Y-102639857D01*
X191748438Y-102639857D02*
X191843676Y-102735095D01*
X191843676Y-102735095D02*
X191938914Y-102782714D01*
X191938914Y-102782714D02*
X192129390Y-102830333D01*
X192129390Y-102830333D02*
X192272247Y-102830333D01*
X192272247Y-102830333D02*
X192462723Y-102782714D01*
X192462723Y-102782714D02*
X192557961Y-102735095D01*
X192557961Y-102735095D02*
X192653200Y-102639857D01*
X192653200Y-102639857D02*
X192700819Y-102497000D01*
X192700819Y-102497000D02*
X192700819Y-102258905D01*
X192129390Y-103401762D02*
X192081771Y-103306524D01*
X192081771Y-103306524D02*
X192034152Y-103258905D01*
X192034152Y-103258905D02*
X191938914Y-103211286D01*
X191938914Y-103211286D02*
X191891295Y-103211286D01*
X191891295Y-103211286D02*
X191796057Y-103258905D01*
X191796057Y-103258905D02*
X191748438Y-103306524D01*
X191748438Y-103306524D02*
X191700819Y-103401762D01*
X191700819Y-103401762D02*
X191700819Y-103592238D01*
X191700819Y-103592238D02*
X191748438Y-103687476D01*
X191748438Y-103687476D02*
X191796057Y-103735095D01*
X191796057Y-103735095D02*
X191891295Y-103782714D01*
X191891295Y-103782714D02*
X191938914Y-103782714D01*
X191938914Y-103782714D02*
X192034152Y-103735095D01*
X192034152Y-103735095D02*
X192081771Y-103687476D01*
X192081771Y-103687476D02*
X192129390Y-103592238D01*
X192129390Y-103592238D02*
X192129390Y-103401762D01*
X192129390Y-103401762D02*
X192177009Y-103306524D01*
X192177009Y-103306524D02*
X192224628Y-103258905D01*
X192224628Y-103258905D02*
X192319866Y-103211286D01*
X192319866Y-103211286D02*
X192510342Y-103211286D01*
X192510342Y-103211286D02*
X192605580Y-103258905D01*
X192605580Y-103258905D02*
X192653200Y-103306524D01*
X192653200Y-103306524D02*
X192700819Y-103401762D01*
X192700819Y-103401762D02*
X192700819Y-103592238D01*
X192700819Y-103592238D02*
X192653200Y-103687476D01*
X192653200Y-103687476D02*
X192605580Y-103735095D01*
X192605580Y-103735095D02*
X192510342Y-103782714D01*
X192510342Y-103782714D02*
X192319866Y-103782714D01*
X192319866Y-103782714D02*
X192224628Y-103735095D01*
X192224628Y-103735095D02*
X192177009Y-103687476D01*
X192177009Y-103687476D02*
X192129390Y-103592238D01*
X106848819Y-120832714D02*
X105848819Y-120832714D01*
X105848819Y-120832714D02*
X105848819Y-121070809D01*
X105848819Y-121070809D02*
X105896438Y-121213666D01*
X105896438Y-121213666D02*
X105991676Y-121308904D01*
X105991676Y-121308904D02*
X106086914Y-121356523D01*
X106086914Y-121356523D02*
X106277390Y-121404142D01*
X106277390Y-121404142D02*
X106420247Y-121404142D01*
X106420247Y-121404142D02*
X106610723Y-121356523D01*
X106610723Y-121356523D02*
X106705961Y-121308904D01*
X106705961Y-121308904D02*
X106801200Y-121213666D01*
X106801200Y-121213666D02*
X106848819Y-121070809D01*
X106848819Y-121070809D02*
X106848819Y-120832714D01*
X106848819Y-122356523D02*
X106848819Y-121785095D01*
X106848819Y-122070809D02*
X105848819Y-122070809D01*
X105848819Y-122070809D02*
X105991676Y-121975571D01*
X105991676Y-121975571D02*
X106086914Y-121880333D01*
X106086914Y-121880333D02*
X106134533Y-121785095D01*
X105848819Y-122689857D02*
X105848819Y-123356523D01*
X105848819Y-123356523D02*
X106848819Y-122927952D01*
X135169819Y-102258905D02*
X134169819Y-102258905D01*
X134169819Y-102258905D02*
X134169819Y-102497000D01*
X134169819Y-102497000D02*
X134217438Y-102639857D01*
X134217438Y-102639857D02*
X134312676Y-102735095D01*
X134312676Y-102735095D02*
X134407914Y-102782714D01*
X134407914Y-102782714D02*
X134598390Y-102830333D01*
X134598390Y-102830333D02*
X134741247Y-102830333D01*
X134741247Y-102830333D02*
X134931723Y-102782714D01*
X134931723Y-102782714D02*
X135026961Y-102735095D01*
X135026961Y-102735095D02*
X135122200Y-102639857D01*
X135122200Y-102639857D02*
X135169819Y-102497000D01*
X135169819Y-102497000D02*
X135169819Y-102258905D01*
X134169819Y-103735095D02*
X134169819Y-103258905D01*
X134169819Y-103258905D02*
X134646009Y-103211286D01*
X134646009Y-103211286D02*
X134598390Y-103258905D01*
X134598390Y-103258905D02*
X134550771Y-103354143D01*
X134550771Y-103354143D02*
X134550771Y-103592238D01*
X134550771Y-103592238D02*
X134598390Y-103687476D01*
X134598390Y-103687476D02*
X134646009Y-103735095D01*
X134646009Y-103735095D02*
X134741247Y-103782714D01*
X134741247Y-103782714D02*
X134979342Y-103782714D01*
X134979342Y-103782714D02*
X135074580Y-103735095D01*
X135074580Y-103735095D02*
X135122200Y-103687476D01*
X135122200Y-103687476D02*
X135169819Y-103592238D01*
X135169819Y-103592238D02*
X135169819Y-103354143D01*
X135169819Y-103354143D02*
X135122200Y-103258905D01*
X135122200Y-103258905D02*
X135074580Y-103211286D01*
X102149819Y-159059714D02*
X101149819Y-159059714D01*
X101149819Y-159059714D02*
X101149819Y-159297809D01*
X101149819Y-159297809D02*
X101197438Y-159440666D01*
X101197438Y-159440666D02*
X101292676Y-159535904D01*
X101292676Y-159535904D02*
X101387914Y-159583523D01*
X101387914Y-159583523D02*
X101578390Y-159631142D01*
X101578390Y-159631142D02*
X101721247Y-159631142D01*
X101721247Y-159631142D02*
X101911723Y-159583523D01*
X101911723Y-159583523D02*
X102006961Y-159535904D01*
X102006961Y-159535904D02*
X102102200Y-159440666D01*
X102102200Y-159440666D02*
X102149819Y-159297809D01*
X102149819Y-159297809D02*
X102149819Y-159059714D01*
X101483152Y-160488285D02*
X102149819Y-160488285D01*
X101102200Y-160250190D02*
X101816485Y-160012095D01*
X101816485Y-160012095D02*
X101816485Y-160631142D01*
X101149819Y-161440666D02*
X101149819Y-161250190D01*
X101149819Y-161250190D02*
X101197438Y-161154952D01*
X101197438Y-161154952D02*
X101245057Y-161107333D01*
X101245057Y-161107333D02*
X101387914Y-161012095D01*
X101387914Y-161012095D02*
X101578390Y-160964476D01*
X101578390Y-160964476D02*
X101959342Y-160964476D01*
X101959342Y-160964476D02*
X102054580Y-161012095D01*
X102054580Y-161012095D02*
X102102200Y-161059714D01*
X102102200Y-161059714D02*
X102149819Y-161154952D01*
X102149819Y-161154952D02*
X102149819Y-161345428D01*
X102149819Y-161345428D02*
X102102200Y-161440666D01*
X102102200Y-161440666D02*
X102054580Y-161488285D01*
X102054580Y-161488285D02*
X101959342Y-161535904D01*
X101959342Y-161535904D02*
X101721247Y-161535904D01*
X101721247Y-161535904D02*
X101626009Y-161488285D01*
X101626009Y-161488285D02*
X101578390Y-161440666D01*
X101578390Y-161440666D02*
X101530771Y-161345428D01*
X101530771Y-161345428D02*
X101530771Y-161154952D01*
X101530771Y-161154952D02*
X101578390Y-161059714D01*
X101578390Y-161059714D02*
X101626009Y-161012095D01*
X101626009Y-161012095D02*
X101721247Y-160964476D01*
X234250228Y-174725309D02*
X234726419Y-174725309D01*
X233726419Y-174391976D02*
X234250228Y-174725309D01*
X234250228Y-174725309D02*
X233726419Y-175058642D01*
X234726419Y-175915785D02*
X234726419Y-175344357D01*
X234726419Y-175630071D02*
X233726419Y-175630071D01*
X233726419Y-175630071D02*
X233869276Y-175534833D01*
X233869276Y-175534833D02*
X233964514Y-175439595D01*
X233964514Y-175439595D02*
X234012133Y-175344357D01*
X307000819Y-101782714D02*
X306000819Y-101782714D01*
X306000819Y-101782714D02*
X306000819Y-102020809D01*
X306000819Y-102020809D02*
X306048438Y-102163666D01*
X306048438Y-102163666D02*
X306143676Y-102258904D01*
X306143676Y-102258904D02*
X306238914Y-102306523D01*
X306238914Y-102306523D02*
X306429390Y-102354142D01*
X306429390Y-102354142D02*
X306572247Y-102354142D01*
X306572247Y-102354142D02*
X306762723Y-102306523D01*
X306762723Y-102306523D02*
X306857961Y-102258904D01*
X306857961Y-102258904D02*
X306953200Y-102163666D01*
X306953200Y-102163666D02*
X307000819Y-102020809D01*
X307000819Y-102020809D02*
X307000819Y-101782714D01*
X307000819Y-103306523D02*
X307000819Y-102735095D01*
X307000819Y-103020809D02*
X306000819Y-103020809D01*
X306000819Y-103020809D02*
X306143676Y-102925571D01*
X306143676Y-102925571D02*
X306238914Y-102830333D01*
X306238914Y-102830333D02*
X306286533Y-102735095D01*
X306334152Y-104163666D02*
X307000819Y-104163666D01*
X305953200Y-103925571D02*
X306667485Y-103687476D01*
X306667485Y-103687476D02*
X306667485Y-104306523D01*
X81684594Y-93182444D02*
X81684594Y-93991967D01*
X81684594Y-93991967D02*
X81636975Y-94087205D01*
X81636975Y-94087205D02*
X81589356Y-94134825D01*
X81589356Y-94134825D02*
X81494118Y-94182444D01*
X81494118Y-94182444D02*
X81303642Y-94182444D01*
X81303642Y-94182444D02*
X81208404Y-94134825D01*
X81208404Y-94134825D02*
X81160785Y-94087205D01*
X81160785Y-94087205D02*
X81113166Y-93991967D01*
X81113166Y-93991967D02*
X81113166Y-93182444D01*
X80684594Y-94134825D02*
X80541737Y-94182444D01*
X80541737Y-94182444D02*
X80303642Y-94182444D01*
X80303642Y-94182444D02*
X80208404Y-94134825D01*
X80208404Y-94134825D02*
X80160785Y-94087205D01*
X80160785Y-94087205D02*
X80113166Y-93991967D01*
X80113166Y-93991967D02*
X80113166Y-93896729D01*
X80113166Y-93896729D02*
X80160785Y-93801491D01*
X80160785Y-93801491D02*
X80208404Y-93753872D01*
X80208404Y-93753872D02*
X80303642Y-93706253D01*
X80303642Y-93706253D02*
X80494118Y-93658634D01*
X80494118Y-93658634D02*
X80589356Y-93611015D01*
X80589356Y-93611015D02*
X80636975Y-93563396D01*
X80636975Y-93563396D02*
X80684594Y-93468158D01*
X80684594Y-93468158D02*
X80684594Y-93372920D01*
X80684594Y-93372920D02*
X80636975Y-93277682D01*
X80636975Y-93277682D02*
X80589356Y-93230063D01*
X80589356Y-93230063D02*
X80494118Y-93182444D01*
X80494118Y-93182444D02*
X80256023Y-93182444D01*
X80256023Y-93182444D02*
X80113166Y-93230063D01*
X79351261Y-93658634D02*
X79208404Y-93706253D01*
X79208404Y-93706253D02*
X79160785Y-93753872D01*
X79160785Y-93753872D02*
X79113166Y-93849110D01*
X79113166Y-93849110D02*
X79113166Y-93991967D01*
X79113166Y-93991967D02*
X79160785Y-94087205D01*
X79160785Y-94087205D02*
X79208404Y-94134825D01*
X79208404Y-94134825D02*
X79303642Y-94182444D01*
X79303642Y-94182444D02*
X79684594Y-94182444D01*
X79684594Y-94182444D02*
X79684594Y-93182444D01*
X79684594Y-93182444D02*
X79351261Y-93182444D01*
X79351261Y-93182444D02*
X79256023Y-93230063D01*
X79256023Y-93230063D02*
X79208404Y-93277682D01*
X79208404Y-93277682D02*
X79160785Y-93372920D01*
X79160785Y-93372920D02*
X79160785Y-93468158D01*
X79160785Y-93468158D02*
X79208404Y-93563396D01*
X79208404Y-93563396D02*
X79256023Y-93611015D01*
X79256023Y-93611015D02*
X79351261Y-93658634D01*
X79351261Y-93658634D02*
X79684594Y-93658634D01*
X78160785Y-94182444D02*
X78732213Y-94182444D01*
X78446499Y-94182444D02*
X78446499Y-93182444D01*
X78446499Y-93182444D02*
X78541737Y-93325301D01*
X78541737Y-93325301D02*
X78636975Y-93420539D01*
X78636975Y-93420539D02*
X78732213Y-93468158D01*
X307000819Y-177855714D02*
X306000819Y-177855714D01*
X306000819Y-177855714D02*
X306000819Y-178093809D01*
X306000819Y-178093809D02*
X306048438Y-178236666D01*
X306048438Y-178236666D02*
X306143676Y-178331904D01*
X306143676Y-178331904D02*
X306238914Y-178379523D01*
X306238914Y-178379523D02*
X306429390Y-178427142D01*
X306429390Y-178427142D02*
X306572247Y-178427142D01*
X306572247Y-178427142D02*
X306762723Y-178379523D01*
X306762723Y-178379523D02*
X306857961Y-178331904D01*
X306857961Y-178331904D02*
X306953200Y-178236666D01*
X306953200Y-178236666D02*
X307000819Y-178093809D01*
X307000819Y-178093809D02*
X307000819Y-177855714D01*
X306000819Y-179284285D02*
X306000819Y-179093809D01*
X306000819Y-179093809D02*
X306048438Y-178998571D01*
X306048438Y-178998571D02*
X306096057Y-178950952D01*
X306096057Y-178950952D02*
X306238914Y-178855714D01*
X306238914Y-178855714D02*
X306429390Y-178808095D01*
X306429390Y-178808095D02*
X306810342Y-178808095D01*
X306810342Y-178808095D02*
X306905580Y-178855714D01*
X306905580Y-178855714D02*
X306953200Y-178903333D01*
X306953200Y-178903333D02*
X307000819Y-178998571D01*
X307000819Y-178998571D02*
X307000819Y-179189047D01*
X307000819Y-179189047D02*
X306953200Y-179284285D01*
X306953200Y-179284285D02*
X306905580Y-179331904D01*
X306905580Y-179331904D02*
X306810342Y-179379523D01*
X306810342Y-179379523D02*
X306572247Y-179379523D01*
X306572247Y-179379523D02*
X306477009Y-179331904D01*
X306477009Y-179331904D02*
X306429390Y-179284285D01*
X306429390Y-179284285D02*
X306381771Y-179189047D01*
X306381771Y-179189047D02*
X306381771Y-178998571D01*
X306381771Y-178998571D02*
X306429390Y-178903333D01*
X306429390Y-178903333D02*
X306477009Y-178855714D01*
X306477009Y-178855714D02*
X306572247Y-178808095D01*
X306000819Y-180236666D02*
X306000819Y-180046190D01*
X306000819Y-180046190D02*
X306048438Y-179950952D01*
X306048438Y-179950952D02*
X306096057Y-179903333D01*
X306096057Y-179903333D02*
X306238914Y-179808095D01*
X306238914Y-179808095D02*
X306429390Y-179760476D01*
X306429390Y-179760476D02*
X306810342Y-179760476D01*
X306810342Y-179760476D02*
X306905580Y-179808095D01*
X306905580Y-179808095D02*
X306953200Y-179855714D01*
X306953200Y-179855714D02*
X307000819Y-179950952D01*
X307000819Y-179950952D02*
X307000819Y-180141428D01*
X307000819Y-180141428D02*
X306953200Y-180236666D01*
X306953200Y-180236666D02*
X306905580Y-180284285D01*
X306905580Y-180284285D02*
X306810342Y-180331904D01*
X306810342Y-180331904D02*
X306572247Y-180331904D01*
X306572247Y-180331904D02*
X306477009Y-180284285D01*
X306477009Y-180284285D02*
X306429390Y-180236666D01*
X306429390Y-180236666D02*
X306381771Y-180141428D01*
X306381771Y-180141428D02*
X306381771Y-179950952D01*
X306381771Y-179950952D02*
X306429390Y-179855714D01*
X306429390Y-179855714D02*
X306477009Y-179808095D01*
X306477009Y-179808095D02*
X306572247Y-179760476D01*
X126025819Y-120832714D02*
X125025819Y-120832714D01*
X125025819Y-120832714D02*
X125025819Y-121070809D01*
X125025819Y-121070809D02*
X125073438Y-121213666D01*
X125073438Y-121213666D02*
X125168676Y-121308904D01*
X125168676Y-121308904D02*
X125263914Y-121356523D01*
X125263914Y-121356523D02*
X125454390Y-121404142D01*
X125454390Y-121404142D02*
X125597247Y-121404142D01*
X125597247Y-121404142D02*
X125787723Y-121356523D01*
X125787723Y-121356523D02*
X125882961Y-121308904D01*
X125882961Y-121308904D02*
X125978200Y-121213666D01*
X125978200Y-121213666D02*
X126025819Y-121070809D01*
X126025819Y-121070809D02*
X126025819Y-120832714D01*
X126025819Y-122356523D02*
X126025819Y-121785095D01*
X126025819Y-122070809D02*
X125025819Y-122070809D01*
X125025819Y-122070809D02*
X125168676Y-121975571D01*
X125168676Y-121975571D02*
X125263914Y-121880333D01*
X125263914Y-121880333D02*
X125311533Y-121785095D01*
X125454390Y-122927952D02*
X125406771Y-122832714D01*
X125406771Y-122832714D02*
X125359152Y-122785095D01*
X125359152Y-122785095D02*
X125263914Y-122737476D01*
X125263914Y-122737476D02*
X125216295Y-122737476D01*
X125216295Y-122737476D02*
X125121057Y-122785095D01*
X125121057Y-122785095D02*
X125073438Y-122832714D01*
X125073438Y-122832714D02*
X125025819Y-122927952D01*
X125025819Y-122927952D02*
X125025819Y-123118428D01*
X125025819Y-123118428D02*
X125073438Y-123213666D01*
X125073438Y-123213666D02*
X125121057Y-123261285D01*
X125121057Y-123261285D02*
X125216295Y-123308904D01*
X125216295Y-123308904D02*
X125263914Y-123308904D01*
X125263914Y-123308904D02*
X125359152Y-123261285D01*
X125359152Y-123261285D02*
X125406771Y-123213666D01*
X125406771Y-123213666D02*
X125454390Y-123118428D01*
X125454390Y-123118428D02*
X125454390Y-122927952D01*
X125454390Y-122927952D02*
X125502009Y-122832714D01*
X125502009Y-122832714D02*
X125549628Y-122785095D01*
X125549628Y-122785095D02*
X125644866Y-122737476D01*
X125644866Y-122737476D02*
X125835342Y-122737476D01*
X125835342Y-122737476D02*
X125930580Y-122785095D01*
X125930580Y-122785095D02*
X125978200Y-122832714D01*
X125978200Y-122832714D02*
X126025819Y-122927952D01*
X126025819Y-122927952D02*
X126025819Y-123118428D01*
X126025819Y-123118428D02*
X125978200Y-123213666D01*
X125978200Y-123213666D02*
X125930580Y-123261285D01*
X125930580Y-123261285D02*
X125835342Y-123308904D01*
X125835342Y-123308904D02*
X125644866Y-123308904D01*
X125644866Y-123308904D02*
X125549628Y-123261285D01*
X125549628Y-123261285D02*
X125502009Y-123213666D01*
X125502009Y-123213666D02*
X125454390Y-123118428D01*
X212131819Y-102258905D02*
X211131819Y-102258905D01*
X211131819Y-102258905D02*
X211131819Y-102497000D01*
X211131819Y-102497000D02*
X211179438Y-102639857D01*
X211179438Y-102639857D02*
X211274676Y-102735095D01*
X211274676Y-102735095D02*
X211369914Y-102782714D01*
X211369914Y-102782714D02*
X211560390Y-102830333D01*
X211560390Y-102830333D02*
X211703247Y-102830333D01*
X211703247Y-102830333D02*
X211893723Y-102782714D01*
X211893723Y-102782714D02*
X211988961Y-102735095D01*
X211988961Y-102735095D02*
X212084200Y-102639857D01*
X212084200Y-102639857D02*
X212131819Y-102497000D01*
X212131819Y-102497000D02*
X212131819Y-102258905D01*
X212131819Y-103306524D02*
X212131819Y-103497000D01*
X212131819Y-103497000D02*
X212084200Y-103592238D01*
X212084200Y-103592238D02*
X212036580Y-103639857D01*
X212036580Y-103639857D02*
X211893723Y-103735095D01*
X211893723Y-103735095D02*
X211703247Y-103782714D01*
X211703247Y-103782714D02*
X211322295Y-103782714D01*
X211322295Y-103782714D02*
X211227057Y-103735095D01*
X211227057Y-103735095D02*
X211179438Y-103687476D01*
X211179438Y-103687476D02*
X211131819Y-103592238D01*
X211131819Y-103592238D02*
X211131819Y-103401762D01*
X211131819Y-103401762D02*
X211179438Y-103306524D01*
X211179438Y-103306524D02*
X211227057Y-103258905D01*
X211227057Y-103258905D02*
X211322295Y-103211286D01*
X211322295Y-103211286D02*
X211560390Y-103211286D01*
X211560390Y-103211286D02*
X211655628Y-103258905D01*
X211655628Y-103258905D02*
X211703247Y-103306524D01*
X211703247Y-103306524D02*
X211750866Y-103401762D01*
X211750866Y-103401762D02*
X211750866Y-103592238D01*
X211750866Y-103592238D02*
X211703247Y-103687476D01*
X211703247Y-103687476D02*
X211655628Y-103735095D01*
X211655628Y-103735095D02*
X211560390Y-103782714D01*
X81887094Y-97551669D02*
X81887094Y-96551669D01*
X81887094Y-96551669D02*
X81648999Y-96551669D01*
X81648999Y-96551669D02*
X81506142Y-96599288D01*
X81506142Y-96599288D02*
X81410904Y-96694526D01*
X81410904Y-96694526D02*
X81363285Y-96789764D01*
X81363285Y-96789764D02*
X81315666Y-96980240D01*
X81315666Y-96980240D02*
X81315666Y-97123097D01*
X81315666Y-97123097D02*
X81363285Y-97313573D01*
X81363285Y-97313573D02*
X81410904Y-97408811D01*
X81410904Y-97408811D02*
X81506142Y-97504050D01*
X81506142Y-97504050D02*
X81648999Y-97551669D01*
X81648999Y-97551669D02*
X81887094Y-97551669D01*
X80363285Y-97551669D02*
X80934713Y-97551669D01*
X80648999Y-97551669D02*
X80648999Y-96551669D01*
X80648999Y-96551669D02*
X80744237Y-96694526D01*
X80744237Y-96694526D02*
X80839475Y-96789764D01*
X80839475Y-96789764D02*
X80934713Y-96837383D01*
X76525666Y-95197819D02*
X76858999Y-94721628D01*
X77097094Y-95197819D02*
X77097094Y-94197819D01*
X77097094Y-94197819D02*
X76716142Y-94197819D01*
X76716142Y-94197819D02*
X76620904Y-94245438D01*
X76620904Y-94245438D02*
X76573285Y-94293057D01*
X76573285Y-94293057D02*
X76525666Y-94388295D01*
X76525666Y-94388295D02*
X76525666Y-94531152D01*
X76525666Y-94531152D02*
X76573285Y-94626390D01*
X76573285Y-94626390D02*
X76620904Y-94674009D01*
X76620904Y-94674009D02*
X76716142Y-94721628D01*
X76716142Y-94721628D02*
X77097094Y-94721628D01*
X75668523Y-94197819D02*
X75858999Y-94197819D01*
X75858999Y-94197819D02*
X75954237Y-94245438D01*
X75954237Y-94245438D02*
X76001856Y-94293057D01*
X76001856Y-94293057D02*
X76097094Y-94435914D01*
X76097094Y-94435914D02*
X76144713Y-94626390D01*
X76144713Y-94626390D02*
X76144713Y-95007342D01*
X76144713Y-95007342D02*
X76097094Y-95102580D01*
X76097094Y-95102580D02*
X76049475Y-95150200D01*
X76049475Y-95150200D02*
X75954237Y-95197819D01*
X75954237Y-95197819D02*
X75763761Y-95197819D01*
X75763761Y-95197819D02*
X75668523Y-95150200D01*
X75668523Y-95150200D02*
X75620904Y-95102580D01*
X75620904Y-95102580D02*
X75573285Y-95007342D01*
X75573285Y-95007342D02*
X75573285Y-94769247D01*
X75573285Y-94769247D02*
X75620904Y-94674009D01*
X75620904Y-94674009D02*
X75668523Y-94626390D01*
X75668523Y-94626390D02*
X75763761Y-94578771D01*
X75763761Y-94578771D02*
X75954237Y-94578771D01*
X75954237Y-94578771D02*
X76049475Y-94626390D01*
X76049475Y-94626390D02*
X76097094Y-94674009D01*
X76097094Y-94674009D02*
X76144713Y-94769247D01*
X202352819Y-120832714D02*
X201352819Y-120832714D01*
X201352819Y-120832714D02*
X201352819Y-121070809D01*
X201352819Y-121070809D02*
X201400438Y-121213666D01*
X201400438Y-121213666D02*
X201495676Y-121308904D01*
X201495676Y-121308904D02*
X201590914Y-121356523D01*
X201590914Y-121356523D02*
X201781390Y-121404142D01*
X201781390Y-121404142D02*
X201924247Y-121404142D01*
X201924247Y-121404142D02*
X202114723Y-121356523D01*
X202114723Y-121356523D02*
X202209961Y-121308904D01*
X202209961Y-121308904D02*
X202305200Y-121213666D01*
X202305200Y-121213666D02*
X202352819Y-121070809D01*
X202352819Y-121070809D02*
X202352819Y-120832714D01*
X201448057Y-121785095D02*
X201400438Y-121832714D01*
X201400438Y-121832714D02*
X201352819Y-121927952D01*
X201352819Y-121927952D02*
X201352819Y-122166047D01*
X201352819Y-122166047D02*
X201400438Y-122261285D01*
X201400438Y-122261285D02*
X201448057Y-122308904D01*
X201448057Y-122308904D02*
X201543295Y-122356523D01*
X201543295Y-122356523D02*
X201638533Y-122356523D01*
X201638533Y-122356523D02*
X201781390Y-122308904D01*
X201781390Y-122308904D02*
X202352819Y-121737476D01*
X202352819Y-121737476D02*
X202352819Y-122356523D01*
X201448057Y-122737476D02*
X201400438Y-122785095D01*
X201400438Y-122785095D02*
X201352819Y-122880333D01*
X201352819Y-122880333D02*
X201352819Y-123118428D01*
X201352819Y-123118428D02*
X201400438Y-123213666D01*
X201400438Y-123213666D02*
X201448057Y-123261285D01*
X201448057Y-123261285D02*
X201543295Y-123308904D01*
X201543295Y-123308904D02*
X201638533Y-123308904D01*
X201638533Y-123308904D02*
X201781390Y-123261285D01*
X201781390Y-123261285D02*
X202352819Y-122689857D01*
X202352819Y-122689857D02*
X202352819Y-123308904D01*
X235626819Y-158805714D02*
X234626819Y-158805714D01*
X234626819Y-158805714D02*
X234626819Y-159043809D01*
X234626819Y-159043809D02*
X234674438Y-159186666D01*
X234674438Y-159186666D02*
X234769676Y-159281904D01*
X234769676Y-159281904D02*
X234864914Y-159329523D01*
X234864914Y-159329523D02*
X235055390Y-159377142D01*
X235055390Y-159377142D02*
X235198247Y-159377142D01*
X235198247Y-159377142D02*
X235388723Y-159329523D01*
X235388723Y-159329523D02*
X235483961Y-159281904D01*
X235483961Y-159281904D02*
X235579200Y-159186666D01*
X235579200Y-159186666D02*
X235626819Y-159043809D01*
X235626819Y-159043809D02*
X235626819Y-158805714D01*
X234626819Y-160281904D02*
X234626819Y-159805714D01*
X234626819Y-159805714D02*
X235103009Y-159758095D01*
X235103009Y-159758095D02*
X235055390Y-159805714D01*
X235055390Y-159805714D02*
X235007771Y-159900952D01*
X235007771Y-159900952D02*
X235007771Y-160139047D01*
X235007771Y-160139047D02*
X235055390Y-160234285D01*
X235055390Y-160234285D02*
X235103009Y-160281904D01*
X235103009Y-160281904D02*
X235198247Y-160329523D01*
X235198247Y-160329523D02*
X235436342Y-160329523D01*
X235436342Y-160329523D02*
X235531580Y-160281904D01*
X235531580Y-160281904D02*
X235579200Y-160234285D01*
X235579200Y-160234285D02*
X235626819Y-160139047D01*
X235626819Y-160139047D02*
X235626819Y-159900952D01*
X235626819Y-159900952D02*
X235579200Y-159805714D01*
X235579200Y-159805714D02*
X235531580Y-159758095D01*
X234626819Y-160662857D02*
X234626819Y-161281904D01*
X234626819Y-161281904D02*
X235007771Y-160948571D01*
X235007771Y-160948571D02*
X235007771Y-161091428D01*
X235007771Y-161091428D02*
X235055390Y-161186666D01*
X235055390Y-161186666D02*
X235103009Y-161234285D01*
X235103009Y-161234285D02*
X235198247Y-161281904D01*
X235198247Y-161281904D02*
X235436342Y-161281904D01*
X235436342Y-161281904D02*
X235531580Y-161234285D01*
X235531580Y-161234285D02*
X235579200Y-161186666D01*
X235579200Y-161186666D02*
X235626819Y-161091428D01*
X235626819Y-161091428D02*
X235626819Y-160805714D01*
X235626819Y-160805714D02*
X235579200Y-160710476D01*
X235579200Y-160710476D02*
X235531580Y-160662857D01*
X211030680Y-179128333D02*
X211078300Y-179080714D01*
X211078300Y-179080714D02*
X211125919Y-178937857D01*
X211125919Y-178937857D02*
X211125919Y-178842619D01*
X211125919Y-178842619D02*
X211078300Y-178699762D01*
X211078300Y-178699762D02*
X210983061Y-178604524D01*
X210983061Y-178604524D02*
X210887823Y-178556905D01*
X210887823Y-178556905D02*
X210697347Y-178509286D01*
X210697347Y-178509286D02*
X210554490Y-178509286D01*
X210554490Y-178509286D02*
X210364014Y-178556905D01*
X210364014Y-178556905D02*
X210268776Y-178604524D01*
X210268776Y-178604524D02*
X210173538Y-178699762D01*
X210173538Y-178699762D02*
X210125919Y-178842619D01*
X210125919Y-178842619D02*
X210125919Y-178937857D01*
X210125919Y-178937857D02*
X210173538Y-179080714D01*
X210173538Y-179080714D02*
X210221157Y-179128333D01*
X210459252Y-179985476D02*
X211125919Y-179985476D01*
X210078300Y-179747381D02*
X210792585Y-179509286D01*
X210792585Y-179509286D02*
X210792585Y-180128333D01*
X179514332Y-173337200D02*
X179371475Y-173384819D01*
X179371475Y-173384819D02*
X179133380Y-173384819D01*
X179133380Y-173384819D02*
X179038142Y-173337200D01*
X179038142Y-173337200D02*
X178990523Y-173289580D01*
X178990523Y-173289580D02*
X178942904Y-173194342D01*
X178942904Y-173194342D02*
X178942904Y-173099104D01*
X178942904Y-173099104D02*
X178990523Y-173003866D01*
X178990523Y-173003866D02*
X179038142Y-172956247D01*
X179038142Y-172956247D02*
X179133380Y-172908628D01*
X179133380Y-172908628D02*
X179323856Y-172861009D01*
X179323856Y-172861009D02*
X179419094Y-172813390D01*
X179419094Y-172813390D02*
X179466713Y-172765771D01*
X179466713Y-172765771D02*
X179514332Y-172670533D01*
X179514332Y-172670533D02*
X179514332Y-172575295D01*
X179514332Y-172575295D02*
X179466713Y-172480057D01*
X179466713Y-172480057D02*
X179419094Y-172432438D01*
X179419094Y-172432438D02*
X179323856Y-172384819D01*
X179323856Y-172384819D02*
X179085761Y-172384819D01*
X179085761Y-172384819D02*
X178942904Y-172432438D01*
X178609570Y-172384819D02*
X178371475Y-173384819D01*
X178371475Y-173384819D02*
X178180999Y-172670533D01*
X178180999Y-172670533D02*
X177990523Y-173384819D01*
X177990523Y-173384819D02*
X177752428Y-172384819D01*
X177419094Y-172480057D02*
X177371475Y-172432438D01*
X177371475Y-172432438D02*
X177276237Y-172384819D01*
X177276237Y-172384819D02*
X177038142Y-172384819D01*
X177038142Y-172384819D02*
X176942904Y-172432438D01*
X176942904Y-172432438D02*
X176895285Y-172480057D01*
X176895285Y-172480057D02*
X176847666Y-172575295D01*
X176847666Y-172575295D02*
X176847666Y-172670533D01*
X176847666Y-172670533D02*
X176895285Y-172813390D01*
X176895285Y-172813390D02*
X177466713Y-173384819D01*
X177466713Y-173384819D02*
X176847666Y-173384819D01*
X164125819Y-120832714D02*
X163125819Y-120832714D01*
X163125819Y-120832714D02*
X163125819Y-121070809D01*
X163125819Y-121070809D02*
X163173438Y-121213666D01*
X163173438Y-121213666D02*
X163268676Y-121308904D01*
X163268676Y-121308904D02*
X163363914Y-121356523D01*
X163363914Y-121356523D02*
X163554390Y-121404142D01*
X163554390Y-121404142D02*
X163697247Y-121404142D01*
X163697247Y-121404142D02*
X163887723Y-121356523D01*
X163887723Y-121356523D02*
X163982961Y-121308904D01*
X163982961Y-121308904D02*
X164078200Y-121213666D01*
X164078200Y-121213666D02*
X164125819Y-121070809D01*
X164125819Y-121070809D02*
X164125819Y-120832714D01*
X163221057Y-121785095D02*
X163173438Y-121832714D01*
X163173438Y-121832714D02*
X163125819Y-121927952D01*
X163125819Y-121927952D02*
X163125819Y-122166047D01*
X163125819Y-122166047D02*
X163173438Y-122261285D01*
X163173438Y-122261285D02*
X163221057Y-122308904D01*
X163221057Y-122308904D02*
X163316295Y-122356523D01*
X163316295Y-122356523D02*
X163411533Y-122356523D01*
X163411533Y-122356523D02*
X163554390Y-122308904D01*
X163554390Y-122308904D02*
X164125819Y-121737476D01*
X164125819Y-121737476D02*
X164125819Y-122356523D01*
X163125819Y-122975571D02*
X163125819Y-123070809D01*
X163125819Y-123070809D02*
X163173438Y-123166047D01*
X163173438Y-123166047D02*
X163221057Y-123213666D01*
X163221057Y-123213666D02*
X163316295Y-123261285D01*
X163316295Y-123261285D02*
X163506771Y-123308904D01*
X163506771Y-123308904D02*
X163744866Y-123308904D01*
X163744866Y-123308904D02*
X163935342Y-123261285D01*
X163935342Y-123261285D02*
X164030580Y-123213666D01*
X164030580Y-123213666D02*
X164078200Y-123166047D01*
X164078200Y-123166047D02*
X164125819Y-123070809D01*
X164125819Y-123070809D02*
X164125819Y-122975571D01*
X164125819Y-122975571D02*
X164078200Y-122880333D01*
X164078200Y-122880333D02*
X164030580Y-122832714D01*
X164030580Y-122832714D02*
X163935342Y-122785095D01*
X163935342Y-122785095D02*
X163744866Y-122737476D01*
X163744866Y-122737476D02*
X163506771Y-122737476D01*
X163506771Y-122737476D02*
X163316295Y-122785095D01*
X163316295Y-122785095D02*
X163221057Y-122832714D01*
X163221057Y-122832714D02*
X163173438Y-122880333D01*
X163173438Y-122880333D02*
X163125819Y-122975571D01*
X293411819Y-158805714D02*
X292411819Y-158805714D01*
X292411819Y-158805714D02*
X292411819Y-159043809D01*
X292411819Y-159043809D02*
X292459438Y-159186666D01*
X292459438Y-159186666D02*
X292554676Y-159281904D01*
X292554676Y-159281904D02*
X292649914Y-159329523D01*
X292649914Y-159329523D02*
X292840390Y-159377142D01*
X292840390Y-159377142D02*
X292983247Y-159377142D01*
X292983247Y-159377142D02*
X293173723Y-159329523D01*
X293173723Y-159329523D02*
X293268961Y-159281904D01*
X293268961Y-159281904D02*
X293364200Y-159186666D01*
X293364200Y-159186666D02*
X293411819Y-159043809D01*
X293411819Y-159043809D02*
X293411819Y-158805714D01*
X292411819Y-160281904D02*
X292411819Y-159805714D01*
X292411819Y-159805714D02*
X292888009Y-159758095D01*
X292888009Y-159758095D02*
X292840390Y-159805714D01*
X292840390Y-159805714D02*
X292792771Y-159900952D01*
X292792771Y-159900952D02*
X292792771Y-160139047D01*
X292792771Y-160139047D02*
X292840390Y-160234285D01*
X292840390Y-160234285D02*
X292888009Y-160281904D01*
X292888009Y-160281904D02*
X292983247Y-160329523D01*
X292983247Y-160329523D02*
X293221342Y-160329523D01*
X293221342Y-160329523D02*
X293316580Y-160281904D01*
X293316580Y-160281904D02*
X293364200Y-160234285D01*
X293364200Y-160234285D02*
X293411819Y-160139047D01*
X293411819Y-160139047D02*
X293411819Y-159900952D01*
X293411819Y-159900952D02*
X293364200Y-159805714D01*
X293364200Y-159805714D02*
X293316580Y-159758095D01*
X292411819Y-161186666D02*
X292411819Y-160996190D01*
X292411819Y-160996190D02*
X292459438Y-160900952D01*
X292459438Y-160900952D02*
X292507057Y-160853333D01*
X292507057Y-160853333D02*
X292649914Y-160758095D01*
X292649914Y-160758095D02*
X292840390Y-160710476D01*
X292840390Y-160710476D02*
X293221342Y-160710476D01*
X293221342Y-160710476D02*
X293316580Y-160758095D01*
X293316580Y-160758095D02*
X293364200Y-160805714D01*
X293364200Y-160805714D02*
X293411819Y-160900952D01*
X293411819Y-160900952D02*
X293411819Y-161091428D01*
X293411819Y-161091428D02*
X293364200Y-161186666D01*
X293364200Y-161186666D02*
X293316580Y-161234285D01*
X293316580Y-161234285D02*
X293221342Y-161281904D01*
X293221342Y-161281904D02*
X292983247Y-161281904D01*
X292983247Y-161281904D02*
X292888009Y-161234285D01*
X292888009Y-161234285D02*
X292840390Y-161186666D01*
X292840390Y-161186666D02*
X292792771Y-161091428D01*
X292792771Y-161091428D02*
X292792771Y-160900952D01*
X292792771Y-160900952D02*
X292840390Y-160805714D01*
X292840390Y-160805714D02*
X292888009Y-160758095D01*
X292888009Y-160758095D02*
X292983247Y-160710476D01*
X321605819Y-139882714D02*
X320605819Y-139882714D01*
X320605819Y-139882714D02*
X320605819Y-140120809D01*
X320605819Y-140120809D02*
X320653438Y-140263666D01*
X320653438Y-140263666D02*
X320748676Y-140358904D01*
X320748676Y-140358904D02*
X320843914Y-140406523D01*
X320843914Y-140406523D02*
X321034390Y-140454142D01*
X321034390Y-140454142D02*
X321177247Y-140454142D01*
X321177247Y-140454142D02*
X321367723Y-140406523D01*
X321367723Y-140406523D02*
X321462961Y-140358904D01*
X321462961Y-140358904D02*
X321558200Y-140263666D01*
X321558200Y-140263666D02*
X321605819Y-140120809D01*
X321605819Y-140120809D02*
X321605819Y-139882714D01*
X320939152Y-141311285D02*
X321605819Y-141311285D01*
X320558200Y-141073190D02*
X321272485Y-140835095D01*
X321272485Y-140835095D02*
X321272485Y-141454142D01*
X320701057Y-141787476D02*
X320653438Y-141835095D01*
X320653438Y-141835095D02*
X320605819Y-141930333D01*
X320605819Y-141930333D02*
X320605819Y-142168428D01*
X320605819Y-142168428D02*
X320653438Y-142263666D01*
X320653438Y-142263666D02*
X320701057Y-142311285D01*
X320701057Y-142311285D02*
X320796295Y-142358904D01*
X320796295Y-142358904D02*
X320891533Y-142358904D01*
X320891533Y-142358904D02*
X321034390Y-142311285D01*
X321034390Y-142311285D02*
X321605819Y-141739857D01*
X321605819Y-141739857D02*
X321605819Y-142358904D01*
X240706819Y-120959714D02*
X239706819Y-120959714D01*
X239706819Y-120959714D02*
X239706819Y-121197809D01*
X239706819Y-121197809D02*
X239754438Y-121340666D01*
X239754438Y-121340666D02*
X239849676Y-121435904D01*
X239849676Y-121435904D02*
X239944914Y-121483523D01*
X239944914Y-121483523D02*
X240135390Y-121531142D01*
X240135390Y-121531142D02*
X240278247Y-121531142D01*
X240278247Y-121531142D02*
X240468723Y-121483523D01*
X240468723Y-121483523D02*
X240563961Y-121435904D01*
X240563961Y-121435904D02*
X240659200Y-121340666D01*
X240659200Y-121340666D02*
X240706819Y-121197809D01*
X240706819Y-121197809D02*
X240706819Y-120959714D01*
X239802057Y-121912095D02*
X239754438Y-121959714D01*
X239754438Y-121959714D02*
X239706819Y-122054952D01*
X239706819Y-122054952D02*
X239706819Y-122293047D01*
X239706819Y-122293047D02*
X239754438Y-122388285D01*
X239754438Y-122388285D02*
X239802057Y-122435904D01*
X239802057Y-122435904D02*
X239897295Y-122483523D01*
X239897295Y-122483523D02*
X239992533Y-122483523D01*
X239992533Y-122483523D02*
X240135390Y-122435904D01*
X240135390Y-122435904D02*
X240706819Y-121864476D01*
X240706819Y-121864476D02*
X240706819Y-122483523D01*
X240040152Y-123340666D02*
X240706819Y-123340666D01*
X239659200Y-123102571D02*
X240373485Y-122864476D01*
X240373485Y-122864476D02*
X240373485Y-123483523D01*
X297602819Y-120832714D02*
X296602819Y-120832714D01*
X296602819Y-120832714D02*
X296602819Y-121070809D01*
X296602819Y-121070809D02*
X296650438Y-121213666D01*
X296650438Y-121213666D02*
X296745676Y-121308904D01*
X296745676Y-121308904D02*
X296840914Y-121356523D01*
X296840914Y-121356523D02*
X297031390Y-121404142D01*
X297031390Y-121404142D02*
X297174247Y-121404142D01*
X297174247Y-121404142D02*
X297364723Y-121356523D01*
X297364723Y-121356523D02*
X297459961Y-121308904D01*
X297459961Y-121308904D02*
X297555200Y-121213666D01*
X297555200Y-121213666D02*
X297602819Y-121070809D01*
X297602819Y-121070809D02*
X297602819Y-120832714D01*
X296698057Y-121785095D02*
X296650438Y-121832714D01*
X296650438Y-121832714D02*
X296602819Y-121927952D01*
X296602819Y-121927952D02*
X296602819Y-122166047D01*
X296602819Y-122166047D02*
X296650438Y-122261285D01*
X296650438Y-122261285D02*
X296698057Y-122308904D01*
X296698057Y-122308904D02*
X296793295Y-122356523D01*
X296793295Y-122356523D02*
X296888533Y-122356523D01*
X296888533Y-122356523D02*
X297031390Y-122308904D01*
X297031390Y-122308904D02*
X297602819Y-121737476D01*
X297602819Y-121737476D02*
X297602819Y-122356523D01*
X296602819Y-122689857D02*
X296602819Y-123356523D01*
X296602819Y-123356523D02*
X297602819Y-122927952D01*
X345100819Y-177982714D02*
X344100819Y-177982714D01*
X344100819Y-177982714D02*
X344100819Y-178220809D01*
X344100819Y-178220809D02*
X344148438Y-178363666D01*
X344148438Y-178363666D02*
X344243676Y-178458904D01*
X344243676Y-178458904D02*
X344338914Y-178506523D01*
X344338914Y-178506523D02*
X344529390Y-178554142D01*
X344529390Y-178554142D02*
X344672247Y-178554142D01*
X344672247Y-178554142D02*
X344862723Y-178506523D01*
X344862723Y-178506523D02*
X344957961Y-178458904D01*
X344957961Y-178458904D02*
X345053200Y-178363666D01*
X345053200Y-178363666D02*
X345100819Y-178220809D01*
X345100819Y-178220809D02*
X345100819Y-177982714D01*
X344100819Y-179411285D02*
X344100819Y-179220809D01*
X344100819Y-179220809D02*
X344148438Y-179125571D01*
X344148438Y-179125571D02*
X344196057Y-179077952D01*
X344196057Y-179077952D02*
X344338914Y-178982714D01*
X344338914Y-178982714D02*
X344529390Y-178935095D01*
X344529390Y-178935095D02*
X344910342Y-178935095D01*
X344910342Y-178935095D02*
X345005580Y-178982714D01*
X345005580Y-178982714D02*
X345053200Y-179030333D01*
X345053200Y-179030333D02*
X345100819Y-179125571D01*
X345100819Y-179125571D02*
X345100819Y-179316047D01*
X345100819Y-179316047D02*
X345053200Y-179411285D01*
X345053200Y-179411285D02*
X345005580Y-179458904D01*
X345005580Y-179458904D02*
X344910342Y-179506523D01*
X344910342Y-179506523D02*
X344672247Y-179506523D01*
X344672247Y-179506523D02*
X344577009Y-179458904D01*
X344577009Y-179458904D02*
X344529390Y-179411285D01*
X344529390Y-179411285D02*
X344481771Y-179316047D01*
X344481771Y-179316047D02*
X344481771Y-179125571D01*
X344481771Y-179125571D02*
X344529390Y-179030333D01*
X344529390Y-179030333D02*
X344577009Y-178982714D01*
X344577009Y-178982714D02*
X344672247Y-178935095D01*
X344529390Y-180077952D02*
X344481771Y-179982714D01*
X344481771Y-179982714D02*
X344434152Y-179935095D01*
X344434152Y-179935095D02*
X344338914Y-179887476D01*
X344338914Y-179887476D02*
X344291295Y-179887476D01*
X344291295Y-179887476D02*
X344196057Y-179935095D01*
X344196057Y-179935095D02*
X344148438Y-179982714D01*
X344148438Y-179982714D02*
X344100819Y-180077952D01*
X344100819Y-180077952D02*
X344100819Y-180268428D01*
X344100819Y-180268428D02*
X344148438Y-180363666D01*
X344148438Y-180363666D02*
X344196057Y-180411285D01*
X344196057Y-180411285D02*
X344291295Y-180458904D01*
X344291295Y-180458904D02*
X344338914Y-180458904D01*
X344338914Y-180458904D02*
X344434152Y-180411285D01*
X344434152Y-180411285D02*
X344481771Y-180363666D01*
X344481771Y-180363666D02*
X344529390Y-180268428D01*
X344529390Y-180268428D02*
X344529390Y-180077952D01*
X344529390Y-180077952D02*
X344577009Y-179982714D01*
X344577009Y-179982714D02*
X344624628Y-179935095D01*
X344624628Y-179935095D02*
X344719866Y-179887476D01*
X344719866Y-179887476D02*
X344910342Y-179887476D01*
X344910342Y-179887476D02*
X345005580Y-179935095D01*
X345005580Y-179935095D02*
X345053200Y-179982714D01*
X345053200Y-179982714D02*
X345100819Y-180077952D01*
X345100819Y-180077952D02*
X345100819Y-180268428D01*
X345100819Y-180268428D02*
X345053200Y-180363666D01*
X345053200Y-180363666D02*
X345005580Y-180411285D01*
X345005580Y-180411285D02*
X344910342Y-180458904D01*
X344910342Y-180458904D02*
X344719866Y-180458904D01*
X344719866Y-180458904D02*
X344624628Y-180411285D01*
X344624628Y-180411285D02*
X344577009Y-180363666D01*
X344577009Y-180363666D02*
X344529390Y-180268428D01*
X149266819Y-140009714D02*
X148266819Y-140009714D01*
X148266819Y-140009714D02*
X148266819Y-140247809D01*
X148266819Y-140247809D02*
X148314438Y-140390666D01*
X148314438Y-140390666D02*
X148409676Y-140485904D01*
X148409676Y-140485904D02*
X148504914Y-140533523D01*
X148504914Y-140533523D02*
X148695390Y-140581142D01*
X148695390Y-140581142D02*
X148838247Y-140581142D01*
X148838247Y-140581142D02*
X149028723Y-140533523D01*
X149028723Y-140533523D02*
X149123961Y-140485904D01*
X149123961Y-140485904D02*
X149219200Y-140390666D01*
X149219200Y-140390666D02*
X149266819Y-140247809D01*
X149266819Y-140247809D02*
X149266819Y-140009714D01*
X148266819Y-140914476D02*
X148266819Y-141533523D01*
X148266819Y-141533523D02*
X148647771Y-141200190D01*
X148647771Y-141200190D02*
X148647771Y-141343047D01*
X148647771Y-141343047D02*
X148695390Y-141438285D01*
X148695390Y-141438285D02*
X148743009Y-141485904D01*
X148743009Y-141485904D02*
X148838247Y-141533523D01*
X148838247Y-141533523D02*
X149076342Y-141533523D01*
X149076342Y-141533523D02*
X149171580Y-141485904D01*
X149171580Y-141485904D02*
X149219200Y-141438285D01*
X149219200Y-141438285D02*
X149266819Y-141343047D01*
X149266819Y-141343047D02*
X149266819Y-141057333D01*
X149266819Y-141057333D02*
X149219200Y-140962095D01*
X149219200Y-140962095D02*
X149171580Y-140914476D01*
X148266819Y-141866857D02*
X148266819Y-142485904D01*
X148266819Y-142485904D02*
X148647771Y-142152571D01*
X148647771Y-142152571D02*
X148647771Y-142295428D01*
X148647771Y-142295428D02*
X148695390Y-142390666D01*
X148695390Y-142390666D02*
X148743009Y-142438285D01*
X148743009Y-142438285D02*
X148838247Y-142485904D01*
X148838247Y-142485904D02*
X149076342Y-142485904D01*
X149076342Y-142485904D02*
X149171580Y-142438285D01*
X149171580Y-142438285D02*
X149219200Y-142390666D01*
X149219200Y-142390666D02*
X149266819Y-142295428D01*
X149266819Y-142295428D02*
X149266819Y-142009714D01*
X149266819Y-142009714D02*
X149219200Y-141914476D01*
X149219200Y-141914476D02*
X149171580Y-141866857D01*
X211771766Y-181525319D02*
X212105099Y-181049128D01*
X212343194Y-181525319D02*
X212343194Y-180525319D01*
X212343194Y-180525319D02*
X211962242Y-180525319D01*
X211962242Y-180525319D02*
X211867004Y-180572938D01*
X211867004Y-180572938D02*
X211819385Y-180620557D01*
X211819385Y-180620557D02*
X211771766Y-180715795D01*
X211771766Y-180715795D02*
X211771766Y-180858652D01*
X211771766Y-180858652D02*
X211819385Y-180953890D01*
X211819385Y-180953890D02*
X211867004Y-181001509D01*
X211867004Y-181001509D02*
X211962242Y-181049128D01*
X211962242Y-181049128D02*
X212343194Y-181049128D01*
X210819385Y-181525319D02*
X211390813Y-181525319D01*
X211105099Y-181525319D02*
X211105099Y-180525319D01*
X211105099Y-180525319D02*
X211200337Y-180668176D01*
X211200337Y-180668176D02*
X211295575Y-180763414D01*
X211295575Y-180763414D02*
X211390813Y-180811033D01*
X273726819Y-158551714D02*
X272726819Y-158551714D01*
X272726819Y-158551714D02*
X272726819Y-158789809D01*
X272726819Y-158789809D02*
X272774438Y-158932666D01*
X272774438Y-158932666D02*
X272869676Y-159027904D01*
X272869676Y-159027904D02*
X272964914Y-159075523D01*
X272964914Y-159075523D02*
X273155390Y-159123142D01*
X273155390Y-159123142D02*
X273298247Y-159123142D01*
X273298247Y-159123142D02*
X273488723Y-159075523D01*
X273488723Y-159075523D02*
X273583961Y-159027904D01*
X273583961Y-159027904D02*
X273679200Y-158932666D01*
X273679200Y-158932666D02*
X273726819Y-158789809D01*
X273726819Y-158789809D02*
X273726819Y-158551714D01*
X272726819Y-160027904D02*
X272726819Y-159551714D01*
X272726819Y-159551714D02*
X273203009Y-159504095D01*
X273203009Y-159504095D02*
X273155390Y-159551714D01*
X273155390Y-159551714D02*
X273107771Y-159646952D01*
X273107771Y-159646952D02*
X273107771Y-159885047D01*
X273107771Y-159885047D02*
X273155390Y-159980285D01*
X273155390Y-159980285D02*
X273203009Y-160027904D01*
X273203009Y-160027904D02*
X273298247Y-160075523D01*
X273298247Y-160075523D02*
X273536342Y-160075523D01*
X273536342Y-160075523D02*
X273631580Y-160027904D01*
X273631580Y-160027904D02*
X273679200Y-159980285D01*
X273679200Y-159980285D02*
X273726819Y-159885047D01*
X273726819Y-159885047D02*
X273726819Y-159646952D01*
X273726819Y-159646952D02*
X273679200Y-159551714D01*
X273679200Y-159551714D02*
X273631580Y-159504095D01*
X272726819Y-160980285D02*
X272726819Y-160504095D01*
X272726819Y-160504095D02*
X273203009Y-160456476D01*
X273203009Y-160456476D02*
X273155390Y-160504095D01*
X273155390Y-160504095D02*
X273107771Y-160599333D01*
X273107771Y-160599333D02*
X273107771Y-160837428D01*
X273107771Y-160837428D02*
X273155390Y-160932666D01*
X273155390Y-160932666D02*
X273203009Y-160980285D01*
X273203009Y-160980285D02*
X273298247Y-161027904D01*
X273298247Y-161027904D02*
X273536342Y-161027904D01*
X273536342Y-161027904D02*
X273631580Y-160980285D01*
X273631580Y-160980285D02*
X273679200Y-160932666D01*
X273679200Y-160932666D02*
X273726819Y-160837428D01*
X273726819Y-160837428D02*
X273726819Y-160599333D01*
X273726819Y-160599333D02*
X273679200Y-160504095D01*
X273679200Y-160504095D02*
X273631580Y-160456476D01*
X74438009Y-102881166D02*
X74438009Y-102547833D01*
X74961819Y-102547833D02*
X73961819Y-102547833D01*
X73961819Y-102547833D02*
X73961819Y-103024023D01*
X74961819Y-103928785D02*
X74961819Y-103357357D01*
X74961819Y-103643071D02*
X73961819Y-103643071D01*
X73961819Y-103643071D02*
X74104676Y-103547833D01*
X74104676Y-103547833D02*
X74199914Y-103452595D01*
X74199914Y-103452595D02*
X74247533Y-103357357D01*
X254422819Y-158932714D02*
X253422819Y-158932714D01*
X253422819Y-158932714D02*
X253422819Y-159170809D01*
X253422819Y-159170809D02*
X253470438Y-159313666D01*
X253470438Y-159313666D02*
X253565676Y-159408904D01*
X253565676Y-159408904D02*
X253660914Y-159456523D01*
X253660914Y-159456523D02*
X253851390Y-159504142D01*
X253851390Y-159504142D02*
X253994247Y-159504142D01*
X253994247Y-159504142D02*
X254184723Y-159456523D01*
X254184723Y-159456523D02*
X254279961Y-159408904D01*
X254279961Y-159408904D02*
X254375200Y-159313666D01*
X254375200Y-159313666D02*
X254422819Y-159170809D01*
X254422819Y-159170809D02*
X254422819Y-158932714D01*
X253422819Y-160408904D02*
X253422819Y-159932714D01*
X253422819Y-159932714D02*
X253899009Y-159885095D01*
X253899009Y-159885095D02*
X253851390Y-159932714D01*
X253851390Y-159932714D02*
X253803771Y-160027952D01*
X253803771Y-160027952D02*
X253803771Y-160266047D01*
X253803771Y-160266047D02*
X253851390Y-160361285D01*
X253851390Y-160361285D02*
X253899009Y-160408904D01*
X253899009Y-160408904D02*
X253994247Y-160456523D01*
X253994247Y-160456523D02*
X254232342Y-160456523D01*
X254232342Y-160456523D02*
X254327580Y-160408904D01*
X254327580Y-160408904D02*
X254375200Y-160361285D01*
X254375200Y-160361285D02*
X254422819Y-160266047D01*
X254422819Y-160266047D02*
X254422819Y-160027952D01*
X254422819Y-160027952D02*
X254375200Y-159932714D01*
X254375200Y-159932714D02*
X254327580Y-159885095D01*
X253756152Y-161313666D02*
X254422819Y-161313666D01*
X253375200Y-161075571D02*
X254089485Y-160837476D01*
X254089485Y-160837476D02*
X254089485Y-161456523D01*
X145329819Y-120832714D02*
X144329819Y-120832714D01*
X144329819Y-120832714D02*
X144329819Y-121070809D01*
X144329819Y-121070809D02*
X144377438Y-121213666D01*
X144377438Y-121213666D02*
X144472676Y-121308904D01*
X144472676Y-121308904D02*
X144567914Y-121356523D01*
X144567914Y-121356523D02*
X144758390Y-121404142D01*
X144758390Y-121404142D02*
X144901247Y-121404142D01*
X144901247Y-121404142D02*
X145091723Y-121356523D01*
X145091723Y-121356523D02*
X145186961Y-121308904D01*
X145186961Y-121308904D02*
X145282200Y-121213666D01*
X145282200Y-121213666D02*
X145329819Y-121070809D01*
X145329819Y-121070809D02*
X145329819Y-120832714D01*
X145329819Y-122356523D02*
X145329819Y-121785095D01*
X145329819Y-122070809D02*
X144329819Y-122070809D01*
X144329819Y-122070809D02*
X144472676Y-121975571D01*
X144472676Y-121975571D02*
X144567914Y-121880333D01*
X144567914Y-121880333D02*
X144615533Y-121785095D01*
X145329819Y-122832714D02*
X145329819Y-123023190D01*
X145329819Y-123023190D02*
X145282200Y-123118428D01*
X145282200Y-123118428D02*
X145234580Y-123166047D01*
X145234580Y-123166047D02*
X145091723Y-123261285D01*
X145091723Y-123261285D02*
X144901247Y-123308904D01*
X144901247Y-123308904D02*
X144520295Y-123308904D01*
X144520295Y-123308904D02*
X144425057Y-123261285D01*
X144425057Y-123261285D02*
X144377438Y-123213666D01*
X144377438Y-123213666D02*
X144329819Y-123118428D01*
X144329819Y-123118428D02*
X144329819Y-122927952D01*
X144329819Y-122927952D02*
X144377438Y-122832714D01*
X144377438Y-122832714D02*
X144425057Y-122785095D01*
X144425057Y-122785095D02*
X144520295Y-122737476D01*
X144520295Y-122737476D02*
X144758390Y-122737476D01*
X144758390Y-122737476D02*
X144853628Y-122785095D01*
X144853628Y-122785095D02*
X144901247Y-122832714D01*
X144901247Y-122832714D02*
X144948866Y-122927952D01*
X144948866Y-122927952D02*
X144948866Y-123118428D01*
X144948866Y-123118428D02*
X144901247Y-123213666D01*
X144901247Y-123213666D02*
X144853628Y-123261285D01*
X144853628Y-123261285D02*
X144758390Y-123308904D01*
X221529819Y-120832714D02*
X220529819Y-120832714D01*
X220529819Y-120832714D02*
X220529819Y-121070809D01*
X220529819Y-121070809D02*
X220577438Y-121213666D01*
X220577438Y-121213666D02*
X220672676Y-121308904D01*
X220672676Y-121308904D02*
X220767914Y-121356523D01*
X220767914Y-121356523D02*
X220958390Y-121404142D01*
X220958390Y-121404142D02*
X221101247Y-121404142D01*
X221101247Y-121404142D02*
X221291723Y-121356523D01*
X221291723Y-121356523D02*
X221386961Y-121308904D01*
X221386961Y-121308904D02*
X221482200Y-121213666D01*
X221482200Y-121213666D02*
X221529819Y-121070809D01*
X221529819Y-121070809D02*
X221529819Y-120832714D01*
X220625057Y-121785095D02*
X220577438Y-121832714D01*
X220577438Y-121832714D02*
X220529819Y-121927952D01*
X220529819Y-121927952D02*
X220529819Y-122166047D01*
X220529819Y-122166047D02*
X220577438Y-122261285D01*
X220577438Y-122261285D02*
X220625057Y-122308904D01*
X220625057Y-122308904D02*
X220720295Y-122356523D01*
X220720295Y-122356523D02*
X220815533Y-122356523D01*
X220815533Y-122356523D02*
X220958390Y-122308904D01*
X220958390Y-122308904D02*
X221529819Y-121737476D01*
X221529819Y-121737476D02*
X221529819Y-122356523D01*
X220529819Y-122689857D02*
X220529819Y-123308904D01*
X220529819Y-123308904D02*
X220910771Y-122975571D01*
X220910771Y-122975571D02*
X220910771Y-123118428D01*
X220910771Y-123118428D02*
X220958390Y-123213666D01*
X220958390Y-123213666D02*
X221006009Y-123261285D01*
X221006009Y-123261285D02*
X221101247Y-123308904D01*
X221101247Y-123308904D02*
X221339342Y-123308904D01*
X221339342Y-123308904D02*
X221434580Y-123261285D01*
X221434580Y-123261285D02*
X221482200Y-123213666D01*
X221482200Y-123213666D02*
X221529819Y-123118428D01*
X221529819Y-123118428D02*
X221529819Y-122832714D01*
X221529819Y-122832714D02*
X221482200Y-122737476D01*
X221482200Y-122737476D02*
X221434580Y-122689857D01*
X227355680Y-170111333D02*
X227403300Y-170063714D01*
X227403300Y-170063714D02*
X227450919Y-169920857D01*
X227450919Y-169920857D02*
X227450919Y-169825619D01*
X227450919Y-169825619D02*
X227403300Y-169682762D01*
X227403300Y-169682762D02*
X227308061Y-169587524D01*
X227308061Y-169587524D02*
X227212823Y-169539905D01*
X227212823Y-169539905D02*
X227022347Y-169492286D01*
X227022347Y-169492286D02*
X226879490Y-169492286D01*
X226879490Y-169492286D02*
X226689014Y-169539905D01*
X226689014Y-169539905D02*
X226593776Y-169587524D01*
X226593776Y-169587524D02*
X226498538Y-169682762D01*
X226498538Y-169682762D02*
X226450919Y-169825619D01*
X226450919Y-169825619D02*
X226450919Y-169920857D01*
X226450919Y-169920857D02*
X226498538Y-170063714D01*
X226498538Y-170063714D02*
X226546157Y-170111333D01*
X226450919Y-170444667D02*
X226450919Y-171111333D01*
X226450919Y-171111333D02*
X227450919Y-170682762D01*
X356434285Y-113960819D02*
X356434285Y-112960819D01*
X356434285Y-112960819D02*
X356196190Y-112960819D01*
X356196190Y-112960819D02*
X356053333Y-113008438D01*
X356053333Y-113008438D02*
X355958095Y-113103676D01*
X355958095Y-113103676D02*
X355910476Y-113198914D01*
X355910476Y-113198914D02*
X355862857Y-113389390D01*
X355862857Y-113389390D02*
X355862857Y-113532247D01*
X355862857Y-113532247D02*
X355910476Y-113722723D01*
X355910476Y-113722723D02*
X355958095Y-113817961D01*
X355958095Y-113817961D02*
X356053333Y-113913200D01*
X356053333Y-113913200D02*
X356196190Y-113960819D01*
X356196190Y-113960819D02*
X356434285Y-113960819D01*
X355481904Y-113056057D02*
X355434285Y-113008438D01*
X355434285Y-113008438D02*
X355339047Y-112960819D01*
X355339047Y-112960819D02*
X355100952Y-112960819D01*
X355100952Y-112960819D02*
X355005714Y-113008438D01*
X355005714Y-113008438D02*
X354958095Y-113056057D01*
X354958095Y-113056057D02*
X354910476Y-113151295D01*
X354910476Y-113151295D02*
X354910476Y-113246533D01*
X354910476Y-113246533D02*
X354958095Y-113389390D01*
X354958095Y-113389390D02*
X355529523Y-113960819D01*
X355529523Y-113960819D02*
X354910476Y-113960819D01*
X354434285Y-113960819D02*
X354243809Y-113960819D01*
X354243809Y-113960819D02*
X354148571Y-113913200D01*
X354148571Y-113913200D02*
X354100952Y-113865580D01*
X354100952Y-113865580D02*
X354005714Y-113722723D01*
X354005714Y-113722723D02*
X353958095Y-113532247D01*
X353958095Y-113532247D02*
X353958095Y-113151295D01*
X353958095Y-113151295D02*
X354005714Y-113056057D01*
X354005714Y-113056057D02*
X354053333Y-113008438D01*
X354053333Y-113008438D02*
X354148571Y-112960819D01*
X354148571Y-112960819D02*
X354339047Y-112960819D01*
X354339047Y-112960819D02*
X354434285Y-113008438D01*
X354434285Y-113008438D02*
X354481904Y-113056057D01*
X354481904Y-113056057D02*
X354529523Y-113151295D01*
X354529523Y-113151295D02*
X354529523Y-113389390D01*
X354529523Y-113389390D02*
X354481904Y-113484628D01*
X354481904Y-113484628D02*
X354434285Y-113532247D01*
X354434285Y-113532247D02*
X354339047Y-113579866D01*
X354339047Y-113579866D02*
X354148571Y-113579866D01*
X354148571Y-113579866D02*
X354053333Y-113532247D01*
X354053333Y-113532247D02*
X354005714Y-113484628D01*
X354005714Y-113484628D02*
X353958095Y-113389390D01*
X115865819Y-102385905D02*
X114865819Y-102385905D01*
X114865819Y-102385905D02*
X114865819Y-102624000D01*
X114865819Y-102624000D02*
X114913438Y-102766857D01*
X114913438Y-102766857D02*
X115008676Y-102862095D01*
X115008676Y-102862095D02*
X115103914Y-102909714D01*
X115103914Y-102909714D02*
X115294390Y-102957333D01*
X115294390Y-102957333D02*
X115437247Y-102957333D01*
X115437247Y-102957333D02*
X115627723Y-102909714D01*
X115627723Y-102909714D02*
X115722961Y-102862095D01*
X115722961Y-102862095D02*
X115818200Y-102766857D01*
X115818200Y-102766857D02*
X115865819Y-102624000D01*
X115865819Y-102624000D02*
X115865819Y-102385905D01*
X115199152Y-103814476D02*
X115865819Y-103814476D01*
X114818200Y-103576381D02*
X115532485Y-103338286D01*
X115532485Y-103338286D02*
X115532485Y-103957333D01*
X178095819Y-158932714D02*
X177095819Y-158932714D01*
X177095819Y-158932714D02*
X177095819Y-159170809D01*
X177095819Y-159170809D02*
X177143438Y-159313666D01*
X177143438Y-159313666D02*
X177238676Y-159408904D01*
X177238676Y-159408904D02*
X177333914Y-159456523D01*
X177333914Y-159456523D02*
X177524390Y-159504142D01*
X177524390Y-159504142D02*
X177667247Y-159504142D01*
X177667247Y-159504142D02*
X177857723Y-159456523D01*
X177857723Y-159456523D02*
X177952961Y-159408904D01*
X177952961Y-159408904D02*
X178048200Y-159313666D01*
X178048200Y-159313666D02*
X178095819Y-159170809D01*
X178095819Y-159170809D02*
X178095819Y-158932714D01*
X177095819Y-160408904D02*
X177095819Y-159932714D01*
X177095819Y-159932714D02*
X177572009Y-159885095D01*
X177572009Y-159885095D02*
X177524390Y-159932714D01*
X177524390Y-159932714D02*
X177476771Y-160027952D01*
X177476771Y-160027952D02*
X177476771Y-160266047D01*
X177476771Y-160266047D02*
X177524390Y-160361285D01*
X177524390Y-160361285D02*
X177572009Y-160408904D01*
X177572009Y-160408904D02*
X177667247Y-160456523D01*
X177667247Y-160456523D02*
X177905342Y-160456523D01*
X177905342Y-160456523D02*
X178000580Y-160408904D01*
X178000580Y-160408904D02*
X178048200Y-160361285D01*
X178048200Y-160361285D02*
X178095819Y-160266047D01*
X178095819Y-160266047D02*
X178095819Y-160027952D01*
X178095819Y-160027952D02*
X178048200Y-159932714D01*
X178048200Y-159932714D02*
X178000580Y-159885095D01*
X177095819Y-161075571D02*
X177095819Y-161170809D01*
X177095819Y-161170809D02*
X177143438Y-161266047D01*
X177143438Y-161266047D02*
X177191057Y-161313666D01*
X177191057Y-161313666D02*
X177286295Y-161361285D01*
X177286295Y-161361285D02*
X177476771Y-161408904D01*
X177476771Y-161408904D02*
X177714866Y-161408904D01*
X177714866Y-161408904D02*
X177905342Y-161361285D01*
X177905342Y-161361285D02*
X178000580Y-161313666D01*
X178000580Y-161313666D02*
X178048200Y-161266047D01*
X178048200Y-161266047D02*
X178095819Y-161170809D01*
X178095819Y-161170809D02*
X178095819Y-161075571D01*
X178095819Y-161075571D02*
X178048200Y-160980333D01*
X178048200Y-160980333D02*
X178000580Y-160932714D01*
X178000580Y-160932714D02*
X177905342Y-160885095D01*
X177905342Y-160885095D02*
X177714866Y-160837476D01*
X177714866Y-160837476D02*
X177476771Y-160837476D01*
X177476771Y-160837476D02*
X177286295Y-160885095D01*
X177286295Y-160885095D02*
X177191057Y-160932714D01*
X177191057Y-160932714D02*
X177143438Y-160980333D01*
X177143438Y-160980333D02*
X177095819Y-161075571D01*
X111674819Y-139882714D02*
X110674819Y-139882714D01*
X110674819Y-139882714D02*
X110674819Y-140120809D01*
X110674819Y-140120809D02*
X110722438Y-140263666D01*
X110722438Y-140263666D02*
X110817676Y-140358904D01*
X110817676Y-140358904D02*
X110912914Y-140406523D01*
X110912914Y-140406523D02*
X111103390Y-140454142D01*
X111103390Y-140454142D02*
X111246247Y-140454142D01*
X111246247Y-140454142D02*
X111436723Y-140406523D01*
X111436723Y-140406523D02*
X111531961Y-140358904D01*
X111531961Y-140358904D02*
X111627200Y-140263666D01*
X111627200Y-140263666D02*
X111674819Y-140120809D01*
X111674819Y-140120809D02*
X111674819Y-139882714D01*
X110674819Y-140787476D02*
X110674819Y-141406523D01*
X110674819Y-141406523D02*
X111055771Y-141073190D01*
X111055771Y-141073190D02*
X111055771Y-141216047D01*
X111055771Y-141216047D02*
X111103390Y-141311285D01*
X111103390Y-141311285D02*
X111151009Y-141358904D01*
X111151009Y-141358904D02*
X111246247Y-141406523D01*
X111246247Y-141406523D02*
X111484342Y-141406523D01*
X111484342Y-141406523D02*
X111579580Y-141358904D01*
X111579580Y-141358904D02*
X111627200Y-141311285D01*
X111627200Y-141311285D02*
X111674819Y-141216047D01*
X111674819Y-141216047D02*
X111674819Y-140930333D01*
X111674819Y-140930333D02*
X111627200Y-140835095D01*
X111627200Y-140835095D02*
X111579580Y-140787476D01*
X111674819Y-142358904D02*
X111674819Y-141787476D01*
X111674819Y-142073190D02*
X110674819Y-142073190D01*
X110674819Y-142073190D02*
X110817676Y-141977952D01*
X110817676Y-141977952D02*
X110912914Y-141882714D01*
X110912914Y-141882714D02*
X110960533Y-141787476D01*
X199812819Y-177601714D02*
X198812819Y-177601714D01*
X198812819Y-177601714D02*
X198812819Y-177839809D01*
X198812819Y-177839809D02*
X198860438Y-177982666D01*
X198860438Y-177982666D02*
X198955676Y-178077904D01*
X198955676Y-178077904D02*
X199050914Y-178125523D01*
X199050914Y-178125523D02*
X199241390Y-178173142D01*
X199241390Y-178173142D02*
X199384247Y-178173142D01*
X199384247Y-178173142D02*
X199574723Y-178125523D01*
X199574723Y-178125523D02*
X199669961Y-178077904D01*
X199669961Y-178077904D02*
X199765200Y-177982666D01*
X199765200Y-177982666D02*
X199812819Y-177839809D01*
X199812819Y-177839809D02*
X199812819Y-177601714D01*
X198812819Y-179030285D02*
X198812819Y-178839809D01*
X198812819Y-178839809D02*
X198860438Y-178744571D01*
X198860438Y-178744571D02*
X198908057Y-178696952D01*
X198908057Y-178696952D02*
X199050914Y-178601714D01*
X199050914Y-178601714D02*
X199241390Y-178554095D01*
X199241390Y-178554095D02*
X199622342Y-178554095D01*
X199622342Y-178554095D02*
X199717580Y-178601714D01*
X199717580Y-178601714D02*
X199765200Y-178649333D01*
X199765200Y-178649333D02*
X199812819Y-178744571D01*
X199812819Y-178744571D02*
X199812819Y-178935047D01*
X199812819Y-178935047D02*
X199765200Y-179030285D01*
X199765200Y-179030285D02*
X199717580Y-179077904D01*
X199717580Y-179077904D02*
X199622342Y-179125523D01*
X199622342Y-179125523D02*
X199384247Y-179125523D01*
X199384247Y-179125523D02*
X199289009Y-179077904D01*
X199289009Y-179077904D02*
X199241390Y-179030285D01*
X199241390Y-179030285D02*
X199193771Y-178935047D01*
X199193771Y-178935047D02*
X199193771Y-178744571D01*
X199193771Y-178744571D02*
X199241390Y-178649333D01*
X199241390Y-178649333D02*
X199289009Y-178601714D01*
X199289009Y-178601714D02*
X199384247Y-178554095D01*
X198812819Y-179458857D02*
X198812819Y-180077904D01*
X198812819Y-180077904D02*
X199193771Y-179744571D01*
X199193771Y-179744571D02*
X199193771Y-179887428D01*
X199193771Y-179887428D02*
X199241390Y-179982666D01*
X199241390Y-179982666D02*
X199289009Y-180030285D01*
X199289009Y-180030285D02*
X199384247Y-180077904D01*
X199384247Y-180077904D02*
X199622342Y-180077904D01*
X199622342Y-180077904D02*
X199717580Y-180030285D01*
X199717580Y-180030285D02*
X199765200Y-179982666D01*
X199765200Y-179982666D02*
X199812819Y-179887428D01*
X199812819Y-179887428D02*
X199812819Y-179601714D01*
X199812819Y-179601714D02*
X199765200Y-179506476D01*
X199765200Y-179506476D02*
X199717580Y-179458857D01*
X326304819Y-177982714D02*
X325304819Y-177982714D01*
X325304819Y-177982714D02*
X325304819Y-178220809D01*
X325304819Y-178220809D02*
X325352438Y-178363666D01*
X325352438Y-178363666D02*
X325447676Y-178458904D01*
X325447676Y-178458904D02*
X325542914Y-178506523D01*
X325542914Y-178506523D02*
X325733390Y-178554142D01*
X325733390Y-178554142D02*
X325876247Y-178554142D01*
X325876247Y-178554142D02*
X326066723Y-178506523D01*
X326066723Y-178506523D02*
X326161961Y-178458904D01*
X326161961Y-178458904D02*
X326257200Y-178363666D01*
X326257200Y-178363666D02*
X326304819Y-178220809D01*
X326304819Y-178220809D02*
X326304819Y-177982714D01*
X325304819Y-179411285D02*
X325304819Y-179220809D01*
X325304819Y-179220809D02*
X325352438Y-179125571D01*
X325352438Y-179125571D02*
X325400057Y-179077952D01*
X325400057Y-179077952D02*
X325542914Y-178982714D01*
X325542914Y-178982714D02*
X325733390Y-178935095D01*
X325733390Y-178935095D02*
X326114342Y-178935095D01*
X326114342Y-178935095D02*
X326209580Y-178982714D01*
X326209580Y-178982714D02*
X326257200Y-179030333D01*
X326257200Y-179030333D02*
X326304819Y-179125571D01*
X326304819Y-179125571D02*
X326304819Y-179316047D01*
X326304819Y-179316047D02*
X326257200Y-179411285D01*
X326257200Y-179411285D02*
X326209580Y-179458904D01*
X326209580Y-179458904D02*
X326114342Y-179506523D01*
X326114342Y-179506523D02*
X325876247Y-179506523D01*
X325876247Y-179506523D02*
X325781009Y-179458904D01*
X325781009Y-179458904D02*
X325733390Y-179411285D01*
X325733390Y-179411285D02*
X325685771Y-179316047D01*
X325685771Y-179316047D02*
X325685771Y-179125571D01*
X325685771Y-179125571D02*
X325733390Y-179030333D01*
X325733390Y-179030333D02*
X325781009Y-178982714D01*
X325781009Y-178982714D02*
X325876247Y-178935095D01*
X325304819Y-179839857D02*
X325304819Y-180506523D01*
X325304819Y-180506523D02*
X326304819Y-180077952D01*
X173396819Y-102258905D02*
X172396819Y-102258905D01*
X172396819Y-102258905D02*
X172396819Y-102497000D01*
X172396819Y-102497000D02*
X172444438Y-102639857D01*
X172444438Y-102639857D02*
X172539676Y-102735095D01*
X172539676Y-102735095D02*
X172634914Y-102782714D01*
X172634914Y-102782714D02*
X172825390Y-102830333D01*
X172825390Y-102830333D02*
X172968247Y-102830333D01*
X172968247Y-102830333D02*
X173158723Y-102782714D01*
X173158723Y-102782714D02*
X173253961Y-102735095D01*
X173253961Y-102735095D02*
X173349200Y-102639857D01*
X173349200Y-102639857D02*
X173396819Y-102497000D01*
X173396819Y-102497000D02*
X173396819Y-102258905D01*
X172396819Y-103163667D02*
X172396819Y-103830333D01*
X172396819Y-103830333D02*
X173396819Y-103401762D01*
X259121819Y-120959714D02*
X258121819Y-120959714D01*
X258121819Y-120959714D02*
X258121819Y-121197809D01*
X258121819Y-121197809D02*
X258169438Y-121340666D01*
X258169438Y-121340666D02*
X258264676Y-121435904D01*
X258264676Y-121435904D02*
X258359914Y-121483523D01*
X258359914Y-121483523D02*
X258550390Y-121531142D01*
X258550390Y-121531142D02*
X258693247Y-121531142D01*
X258693247Y-121531142D02*
X258883723Y-121483523D01*
X258883723Y-121483523D02*
X258978961Y-121435904D01*
X258978961Y-121435904D02*
X259074200Y-121340666D01*
X259074200Y-121340666D02*
X259121819Y-121197809D01*
X259121819Y-121197809D02*
X259121819Y-120959714D01*
X258217057Y-121912095D02*
X258169438Y-121959714D01*
X258169438Y-121959714D02*
X258121819Y-122054952D01*
X258121819Y-122054952D02*
X258121819Y-122293047D01*
X258121819Y-122293047D02*
X258169438Y-122388285D01*
X258169438Y-122388285D02*
X258217057Y-122435904D01*
X258217057Y-122435904D02*
X258312295Y-122483523D01*
X258312295Y-122483523D02*
X258407533Y-122483523D01*
X258407533Y-122483523D02*
X258550390Y-122435904D01*
X258550390Y-122435904D02*
X259121819Y-121864476D01*
X259121819Y-121864476D02*
X259121819Y-122483523D01*
X258121819Y-123388285D02*
X258121819Y-122912095D01*
X258121819Y-122912095D02*
X258598009Y-122864476D01*
X258598009Y-122864476D02*
X258550390Y-122912095D01*
X258550390Y-122912095D02*
X258502771Y-123007333D01*
X258502771Y-123007333D02*
X258502771Y-123245428D01*
X258502771Y-123245428D02*
X258550390Y-123340666D01*
X258550390Y-123340666D02*
X258598009Y-123388285D01*
X258598009Y-123388285D02*
X258693247Y-123435904D01*
X258693247Y-123435904D02*
X258931342Y-123435904D01*
X258931342Y-123435904D02*
X259026580Y-123388285D01*
X259026580Y-123388285D02*
X259074200Y-123340666D01*
X259074200Y-123340666D02*
X259121819Y-123245428D01*
X259121819Y-123245428D02*
X259121819Y-123007333D01*
X259121819Y-123007333D02*
X259074200Y-122912095D01*
X259074200Y-122912095D02*
X259026580Y-122864476D01*
X183175819Y-120832714D02*
X182175819Y-120832714D01*
X182175819Y-120832714D02*
X182175819Y-121070809D01*
X182175819Y-121070809D02*
X182223438Y-121213666D01*
X182223438Y-121213666D02*
X182318676Y-121308904D01*
X182318676Y-121308904D02*
X182413914Y-121356523D01*
X182413914Y-121356523D02*
X182604390Y-121404142D01*
X182604390Y-121404142D02*
X182747247Y-121404142D01*
X182747247Y-121404142D02*
X182937723Y-121356523D01*
X182937723Y-121356523D02*
X183032961Y-121308904D01*
X183032961Y-121308904D02*
X183128200Y-121213666D01*
X183128200Y-121213666D02*
X183175819Y-121070809D01*
X183175819Y-121070809D02*
X183175819Y-120832714D01*
X182271057Y-121785095D02*
X182223438Y-121832714D01*
X182223438Y-121832714D02*
X182175819Y-121927952D01*
X182175819Y-121927952D02*
X182175819Y-122166047D01*
X182175819Y-122166047D02*
X182223438Y-122261285D01*
X182223438Y-122261285D02*
X182271057Y-122308904D01*
X182271057Y-122308904D02*
X182366295Y-122356523D01*
X182366295Y-122356523D02*
X182461533Y-122356523D01*
X182461533Y-122356523D02*
X182604390Y-122308904D01*
X182604390Y-122308904D02*
X183175819Y-121737476D01*
X183175819Y-121737476D02*
X183175819Y-122356523D01*
X183175819Y-123308904D02*
X183175819Y-122737476D01*
X183175819Y-123023190D02*
X182175819Y-123023190D01*
X182175819Y-123023190D02*
X182318676Y-122927952D01*
X182318676Y-122927952D02*
X182413914Y-122832714D01*
X182413914Y-122832714D02*
X182461533Y-122737476D01*
X188001819Y-139882714D02*
X187001819Y-139882714D01*
X187001819Y-139882714D02*
X187001819Y-140120809D01*
X187001819Y-140120809D02*
X187049438Y-140263666D01*
X187049438Y-140263666D02*
X187144676Y-140358904D01*
X187144676Y-140358904D02*
X187239914Y-140406523D01*
X187239914Y-140406523D02*
X187430390Y-140454142D01*
X187430390Y-140454142D02*
X187573247Y-140454142D01*
X187573247Y-140454142D02*
X187763723Y-140406523D01*
X187763723Y-140406523D02*
X187858961Y-140358904D01*
X187858961Y-140358904D02*
X187954200Y-140263666D01*
X187954200Y-140263666D02*
X188001819Y-140120809D01*
X188001819Y-140120809D02*
X188001819Y-139882714D01*
X187001819Y-140787476D02*
X187001819Y-141406523D01*
X187001819Y-141406523D02*
X187382771Y-141073190D01*
X187382771Y-141073190D02*
X187382771Y-141216047D01*
X187382771Y-141216047D02*
X187430390Y-141311285D01*
X187430390Y-141311285D02*
X187478009Y-141358904D01*
X187478009Y-141358904D02*
X187573247Y-141406523D01*
X187573247Y-141406523D02*
X187811342Y-141406523D01*
X187811342Y-141406523D02*
X187906580Y-141358904D01*
X187906580Y-141358904D02*
X187954200Y-141311285D01*
X187954200Y-141311285D02*
X188001819Y-141216047D01*
X188001819Y-141216047D02*
X188001819Y-140930333D01*
X188001819Y-140930333D02*
X187954200Y-140835095D01*
X187954200Y-140835095D02*
X187906580Y-140787476D01*
X187001819Y-142311285D02*
X187001819Y-141835095D01*
X187001819Y-141835095D02*
X187478009Y-141787476D01*
X187478009Y-141787476D02*
X187430390Y-141835095D01*
X187430390Y-141835095D02*
X187382771Y-141930333D01*
X187382771Y-141930333D02*
X187382771Y-142168428D01*
X187382771Y-142168428D02*
X187430390Y-142263666D01*
X187430390Y-142263666D02*
X187478009Y-142311285D01*
X187478009Y-142311285D02*
X187573247Y-142358904D01*
X187573247Y-142358904D02*
X187811342Y-142358904D01*
X187811342Y-142358904D02*
X187906580Y-142311285D01*
X187906580Y-142311285D02*
X187954200Y-142263666D01*
X187954200Y-142263666D02*
X188001819Y-142168428D01*
X188001819Y-142168428D02*
X188001819Y-141930333D01*
X188001819Y-141930333D02*
X187954200Y-141835095D01*
X187954200Y-141835095D02*
X187906580Y-141787476D01*
X81465569Y-103489933D02*
X80989378Y-103156600D01*
X81465569Y-102918505D02*
X80465569Y-102918505D01*
X80465569Y-102918505D02*
X80465569Y-103299457D01*
X80465569Y-103299457D02*
X80513188Y-103394695D01*
X80513188Y-103394695D02*
X80560807Y-103442314D01*
X80560807Y-103442314D02*
X80656045Y-103489933D01*
X80656045Y-103489933D02*
X80798902Y-103489933D01*
X80798902Y-103489933D02*
X80894140Y-103442314D01*
X80894140Y-103442314D02*
X80941759Y-103394695D01*
X80941759Y-103394695D02*
X80989378Y-103299457D01*
X80989378Y-103299457D02*
X80989378Y-102918505D01*
X80798902Y-104347076D02*
X81465569Y-104347076D01*
X80417950Y-104108981D02*
X81132235Y-103870886D01*
X81132235Y-103870886D02*
X81132235Y-104489933D01*
X278425819Y-120832714D02*
X277425819Y-120832714D01*
X277425819Y-120832714D02*
X277425819Y-121070809D01*
X277425819Y-121070809D02*
X277473438Y-121213666D01*
X277473438Y-121213666D02*
X277568676Y-121308904D01*
X277568676Y-121308904D02*
X277663914Y-121356523D01*
X277663914Y-121356523D02*
X277854390Y-121404142D01*
X277854390Y-121404142D02*
X277997247Y-121404142D01*
X277997247Y-121404142D02*
X278187723Y-121356523D01*
X278187723Y-121356523D02*
X278282961Y-121308904D01*
X278282961Y-121308904D02*
X278378200Y-121213666D01*
X278378200Y-121213666D02*
X278425819Y-121070809D01*
X278425819Y-121070809D02*
X278425819Y-120832714D01*
X277521057Y-121785095D02*
X277473438Y-121832714D01*
X277473438Y-121832714D02*
X277425819Y-121927952D01*
X277425819Y-121927952D02*
X277425819Y-122166047D01*
X277425819Y-122166047D02*
X277473438Y-122261285D01*
X277473438Y-122261285D02*
X277521057Y-122308904D01*
X277521057Y-122308904D02*
X277616295Y-122356523D01*
X277616295Y-122356523D02*
X277711533Y-122356523D01*
X277711533Y-122356523D02*
X277854390Y-122308904D01*
X277854390Y-122308904D02*
X278425819Y-121737476D01*
X278425819Y-121737476D02*
X278425819Y-122356523D01*
X277425819Y-123213666D02*
X277425819Y-123023190D01*
X277425819Y-123023190D02*
X277473438Y-122927952D01*
X277473438Y-122927952D02*
X277521057Y-122880333D01*
X277521057Y-122880333D02*
X277663914Y-122785095D01*
X277663914Y-122785095D02*
X277854390Y-122737476D01*
X277854390Y-122737476D02*
X278235342Y-122737476D01*
X278235342Y-122737476D02*
X278330580Y-122785095D01*
X278330580Y-122785095D02*
X278378200Y-122832714D01*
X278378200Y-122832714D02*
X278425819Y-122927952D01*
X278425819Y-122927952D02*
X278425819Y-123118428D01*
X278425819Y-123118428D02*
X278378200Y-123213666D01*
X278378200Y-123213666D02*
X278330580Y-123261285D01*
X278330580Y-123261285D02*
X278235342Y-123308904D01*
X278235342Y-123308904D02*
X277997247Y-123308904D01*
X277997247Y-123308904D02*
X277902009Y-123261285D01*
X277902009Y-123261285D02*
X277854390Y-123213666D01*
X277854390Y-123213666D02*
X277806771Y-123118428D01*
X277806771Y-123118428D02*
X277806771Y-122927952D01*
X277806771Y-122927952D02*
X277854390Y-122832714D01*
X277854390Y-122832714D02*
X277902009Y-122785095D01*
X277902009Y-122785095D02*
X277997247Y-122737476D01*
X227826766Y-168318819D02*
X228160099Y-167842628D01*
X228398194Y-168318819D02*
X228398194Y-167318819D01*
X228398194Y-167318819D02*
X228017242Y-167318819D01*
X228017242Y-167318819D02*
X227922004Y-167366438D01*
X227922004Y-167366438D02*
X227874385Y-167414057D01*
X227874385Y-167414057D02*
X227826766Y-167509295D01*
X227826766Y-167509295D02*
X227826766Y-167652152D01*
X227826766Y-167652152D02*
X227874385Y-167747390D01*
X227874385Y-167747390D02*
X227922004Y-167795009D01*
X227922004Y-167795009D02*
X228017242Y-167842628D01*
X228017242Y-167842628D02*
X228398194Y-167842628D01*
X227445813Y-167414057D02*
X227398194Y-167366438D01*
X227398194Y-167366438D02*
X227302956Y-167318819D01*
X227302956Y-167318819D02*
X227064861Y-167318819D01*
X227064861Y-167318819D02*
X226969623Y-167366438D01*
X226969623Y-167366438D02*
X226922004Y-167414057D01*
X226922004Y-167414057D02*
X226874385Y-167509295D01*
X226874385Y-167509295D02*
X226874385Y-167604533D01*
X226874385Y-167604533D02*
X226922004Y-167747390D01*
X226922004Y-167747390D02*
X227493432Y-168318819D01*
X227493432Y-168318819D02*
X226874385Y-168318819D01*
D12*
%TO.C,D15*%
X332248000Y-101347000D02*
X332248000Y-105357000D01*
X332248000Y-105357000D02*
X334248000Y-105357000D01*
X334248000Y-101347000D02*
X334248000Y-105357000D01*
%TO.C,D11*%
X246650000Y-101347000D02*
X246650000Y-105357000D01*
X246650000Y-105357000D02*
X248650000Y-105357000D01*
X248650000Y-101347000D02*
X248650000Y-105357000D01*
%TO.C,D51*%
X193945000Y-158497000D02*
X193945000Y-162507000D01*
X193945000Y-162507000D02*
X195945000Y-162507000D01*
X195945000Y-158497000D02*
X195945000Y-162507000D01*
%TO.C,D45*%
X76851000Y-158497000D02*
X76851000Y-162507000D01*
X76851000Y-162507000D02*
X78851000Y-162507000D01*
X78851000Y-158497000D02*
X78851000Y-162507000D01*
%TO.C,D3*%
X93361000Y-101348000D02*
X93361000Y-105358000D01*
X93361000Y-105358000D02*
X95361000Y-105358000D01*
X95361000Y-101348000D02*
X95361000Y-105358000D01*
%TO.C,D10*%
X227600000Y-101347000D02*
X227600000Y-105357000D01*
X227600000Y-105357000D02*
X229600000Y-105357000D01*
X229600000Y-101347000D02*
X229600000Y-105357000D01*
%TO.C,D44*%
X360696000Y-139447000D02*
X360696000Y-143457000D01*
X360696000Y-143457000D02*
X362696000Y-143457000D01*
X362696000Y-139447000D02*
X362696000Y-143457000D01*
%TO.C,D38*%
X241316000Y-139447000D02*
X241316000Y-143457000D01*
X241316000Y-143457000D02*
X243316000Y-143457000D01*
X243316000Y-139447000D02*
X243316000Y-143457000D01*
%TO.C,D41*%
X298847000Y-139447000D02*
X298847000Y-143457000D01*
X298847000Y-143457000D02*
X300847000Y-143457000D01*
X300847000Y-139447000D02*
X300847000Y-143457000D01*
%TO.C,D69*%
X360569000Y-177547000D02*
X360569000Y-181557000D01*
X360569000Y-181557000D02*
X362569000Y-181557000D01*
X362569000Y-177547000D02*
X362569000Y-181557000D01*
%TO.C,D43*%
X333391000Y-122173000D02*
X333391000Y-118163000D01*
X335391000Y-118163000D02*
X333391000Y-118163000D01*
X335391000Y-122173000D02*
X335391000Y-118163000D01*
%TO.C,D65*%
X284496000Y-177547000D02*
X284496000Y-181557000D01*
X284496000Y-181557000D02*
X286496000Y-181557000D01*
X286496000Y-177547000D02*
X286496000Y-181557000D01*
%TO.C,D61*%
X101489000Y-177547000D02*
X101489000Y-181557000D01*
X101489000Y-181557000D02*
X103489000Y-181557000D01*
X103489000Y-177547000D02*
X103489000Y-181557000D01*
%TO.C,D60*%
X76851000Y-177420000D02*
X76851000Y-181430000D01*
X76851000Y-181430000D02*
X78851000Y-181430000D01*
X78851000Y-177420000D02*
X78851000Y-181430000D01*
%TO.C,D36*%
X203597000Y-139447000D02*
X203597000Y-143457000D01*
X203597000Y-143457000D02*
X205597000Y-143457000D01*
X205597000Y-139447000D02*
X205597000Y-143457000D01*
%TO.C,C3*%
X236049352Y-175639000D02*
X235526848Y-175639000D01*
X236049352Y-177109000D02*
X235526848Y-177109000D01*
%TO.C,D47*%
X117745000Y-158497000D02*
X117745000Y-162507000D01*
X117745000Y-162507000D02*
X119745000Y-162507000D01*
X119745000Y-158497000D02*
X119745000Y-162507000D01*
%TO.C,D49*%
X155464000Y-158624000D02*
X155464000Y-162634000D01*
X155464000Y-162634000D02*
X157464000Y-162634000D01*
X157464000Y-158624000D02*
X157464000Y-162634000D01*
%TO.C,D34*%
X165497000Y-139447000D02*
X165497000Y-143457000D01*
X165497000Y-143457000D02*
X167497000Y-143457000D01*
X167497000Y-139447000D02*
X167497000Y-143457000D01*
%TO.C,C2*%
X236049352Y-172845000D02*
X235526848Y-172845000D01*
X236049352Y-174315000D02*
X235526848Y-174315000D01*
%TO.C,R3*%
X78877750Y-103950464D02*
X78877750Y-103496336D01*
X80347750Y-103950464D02*
X80347750Y-103496336D01*
%TO.C,D48*%
X136922000Y-158624000D02*
X136922000Y-162634000D01*
X136922000Y-162634000D02*
X138922000Y-162634000D01*
X138922000Y-158624000D02*
X138922000Y-162634000D01*
%TO.C,D37*%
X222774000Y-139574000D02*
X222774000Y-143584000D01*
X222774000Y-143584000D02*
X224774000Y-143584000D01*
X224774000Y-139574000D02*
X224774000Y-143584000D01*
%TO.C,D59*%
X360696000Y-158497000D02*
X360696000Y-162507000D01*
X360696000Y-162507000D02*
X362696000Y-162507000D01*
X362696000Y-158497000D02*
X362696000Y-162507000D01*
%TO.C,D40*%
X279543000Y-139447000D02*
X279543000Y-143457000D01*
X279543000Y-143457000D02*
X281543000Y-143457000D01*
X281543000Y-139447000D02*
X281543000Y-143457000D01*
%TO.C,D30*%
X82058000Y-139320000D02*
X82058000Y-143330000D01*
X82058000Y-143330000D02*
X84058000Y-143330000D01*
X84058000Y-139320000D02*
X84058000Y-143330000D01*
%TO.C,D39*%
X260112000Y-139447000D02*
X260112000Y-143457000D01*
X260112000Y-143457000D02*
X262112000Y-143457000D01*
X262112000Y-139447000D02*
X262112000Y-143457000D01*
%TO.C,D58*%
X342027000Y-158497000D02*
X342027000Y-162507000D01*
X342027000Y-162507000D02*
X344027000Y-162507000D01*
X344027000Y-158497000D02*
X344027000Y-162507000D01*
%TO.C,D62*%
X125492000Y-177547000D02*
X125492000Y-181557000D01*
X125492000Y-181557000D02*
X127492000Y-181557000D01*
X127492000Y-177547000D02*
X127492000Y-181557000D01*
D11*
%TO.C,U1*%
X211896600Y-170489000D02*
X211896600Y-169814000D01*
X211896600Y-179489000D02*
X211896600Y-180164000D01*
X212511600Y-169814000D02*
X211896600Y-169814000D01*
X212571600Y-180164000D02*
X211896600Y-180164000D01*
X221571600Y-169814000D02*
X222246600Y-169814000D01*
X221571600Y-180164000D02*
X222246600Y-180164000D01*
X222246600Y-170489000D02*
X222246600Y-169814000D01*
X222246600Y-179489000D02*
X222246600Y-180164000D01*
D12*
X212531600Y-169129000D02*
X212061600Y-169469000D01*
X212061600Y-168789000D01*
X212531600Y-169129000D01*
G36*
X212531600Y-169129000D02*
G01*
X212061600Y-169469000D01*
X212061600Y-168789000D01*
X212531600Y-169129000D01*
G37*
%TO.C,D16*%
X79264000Y-120397000D02*
X79264000Y-124407000D01*
X79264000Y-124407000D02*
X81264000Y-124407000D01*
X81264000Y-120397000D02*
X81264000Y-124407000D01*
%TO.C,D52*%
X212995000Y-158370000D02*
X212995000Y-162380000D01*
X212995000Y-162380000D02*
X214995000Y-162380000D01*
X214995000Y-158370000D02*
X214995000Y-162380000D01*
%TO.C,D6*%
X151019000Y-101347000D02*
X151019000Y-105357000D01*
X151019000Y-105357000D02*
X153019000Y-105357000D01*
X153019000Y-101347000D02*
X153019000Y-105357000D01*
%TO.C,C5*%
X209618848Y-166495000D02*
X210141352Y-166495000D01*
X209618848Y-167965000D02*
X210141352Y-167965000D01*
%TO.C,D32*%
X127524000Y-139320000D02*
X127524000Y-143330000D01*
X127524000Y-143330000D02*
X129524000Y-143330000D01*
X129524000Y-139320000D02*
X129524000Y-143330000D01*
%TO.C,D2*%
X87646000Y-101220000D02*
X87646000Y-105230000D01*
X87646000Y-105230000D02*
X89646000Y-105230000D01*
X89646000Y-101220000D02*
X89646000Y-105230000D01*
%TO.C,D28*%
X313071000Y-120397000D02*
X313071000Y-124407000D01*
X313071000Y-124407000D02*
X315071000Y-124407000D01*
X315071000Y-120397000D02*
X315071000Y-124407000D01*
%TO.C,C6*%
X223222352Y-181989000D02*
X222699848Y-181989000D01*
X223222352Y-183459000D02*
X222699848Y-183459000D01*
%TO.C,D13*%
X284496000Y-101347000D02*
X284496000Y-105357000D01*
X284496000Y-105357000D02*
X286496000Y-105357000D01*
X286496000Y-101347000D02*
X286496000Y-105357000D01*
%TO.C,D57*%
X315484000Y-158624000D02*
X315484000Y-162634000D01*
X315484000Y-162634000D02*
X317484000Y-162634000D01*
X317484000Y-158624000D02*
X317484000Y-162634000D01*
%TO.C,D64*%
X265065000Y-177420000D02*
X265065000Y-181430000D01*
X265065000Y-181430000D02*
X267065000Y-181430000D01*
X267065000Y-177420000D02*
X267065000Y-181430000D01*
%TO.C,R8*%
X361097336Y-107723000D02*
X361551464Y-107723000D01*
X361097336Y-109193000D02*
X361551464Y-109193000D01*
%TO.C,D12*%
X265319000Y-101347000D02*
X265319000Y-105357000D01*
X265319000Y-105357000D02*
X267319000Y-105357000D01*
X267319000Y-101347000D02*
X267319000Y-105357000D01*
%TO.C,R5*%
X84158314Y-95658000D02*
X83704186Y-95658000D01*
X84158314Y-97128000D02*
X83704186Y-97128000D01*
%TO.C,D8*%
X189246000Y-101347000D02*
X189246000Y-105357000D01*
X189246000Y-105357000D02*
X191246000Y-105357000D01*
X191246000Y-101347000D02*
X191246000Y-105357000D01*
%TO.C,D17*%
X103394000Y-120397000D02*
X103394000Y-124407000D01*
X103394000Y-124407000D02*
X105394000Y-124407000D01*
X105394000Y-120397000D02*
X105394000Y-124407000D01*
%TO.C,D5*%
X131715000Y-101347000D02*
X131715000Y-105357000D01*
X131715000Y-105357000D02*
X133715000Y-105357000D01*
X133715000Y-101347000D02*
X133715000Y-105357000D01*
%TO.C,D46*%
X98695000Y-158624000D02*
X98695000Y-162634000D01*
X98695000Y-162634000D02*
X100695000Y-162634000D01*
X100695000Y-158624000D02*
X100695000Y-162634000D01*
%TO.C,Y1*%
X228971600Y-172501500D02*
X228971600Y-177901500D01*
X228971600Y-177901500D02*
X233471600Y-177901500D01*
%TO.C,D14*%
X303546000Y-101347000D02*
X303546000Y-105357000D01*
X303546000Y-105357000D02*
X305546000Y-105357000D01*
X305546000Y-101347000D02*
X305546000Y-105357000D01*
%TO.C,D66*%
X303546000Y-177420000D02*
X303546000Y-181430000D01*
X303546000Y-181430000D02*
X305546000Y-181430000D01*
X305546000Y-177420000D02*
X305546000Y-181430000D01*
%TO.C,D18*%
X122571000Y-120397000D02*
X122571000Y-124407000D01*
X122571000Y-124407000D02*
X124571000Y-124407000D01*
X124571000Y-120397000D02*
X124571000Y-124407000D01*
%TO.C,D9*%
X208677000Y-101347000D02*
X208677000Y-105357000D01*
X208677000Y-105357000D02*
X210677000Y-105357000D01*
X210677000Y-101347000D02*
X210677000Y-105357000D01*
%TO.C,D1*%
X80479000Y-101356850D02*
X81779000Y-101356850D01*
X81749000Y-98236850D02*
X80479000Y-98236850D01*
X82129000Y-98286850D02*
X81889000Y-97956850D01*
X82369000Y-97956850D01*
X82129000Y-98286850D01*
G36*
X82129000Y-98286850D02*
G01*
X81889000Y-97956850D01*
X82369000Y-97956850D01*
X82129000Y-98286850D01*
G37*
%TO.C,R6*%
X76131936Y-95658000D02*
X76586064Y-95658000D01*
X76131936Y-97128000D02*
X76586064Y-97128000D01*
%TO.C,R7*%
X350394600Y-106399064D02*
X350394600Y-105944936D01*
X351864600Y-106399064D02*
X351864600Y-105944936D01*
%TO.C,D22*%
X198898000Y-120397000D02*
X198898000Y-124407000D01*
X198898000Y-124407000D02*
X200898000Y-124407000D01*
X200898000Y-120397000D02*
X200898000Y-124407000D01*
%TO.C,D53*%
X232172000Y-158370000D02*
X232172000Y-162380000D01*
X232172000Y-162380000D02*
X234172000Y-162380000D01*
X234172000Y-158370000D02*
X234172000Y-162380000D01*
%TO.C,C4*%
X208256100Y-179033748D02*
X208256100Y-179556252D01*
X209726100Y-179033748D02*
X209726100Y-179556252D01*
%TO.C,SW2*%
X175461000Y-175490000D02*
X175461000Y-177570000D01*
X176241000Y-174300000D02*
X176731000Y-173810000D01*
X176241000Y-178760000D02*
X176731000Y-179250000D01*
X176731000Y-173810000D02*
X179631000Y-173810000D01*
X176731000Y-179250000D02*
X179631000Y-179250000D01*
X180121000Y-174300000D02*
X179631000Y-173810000D01*
X180121000Y-178760000D02*
X179631000Y-179250000D01*
X180901000Y-175490000D02*
X180901000Y-177570000D01*
%TO.C,D20*%
X160671000Y-120397000D02*
X160671000Y-124407000D01*
X160671000Y-124407000D02*
X162671000Y-124407000D01*
X162671000Y-120397000D02*
X162671000Y-124407000D01*
%TO.C,D56*%
X289957000Y-158370000D02*
X289957000Y-162380000D01*
X289957000Y-162380000D02*
X291957000Y-162380000D01*
X291957000Y-158370000D02*
X291957000Y-162380000D01*
%TO.C,D42*%
X318151000Y-139447000D02*
X318151000Y-143457000D01*
X318151000Y-143457000D02*
X320151000Y-143457000D01*
X320151000Y-139447000D02*
X320151000Y-143457000D01*
%TO.C,D24*%
X237252000Y-120524000D02*
X237252000Y-124534000D01*
X237252000Y-124534000D02*
X239252000Y-124534000D01*
X239252000Y-120524000D02*
X239252000Y-124534000D01*
%TO.C,D27*%
X294148000Y-120397000D02*
X294148000Y-124407000D01*
X294148000Y-124407000D02*
X296148000Y-124407000D01*
X296148000Y-120397000D02*
X296148000Y-124407000D01*
%TO.C,D68*%
X341646000Y-177547000D02*
X341646000Y-181557000D01*
X341646000Y-181557000D02*
X343646000Y-181557000D01*
X343646000Y-177547000D02*
X343646000Y-181557000D01*
%TO.C,D33*%
X145812000Y-139574000D02*
X145812000Y-143584000D01*
X145812000Y-143584000D02*
X147812000Y-143584000D01*
X147812000Y-139574000D02*
X147812000Y-143584000D01*
%TO.C,R1*%
X211378036Y-181985500D02*
X211832164Y-181985500D01*
X211378036Y-183455500D02*
X211832164Y-183455500D01*
%TO.C,D55*%
X270272000Y-158116000D02*
X270272000Y-162126000D01*
X270272000Y-162126000D02*
X272272000Y-162126000D01*
X272272000Y-158116000D02*
X272272000Y-162126000D01*
%TO.C,F1*%
X75417000Y-103816564D02*
X75417000Y-102612436D01*
X77237000Y-103816564D02*
X77237000Y-102612436D01*
%TO.C,D54*%
X250968000Y-158497000D02*
X250968000Y-162507000D01*
X250968000Y-162507000D02*
X252968000Y-162507000D01*
X252968000Y-158497000D02*
X252968000Y-162507000D01*
%TO.C,D19*%
X141875000Y-120397000D02*
X141875000Y-124407000D01*
X141875000Y-124407000D02*
X143875000Y-124407000D01*
X143875000Y-120397000D02*
X143875000Y-124407000D01*
%TO.C,D23*%
X218075000Y-120397000D02*
X218075000Y-124407000D01*
X218075000Y-124407000D02*
X220075000Y-124407000D01*
X220075000Y-120397000D02*
X220075000Y-124407000D01*
%TO.C,C7*%
X227941100Y-170539252D02*
X227941100Y-170016748D01*
X229411100Y-170539252D02*
X229411100Y-170016748D01*
%TO.C,D29*%
X352860000Y-110506000D02*
X352860000Y-112506000D01*
X356870000Y-110506000D02*
X352860000Y-110506000D01*
X356870000Y-112506000D02*
X352860000Y-112506000D01*
%TO.C,C1*%
X216476848Y-163066000D02*
X216999352Y-163066000D01*
X216476848Y-164536000D02*
X216999352Y-164536000D01*
%TO.C,D4*%
X112411000Y-101474000D02*
X112411000Y-105484000D01*
X112411000Y-105484000D02*
X114411000Y-105484000D01*
X114411000Y-101474000D02*
X114411000Y-105484000D01*
%TO.C,D50*%
X174641000Y-158497000D02*
X174641000Y-162507000D01*
X174641000Y-162507000D02*
X176641000Y-162507000D01*
X176641000Y-158497000D02*
X176641000Y-162507000D01*
%TO.C,D31*%
X108220000Y-139447000D02*
X108220000Y-143457000D01*
X108220000Y-143457000D02*
X110220000Y-143457000D01*
X110220000Y-139447000D02*
X110220000Y-143457000D01*
%TO.C,D63*%
X196358000Y-177166000D02*
X196358000Y-181176000D01*
X196358000Y-181176000D02*
X198358000Y-181176000D01*
X198358000Y-177166000D02*
X198358000Y-181176000D01*
%TO.C,D67*%
X322850000Y-177547000D02*
X322850000Y-181557000D01*
X322850000Y-181557000D02*
X324850000Y-181557000D01*
X324850000Y-177547000D02*
X324850000Y-181557000D01*
%TO.C,D7*%
X169942000Y-101347000D02*
X169942000Y-105357000D01*
X169942000Y-105357000D02*
X171942000Y-105357000D01*
X171942000Y-101347000D02*
X171942000Y-105357000D01*
%TO.C,D25*%
X255667000Y-120524000D02*
X255667000Y-124534000D01*
X255667000Y-124534000D02*
X257667000Y-124534000D01*
X257667000Y-120524000D02*
X257667000Y-124534000D01*
%TO.C,D21*%
X179721000Y-120397000D02*
X179721000Y-124407000D01*
X179721000Y-124407000D02*
X181721000Y-124407000D01*
X181721000Y-120397000D02*
X181721000Y-124407000D01*
%TO.C,D35*%
X184547000Y-139447000D02*
X184547000Y-143457000D01*
X184547000Y-143457000D02*
X186547000Y-143457000D01*
X186547000Y-139447000D02*
X186547000Y-143457000D01*
%TO.C,R4*%
X81925750Y-103883664D02*
X81925750Y-103429536D01*
X83395750Y-103883664D02*
X83395750Y-103429536D01*
%TO.C,D26*%
X274971000Y-120397000D02*
X274971000Y-124407000D01*
X274971000Y-124407000D02*
X276971000Y-124407000D01*
X276971000Y-120397000D02*
X276971000Y-124407000D01*
%TO.C,R2*%
X227887164Y-165479000D02*
X227433036Y-165479000D01*
X227887164Y-166949000D02*
X227433036Y-166949000D01*
%TD*%
M02*
