%TF.GenerationSoftware,KiCad,Pcbnew,8.0.5*%
%TF.CreationDate,2024-10-15T14:40:16+02:00*%
%TF.ProjectId,keeb2,6b656562-322e-46b6-9963-61645f706362,rev?*%
%TF.SameCoordinates,Original*%
%TF.FileFunction,Copper,L1,Top*%
%TF.FilePolarity,Positive*%
%FSLAX46Y46*%
G04 Gerber Fmt 4.6, Leading zero omitted, Abs format (unit mm)*
G04 Created by KiCad (PCBNEW 8.0.5) date 2024-10-15 14:40:16*
%MOMM*%
%LPD*%
G01*
G04 APERTURE LIST*
%ADD10C,0.300000*%
%TA.AperFunction,NonConductor*%
%ADD11C,0.300000*%
%TD*%
%TA.AperFunction,NonConductor*%
%ADD12C,0.200000*%
%TD*%
%TA.AperFunction,ComponentPad*%
%ADD13C,2.200000*%
%TD*%
%TA.AperFunction,WasherPad*%
%ADD14O,2.000000X3.200000*%
%TD*%
%TA.AperFunction,ComponentPad*%
%ADD15R,2.000000X2.000000*%
%TD*%
%TA.AperFunction,ComponentPad*%
%ADD16C,2.000000*%
%TD*%
%TA.AperFunction,ComponentPad*%
%ADD17O,2.000000X1.600000*%
%TD*%
%TA.AperFunction,ComponentPad*%
%ADD18C,1.700000*%
%TD*%
%TA.AperFunction,ComponentPad*%
%ADD19R,1.700000X1.700000*%
%TD*%
%TA.AperFunction,ComponentPad*%
%ADD20O,1.000000X1.600000*%
%TD*%
%TA.AperFunction,ComponentPad*%
%ADD21O,1.000000X2.100000*%
%TD*%
%TA.AperFunction,ViaPad*%
%ADD22C,0.600000*%
%TD*%
%TA.AperFunction,Conductor*%
%ADD23C,0.300000*%
%TD*%
%TA.AperFunction,Conductor*%
%ADD24C,0.200000*%
%TD*%
G04 APERTURE END LIST*
D10*
D11*
X49645982Y-143771956D02*
X49646124Y-143486242D01*
X49646124Y-143486242D02*
X49574767Y-143343349D01*
X49574767Y-143343349D02*
X49503374Y-143271885D01*
X49503374Y-143271885D02*
X49289160Y-143128921D01*
X49289160Y-143128921D02*
X49003481Y-143057349D01*
X49003481Y-143057349D02*
X48432053Y-143057064D01*
X48432053Y-143057064D02*
X48289160Y-143128421D01*
X48289160Y-143128421D02*
X48217696Y-143199814D01*
X48217696Y-143199814D02*
X48146196Y-143342636D01*
X48146196Y-143342636D02*
X48146053Y-143628350D01*
X48146053Y-143628350D02*
X48217410Y-143771243D01*
X48217410Y-143771243D02*
X48288803Y-143842707D01*
X48288803Y-143842707D02*
X48431625Y-143914207D01*
X48431625Y-143914207D02*
X48788768Y-143914385D01*
X48788768Y-143914385D02*
X48931660Y-143843028D01*
X48931660Y-143843028D02*
X49003125Y-143771635D01*
X49003125Y-143771635D02*
X49074625Y-143628813D01*
X49074625Y-143628813D02*
X49074767Y-143343099D01*
X49074767Y-143343099D02*
X49003410Y-143200206D01*
X49003410Y-143200206D02*
X48932017Y-143128742D01*
X48932017Y-143128742D02*
X48789196Y-143057242D01*
X48146588Y-142556922D02*
X48147088Y-141556922D01*
X48147088Y-141556922D02*
X49646766Y-142200528D01*
X49575980Y-140914779D02*
X49647408Y-140914814D01*
X49647408Y-140914814D02*
X49790230Y-140986314D01*
X49790230Y-140986314D02*
X49861623Y-141057778D01*
X48790694Y-140057243D02*
X48719194Y-140200065D01*
X48719194Y-140200065D02*
X48647729Y-140271458D01*
X48647729Y-140271458D02*
X48504837Y-140342815D01*
X48504837Y-140342815D02*
X48433408Y-140342779D01*
X48433408Y-140342779D02*
X48290587Y-140271279D01*
X48290587Y-140271279D02*
X48219194Y-140199815D01*
X48219194Y-140199815D02*
X48147837Y-140056922D01*
X48147837Y-140056922D02*
X48147979Y-139771208D01*
X48147979Y-139771208D02*
X48219479Y-139628387D01*
X48219479Y-139628387D02*
X48290943Y-139556994D01*
X48290943Y-139556994D02*
X48433836Y-139485636D01*
X48433836Y-139485636D02*
X48505265Y-139485672D01*
X48505265Y-139485672D02*
X48648086Y-139557172D01*
X48648086Y-139557172D02*
X48719479Y-139628636D01*
X48719479Y-139628636D02*
X48790836Y-139771529D01*
X48790836Y-139771529D02*
X48790694Y-140057243D01*
X48790694Y-140057243D02*
X48862051Y-140200136D01*
X48862051Y-140200136D02*
X48933444Y-140271600D01*
X48933444Y-140271600D02*
X49076265Y-140343100D01*
X49076265Y-140343100D02*
X49361979Y-140343243D01*
X49361979Y-140343243D02*
X49504872Y-140271886D01*
X49504872Y-140271886D02*
X49576336Y-140200493D01*
X49576336Y-140200493D02*
X49647836Y-140057671D01*
X49647836Y-140057671D02*
X49647979Y-139771957D01*
X49647979Y-139771957D02*
X49576622Y-139629064D01*
X49576622Y-139629064D02*
X49505229Y-139557600D01*
X49505229Y-139557600D02*
X49362407Y-139486100D01*
X49362407Y-139486100D02*
X49076693Y-139485957D01*
X49076693Y-139485957D02*
X48933800Y-139557315D01*
X48933800Y-139557315D02*
X48862336Y-139628708D01*
X48862336Y-139628708D02*
X48790836Y-139771529D01*
X48148764Y-138199780D02*
X48148621Y-138485494D01*
X48148621Y-138485494D02*
X48219978Y-138628387D01*
X48219978Y-138628387D02*
X48291371Y-138699851D01*
X48291371Y-138699851D02*
X48505586Y-138842815D01*
X48505586Y-138842815D02*
X48791264Y-138914387D01*
X48791264Y-138914387D02*
X49362693Y-138914672D01*
X49362693Y-138914672D02*
X49505586Y-138843315D01*
X49505586Y-138843315D02*
X49577050Y-138771922D01*
X49577050Y-138771922D02*
X49648550Y-138629100D01*
X49648550Y-138629100D02*
X49648692Y-138343386D01*
X49648692Y-138343386D02*
X49577335Y-138200493D01*
X49577335Y-138200493D02*
X49505942Y-138129029D01*
X49505942Y-138129029D02*
X49363121Y-138057529D01*
X49363121Y-138057529D02*
X49005978Y-138057351D01*
X49005978Y-138057351D02*
X48863085Y-138128708D01*
X48863085Y-138128708D02*
X48791621Y-138200101D01*
X48791621Y-138200101D02*
X48720121Y-138342923D01*
X48720121Y-138342923D02*
X48719978Y-138628637D01*
X48719978Y-138628637D02*
X48791336Y-138771530D01*
X48791336Y-138771530D02*
X48862728Y-138842994D01*
X48862728Y-138842994D02*
X49005550Y-138914494D01*
X48792120Y-137200102D02*
X48720620Y-137342923D01*
X48720620Y-137342923D02*
X48649156Y-137414316D01*
X48649156Y-137414316D02*
X48506263Y-137485673D01*
X48506263Y-137485673D02*
X48434835Y-137485638D01*
X48434835Y-137485638D02*
X48292013Y-137414138D01*
X48292013Y-137414138D02*
X48220620Y-137342673D01*
X48220620Y-137342673D02*
X48149263Y-137199781D01*
X48149263Y-137199781D02*
X48149406Y-136914066D01*
X48149406Y-136914066D02*
X48220906Y-136771245D01*
X48220906Y-136771245D02*
X48292370Y-136699852D01*
X48292370Y-136699852D02*
X48435263Y-136628495D01*
X48435263Y-136628495D02*
X48506691Y-136628530D01*
X48506691Y-136628530D02*
X48649513Y-136700030D01*
X48649513Y-136700030D02*
X48720906Y-136771495D01*
X48720906Y-136771495D02*
X48792263Y-136914387D01*
X48792263Y-136914387D02*
X48792120Y-137200102D01*
X48792120Y-137200102D02*
X48863477Y-137342994D01*
X48863477Y-137342994D02*
X48934870Y-137414459D01*
X48934870Y-137414459D02*
X49077692Y-137485959D01*
X49077692Y-137485959D02*
X49363406Y-137486101D01*
X49363406Y-137486101D02*
X49506299Y-137414744D01*
X49506299Y-137414744D02*
X49577763Y-137343351D01*
X49577763Y-137343351D02*
X49649263Y-137200530D01*
X49649263Y-137200530D02*
X49649406Y-136914815D01*
X49649406Y-136914815D02*
X49578048Y-136771923D01*
X49578048Y-136771923D02*
X49506656Y-136700458D01*
X49506656Y-136700458D02*
X49363834Y-136628958D01*
X49363834Y-136628958D02*
X49078120Y-136628816D01*
X49078120Y-136628816D02*
X48935227Y-136700173D01*
X48935227Y-136700173D02*
X48863763Y-136771566D01*
X48863763Y-136771566D02*
X48792263Y-136914387D01*
X49650262Y-135200530D02*
X49649834Y-136057673D01*
X49650048Y-135629102D02*
X48150048Y-135628353D01*
X48150048Y-135628353D02*
X48364262Y-135771317D01*
X48364262Y-135771317D02*
X48507048Y-135914245D01*
X48507048Y-135914245D02*
X48578405Y-136057138D01*
X49651153Y-133414817D02*
X48651153Y-133414317D01*
X48794011Y-133414389D02*
X48722618Y-133342925D01*
X48722618Y-133342925D02*
X48651260Y-133200032D01*
X48651260Y-133200032D02*
X48651367Y-132985746D01*
X48651367Y-132985746D02*
X48722867Y-132842925D01*
X48722867Y-132842925D02*
X48865760Y-132771567D01*
X48865760Y-132771567D02*
X49651474Y-132771960D01*
X48865760Y-132771567D02*
X48722939Y-132700068D01*
X48722939Y-132700068D02*
X48651581Y-132557175D01*
X48651581Y-132557175D02*
X48651688Y-132342889D01*
X48651688Y-132342889D02*
X48723188Y-132200068D01*
X48723188Y-132200068D02*
X48866081Y-132128710D01*
X48866081Y-132128710D02*
X49651795Y-132129103D01*
X49652152Y-131414817D02*
X48652152Y-131414318D01*
X48795009Y-131414389D02*
X48723616Y-131342925D01*
X48723616Y-131342925D02*
X48652259Y-131200032D01*
X48652259Y-131200032D02*
X48652366Y-130985746D01*
X48652366Y-130985746D02*
X48723866Y-130842925D01*
X48723866Y-130842925D02*
X48866759Y-130771568D01*
X48866759Y-130771568D02*
X49652473Y-130771960D01*
X48866759Y-130771568D02*
X48723937Y-130700068D01*
X48723937Y-130700068D02*
X48652580Y-130557175D01*
X48652580Y-130557175D02*
X48652687Y-130342889D01*
X48652687Y-130342889D02*
X48724187Y-130200068D01*
X48724187Y-130200068D02*
X48867080Y-130128711D01*
X48867080Y-130128711D02*
X49652794Y-130129103D01*
D12*
X64572867Y-88059617D02*
X50209056Y-88052445D01*
X64524000Y-185927750D02*
X50160189Y-185920578D01*
X50795476Y-88052738D02*
X50746609Y-185920871D01*
X50795476Y-88052738D02*
X50746609Y-185920871D01*
X50795476Y-88052738D02*
X51381334Y-89179534D01*
X50795476Y-88052738D02*
X50208493Y-89178949D01*
X50746609Y-185920871D02*
X50160751Y-184794075D01*
X50746609Y-185920871D02*
X51333592Y-184794660D01*
D10*
D11*
X206998938Y-61849202D02*
X207927509Y-61849054D01*
X207927509Y-61849054D02*
X207427601Y-62420563D01*
X207427601Y-62420563D02*
X207641886Y-62420528D01*
X207641886Y-62420528D02*
X207784755Y-62491934D01*
X207784755Y-62491934D02*
X207856195Y-62563351D01*
X207856195Y-62563351D02*
X207927646Y-62706197D01*
X207927646Y-62706197D02*
X207927703Y-63063340D01*
X207927703Y-63063340D02*
X207856298Y-63206208D01*
X207856298Y-63206208D02*
X207784881Y-63277648D01*
X207784881Y-63277648D02*
X207642035Y-63349100D01*
X207642035Y-63349100D02*
X207213463Y-63349168D01*
X207213463Y-63349168D02*
X207070595Y-63277762D01*
X207070595Y-63277762D02*
X206999155Y-63206345D01*
X208856080Y-61848906D02*
X208998938Y-61848883D01*
X208998938Y-61848883D02*
X209141806Y-61920289D01*
X209141806Y-61920289D02*
X209213246Y-61991706D01*
X209213246Y-61991706D02*
X209284698Y-62134552D01*
X209284698Y-62134552D02*
X209356172Y-62420254D01*
X209356172Y-62420254D02*
X209356229Y-62777397D01*
X209356229Y-62777397D02*
X209284846Y-63063123D01*
X209284846Y-63063123D02*
X209213440Y-63205992D01*
X209213440Y-63205992D02*
X209142023Y-63277432D01*
X209142023Y-63277432D02*
X208999177Y-63348883D01*
X208999177Y-63348883D02*
X208856320Y-63348906D01*
X208856320Y-63348906D02*
X208713452Y-63277500D01*
X208713452Y-63277500D02*
X208642012Y-63206083D01*
X208642012Y-63206083D02*
X208570560Y-63063237D01*
X208570560Y-63063237D02*
X208499086Y-62777534D01*
X208499086Y-62777534D02*
X208499029Y-62420391D01*
X208499029Y-62420391D02*
X208570412Y-62134666D01*
X208570412Y-62134666D02*
X208641818Y-61991797D01*
X208641818Y-61991797D02*
X208713235Y-61920357D01*
X208713235Y-61920357D02*
X208856080Y-61848906D01*
X210713223Y-61848609D02*
X209998937Y-61848723D01*
X209998937Y-61848723D02*
X209927623Y-62563020D01*
X209927623Y-62563020D02*
X209999040Y-62491580D01*
X209999040Y-62491580D02*
X210141886Y-62420129D01*
X210141886Y-62420129D02*
X210499028Y-62420072D01*
X210499028Y-62420072D02*
X210641897Y-62491478D01*
X210641897Y-62491478D02*
X210713337Y-62562895D01*
X210713337Y-62562895D02*
X210784788Y-62705741D01*
X210784788Y-62705741D02*
X210784845Y-63062883D01*
X210784845Y-63062883D02*
X210713440Y-63205752D01*
X210713440Y-63205752D02*
X210642023Y-63277192D01*
X210642023Y-63277192D02*
X210499177Y-63348643D01*
X210499177Y-63348643D02*
X210142034Y-63348700D01*
X210142034Y-63348700D02*
X209999165Y-63277295D01*
X209999165Y-63277295D02*
X209927725Y-63205877D01*
X211499165Y-63277055D02*
X211499176Y-63348484D01*
X211499176Y-63348484D02*
X211427771Y-63491352D01*
X211427771Y-63491352D02*
X211356353Y-63562792D01*
X212356183Y-62491204D02*
X212213314Y-62419798D01*
X212213314Y-62419798D02*
X212141874Y-62348381D01*
X212141874Y-62348381D02*
X212070423Y-62205535D01*
X212070423Y-62205535D02*
X212070411Y-62134107D01*
X212070411Y-62134107D02*
X212141817Y-61991238D01*
X212141817Y-61991238D02*
X212213234Y-61919798D01*
X212213234Y-61919798D02*
X212356080Y-61848347D01*
X212356080Y-61848347D02*
X212641794Y-61848301D01*
X212641794Y-61848301D02*
X212784663Y-61919707D01*
X212784663Y-61919707D02*
X212856103Y-61991124D01*
X212856103Y-61991124D02*
X212927554Y-62133970D01*
X212927554Y-62133970D02*
X212927565Y-62205398D01*
X212927565Y-62205398D02*
X212856160Y-62348267D01*
X212856160Y-62348267D02*
X212784743Y-62419707D01*
X212784743Y-62419707D02*
X212641897Y-62491158D01*
X212641897Y-62491158D02*
X212356183Y-62491204D01*
X212356183Y-62491204D02*
X212213337Y-62562655D01*
X212213337Y-62562655D02*
X212141920Y-62634095D01*
X212141920Y-62634095D02*
X212070514Y-62776964D01*
X212070514Y-62776964D02*
X212070560Y-63062678D01*
X212070560Y-63062678D02*
X212142011Y-63205524D01*
X212142011Y-63205524D02*
X212213451Y-63276941D01*
X212213451Y-63276941D02*
X212356319Y-63348347D01*
X212356319Y-63348347D02*
X212642034Y-63348301D01*
X212642034Y-63348301D02*
X212784879Y-63276850D01*
X212784879Y-63276850D02*
X212856297Y-63205410D01*
X212856297Y-63205410D02*
X212927702Y-63062541D01*
X212927702Y-63062541D02*
X212927657Y-62776827D01*
X212927657Y-62776827D02*
X212856205Y-62633981D01*
X212856205Y-62633981D02*
X212784765Y-62562564D01*
X212784765Y-62562564D02*
X212641897Y-62491158D01*
X213642033Y-63348141D02*
X213927748Y-63348096D01*
X213927748Y-63348096D02*
X214070593Y-63276644D01*
X214070593Y-63276644D02*
X214142010Y-63205204D01*
X214142010Y-63205204D02*
X214284833Y-62990896D01*
X214284833Y-62990896D02*
X214356216Y-62705170D01*
X214356216Y-62705170D02*
X214356125Y-62133741D01*
X214356125Y-62133741D02*
X214284674Y-61990896D01*
X214284674Y-61990896D02*
X214213234Y-61919479D01*
X214213234Y-61919479D02*
X214070365Y-61848073D01*
X214070365Y-61848073D02*
X213784651Y-61848118D01*
X213784651Y-61848118D02*
X213641805Y-61919570D01*
X213641805Y-61919570D02*
X213570388Y-61991010D01*
X213570388Y-61991010D02*
X213498982Y-62133878D01*
X213498982Y-62133878D02*
X213499039Y-62491021D01*
X213499039Y-62491021D02*
X213570491Y-62633867D01*
X213570491Y-62633867D02*
X213641931Y-62705284D01*
X213641931Y-62705284D02*
X213784799Y-62776690D01*
X213784799Y-62776690D02*
X214070513Y-62776644D01*
X214070513Y-62776644D02*
X214213359Y-62705193D01*
X214213359Y-62705193D02*
X214284776Y-62633753D01*
X214284776Y-62633753D02*
X214356182Y-62490884D01*
X215641873Y-62347822D02*
X215642033Y-63347822D01*
X215284639Y-61776450D02*
X214927667Y-62847936D01*
X214927667Y-62847936D02*
X215856239Y-62847787D01*
X217213461Y-63347571D02*
X216356318Y-63347708D01*
X216784890Y-63347639D02*
X216784650Y-61847639D01*
X216784650Y-61847639D02*
X216641827Y-62061948D01*
X216641827Y-62061948D02*
X216498993Y-62204828D01*
X216498993Y-62204828D02*
X216356147Y-62276279D01*
X218999175Y-63347285D02*
X218999015Y-62347285D01*
X218999038Y-62490143D02*
X219070455Y-62418703D01*
X219070455Y-62418703D02*
X219213301Y-62347251D01*
X219213301Y-62347251D02*
X219427586Y-62347217D01*
X219427586Y-62347217D02*
X219570455Y-62418623D01*
X219570455Y-62418623D02*
X219641906Y-62561468D01*
X219641906Y-62561468D02*
X219642032Y-63347183D01*
X219641906Y-62561468D02*
X219713312Y-62418600D01*
X219713312Y-62418600D02*
X219856158Y-62347148D01*
X219856158Y-62347148D02*
X220070443Y-62347114D01*
X220070443Y-62347114D02*
X220213312Y-62418520D01*
X220213312Y-62418520D02*
X220284763Y-62561366D01*
X220284763Y-62561366D02*
X220284889Y-63347080D01*
X220999175Y-63346966D02*
X220999015Y-62346966D01*
X220999038Y-62489823D02*
X221070455Y-62418383D01*
X221070455Y-62418383D02*
X221213301Y-62346932D01*
X221213301Y-62346932D02*
X221427586Y-62346897D01*
X221427586Y-62346897D02*
X221570455Y-62418303D01*
X221570455Y-62418303D02*
X221641906Y-62561149D01*
X221641906Y-62561149D02*
X221642032Y-63346863D01*
X221641906Y-62561149D02*
X221713312Y-62418280D01*
X221713312Y-62418280D02*
X221856158Y-62346829D01*
X221856158Y-62346829D02*
X222070443Y-62346795D01*
X222070443Y-62346795D02*
X222213312Y-62418200D01*
X222213312Y-62418200D02*
X222284763Y-62561046D01*
X222284763Y-62561046D02*
X222284889Y-63346760D01*
D12*
X61770787Y-90861867D02*
X61766481Y-63907656D01*
X367664920Y-90813000D02*
X367660614Y-63858789D01*
X61766575Y-64494076D02*
X367660708Y-64445209D01*
X61766575Y-64494076D02*
X367660708Y-64445209D01*
X61766575Y-64494076D02*
X62892985Y-63907475D01*
X61766575Y-64494076D02*
X62893172Y-65080317D01*
X367660708Y-64445209D02*
X366534298Y-65031810D01*
X367660708Y-64445209D02*
X366534111Y-63858968D01*
D13*
%TO.P,SW29,1,1*%
%TO.N,Net-(D28-A)*%
X312801000Y-112395000D03*
%TO.P,SW29,2,2*%
%TO.N,col12*%
X306451000Y-114935000D03*
%TD*%
%TO.P,SW14,1,1*%
%TO.N,Net-(D13-A)*%
X284353000Y-93345000D03*
%TO.P,SW14,2,2*%
%TO.N,col11*%
X278003000Y-95885000D03*
%TD*%
%TO.P,SW66,1,1*%
%TO.N,Net-(D65-A)*%
X284480000Y-169545000D03*
%TO.P,SW66,2,2*%
%TO.N,col10*%
X278130000Y-172085000D03*
%TD*%
%TO.P,SW45,1,1*%
%TO.N,Net-(D44-A)*%
X360680000Y-131445000D03*
%TO.P,SW45,2,2*%
%TO.N,col14*%
X354330000Y-133985000D03*
%TD*%
%TO.P,SW56,1,1*%
%TO.N,Net-(D55-A)*%
X270129000Y-150495000D03*
%TO.P,SW56,2,2*%
%TO.N,col10*%
X263779000Y-153035000D03*
%TD*%
%TO.P,SW17,1,1*%
%TO.N,Net-(D16-A)*%
X79502000Y-112395000D03*
%TO.P,SW17,2,2*%
%TO.N,col0*%
X73152000Y-114935000D03*
%TD*%
%TO.P,SW34,1,1*%
%TO.N,Net-(D33-A)*%
X146177000Y-131445000D03*
%TO.P,SW34,2,2*%
%TO.N,MISO*%
X139827000Y-133985000D03*
%TD*%
%TO.P,SW16,1,1*%
%TO.N,Net-(D15-A)*%
X332067000Y-93360000D03*
%TO.P,SW16,2,2*%
%TO.N,col13*%
X325717000Y-95900000D03*
%TD*%
%TO.P,SW33,1,1*%
%TO.N,Net-(D32-A)*%
X127127000Y-131445000D03*
%TO.P,SW33,2,2*%
%TO.N,MOSI*%
X120777000Y-133985000D03*
%TD*%
%TO.P,SW59,1,1*%
%TO.N,Net-(D58-A)*%
X341503000Y-150495000D03*
%TO.P,SW59,2,2*%
%TO.N,col13*%
X335153000Y-153035000D03*
%TD*%
%TO.P,SW22,1,1*%
%TO.N,Net-(D21-A)*%
X179451000Y-112395000D03*
%TO.P,SW22,2,2*%
%TO.N,col5*%
X173101000Y-114935000D03*
%TD*%
%TO.P,SW70,1,1*%
%TO.N,Net-(D69-A)*%
X360553000Y-169545000D03*
%TO.P,SW70,2,2*%
%TO.N,col14*%
X354203000Y-172085000D03*
%TD*%
%TO.P,SW63,1,1*%
%TO.N,Net-(D62-A)*%
X124968000Y-169545000D03*
%TO.P,SW63,2,2*%
%TO.N,MOSI*%
X118618000Y-172085000D03*
%TD*%
%TO.P,SW12,1,1*%
%TO.N,Net-(D11-A)*%
X246221250Y-93345000D03*
%TO.P,SW12,2,2*%
%TO.N,col9*%
X239871250Y-95885000D03*
%TD*%
%TO.P,SW50,1,1*%
%TO.N,Net-(D49-A)*%
X155829000Y-150495000D03*
%TO.P,SW50,2,2*%
%TO.N,SCK*%
X149479000Y-153035000D03*
%TD*%
%TO.P,SW65,1,1*%
%TO.N,Net-(D64-A)*%
X265430000Y-169545000D03*
%TO.P,SW65,2,2*%
%TO.N,col9*%
X259080000Y-172085000D03*
%TD*%
%TO.P,SW26,1,1*%
%TO.N,Net-(D25-A)*%
X255651000Y-112395000D03*
%TO.P,SW26,2,2*%
%TO.N,col9*%
X249301000Y-114935000D03*
%TD*%
%TO.P,SW64,1,1*%
%TO.N,Net-(D63-A)*%
X196431000Y-169560000D03*
%TO.P,SW64,2,2*%
%TO.N,col5*%
X190081000Y-172100000D03*
%TD*%
%TO.P,SW39,1,1*%
%TO.N,Net-(D38-A)*%
X241427000Y-131445000D03*
%TO.P,SW39,2,2*%
%TO.N,col8*%
X235077000Y-133985000D03*
%TD*%
%TO.P,SW36,1,1*%
%TO.N,Net-(D35-A)*%
X184277000Y-131445000D03*
%TO.P,SW36,2,2*%
%TO.N,col5*%
X177927000Y-133985000D03*
%TD*%
%TO.P,SW38,1,1*%
%TO.N,Net-(D37-A)*%
X222377000Y-131445000D03*
%TO.P,SW38,2,2*%
%TO.N,col7*%
X216027000Y-133985000D03*
%TD*%
%TO.P,SW5,1,1*%
%TO.N,Net-(D4-A)*%
X112871250Y-93345000D03*
%TO.P,SW5,2,2*%
%TO.N,MOSI*%
X106521250Y-95885000D03*
%TD*%
%TO.P,SW30,1,1*%
%TO.N,Net-(D29-A)*%
X360680000Y-112395000D03*
%TO.P,SW30,2,2*%
%TO.N,col14*%
X354330000Y-114935000D03*
%TD*%
D14*
%TO.P,SW71,*%
%TO.N,*%
X352131250Y-97531250D03*
X363331250Y-97531250D03*
D15*
%TO.P,SW71,A,A*%
%TO.N,Rota_A*%
X355231250Y-105031250D03*
D16*
%TO.P,SW71,B,B*%
%TO.N,Rota_B*%
X360231250Y-105031250D03*
%TO.P,SW71,C,C*%
%TO.N,GND*%
X357731250Y-105031250D03*
%TO.P,SW71,S1,S1*%
%TO.N,unconnected-(SW71-PadS1)*%
X360231250Y-90531250D03*
%TO.P,SW71,S2,S2*%
%TO.N,unconnected-(SW71-PadS2)*%
X355231250Y-90531250D03*
%TD*%
D13*
%TO.P,SW51,1,1*%
%TO.N,Net-(D50-A)*%
X174879000Y-150495000D03*
%TO.P,SW51,2,2*%
%TO.N,col5*%
X168529000Y-153035000D03*
%TD*%
%TO.P,SW19,1,1*%
%TO.N,Net-(D18-A)*%
X122301000Y-112395000D03*
%TO.P,SW19,2,2*%
%TO.N,MOSI*%
X115951000Y-114935000D03*
%TD*%
%TO.P,SW37,1,1*%
%TO.N,Net-(D36-A)*%
X203327000Y-131445000D03*
%TO.P,SW37,2,2*%
%TO.N,col6*%
X196977000Y-133985000D03*
%TD*%
%TO.P,SW47,1,1*%
%TO.N,Net-(D46-A)*%
X98679000Y-150495000D03*
%TO.P,SW47,2,2*%
%TO.N,col1*%
X92329000Y-153035000D03*
%TD*%
%TO.P,SW4,1,1*%
%TO.N,Net-(D3-A)*%
X93853000Y-93345000D03*
%TO.P,SW4,2,2*%
%TO.N,col1*%
X87503000Y-95885000D03*
%TD*%
%TO.P,SW10,1,1*%
%TO.N,Net-(D9-A)*%
X208095850Y-93345000D03*
%TO.P,SW10,2,2*%
%TO.N,col7*%
X201745850Y-95885000D03*
%TD*%
%TO.P,SW24,1,1*%
%TO.N,Net-(D23-A)*%
X217551000Y-112395000D03*
%TO.P,SW24,2,2*%
%TO.N,col7*%
X211201000Y-114935000D03*
%TD*%
%TO.P,SW69,1,1*%
%TO.N,Net-(D68-A)*%
X341630000Y-169545000D03*
%TO.P,SW69,2,2*%
%TO.N,col13*%
X335280000Y-172085000D03*
%TD*%
%TO.P,SW44,1,1*%
%TO.N,Net-(D43-A)*%
X339217000Y-121920000D03*
%TO.P,SW44,2,2*%
%TO.N,col13*%
X332867000Y-124460000D03*
%TD*%
%TO.P,SW62,1,1*%
%TO.N,Net-(D61-A)*%
X101092000Y-169545000D03*
%TO.P,SW62,2,2*%
%TO.N,col1*%
X94742000Y-172085000D03*
%TD*%
%TO.P,SW58,1,1*%
%TO.N,Net-(D57-A)*%
X315341000Y-150495000D03*
%TO.P,SW58,2,2*%
%TO.N,col12*%
X308991000Y-153035000D03*
%TD*%
%TO.P,SW41,1,1*%
%TO.N,Net-(D40-A)*%
X279527000Y-131445000D03*
%TO.P,SW41,2,2*%
%TO.N,col10*%
X273177000Y-133985000D03*
%TD*%
D17*
%TO.P,J3,1,S*%
%TO.N,+5V*%
X354825000Y-121425000D03*
%TO.P,J3,2,R2*%
%TO.N,SCL*%
X355925000Y-126025000D03*
%TO.P,J3,3,R1*%
%TO.N,SDA*%
X359925000Y-126025000D03*
%TO.P,J3,4,T*%
%TO.N,GND*%
X362925000Y-126025000D03*
%TD*%
D13*
%TO.P,SW57,1,1*%
%TO.N,Net-(D56-A)*%
X289179000Y-150495000D03*
%TO.P,SW57,2,2*%
%TO.N,col11*%
X282829000Y-153035000D03*
%TD*%
%TO.P,SW21,1,1*%
%TO.N,Net-(D20-A)*%
X160401000Y-112395000D03*
%TO.P,SW21,2,2*%
%TO.N,SCK*%
X154051000Y-114935000D03*
%TD*%
%TO.P,SW31,1,1*%
%TO.N,Net-(D30-A)*%
X81915000Y-131445000D03*
%TO.P,SW31,2,2*%
%TO.N,col0*%
X75565000Y-133985000D03*
%TD*%
%TO.P,SW32,1,1*%
%TO.N,Net-(D31-A)*%
X108077000Y-131445000D03*
%TO.P,SW32,2,2*%
%TO.N,col1*%
X101727000Y-133985000D03*
%TD*%
%TO.P,SW61,1,1*%
%TO.N,Net-(D60-A)*%
X77216000Y-169545000D03*
%TO.P,SW61,2,2*%
%TO.N,col0*%
X70866000Y-172085000D03*
%TD*%
%TO.P,SW60,1,1*%
%TO.N,Net-(D59-A)*%
X360553000Y-150495000D03*
%TO.P,SW60,2,2*%
%TO.N,col14*%
X354203000Y-153035000D03*
%TD*%
%TO.P,SW42,1,1*%
%TO.N,Net-(D41-A)*%
X298577000Y-131445000D03*
%TO.P,SW42,2,2*%
%TO.N,col11*%
X292227000Y-133985000D03*
%TD*%
%TO.P,SW11,1,1*%
%TO.N,Net-(D10-A)*%
X227171250Y-93345000D03*
%TO.P,SW11,2,2*%
%TO.N,col8*%
X220821250Y-95885000D03*
%TD*%
%TO.P,SW20,1,1*%
%TO.N,Net-(D19-A)*%
X141351000Y-112395000D03*
%TO.P,SW20,2,2*%
%TO.N,MISO*%
X135001000Y-114935000D03*
%TD*%
%TO.P,SW15,1,1*%
%TO.N,Net-(D14-A)*%
X303403000Y-93345000D03*
%TO.P,SW15,2,2*%
%TO.N,col12*%
X297053000Y-95885000D03*
%TD*%
%TO.P,SW25,1,1*%
%TO.N,Net-(D24-A)*%
X236601000Y-112395000D03*
%TO.P,SW25,2,2*%
%TO.N,col8*%
X230251000Y-114935000D03*
%TD*%
%TO.P,SW53,1,1*%
%TO.N,Net-(D52-A)*%
X212979000Y-150495000D03*
%TO.P,SW53,2,2*%
%TO.N,col7*%
X206629000Y-153035000D03*
%TD*%
%TO.P,SW9,1,1*%
%TO.N,Net-(D8-A)*%
X189071250Y-93345000D03*
%TO.P,SW9,2,2*%
%TO.N,col6*%
X182721250Y-95885000D03*
%TD*%
%TO.P,SW54,1,1*%
%TO.N,Net-(D53-A)*%
X232029000Y-150495000D03*
%TO.P,SW54,2,2*%
%TO.N,col8*%
X225679000Y-153035000D03*
%TD*%
%TO.P,SW46,1,1*%
%TO.N,Net-(D45-A)*%
X77216000Y-150495000D03*
%TO.P,SW46,2,2*%
%TO.N,col0*%
X70866000Y-153035000D03*
%TD*%
%TO.P,SW67,1,1*%
%TO.N,Net-(D66-A)*%
X303530000Y-169545000D03*
%TO.P,SW67,2,2*%
%TO.N,col11*%
X297180000Y-172085000D03*
%TD*%
%TO.P,SW7,1,1*%
%TO.N,Net-(D6-A)*%
X150971250Y-93345000D03*
%TO.P,SW7,2,2*%
%TO.N,SCK*%
X144621250Y-95885000D03*
%TD*%
%TO.P,SW13,1,1*%
%TO.N,Net-(D12-A)*%
X265271250Y-93345000D03*
%TO.P,SW13,2,2*%
%TO.N,col10*%
X258921250Y-95885000D03*
%TD*%
%TO.P,SW55,1,1*%
%TO.N,Net-(D54-A)*%
X251079000Y-150495000D03*
%TO.P,SW55,2,2*%
%TO.N,col9*%
X244729000Y-153035000D03*
%TD*%
%TO.P,SW68,1,1*%
%TO.N,Net-(D67-A)*%
X322580000Y-169545000D03*
%TO.P,SW68,2,2*%
%TO.N,col12*%
X316230000Y-172085000D03*
%TD*%
%TO.P,SW6,1,1*%
%TO.N,Net-(D5-A)*%
X131921250Y-93345000D03*
%TO.P,SW6,2,2*%
%TO.N,MISO*%
X125571250Y-95885000D03*
%TD*%
%TO.P,SW49,1,1*%
%TO.N,Net-(D48-A)*%
X136779000Y-150495000D03*
%TO.P,SW49,2,2*%
%TO.N,MISO*%
X130429000Y-153035000D03*
%TD*%
%TO.P,SW8,1,1*%
%TO.N,Net-(D7-A)*%
X170021250Y-93345000D03*
%TO.P,SW8,2,2*%
%TO.N,col5*%
X163671250Y-95885000D03*
%TD*%
%TO.P,SW35,1,1*%
%TO.N,Net-(D34-A)*%
X165227000Y-131445000D03*
%TO.P,SW35,2,2*%
%TO.N,SCK*%
X158877000Y-133985000D03*
%TD*%
%TO.P,SW3,1,1*%
%TO.N,Net-(D2-A)*%
X74745850Y-93370400D03*
%TO.P,SW3,2,2*%
%TO.N,col0*%
X68395850Y-95910400D03*
%TD*%
%TO.P,SW48,1,1*%
%TO.N,Net-(D47-A)*%
X117729000Y-150495000D03*
%TO.P,SW48,2,2*%
%TO.N,MOSI*%
X111379000Y-153035000D03*
%TD*%
%TO.P,SW52,1,1*%
%TO.N,Net-(D51-A)*%
X193929000Y-150495000D03*
%TO.P,SW52,2,2*%
%TO.N,col6*%
X187579000Y-153035000D03*
%TD*%
%TO.P,SW23,1,1*%
%TO.N,Net-(D22-A)*%
X198501000Y-112395000D03*
%TO.P,SW23,2,2*%
%TO.N,col6*%
X192151000Y-114935000D03*
%TD*%
%TO.P,SW28,1,1*%
%TO.N,Net-(D27-A)*%
X293751000Y-112395000D03*
%TO.P,SW28,2,2*%
%TO.N,col11*%
X287401000Y-114935000D03*
%TD*%
%TO.P,SW43,1,1*%
%TO.N,Net-(D42-A)*%
X317627000Y-131445000D03*
%TO.P,SW43,2,2*%
%TO.N,col12*%
X311277000Y-133985000D03*
%TD*%
%TO.P,SW27,1,1*%
%TO.N,Net-(D26-A)*%
X274701000Y-112395000D03*
%TO.P,SW27,2,2*%
%TO.N,col10*%
X268351000Y-114935000D03*
%TD*%
%TO.P,SW18,1,1*%
%TO.N,Net-(D17-A)*%
X103251000Y-112395000D03*
%TO.P,SW18,2,2*%
%TO.N,col1*%
X96901000Y-114935000D03*
%TD*%
D18*
%TO.P,J1,1,MISO*%
%TO.N,MISO*%
X163587500Y-177546000D03*
%TO.P,J1,2,VCC*%
%TO.N,+5V*%
X163587500Y-175006000D03*
%TO.P,J1,3,SCK*%
%TO.N,SCK*%
X166127500Y-177546000D03*
%TO.P,J1,4,MOSI*%
%TO.N,MOSI*%
X166127500Y-175006000D03*
%TO.P,J1,5,~{RST}*%
%TO.N,RESET*%
X168667500Y-177546000D03*
D19*
%TO.P,J1,6,GND*%
%TO.N,GND*%
X168667500Y-175006000D03*
%TD*%
D13*
%TO.P,SW40,1,1*%
%TO.N,Net-(D39-A)*%
X260477000Y-131445000D03*
%TO.P,SW40,2,2*%
%TO.N,col9*%
X254127000Y-133985000D03*
%TD*%
D20*
%TO.P,USB1,13,SHIELD*%
%TO.N,GND*%
X76642500Y-85843750D03*
D21*
X76642500Y-90023750D03*
D20*
X85282500Y-85843750D03*
D21*
X85282500Y-90023750D03*
%TD*%
D22*
%TO.N,GND*%
X238074100Y-176374000D03*
X186309000Y-171450000D03*
X214579100Y-164182000D03*
X82740500Y-106743500D03*
X210007100Y-164182000D03*
X350139000Y-130937000D03*
X238074100Y-173580000D03*
X184823100Y-169964100D03*
X258191000Y-165227000D03*
X228168100Y-173834000D03*
X344297000Y-165227000D03*
X79629000Y-106807000D03*
X350139000Y-158750000D03*
%TO.N,+5V*%
X228676100Y-164055000D03*
X207848100Y-164944000D03*
X255397000Y-164055000D03*
X219278100Y-165811500D03*
X210917600Y-165811500D03*
X206451100Y-180311000D03*
X350279000Y-121425000D03*
X344297000Y-164055000D03*
X220802127Y-183764006D03*
%TO.N,VCC*%
X78232000Y-93599000D03*
X83947000Y-93599000D03*
%TO.N,row0*%
X194818000Y-104647000D03*
X203994500Y-165931100D03*
%TO.N,Net-(D2-A)*%
X85979000Y-101219000D03*
%TO.N,row1*%
X207518000Y-123698000D03*
X203181700Y-165931100D03*
%TO.N,row2*%
X85598000Y-142747000D03*
X352679000Y-142747000D03*
X96012000Y-142747000D03*
X343154000Y-142747000D03*
X202318100Y-165931100D03*
X208407000Y-142748000D03*
%TO.N,row3*%
X219075000Y-161670000D03*
X82169000Y-161797000D03*
X223012000Y-161670000D03*
X88900000Y-161797000D03*
X211584000Y-169289000D03*
X205613000Y-161670000D03*
%TO.N,row4*%
X198933250Y-181272700D03*
X266065000Y-182880000D03*
%TO.N,RESET*%
X181356000Y-160401000D03*
X226060000Y-162560000D03*
X187198000Y-170815000D03*
X210058000Y-160274000D03*
%TO.N,Rota_B*%
X348996000Y-112649000D03*
X348996000Y-110871000D03*
%TO.N,Rota_A*%
X347726000Y-110744000D03*
X347726000Y-112649000D03*
%TO.N,col0*%
X196469000Y-185293000D03*
%TO.N,col1*%
X197136500Y-184574700D03*
%TO.N,col8*%
X238633000Y-161671000D03*
%TO.N,col10*%
X277876000Y-182880000D03*
%TO.N,col5*%
X203962000Y-177292000D03*
%TO.N,col6*%
X203708000Y-171196000D03*
%TO.N,col7*%
X219075000Y-162560000D03*
%TO.N,col11*%
X297243500Y-183197500D03*
%TO.N,col12*%
X316166500Y-183832500D03*
%TO.N,col13*%
X335280000Y-184023000D03*
%TO.N,col14*%
X354012500Y-184594500D03*
%TO.N,MISO*%
X160782000Y-179197000D03*
X198812900Y-183761900D03*
%TO.N,SCK*%
X199473300Y-183101500D03*
%TO.N,MOSI*%
X198000100Y-184219100D03*
X159258000Y-179832000D03*
%TD*%
D23*
%TO.N,GND*%
X213544900Y-164182000D02*
X213798900Y-164182000D01*
X357731250Y-105437750D02*
X351282000Y-111887000D01*
X350139000Y-125349000D02*
X350139000Y-130937000D01*
X186309000Y-171450000D02*
X184912000Y-170053000D01*
X350139000Y-163957000D02*
X348869000Y-165227000D01*
X214335800Y-163391100D02*
X256355100Y-163391100D01*
X350139000Y-158750000D02*
X350139000Y-163957000D01*
X213544900Y-164182000D02*
X214335800Y-163391100D01*
X82677000Y-106807000D02*
X79629000Y-106807000D01*
X351282000Y-111887000D02*
X351282000Y-124206000D01*
X357731250Y-105031250D02*
X357731250Y-105437750D01*
X256355100Y-163391100D02*
X258191000Y-165227000D01*
X348869000Y-165227000D02*
X344297000Y-165227000D01*
X210007100Y-164182000D02*
X213544900Y-164182000D01*
X351282000Y-124206000D02*
X350139000Y-125349000D01*
X213798900Y-164182000D02*
X214579100Y-164182000D01*
%TO.N,+5V*%
X222220600Y-165811500D02*
X223088100Y-164944000D01*
X223977100Y-164055000D02*
X228676100Y-164055000D01*
X220800862Y-183762741D02*
X220802127Y-183764006D01*
X228676100Y-164055000D02*
X254381000Y-164055000D01*
X206451100Y-166341000D02*
X206451100Y-180311000D01*
X208630917Y-183760817D02*
X215973928Y-183762741D01*
X350279000Y-121425000D02*
X340614000Y-131090000D01*
X340614000Y-131090000D02*
X340614000Y-143637000D01*
X223088100Y-164944000D02*
X223977100Y-164055000D01*
X207848100Y-164944000D02*
X206451100Y-166341000D01*
X254381000Y-164055000D02*
X255397000Y-164055000D01*
X210917600Y-165811500D02*
X211912100Y-165811500D01*
X206451100Y-181581000D02*
X208630917Y-183760817D01*
X340614000Y-143637000D02*
X346075000Y-149098000D01*
X206451100Y-180311000D02*
X206451100Y-181581000D01*
X346075000Y-149098000D02*
X346075000Y-162433000D01*
X215976194Y-183762741D02*
X220800862Y-183762741D01*
X219278100Y-165811500D02*
X222220600Y-165811500D01*
X211912100Y-165811500D02*
X219278100Y-165811500D01*
X346075000Y-162433000D02*
X344424000Y-164084000D01*
X215973928Y-183762741D02*
X215976194Y-183762741D01*
%TO.N,VCC*%
X83947000Y-93599000D02*
X78232000Y-93599000D01*
D24*
%TO.N,row0*%
X203581700Y-154102401D02*
X209804000Y-147880101D01*
X203994500Y-165931100D02*
X203781700Y-165718300D01*
X209804000Y-147880101D02*
X209804000Y-119761000D01*
X203781700Y-165682571D02*
X203581700Y-165482571D01*
X209804000Y-119761000D02*
X194691000Y-104648000D01*
X203581700Y-165482571D02*
X203581700Y-154102401D01*
X203781700Y-165718300D02*
X203781700Y-165682571D01*
%TO.N,Net-(D2-A)*%
X74745850Y-93370400D02*
X82595450Y-101220000D01*
X82595450Y-101220000D02*
X85978000Y-101220000D01*
X85978000Y-101220000D02*
X85979000Y-101219000D01*
%TO.N,row1*%
X209404000Y-147714415D02*
X209404000Y-125584000D01*
X203181700Y-153936715D02*
X209404000Y-147714415D01*
X203181700Y-165931100D02*
X203181700Y-153936715D01*
X209404000Y-125584000D02*
X207518000Y-123698000D01*
%TO.N,row2*%
X202781700Y-153771029D02*
X208248365Y-148304364D01*
X96012000Y-142747000D02*
X85598000Y-142747000D01*
X202781700Y-160401000D02*
X202781700Y-160254786D01*
X209004000Y-147548729D02*
X209004000Y-143764000D01*
X208248365Y-148304364D02*
X209004000Y-147548729D01*
X209004000Y-143764000D02*
X209004000Y-143345000D01*
X202470500Y-165931100D02*
X202318100Y-165931100D01*
X343154000Y-142747000D02*
X352679000Y-142747000D01*
X202318100Y-165931100D02*
X202781700Y-165467500D01*
X202781700Y-165467500D02*
X202781700Y-160401000D01*
X202781700Y-160401000D02*
X202781700Y-153771029D01*
X209004000Y-143345000D02*
X208407000Y-142748000D01*
%TO.N,row3*%
X205613000Y-161860372D02*
X205613000Y-161670000D01*
X211584000Y-167831372D02*
X205613000Y-161860372D01*
X211584000Y-169289000D02*
X211584000Y-167831372D01*
X82169000Y-161797000D02*
X88900000Y-161797000D01*
X219075000Y-161670000D02*
X223012000Y-161670000D01*
%TO.N,row4*%
X244801402Y-185293000D02*
X244928402Y-185166000D01*
X263779000Y-185166000D02*
X266065000Y-182880000D01*
X244928402Y-185166000D02*
X263779000Y-185166000D01*
X202953550Y-185293000D02*
X244801402Y-185293000D01*
X198933250Y-181272700D02*
X202953550Y-185293000D01*
%TO.N,RESET*%
X226060000Y-161036000D02*
X225298000Y-160274000D01*
X226060000Y-162560000D02*
X226060000Y-161036000D01*
X181356000Y-164973000D02*
X187198000Y-170815000D01*
X181356000Y-160401000D02*
X181356000Y-164973000D01*
X225298000Y-160274000D02*
X210058000Y-160274000D01*
%TO.N,Rota_B*%
X348996000Y-112649000D02*
X348996000Y-110871000D01*
%TO.N,Rota_A*%
X347726000Y-112649000D02*
X347726000Y-110744000D01*
%TO.N,col0*%
X68395850Y-95910400D02*
X68395850Y-114242850D01*
X70866000Y-153035000D02*
X70866000Y-172085000D01*
X71692000Y-185230000D02*
X70866000Y-184404000D01*
X196406000Y-185230000D02*
X71692000Y-185230000D01*
X196469000Y-185293000D02*
X196406000Y-185230000D01*
X73152000Y-131572000D02*
X75565000Y-133985000D01*
X69088000Y-114935000D02*
X73152000Y-114935000D01*
X75565000Y-148336000D02*
X70866000Y-153035000D01*
X75565000Y-133985000D02*
X75565000Y-148336000D01*
X70866000Y-184404000D02*
X70866000Y-172085000D01*
X68395850Y-114242850D02*
X69088000Y-114935000D01*
X73152000Y-114935000D02*
X73152000Y-131572000D01*
%TO.N,col1*%
X92329000Y-153035000D02*
X92329000Y-169672000D01*
X138303000Y-183388000D02*
X95885000Y-183388000D01*
X87503000Y-105537000D02*
X96901000Y-114935000D01*
X101727000Y-138811000D02*
X92329000Y-148209000D01*
X96901000Y-114935000D02*
X96901000Y-129159000D01*
X141161000Y-180530000D02*
X138303000Y-183388000D01*
X92329000Y-169672000D02*
X94742000Y-172085000D01*
X95885000Y-183388000D02*
X94742000Y-182245000D01*
X169334700Y-184574700D02*
X165290000Y-180530000D01*
X101727000Y-133985000D02*
X101727000Y-138811000D01*
X92329000Y-148209000D02*
X92329000Y-153035000D01*
X197136500Y-184574700D02*
X169334700Y-184574700D01*
X165290000Y-180530000D02*
X141161000Y-180530000D01*
X96901000Y-129159000D02*
X101727000Y-133985000D01*
X87503000Y-95885000D02*
X87503000Y-105537000D01*
X94742000Y-182245000D02*
X94742000Y-172085000D01*
%TO.N,col8*%
X220821250Y-105505250D02*
X230251000Y-114935000D01*
X230251000Y-114935000D02*
X230251000Y-129159000D01*
X232261598Y-161671000D02*
X238633000Y-161671000D01*
X230251000Y-129159000D02*
X235077000Y-133985000D01*
X225679000Y-155088402D02*
X232261598Y-161671000D01*
X220821250Y-95885000D02*
X220821250Y-105505250D01*
X235077000Y-133985000D02*
X235077000Y-143637000D01*
X235077000Y-143637000D02*
X225679000Y-153035000D01*
X225679000Y-153035000D02*
X225679000Y-155088402D01*
D23*
%TO.N,col9*%
X254127000Y-133985000D02*
X254127000Y-143637000D01*
X249301000Y-129159000D02*
X254127000Y-133985000D01*
X244729000Y-153035000D02*
X244729000Y-155159113D01*
X252460987Y-162891100D02*
X256998100Y-162891100D01*
X249301000Y-114935000D02*
X249301000Y-129159000D01*
X256998100Y-162891100D02*
X259080000Y-164973000D01*
X244729000Y-155159113D02*
X252460987Y-162891100D01*
X239871250Y-95885000D02*
X239871250Y-105505250D01*
X259080000Y-164973000D02*
X259080000Y-172085000D01*
X239871250Y-105505250D02*
X249301000Y-114935000D01*
X254127000Y-143637000D02*
X244729000Y-153035000D01*
D24*
%TO.N,col10*%
X277876000Y-182880000D02*
X277876000Y-182753000D01*
X278130000Y-182499000D02*
X278130000Y-172085000D01*
X277876000Y-182753000D02*
X278130000Y-182499000D01*
D23*
X273177000Y-143637000D02*
X263779000Y-153035000D01*
X268351000Y-114935000D02*
X268351000Y-129159000D01*
X263779000Y-157734000D02*
X278130000Y-172085000D01*
X263779000Y-153035000D02*
X263779000Y-157734000D01*
X258921250Y-105505250D02*
X268351000Y-114935000D01*
X258921250Y-95885000D02*
X258921250Y-105505250D01*
X268351000Y-129159000D02*
X273177000Y-133985000D01*
X273177000Y-133985000D02*
X273177000Y-143637000D01*
D24*
%TO.N,col5*%
X198128056Y-172100000D02*
X203320056Y-177292000D01*
X177927000Y-133985000D02*
X177927000Y-143637000D01*
X173101000Y-129159000D02*
X177927000Y-133985000D01*
X190081000Y-172100000D02*
X198128056Y-172100000D01*
X168529000Y-153035000D02*
X168529000Y-170434000D01*
X163671250Y-95885000D02*
X163671250Y-105505250D01*
X168529000Y-170434000D02*
X170195000Y-172100000D01*
X177927000Y-143637000D02*
X168529000Y-153035000D01*
X203320056Y-177292000D02*
X203835000Y-177292000D01*
X173101000Y-114935000D02*
X173101000Y-129159000D01*
X170195000Y-172100000D02*
X190081000Y-172100000D01*
X163671250Y-105505250D02*
X173101000Y-114935000D01*
%TO.N,col6*%
X192151000Y-114935000D02*
X192151000Y-129159000D01*
X196977000Y-143637000D02*
X187579000Y-153035000D01*
X187579000Y-153035000D02*
X187579000Y-155088402D01*
X203686598Y-171196000D02*
X203708000Y-171196000D01*
X187579000Y-155088402D02*
X203686598Y-171196000D01*
X196977000Y-133985000D02*
X196977000Y-143637000D01*
X182721250Y-95885000D02*
X182721250Y-105505250D01*
X182721250Y-105505250D02*
X192151000Y-114935000D01*
X192151000Y-129159000D02*
X196977000Y-133985000D01*
%TO.N,col7*%
X211201000Y-114935000D02*
X211201000Y-129159000D01*
X206629000Y-161290000D02*
X206629000Y-153035000D01*
X211201000Y-129159000D02*
X216027000Y-133985000D01*
X216027000Y-143637000D02*
X206629000Y-153035000D01*
X216027000Y-133985000D02*
X216027000Y-143637000D01*
X201745850Y-95885000D02*
X201745850Y-105479850D01*
X219075000Y-162560000D02*
X207899000Y-162560000D01*
X201745850Y-105479850D02*
X211201000Y-114935000D01*
X207899000Y-162560000D02*
X206629000Y-161290000D01*
%TO.N,col11*%
X297180000Y-183134000D02*
X297180000Y-172085000D01*
D23*
X287401000Y-114935000D02*
X287401000Y-129159000D01*
X287401000Y-129159000D02*
X292227000Y-133985000D01*
X278003000Y-105537000D02*
X287401000Y-114935000D01*
X282829000Y-153035000D02*
X282829000Y-157734000D01*
X292227000Y-143637000D02*
X282829000Y-153035000D01*
X292227000Y-133985000D02*
X292227000Y-143637000D01*
D24*
X297243500Y-183197500D02*
X297180000Y-183134000D01*
D23*
X278003000Y-95885000D02*
X278003000Y-105537000D01*
X282829000Y-157734000D02*
X297180000Y-172085000D01*
%TO.N,col12*%
X308991000Y-153035000D02*
X308991000Y-164846000D01*
X297053000Y-95885000D02*
X297053000Y-105537000D01*
X311277000Y-133985000D02*
X311277000Y-150749000D01*
X311277000Y-150749000D02*
X308991000Y-153035000D01*
X308991000Y-164846000D02*
X316230000Y-172085000D01*
D24*
X316166500Y-183832500D02*
X316230000Y-183769000D01*
X316230000Y-183769000D02*
X316230000Y-172085000D01*
D23*
X306451000Y-129159000D02*
X311277000Y-133985000D01*
X306451000Y-114935000D02*
X306451000Y-129159000D01*
X297053000Y-105537000D02*
X306451000Y-114935000D01*
%TO.N,col13*%
X325717000Y-117310000D02*
X332867000Y-124460000D01*
X335153000Y-171958000D02*
X335280000Y-172085000D01*
D24*
X335280000Y-184023000D02*
X335280000Y-172085000D01*
D23*
X332867000Y-124460000D02*
X332867000Y-150749000D01*
X325717000Y-95900000D02*
X325717000Y-117310000D01*
X332867000Y-150749000D02*
X335153000Y-153035000D01*
X335153000Y-153035000D02*
X335153000Y-171958000D01*
%TO.N,col14*%
X354330000Y-114935000D02*
X354330000Y-119103654D01*
X354330000Y-133985000D02*
X354330000Y-152908000D01*
X352806000Y-124269654D02*
X354330000Y-125793654D01*
X354203000Y-172085000D02*
X354203000Y-184404000D01*
X352806000Y-120627654D02*
X352806000Y-124269654D01*
X354203000Y-153035000D02*
X354203000Y-172085000D01*
X354330000Y-125793654D02*
X354330000Y-133985000D01*
X354330000Y-152908000D02*
X354203000Y-153035000D01*
X354330000Y-119103654D02*
X352806000Y-120627654D01*
X354203000Y-184404000D02*
X354076000Y-184531000D01*
D24*
%TO.N,MISO*%
X198530500Y-183479500D02*
X198600100Y-183549100D01*
X198530500Y-183479500D02*
X169370872Y-183479500D01*
X157099000Y-179705000D02*
X131699000Y-179705000D01*
X139827000Y-133985000D02*
X139827000Y-143637000D01*
X169370872Y-183479500D02*
X165621372Y-179730000D01*
X135001000Y-129159000D02*
X139827000Y-133985000D01*
X161773000Y-179197000D02*
X160782000Y-179197000D01*
X162306000Y-179730000D02*
X161773000Y-179197000D01*
X157607000Y-179197000D02*
X157099000Y-179705000D01*
X131699000Y-179705000D02*
X130429000Y-178435000D01*
X160782000Y-179197000D02*
X157607000Y-179197000D01*
X165621372Y-179730000D02*
X162306000Y-179730000D01*
X125571250Y-105505250D02*
X125571250Y-95885000D01*
X135001000Y-114935000D02*
X135001000Y-129159000D01*
X198812900Y-183761900D02*
X198530500Y-183479500D01*
X130429000Y-178435000D02*
X130429000Y-153035000D01*
X139827000Y-143637000D02*
X130429000Y-153035000D01*
X135001000Y-114935000D02*
X125571250Y-105505250D01*
%TO.N,SCK*%
X149860000Y-179305000D02*
X156591000Y-179305000D01*
X154051000Y-129159000D02*
X158877000Y-133985000D01*
X166127500Y-178939558D02*
X165762058Y-179305000D01*
X165762058Y-179305000D02*
X169536558Y-183079500D01*
X154051000Y-114935000D02*
X154051000Y-129159000D01*
X149479000Y-178924000D02*
X149860000Y-179305000D01*
X149479000Y-153035000D02*
X149479000Y-178924000D01*
X162814000Y-179305000D02*
X165762058Y-179305000D01*
X166127500Y-177546000D02*
X166127500Y-178939558D01*
X144621250Y-95885000D02*
X144621250Y-105505250D01*
X144621250Y-105505250D02*
X154051000Y-114935000D01*
X158877000Y-133985000D02*
X158877000Y-143637000D01*
X158877000Y-143637000D02*
X149479000Y-153035000D01*
X157588000Y-178308000D02*
X161817000Y-178308000D01*
X169536558Y-183079500D02*
X199451300Y-183079500D01*
X156591000Y-179305000D02*
X157588000Y-178308000D01*
X161817000Y-178308000D02*
X162814000Y-179305000D01*
X199451300Y-183079500D02*
X199473300Y-183101500D01*
%TO.N,MOSI*%
X159258000Y-179832000D02*
X157905000Y-179832000D01*
X157905000Y-179832000D02*
X157607000Y-180130000D01*
X106521250Y-105505250D02*
X115951000Y-114935000D01*
X111379000Y-153035000D02*
X111379000Y-164846000D01*
X165455686Y-180130000D02*
X161671000Y-180130000D01*
X120777000Y-133985000D02*
X120777000Y-143637000D01*
X197660500Y-183879500D02*
X169205186Y-183879500D01*
X138137314Y-182988000D02*
X119742000Y-182988000D01*
X111379000Y-164846000D02*
X118618000Y-172085000D01*
X115951000Y-114935000D02*
X115951000Y-129159000D01*
X118618000Y-181864000D02*
X118618000Y-172085000D01*
X115951000Y-129159000D02*
X120777000Y-133985000D01*
X161373000Y-179832000D02*
X159258000Y-179832000D01*
X140995314Y-180130000D02*
X138137314Y-182988000D01*
X198000100Y-184219100D02*
X197660500Y-183879500D01*
X119742000Y-182988000D02*
X118618000Y-181864000D01*
X161671000Y-180130000D02*
X161373000Y-179832000D01*
X106521250Y-95885000D02*
X106521250Y-105505250D01*
X157607000Y-180130000D02*
X140995314Y-180130000D01*
X169205186Y-183879500D02*
X165455686Y-180130000D01*
X120777000Y-143637000D02*
X111379000Y-153035000D01*
%TD*%
%TA.AperFunction,Conductor*%
%TO.N,GND*%
G36*
X240923125Y-168400885D02*
G01*
X240989983Y-168421177D01*
X241035257Y-168474394D01*
X241046000Y-168524880D01*
X241046000Y-178255480D01*
X241026315Y-178322519D01*
X241008279Y-178344542D01*
X237018993Y-182209162D01*
X236957146Y-182241669D01*
X236930500Y-182244080D01*
X229923275Y-182118951D01*
X229856598Y-182098073D01*
X229834023Y-182078697D01*
X226395721Y-178322519D01*
X224640206Y-176404704D01*
X224609461Y-176341964D01*
X224608214Y-176332554D01*
X224296383Y-173006348D01*
X223871512Y-168474394D01*
X223862926Y-168382813D01*
X223876267Y-168314231D01*
X223924570Y-168263747D01*
X223987507Y-168247246D01*
X240923125Y-168400885D01*
G37*
%TD.AperFunction*%
%TD*%
M02*
