M48
; DRILL file {KiCad 9.0.3} date 2025-07-20T18:39:22+0200
; FORMAT={-:-/ absolute / inch / decimal}
; #@! TF.CreationDate,2025-07-20T18:39:22+02:00
; #@! TF.GenerationSoftware,Kicad,Pcbnew,9.0.3
; #@! TF.FileFunction,NonPlated,1,2,NPTH
FMAT,2
INCH
; #@! TA.AperFunction,NonPlated,NPTH,ComponentDrill
T1C0.0256
; #@! TA.AperFunction,NonPlated,NPTH,ComponentDrill
T2C0.0669
; #@! TA.AperFunction,NonPlated,NPTH,ComponentDrill
T3C0.0827
; #@! TA.AperFunction,NonPlated,NPTH,ComponentDrill
T4C0.1201
; #@! TA.AperFunction,NonPlated,NPTH,ComponentDrill
T5C0.1575
%
G90
G05
T1
X0.6469Y-0.0256
X0.8744Y-0.0256
T2
X0.1855Y-0.3575
X0.2828Y-2.6065
X0.3728Y-1.1065
X0.4448Y-3.3546
X0.4678Y-1.8565
X0.5855Y-0.3575
X0.6828Y-2.6065
X0.7728Y-1.1065
X0.8448Y-3.3546
X0.8678Y-1.8565
X1.1009Y-0.3575
X1.1278Y-2.6065
X1.3078Y-1.1065
X1.3848Y-3.3546
X1.4978Y-1.8565
X1.5009Y-0.3575
X1.5278Y-2.6065
X1.7078Y-1.1065
X1.7848Y-3.3546
X1.8496Y-0.3575
X1.8778Y-2.6065
X1.8978Y-1.8565
X2.0578Y-1.1065
X2.2478Y-1.8565
X2.2496Y-0.3575
X2.2778Y-2.6065
X2.3248Y-3.3546
X2.4578Y-1.1065
X2.5996Y-0.3575
X2.6278Y-2.6065
X2.6478Y-1.8565
X2.7248Y-3.3546
X2.8078Y-1.1065
X2.9978Y-1.8565
X2.9996Y-0.3575
X3.0278Y-2.6065
X3.2078Y-1.1065
X3.3496Y-0.3575
X3.3778Y-2.6065
X3.3978Y-1.8565
X3.5578Y-1.1065
X3.7478Y-1.8565
X3.7496Y-0.3575
X3.7778Y-2.6065
X3.9578Y-1.1065
X4.0996Y-0.3575
X4.1278Y-2.6065
X4.1478Y-1.8565
X4.3078Y-1.1065
X4.4978Y-1.8565
X4.4996Y-0.3575
X4.5278Y-2.6065
X4.7078Y-1.1065
X4.8496Y-0.3575
X4.8778Y-2.6065
X4.8978Y-1.8565
X5.0578Y-1.1065
X5.1383Y-3.3552
X5.2478Y-1.8565
X5.2496Y-0.3575
X5.2778Y-2.6065
X5.4578Y-1.1065
X5.5383Y-3.3552
X5.6278Y-2.6065
X5.6478Y-1.8565
X5.8078Y-1.1065
X5.9313Y-0.3575
X5.9978Y-1.8565
X6.0278Y-2.6065
X6.2078Y-1.1065
X6.3313Y-0.3575
X6.3778Y-2.6065
X6.3978Y-1.8565
X6.5578Y-1.1065
X6.6823Y-0.3575
X6.7478Y-1.8565
X6.7778Y-2.6065
X6.9578Y-1.1065
X7.0823Y-0.3575
X7.1278Y-2.6065
X7.1478Y-1.8565
X7.3078Y-1.1065
X7.4323Y-0.3575
X7.4978Y-1.8565
X7.5278Y-2.6065
X7.7078Y-1.1065
X7.8323Y-0.3575
X7.8548Y-3.3546
X7.8778Y-2.6065
X7.8978Y-1.8565
X8.0578Y-1.1065
X8.1823Y-0.3575
X8.2478Y-1.8565
X8.2548Y-3.3546
X8.2778Y-2.6065
X8.4578Y-1.1065
X8.5823Y-0.3575
X8.6048Y-3.3546
X8.6278Y-2.6065
X8.6478Y-1.8565
X8.8078Y-1.1065
X8.9335Y-0.3575
X8.9978Y-1.8565
X9.0048Y-3.3546
X9.0278Y-2.6065
X9.2078Y-1.1065
X9.3335Y-0.3575
X9.3978Y-1.8565
X9.5578Y-1.1065
X9.6578Y-2.6065
X9.6835Y-0.3575
X9.7478Y-1.8565
X9.9165Y-3.3575
X9.9578Y-1.1065
X10.0578Y-2.6065
X10.0835Y-0.3575
X10.1478Y-1.8565
X10.3165Y-3.3575
X10.6665Y-3.3575
X10.6878Y-2.6065
X10.8126Y-0.3584
X11.0665Y-3.3575
X11.0878Y-2.6065
X11.0984Y-1.4827
X11.2126Y-0.3584
X11.4165Y-3.3575
X11.4984Y-1.4827
X11.8165Y-3.3575
T3
X1.1713Y-3.3563
X1.1909Y-1.3091
X1.7028Y-0.5807
X2.628Y-2.3917
X5.2264Y-2.0374
X6.6043Y-1.3484
X7.6083Y-3.1594
X9.5374Y-0.561
X10.6791Y-1.3091
X11.0138Y-2.7657
T4
X3.3698Y-3.0796
X7.3068Y-3.0796
X10.5441Y-0.0828
X11.0228Y-1.0142
X11.0228Y-1.9512
X11.4811Y-0.0828
T5
X0.3855Y-0.3575
X0.4828Y-2.6065
X0.5728Y-1.1065
X0.6448Y-3.3546
X0.6678Y-1.8565
X1.3009Y-0.3575
X1.3278Y-2.6065
X1.5078Y-1.1065
X1.5848Y-3.3546
X1.6978Y-1.8565
X2.0496Y-0.3575
X2.0778Y-2.6065
X2.2578Y-1.1065
X2.4478Y-1.8565
X2.5248Y-3.3546
X2.7996Y-0.3575
X2.8278Y-2.6065
X3.0078Y-1.1065
X3.1978Y-1.8565
X3.3698Y-3.6796
X3.5496Y-0.3575
X3.5778Y-2.6065
X3.7578Y-1.1065
X3.9478Y-1.8565
X4.2996Y-0.3575
X4.3278Y-2.6065
X4.5078Y-1.1065
X4.6978Y-1.8565
X5.0496Y-0.3575
X5.0778Y-2.6065
X5.2578Y-1.1065
X5.3383Y-3.3552
X5.4478Y-1.8565
X5.8278Y-2.6065
X6.0078Y-1.1065
X6.1313Y-0.3575
X6.1978Y-1.8565
X6.5778Y-2.6065
X6.7578Y-1.1065
X6.8823Y-0.3575
X6.9478Y-1.8565
X7.3068Y-3.6796
X7.3278Y-2.6065
X7.5078Y-1.1065
X7.6323Y-0.3575
X7.6978Y-1.8565
X8.0548Y-3.3546
X8.0778Y-2.6065
X8.2578Y-1.1065
X8.3823Y-0.3575
X8.4478Y-1.8565
X8.8048Y-3.3546
X8.8278Y-2.6065
X9.0078Y-1.1065
X9.1335Y-0.3575
X9.1978Y-1.8565
X9.7578Y-1.1065
X9.8578Y-2.6065
X9.8835Y-0.3575
X9.9478Y-1.8565
X10.1165Y-3.3575
X10.5441Y-0.6828
X10.8665Y-3.3575
X10.8878Y-2.6065
X11.0126Y-0.3584
X11.2984Y-1.4827
X11.4811Y-0.6828
X11.6165Y-3.3575
X11.6228Y-1.0142
X11.6228Y-1.9512
M30
