%TF.GenerationSoftware,KiCad,Pcbnew,8.0.5*%
%TF.CreationDate,2024-10-15T14:40:17+02:00*%
%TF.ProjectId,keeb2,6b656562-322e-46b6-9963-61645f706362,rev?*%
%TF.SameCoordinates,Original*%
%TF.FileFunction,Profile,NP*%
%FSLAX46Y46*%
G04 Gerber Fmt 4.6, Leading zero omitted, Abs format (unit mm)*
G04 Created by KiCad (PCBNEW 8.0.5) date 2024-10-15 14:40:17*
%MOMM*%
%LPD*%
G01*
G04 APERTURE LIST*
%TA.AperFunction,Profile*%
%ADD10C,0.050000*%
%TD*%
G04 APERTURE END LIST*
D10*
X364363000Y-88011000D02*
G75*
G02*
X367665000Y-91313000I0J-3302000D01*
G01*
X364109000Y-185928000D02*
X64897000Y-185928000D01*
X74676000Y-88011000D02*
X65072867Y-88059867D01*
X367538000Y-182626000D02*
G75*
G02*
X364236000Y-185928000I-3302000J0D01*
G01*
X65024000Y-185928000D02*
G75*
G02*
X61722000Y-182626000I0J3302000D01*
G01*
X86360000Y-86995000D02*
X86360000Y-82423000D01*
X61770867Y-91361867D02*
X61722000Y-182626000D01*
X367665000Y-91313000D02*
X367665000Y-107061000D01*
X86360000Y-82423000D02*
X75692000Y-82423000D01*
X367665000Y-127889000D02*
G75*
G02*
X368681000Y-126873000I1016000J0D01*
G01*
X87376000Y-88011000D02*
X364363000Y-88011000D01*
X369443000Y-126873000D02*
X369443000Y-120523000D01*
X61770867Y-91361867D02*
G75*
G02*
X65072867Y-88059867I3302003J-3D01*
G01*
X75692000Y-82423000D02*
X75692000Y-86995000D01*
X369443000Y-120523000D02*
X368681000Y-120523000D01*
X75692000Y-86995000D02*
G75*
G02*
X74676000Y-88011000I-1016000J0D01*
G01*
X368681000Y-120523000D02*
G75*
G02*
X367665000Y-119507000I0J1016000D01*
G01*
X367665000Y-119507000D02*
X367665000Y-107061000D01*
X367538000Y-182626000D02*
X367665000Y-127889000D01*
X368681000Y-126873000D02*
X369443000Y-126873000D01*
X87376000Y-88011000D02*
G75*
G02*
X86360000Y-86995000I0J1016000D01*
G01*
M02*
