%TF.GenerationSoftware,KiCad,Pcbnew,9.0.3*%
%TF.CreationDate,2025-07-20T18:39:22+02:00*%
%TF.ProjectId,keeb2,6b656562-322e-46b6-9963-61645f706362,rev?*%
%TF.SameCoordinates,Original*%
%TF.FileFunction,Drillmap*%
%TF.FilePolarity,Positive*%
%FSLAX45Y45*%
G04 Gerber Fmt 4.5, Leading zero omitted, Abs format (unit mm)*
G04 Created by KiCad (PCBNEW 9.0.3) date 2025-07-20 18:39:22*
%MOMM*%
%LPD*%
G01*
G04 APERTURE LIST*
%ADD10C,0.050000*%
%ADD11C,0.200000*%
%ADD12C,0.100000*%
%ADD13C,0.170000*%
%ADD14C,0.210000*%
%ADD15C,0.305000*%
%ADD16C,0.400000*%
G04 APERTURE END LIST*
D10*
X30119800Y-1000D02*
G75*
G02*
X30450000Y-331200I0J-330200D01*
G01*
X30119800Y-9550000D02*
X330200Y-9550000D01*
X2565400Y0D02*
G75*
G02*
X2458910Y106487I0J106490D01*
G01*
X1285627Y0D02*
X330200Y0D01*
X330200Y-9550000D02*
G75*
G02*
X0Y-9219800I0J330200D01*
G01*
X2458913Y106487D02*
X2458400Y600000D01*
X0Y-330200D02*
X0Y-9219800D01*
X30450000Y-331200D02*
X30450000Y-1906000D01*
X2458400Y600000D02*
X1391600Y600000D01*
X2565400Y0D02*
X30119800Y-1000D01*
X0Y-330200D02*
G75*
G02*
X330200Y0I330200J0D01*
G01*
X1391600Y600000D02*
X1392113Y106487D01*
X1392113Y106487D02*
G75*
G02*
X1285627Y1I-106486J0D01*
G01*
X30450000Y-9219800D02*
X30450000Y-1906000D01*
X30450000Y-9219800D02*
G75*
G02*
X30119800Y-9550000I-330200J0D01*
G01*
D11*
D12*
X1610500Y-32500D02*
X1675500Y-97500D01*
X1675500Y-32500D02*
X1610500Y-97500D01*
X2188500Y-32500D02*
X2253500Y-97500D01*
X2253500Y-32500D02*
X2188500Y-97500D01*
D13*
X556175Y-908000D02*
G75*
G02*
X386175Y-908000I-85000J0D01*
G01*
X386175Y-908000D02*
G75*
G02*
X556175Y-908000I85000J0D01*
G01*
X803190Y-6620460D02*
G75*
G02*
X633190Y-6620460I-85000J0D01*
G01*
X633190Y-6620460D02*
G75*
G02*
X803190Y-6620460I85000J0D01*
G01*
X1031790Y-2810460D02*
G75*
G02*
X861790Y-2810460I-85000J0D01*
G01*
X861790Y-2810460D02*
G75*
G02*
X1031790Y-2810460I85000J0D01*
G01*
X1214675Y-8520750D02*
G75*
G02*
X1044675Y-8520750I-85000J0D01*
G01*
X1044675Y-8520750D02*
G75*
G02*
X1214675Y-8520750I85000J0D01*
G01*
X1273090Y-4715460D02*
G75*
G02*
X1103090Y-4715460I-85000J0D01*
G01*
X1103090Y-4715460D02*
G75*
G02*
X1273090Y-4715460I85000J0D01*
G01*
X1572175Y-908000D02*
G75*
G02*
X1402175Y-908000I-85000J0D01*
G01*
X1402175Y-908000D02*
G75*
G02*
X1572175Y-908000I85000J0D01*
G01*
X1819190Y-6620460D02*
G75*
G02*
X1649190Y-6620460I-85000J0D01*
G01*
X1649190Y-6620460D02*
G75*
G02*
X1819190Y-6620460I85000J0D01*
G01*
X2047790Y-2810460D02*
G75*
G02*
X1877790Y-2810460I-85000J0D01*
G01*
X1877790Y-2810460D02*
G75*
G02*
X2047790Y-2810460I85000J0D01*
G01*
X2230675Y-8520750D02*
G75*
G02*
X2060675Y-8520750I-85000J0D01*
G01*
X2060675Y-8520750D02*
G75*
G02*
X2230675Y-8520750I85000J0D01*
G01*
X2289090Y-4715460D02*
G75*
G02*
X2119090Y-4715460I-85000J0D01*
G01*
X2119090Y-4715460D02*
G75*
G02*
X2289090Y-4715460I85000J0D01*
G01*
X2881175Y-908000D02*
G75*
G02*
X2711175Y-908000I-85000J0D01*
G01*
X2711175Y-908000D02*
G75*
G02*
X2881175Y-908000I85000J0D01*
G01*
X2949490Y-6620460D02*
G75*
G02*
X2779490Y-6620460I-85000J0D01*
G01*
X2779490Y-6620460D02*
G75*
G02*
X2949490Y-6620460I85000J0D01*
G01*
X3406690Y-2810460D02*
G75*
G02*
X3236690Y-2810460I-85000J0D01*
G01*
X3236690Y-2810460D02*
G75*
G02*
X3406690Y-2810460I85000J0D01*
G01*
X3602275Y-8520750D02*
G75*
G02*
X3432275Y-8520750I-85000J0D01*
G01*
X3432275Y-8520750D02*
G75*
G02*
X3602275Y-8520750I85000J0D01*
G01*
X3889290Y-4715460D02*
G75*
G02*
X3719290Y-4715460I-85000J0D01*
G01*
X3719290Y-4715460D02*
G75*
G02*
X3889290Y-4715460I85000J0D01*
G01*
X3897175Y-908000D02*
G75*
G02*
X3727175Y-908000I-85000J0D01*
G01*
X3727175Y-908000D02*
G75*
G02*
X3897175Y-908000I85000J0D01*
G01*
X3965490Y-6620460D02*
G75*
G02*
X3795490Y-6620460I-85000J0D01*
G01*
X3795490Y-6620460D02*
G75*
G02*
X3965490Y-6620460I85000J0D01*
G01*
X4422690Y-2810460D02*
G75*
G02*
X4252690Y-2810460I-85000J0D01*
G01*
X4252690Y-2810460D02*
G75*
G02*
X4422690Y-2810460I85000J0D01*
G01*
X4618275Y-8520750D02*
G75*
G02*
X4448275Y-8520750I-85000J0D01*
G01*
X4448275Y-8520750D02*
G75*
G02*
X4618275Y-8520750I85000J0D01*
G01*
X4783000Y-908000D02*
G75*
G02*
X4613000Y-908000I-85000J0D01*
G01*
X4613000Y-908000D02*
G75*
G02*
X4783000Y-908000I85000J0D01*
G01*
X4854490Y-6620460D02*
G75*
G02*
X4684490Y-6620460I-85000J0D01*
G01*
X4684490Y-6620460D02*
G75*
G02*
X4854490Y-6620460I85000J0D01*
G01*
X4905290Y-4715460D02*
G75*
G02*
X4735290Y-4715460I-85000J0D01*
G01*
X4735290Y-4715460D02*
G75*
G02*
X4905290Y-4715460I85000J0D01*
G01*
X5311690Y-2810460D02*
G75*
G02*
X5141690Y-2810460I-85000J0D01*
G01*
X5141690Y-2810460D02*
G75*
G02*
X5311690Y-2810460I85000J0D01*
G01*
X5794290Y-4715460D02*
G75*
G02*
X5624290Y-4715460I-85000J0D01*
G01*
X5624290Y-4715460D02*
G75*
G02*
X5794290Y-4715460I85000J0D01*
G01*
X5799000Y-908000D02*
G75*
G02*
X5629000Y-908000I-85000J0D01*
G01*
X5629000Y-908000D02*
G75*
G02*
X5799000Y-908000I85000J0D01*
G01*
X5870490Y-6620460D02*
G75*
G02*
X5700490Y-6620460I-85000J0D01*
G01*
X5700490Y-6620460D02*
G75*
G02*
X5870490Y-6620460I85000J0D01*
G01*
X5989875Y-8520750D02*
G75*
G02*
X5819875Y-8520750I-85000J0D01*
G01*
X5819875Y-8520750D02*
G75*
G02*
X5989875Y-8520750I85000J0D01*
G01*
X6327690Y-2810460D02*
G75*
G02*
X6157690Y-2810460I-85000J0D01*
G01*
X6157690Y-2810460D02*
G75*
G02*
X6327690Y-2810460I85000J0D01*
G01*
X6688000Y-908000D02*
G75*
G02*
X6518000Y-908000I-85000J0D01*
G01*
X6518000Y-908000D02*
G75*
G02*
X6688000Y-908000I85000J0D01*
G01*
X6759490Y-6620460D02*
G75*
G02*
X6589490Y-6620460I-85000J0D01*
G01*
X6589490Y-6620460D02*
G75*
G02*
X6759490Y-6620460I85000J0D01*
G01*
X6810290Y-4715460D02*
G75*
G02*
X6640290Y-4715460I-85000J0D01*
G01*
X6640290Y-4715460D02*
G75*
G02*
X6810290Y-4715460I85000J0D01*
G01*
X7005875Y-8520750D02*
G75*
G02*
X6835875Y-8520750I-85000J0D01*
G01*
X6835875Y-8520750D02*
G75*
G02*
X7005875Y-8520750I85000J0D01*
G01*
X7216690Y-2810460D02*
G75*
G02*
X7046690Y-2810460I-85000J0D01*
G01*
X7046690Y-2810460D02*
G75*
G02*
X7216690Y-2810460I85000J0D01*
G01*
X7699290Y-4715460D02*
G75*
G02*
X7529290Y-4715460I-85000J0D01*
G01*
X7529290Y-4715460D02*
G75*
G02*
X7699290Y-4715460I85000J0D01*
G01*
X7704000Y-908000D02*
G75*
G02*
X7534000Y-908000I-85000J0D01*
G01*
X7534000Y-908000D02*
G75*
G02*
X7704000Y-908000I85000J0D01*
G01*
X7775490Y-6620460D02*
G75*
G02*
X7605490Y-6620460I-85000J0D01*
G01*
X7605490Y-6620460D02*
G75*
G02*
X7775490Y-6620460I85000J0D01*
G01*
X8232690Y-2810460D02*
G75*
G02*
X8062690Y-2810460I-85000J0D01*
G01*
X8062690Y-2810460D02*
G75*
G02*
X8232690Y-2810460I85000J0D01*
G01*
X8593000Y-908000D02*
G75*
G02*
X8423000Y-908000I-85000J0D01*
G01*
X8423000Y-908000D02*
G75*
G02*
X8593000Y-908000I85000J0D01*
G01*
X8664490Y-6620460D02*
G75*
G02*
X8494490Y-6620460I-85000J0D01*
G01*
X8494490Y-6620460D02*
G75*
G02*
X8664490Y-6620460I85000J0D01*
G01*
X8715290Y-4715460D02*
G75*
G02*
X8545290Y-4715460I-85000J0D01*
G01*
X8545290Y-4715460D02*
G75*
G02*
X8715290Y-4715460I85000J0D01*
G01*
X9121690Y-2810460D02*
G75*
G02*
X8951690Y-2810460I-85000J0D01*
G01*
X8951690Y-2810460D02*
G75*
G02*
X9121690Y-2810460I85000J0D01*
G01*
X9604290Y-4715460D02*
G75*
G02*
X9434290Y-4715460I-85000J0D01*
G01*
X9434290Y-4715460D02*
G75*
G02*
X9604290Y-4715460I85000J0D01*
G01*
X9609000Y-908000D02*
G75*
G02*
X9439000Y-908000I-85000J0D01*
G01*
X9439000Y-908000D02*
G75*
G02*
X9609000Y-908000I85000J0D01*
G01*
X9680490Y-6620460D02*
G75*
G02*
X9510490Y-6620460I-85000J0D01*
G01*
X9510490Y-6620460D02*
G75*
G02*
X9680490Y-6620460I85000J0D01*
G01*
X10137690Y-2810460D02*
G75*
G02*
X9967690Y-2810460I-85000J0D01*
G01*
X9967690Y-2810460D02*
G75*
G02*
X10137690Y-2810460I85000J0D01*
G01*
X10498000Y-908000D02*
G75*
G02*
X10328000Y-908000I-85000J0D01*
G01*
X10328000Y-908000D02*
G75*
G02*
X10498000Y-908000I85000J0D01*
G01*
X10569490Y-6620460D02*
G75*
G02*
X10399490Y-6620460I-85000J0D01*
G01*
X10399490Y-6620460D02*
G75*
G02*
X10569490Y-6620460I85000J0D01*
G01*
X10620290Y-4715460D02*
G75*
G02*
X10450290Y-4715460I-85000J0D01*
G01*
X10450290Y-4715460D02*
G75*
G02*
X10620290Y-4715460I85000J0D01*
G01*
X11026690Y-2810460D02*
G75*
G02*
X10856690Y-2810460I-85000J0D01*
G01*
X10856690Y-2810460D02*
G75*
G02*
X11026690Y-2810460I85000J0D01*
G01*
X11509290Y-4715460D02*
G75*
G02*
X11339290Y-4715460I-85000J0D01*
G01*
X11339290Y-4715460D02*
G75*
G02*
X11509290Y-4715460I85000J0D01*
G01*
X11514000Y-908000D02*
G75*
G02*
X11344000Y-908000I-85000J0D01*
G01*
X11344000Y-908000D02*
G75*
G02*
X11514000Y-908000I85000J0D01*
G01*
X11585490Y-6620460D02*
G75*
G02*
X11415490Y-6620460I-85000J0D01*
G01*
X11415490Y-6620460D02*
G75*
G02*
X11585490Y-6620460I85000J0D01*
G01*
X12042690Y-2810460D02*
G75*
G02*
X11872690Y-2810460I-85000J0D01*
G01*
X11872690Y-2810460D02*
G75*
G02*
X12042690Y-2810460I85000J0D01*
G01*
X12403000Y-908000D02*
G75*
G02*
X12233000Y-908000I-85000J0D01*
G01*
X12233000Y-908000D02*
G75*
G02*
X12403000Y-908000I85000J0D01*
G01*
X12474490Y-6620460D02*
G75*
G02*
X12304490Y-6620460I-85000J0D01*
G01*
X12304490Y-6620460D02*
G75*
G02*
X12474490Y-6620460I85000J0D01*
G01*
X12525290Y-4715460D02*
G75*
G02*
X12355290Y-4715460I-85000J0D01*
G01*
X12355290Y-4715460D02*
G75*
G02*
X12525290Y-4715460I85000J0D01*
G01*
X12931690Y-2810460D02*
G75*
G02*
X12761690Y-2810460I-85000J0D01*
G01*
X12761690Y-2810460D02*
G75*
G02*
X12931690Y-2810460I85000J0D01*
G01*
X13136175Y-8522250D02*
G75*
G02*
X12966175Y-8522250I-85000J0D01*
G01*
X12966175Y-8522250D02*
G75*
G02*
X13136175Y-8522250I85000J0D01*
G01*
X13414290Y-4715460D02*
G75*
G02*
X13244290Y-4715460I-85000J0D01*
G01*
X13244290Y-4715460D02*
G75*
G02*
X13414290Y-4715460I85000J0D01*
G01*
X13419000Y-908000D02*
G75*
G02*
X13249000Y-908000I-85000J0D01*
G01*
X13249000Y-908000D02*
G75*
G02*
X13419000Y-908000I85000J0D01*
G01*
X13490490Y-6620460D02*
G75*
G02*
X13320490Y-6620460I-85000J0D01*
G01*
X13320490Y-6620460D02*
G75*
G02*
X13490490Y-6620460I85000J0D01*
G01*
X13947690Y-2810460D02*
G75*
G02*
X13777690Y-2810460I-85000J0D01*
G01*
X13777690Y-2810460D02*
G75*
G02*
X13947690Y-2810460I85000J0D01*
G01*
X14152175Y-8522250D02*
G75*
G02*
X13982175Y-8522250I-85000J0D01*
G01*
X13982175Y-8522250D02*
G75*
G02*
X14152175Y-8522250I85000J0D01*
G01*
X14379490Y-6620460D02*
G75*
G02*
X14209490Y-6620460I-85000J0D01*
G01*
X14209490Y-6620460D02*
G75*
G02*
X14379490Y-6620460I85000J0D01*
G01*
X14430290Y-4715460D02*
G75*
G02*
X14260290Y-4715460I-85000J0D01*
G01*
X14260290Y-4715460D02*
G75*
G02*
X14430290Y-4715460I85000J0D01*
G01*
X14836690Y-2810460D02*
G75*
G02*
X14666690Y-2810460I-85000J0D01*
G01*
X14666690Y-2810460D02*
G75*
G02*
X14836690Y-2810460I85000J0D01*
G01*
X15150460Y-908000D02*
G75*
G02*
X14980460Y-908000I-85000J0D01*
G01*
X14980460Y-908000D02*
G75*
G02*
X15150460Y-908000I85000J0D01*
G01*
X15319290Y-4715460D02*
G75*
G02*
X15149290Y-4715460I-85000J0D01*
G01*
X15149290Y-4715460D02*
G75*
G02*
X15319290Y-4715460I85000J0D01*
G01*
X15395490Y-6620460D02*
G75*
G02*
X15225490Y-6620460I-85000J0D01*
G01*
X15225490Y-6620460D02*
G75*
G02*
X15395490Y-6620460I85000J0D01*
G01*
X15852690Y-2810460D02*
G75*
G02*
X15682690Y-2810460I-85000J0D01*
G01*
X15682690Y-2810460D02*
G75*
G02*
X15852690Y-2810460I85000J0D01*
G01*
X16166460Y-908000D02*
G75*
G02*
X15996460Y-908000I-85000J0D01*
G01*
X15996460Y-908000D02*
G75*
G02*
X16166460Y-908000I85000J0D01*
G01*
X16284490Y-6620460D02*
G75*
G02*
X16114490Y-6620460I-85000J0D01*
G01*
X16114490Y-6620460D02*
G75*
G02*
X16284490Y-6620460I85000J0D01*
G01*
X16335290Y-4715460D02*
G75*
G02*
X16165290Y-4715460I-85000J0D01*
G01*
X16165290Y-4715460D02*
G75*
G02*
X16335290Y-4715460I85000J0D01*
G01*
X16741690Y-2810460D02*
G75*
G02*
X16571690Y-2810460I-85000J0D01*
G01*
X16571690Y-2810460D02*
G75*
G02*
X16741690Y-2810460I85000J0D01*
G01*
X17058000Y-908000D02*
G75*
G02*
X16888000Y-908000I-85000J0D01*
G01*
X16888000Y-908000D02*
G75*
G02*
X17058000Y-908000I85000J0D01*
G01*
X17224290Y-4715460D02*
G75*
G02*
X17054290Y-4715460I-85000J0D01*
G01*
X17054290Y-4715460D02*
G75*
G02*
X17224290Y-4715460I85000J0D01*
G01*
X17300490Y-6620460D02*
G75*
G02*
X17130490Y-6620460I-85000J0D01*
G01*
X17130490Y-6620460D02*
G75*
G02*
X17300490Y-6620460I85000J0D01*
G01*
X17757690Y-2810460D02*
G75*
G02*
X17587690Y-2810460I-85000J0D01*
G01*
X17587690Y-2810460D02*
G75*
G02*
X17757690Y-2810460I85000J0D01*
G01*
X18074000Y-908000D02*
G75*
G02*
X17904000Y-908000I-85000J0D01*
G01*
X17904000Y-908000D02*
G75*
G02*
X18074000Y-908000I85000J0D01*
G01*
X18189490Y-6620460D02*
G75*
G02*
X18019490Y-6620460I-85000J0D01*
G01*
X18019490Y-6620460D02*
G75*
G02*
X18189490Y-6620460I85000J0D01*
G01*
X18240290Y-4715460D02*
G75*
G02*
X18070290Y-4715460I-85000J0D01*
G01*
X18070290Y-4715460D02*
G75*
G02*
X18240290Y-4715460I85000J0D01*
G01*
X18646690Y-2810460D02*
G75*
G02*
X18476690Y-2810460I-85000J0D01*
G01*
X18476690Y-2810460D02*
G75*
G02*
X18646690Y-2810460I85000J0D01*
G01*
X18963000Y-908000D02*
G75*
G02*
X18793000Y-908000I-85000J0D01*
G01*
X18793000Y-908000D02*
G75*
G02*
X18963000Y-908000I85000J0D01*
G01*
X19129290Y-4715460D02*
G75*
G02*
X18959290Y-4715460I-85000J0D01*
G01*
X18959290Y-4715460D02*
G75*
G02*
X19129290Y-4715460I85000J0D01*
G01*
X19205490Y-6620460D02*
G75*
G02*
X19035490Y-6620460I-85000J0D01*
G01*
X19035490Y-6620460D02*
G75*
G02*
X19205490Y-6620460I85000J0D01*
G01*
X19662690Y-2810460D02*
G75*
G02*
X19492690Y-2810460I-85000J0D01*
G01*
X19492690Y-2810460D02*
G75*
G02*
X19662690Y-2810460I85000J0D01*
G01*
X19979000Y-908000D02*
G75*
G02*
X19809000Y-908000I-85000J0D01*
G01*
X19809000Y-908000D02*
G75*
G02*
X19979000Y-908000I85000J0D01*
G01*
X20036075Y-8520750D02*
G75*
G02*
X19866075Y-8520750I-85000J0D01*
G01*
X19866075Y-8520750D02*
G75*
G02*
X20036075Y-8520750I85000J0D01*
G01*
X20094490Y-6620460D02*
G75*
G02*
X19924490Y-6620460I-85000J0D01*
G01*
X19924490Y-6620460D02*
G75*
G02*
X20094490Y-6620460I85000J0D01*
G01*
X20145290Y-4715460D02*
G75*
G02*
X19975290Y-4715460I-85000J0D01*
G01*
X19975290Y-4715460D02*
G75*
G02*
X20145290Y-4715460I85000J0D01*
G01*
X20551690Y-2810460D02*
G75*
G02*
X20381690Y-2810460I-85000J0D01*
G01*
X20381690Y-2810460D02*
G75*
G02*
X20551690Y-2810460I85000J0D01*
G01*
X20868000Y-908000D02*
G75*
G02*
X20698000Y-908000I-85000J0D01*
G01*
X20698000Y-908000D02*
G75*
G02*
X20868000Y-908000I85000J0D01*
G01*
X21034290Y-4715460D02*
G75*
G02*
X20864290Y-4715460I-85000J0D01*
G01*
X20864290Y-4715460D02*
G75*
G02*
X21034290Y-4715460I85000J0D01*
G01*
X21052075Y-8520750D02*
G75*
G02*
X20882075Y-8520750I-85000J0D01*
G01*
X20882075Y-8520750D02*
G75*
G02*
X21052075Y-8520750I85000J0D01*
G01*
X21110490Y-6620460D02*
G75*
G02*
X20940490Y-6620460I-85000J0D01*
G01*
X20940490Y-6620460D02*
G75*
G02*
X21110490Y-6620460I85000J0D01*
G01*
X21567690Y-2810460D02*
G75*
G02*
X21397690Y-2810460I-85000J0D01*
G01*
X21397690Y-2810460D02*
G75*
G02*
X21567690Y-2810460I85000J0D01*
G01*
X21884000Y-908000D02*
G75*
G02*
X21714000Y-908000I-85000J0D01*
G01*
X21714000Y-908000D02*
G75*
G02*
X21884000Y-908000I85000J0D01*
G01*
X21941075Y-8520750D02*
G75*
G02*
X21771075Y-8520750I-85000J0D01*
G01*
X21771075Y-8520750D02*
G75*
G02*
X21941075Y-8520750I85000J0D01*
G01*
X21999490Y-6620460D02*
G75*
G02*
X21829490Y-6620460I-85000J0D01*
G01*
X21829490Y-6620460D02*
G75*
G02*
X21999490Y-6620460I85000J0D01*
G01*
X22050290Y-4715460D02*
G75*
G02*
X21880290Y-4715460I-85000J0D01*
G01*
X21880290Y-4715460D02*
G75*
G02*
X22050290Y-4715460I85000J0D01*
G01*
X22456690Y-2810460D02*
G75*
G02*
X22286690Y-2810460I-85000J0D01*
G01*
X22286690Y-2810460D02*
G75*
G02*
X22456690Y-2810460I85000J0D01*
G01*
X22776175Y-908000D02*
G75*
G02*
X22606175Y-908000I-85000J0D01*
G01*
X22606175Y-908000D02*
G75*
G02*
X22776175Y-908000I85000J0D01*
G01*
X22939290Y-4715460D02*
G75*
G02*
X22769290Y-4715460I-85000J0D01*
G01*
X22769290Y-4715460D02*
G75*
G02*
X22939290Y-4715460I85000J0D01*
G01*
X22957075Y-8520750D02*
G75*
G02*
X22787075Y-8520750I-85000J0D01*
G01*
X22787075Y-8520750D02*
G75*
G02*
X22957075Y-8520750I85000J0D01*
G01*
X23015490Y-6620460D02*
G75*
G02*
X22845490Y-6620460I-85000J0D01*
G01*
X22845490Y-6620460D02*
G75*
G02*
X23015490Y-6620460I85000J0D01*
G01*
X23472690Y-2810460D02*
G75*
G02*
X23302690Y-2810460I-85000J0D01*
G01*
X23302690Y-2810460D02*
G75*
G02*
X23472690Y-2810460I85000J0D01*
G01*
X23792175Y-908000D02*
G75*
G02*
X23622175Y-908000I-85000J0D01*
G01*
X23622175Y-908000D02*
G75*
G02*
X23792175Y-908000I85000J0D01*
G01*
X23955290Y-4715460D02*
G75*
G02*
X23785290Y-4715460I-85000J0D01*
G01*
X23785290Y-4715460D02*
G75*
G02*
X23955290Y-4715460I85000J0D01*
G01*
X24361690Y-2810460D02*
G75*
G02*
X24191690Y-2810460I-85000J0D01*
G01*
X24191690Y-2810460D02*
G75*
G02*
X24361690Y-2810460I85000J0D01*
G01*
X24615690Y-6620460D02*
G75*
G02*
X24445690Y-6620460I-85000J0D01*
G01*
X24445690Y-6620460D02*
G75*
G02*
X24615690Y-6620460I85000J0D01*
G01*
X24681175Y-908000D02*
G75*
G02*
X24511175Y-908000I-85000J0D01*
G01*
X24511175Y-908000D02*
G75*
G02*
X24681175Y-908000I85000J0D01*
G01*
X24844290Y-4715460D02*
G75*
G02*
X24674290Y-4715460I-85000J0D01*
G01*
X24674290Y-4715460D02*
G75*
G02*
X24844290Y-4715460I85000J0D01*
G01*
X25273000Y-8528000D02*
G75*
G02*
X25103000Y-8528000I-85000J0D01*
G01*
X25103000Y-8528000D02*
G75*
G02*
X25273000Y-8528000I85000J0D01*
G01*
X25377690Y-2810460D02*
G75*
G02*
X25207690Y-2810460I-85000J0D01*
G01*
X25207690Y-2810460D02*
G75*
G02*
X25377690Y-2810460I85000J0D01*
G01*
X25631690Y-6620460D02*
G75*
G02*
X25461690Y-6620460I-85000J0D01*
G01*
X25461690Y-6620460D02*
G75*
G02*
X25631690Y-6620460I85000J0D01*
G01*
X25697175Y-908000D02*
G75*
G02*
X25527175Y-908000I-85000J0D01*
G01*
X25527175Y-908000D02*
G75*
G02*
X25697175Y-908000I85000J0D01*
G01*
X25860290Y-4715460D02*
G75*
G02*
X25690290Y-4715460I-85000J0D01*
G01*
X25690290Y-4715460D02*
G75*
G02*
X25860290Y-4715460I85000J0D01*
G01*
X26289000Y-8528000D02*
G75*
G02*
X26119000Y-8528000I-85000J0D01*
G01*
X26119000Y-8528000D02*
G75*
G02*
X26289000Y-8528000I85000J0D01*
G01*
X27178000Y-8528000D02*
G75*
G02*
X27008000Y-8528000I-85000J0D01*
G01*
X27008000Y-8528000D02*
G75*
G02*
X27178000Y-8528000I85000J0D01*
G01*
X27231890Y-6620460D02*
G75*
G02*
X27061890Y-6620460I-85000J0D01*
G01*
X27061890Y-6620460D02*
G75*
G02*
X27231890Y-6620460I85000J0D01*
G01*
X27549000Y-910250D02*
G75*
G02*
X27379000Y-910250I-85000J0D01*
G01*
X27379000Y-910250D02*
G75*
G02*
X27549000Y-910250I85000J0D01*
G01*
X28194000Y-8528000D02*
G75*
G02*
X28024000Y-8528000I-85000J0D01*
G01*
X28024000Y-8528000D02*
G75*
G02*
X28194000Y-8528000I85000J0D01*
G01*
X28247890Y-6620460D02*
G75*
G02*
X28077890Y-6620460I-85000J0D01*
G01*
X28077890Y-6620460D02*
G75*
G02*
X28247890Y-6620460I85000J0D01*
G01*
X28275000Y-3766000D02*
G75*
G02*
X28105000Y-3766000I-85000J0D01*
G01*
X28105000Y-3766000D02*
G75*
G02*
X28275000Y-3766000I85000J0D01*
G01*
X28565000Y-910250D02*
G75*
G02*
X28395000Y-910250I-85000J0D01*
G01*
X28395000Y-910250D02*
G75*
G02*
X28565000Y-910250I85000J0D01*
G01*
X29083000Y-8528000D02*
G75*
G02*
X28913000Y-8528000I-85000J0D01*
G01*
X28913000Y-8528000D02*
G75*
G02*
X29083000Y-8528000I85000J0D01*
G01*
X29291000Y-3766000D02*
G75*
G02*
X29121000Y-3766000I-85000J0D01*
G01*
X29121000Y-3766000D02*
G75*
G02*
X29291000Y-3766000I85000J0D01*
G01*
X30099000Y-8528000D02*
G75*
G02*
X29929000Y-8528000I-85000J0D01*
G01*
X29929000Y-8528000D02*
G75*
G02*
X30099000Y-8528000I85000J0D01*
G01*
D14*
X2975000Y-8420000D02*
X2975000Y-8630000D01*
X2870000Y-8525000D02*
X3080000Y-8525000D01*
X3025000Y-3220000D02*
X3025000Y-3430000D01*
X2920000Y-3325000D02*
X3130000Y-3325000D01*
X4325000Y-1370000D02*
X4325000Y-1580000D01*
X4220000Y-1475000D02*
X4430000Y-1475000D01*
X6675000Y-5970000D02*
X6675000Y-6180000D01*
X6570000Y-6075000D02*
X6780000Y-6075000D01*
X13275000Y-5070000D02*
X13275000Y-5280000D01*
X13170000Y-5175000D02*
X13380000Y-5175000D01*
X16775000Y-3320000D02*
X16775000Y-3530000D01*
X16670000Y-3425000D02*
X16880000Y-3425000D01*
X19325000Y-7920000D02*
X19325000Y-8130000D01*
X19220000Y-8025000D02*
X19430000Y-8025000D01*
X24225000Y-1320000D02*
X24225000Y-1530000D01*
X24120000Y-1425000D02*
X24330000Y-1425000D01*
X27125000Y-3220000D02*
X27125000Y-3430000D01*
X27020000Y-3325000D02*
X27230000Y-3325000D01*
X27975000Y-6920000D02*
X27975000Y-7130000D01*
X27870000Y-7025000D02*
X28080000Y-7025000D01*
D15*
X8667010Y-7930085D02*
X8667010Y-7714415D01*
X8451340Y-7714415D01*
X8451340Y-7930085D01*
X8667010Y-7930085D01*
X18667010Y-7930085D02*
X18667010Y-7714415D01*
X18451340Y-7714415D01*
X18451340Y-7930085D01*
X18667010Y-7930085D01*
X26889835Y-318085D02*
X26889835Y-102415D01*
X26674165Y-102415D01*
X26674165Y-318085D01*
X26889835Y-318085D01*
X28105835Y-2683835D02*
X28105835Y-2468165D01*
X27890165Y-2468165D01*
X27890165Y-2683835D01*
X28105835Y-2683835D01*
X28105835Y-5063835D02*
X28105835Y-4848165D01*
X27890165Y-4848165D01*
X27890165Y-5063835D01*
X28105835Y-5063835D01*
X29269835Y-318085D02*
X29269835Y-102415D01*
X29054165Y-102415D01*
X29054165Y-318085D01*
X29269835Y-318085D01*
D16*
X979175Y-1108000D02*
X1179175Y-908000D01*
X979175Y-708000D01*
X779175Y-908000D01*
X979175Y-1108000D01*
X1226190Y-6820460D02*
X1426190Y-6620460D01*
X1226190Y-6420460D01*
X1026190Y-6620460D01*
X1226190Y-6820460D01*
X1454790Y-3010460D02*
X1654790Y-2810460D01*
X1454790Y-2610460D01*
X1254790Y-2810460D01*
X1454790Y-3010460D01*
X1637675Y-8720750D02*
X1837675Y-8520750D01*
X1637675Y-8320750D01*
X1437675Y-8520750D01*
X1637675Y-8720750D01*
X1696090Y-4915460D02*
X1896090Y-4715460D01*
X1696090Y-4515460D01*
X1496090Y-4715460D01*
X1696090Y-4915460D01*
X3304175Y-1108000D02*
X3504175Y-908000D01*
X3304175Y-708000D01*
X3104175Y-908000D01*
X3304175Y-1108000D01*
X3372490Y-6820460D02*
X3572490Y-6620460D01*
X3372490Y-6420460D01*
X3172490Y-6620460D01*
X3372490Y-6820460D01*
X3829690Y-3010460D02*
X4029690Y-2810460D01*
X3829690Y-2610460D01*
X3629690Y-2810460D01*
X3829690Y-3010460D01*
X4025275Y-8720750D02*
X4225275Y-8520750D01*
X4025275Y-8320750D01*
X3825275Y-8520750D01*
X4025275Y-8720750D01*
X4312290Y-4915460D02*
X4512290Y-4715460D01*
X4312290Y-4515460D01*
X4112290Y-4715460D01*
X4312290Y-4915460D01*
X5206000Y-1108000D02*
X5406000Y-908000D01*
X5206000Y-708000D01*
X5006000Y-908000D01*
X5206000Y-1108000D01*
X5277490Y-6820460D02*
X5477490Y-6620460D01*
X5277490Y-6420460D01*
X5077490Y-6620460D01*
X5277490Y-6820460D01*
X5734690Y-3010460D02*
X5934690Y-2810460D01*
X5734690Y-2610460D01*
X5534690Y-2810460D01*
X5734690Y-3010460D01*
X6217290Y-4915460D02*
X6417290Y-4715460D01*
X6217290Y-4515460D01*
X6017290Y-4715460D01*
X6217290Y-4915460D01*
X6412875Y-8720750D02*
X6612875Y-8520750D01*
X6412875Y-8320750D01*
X6212875Y-8520750D01*
X6412875Y-8720750D01*
X7111000Y-1108000D02*
X7311000Y-908000D01*
X7111000Y-708000D01*
X6911000Y-908000D01*
X7111000Y-1108000D01*
X7182490Y-6820460D02*
X7382490Y-6620460D01*
X7182490Y-6420460D01*
X6982490Y-6620460D01*
X7182490Y-6820460D01*
X7639690Y-3010460D02*
X7839690Y-2810460D01*
X7639690Y-2610460D01*
X7439690Y-2810460D01*
X7639690Y-3010460D01*
X8122290Y-4915460D02*
X8322290Y-4715460D01*
X8122290Y-4515460D01*
X7922290Y-4715460D01*
X8122290Y-4915460D01*
X8559175Y-9546250D02*
X8759175Y-9346250D01*
X8559175Y-9146250D01*
X8359175Y-9346250D01*
X8559175Y-9546250D01*
X9016000Y-1108000D02*
X9216000Y-908000D01*
X9016000Y-708000D01*
X8816000Y-908000D01*
X9016000Y-1108000D01*
X9087490Y-6820460D02*
X9287490Y-6620460D01*
X9087490Y-6420460D01*
X8887490Y-6620460D01*
X9087490Y-6820460D01*
X9544690Y-3010460D02*
X9744690Y-2810460D01*
X9544690Y-2610460D01*
X9344690Y-2810460D01*
X9544690Y-3010460D01*
X10027290Y-4915460D02*
X10227290Y-4715460D01*
X10027290Y-4515460D01*
X9827290Y-4715460D01*
X10027290Y-4915460D01*
X10921000Y-1108000D02*
X11121000Y-908000D01*
X10921000Y-708000D01*
X10721000Y-908000D01*
X10921000Y-1108000D01*
X10992490Y-6820460D02*
X11192490Y-6620460D01*
X10992490Y-6420460D01*
X10792490Y-6620460D01*
X10992490Y-6820460D01*
X11449690Y-3010460D02*
X11649690Y-2810460D01*
X11449690Y-2610460D01*
X11249690Y-2810460D01*
X11449690Y-3010460D01*
X11932290Y-4915460D02*
X12132290Y-4715460D01*
X11932290Y-4515460D01*
X11732290Y-4715460D01*
X11932290Y-4915460D01*
X12826000Y-1108000D02*
X13026000Y-908000D01*
X12826000Y-708000D01*
X12626000Y-908000D01*
X12826000Y-1108000D01*
X12897490Y-6820460D02*
X13097490Y-6620460D01*
X12897490Y-6420460D01*
X12697490Y-6620460D01*
X12897490Y-6820460D01*
X13354690Y-3010460D02*
X13554690Y-2810460D01*
X13354690Y-2610460D01*
X13154690Y-2810460D01*
X13354690Y-3010460D01*
X13559175Y-8722250D02*
X13759175Y-8522250D01*
X13559175Y-8322250D01*
X13359175Y-8522250D01*
X13559175Y-8722250D01*
X13837290Y-4915460D02*
X14037290Y-4715460D01*
X13837290Y-4515460D01*
X13637290Y-4715460D01*
X13837290Y-4915460D01*
X14802490Y-6820460D02*
X15002490Y-6620460D01*
X14802490Y-6420460D01*
X14602490Y-6620460D01*
X14802490Y-6820460D01*
X15259690Y-3010460D02*
X15459690Y-2810460D01*
X15259690Y-2610460D01*
X15059690Y-2810460D01*
X15259690Y-3010460D01*
X15573460Y-1108000D02*
X15773460Y-908000D01*
X15573460Y-708000D01*
X15373460Y-908000D01*
X15573460Y-1108000D01*
X15742290Y-4915460D02*
X15942290Y-4715460D01*
X15742290Y-4515460D01*
X15542290Y-4715460D01*
X15742290Y-4915460D01*
X16707490Y-6820460D02*
X16907490Y-6620460D01*
X16707490Y-6420460D01*
X16507490Y-6620460D01*
X16707490Y-6820460D01*
X17164690Y-3010460D02*
X17364690Y-2810460D01*
X17164690Y-2610460D01*
X16964690Y-2810460D01*
X17164690Y-3010460D01*
X17481000Y-1108000D02*
X17681000Y-908000D01*
X17481000Y-708000D01*
X17281000Y-908000D01*
X17481000Y-1108000D01*
X17647290Y-4915460D02*
X17847290Y-4715460D01*
X17647290Y-4515460D01*
X17447290Y-4715460D01*
X17647290Y-4915460D01*
X18559175Y-9546250D02*
X18759175Y-9346250D01*
X18559175Y-9146250D01*
X18359175Y-9346250D01*
X18559175Y-9546250D01*
X18612490Y-6820460D02*
X18812490Y-6620460D01*
X18612490Y-6420460D01*
X18412490Y-6620460D01*
X18612490Y-6820460D01*
X19069690Y-3010460D02*
X19269690Y-2810460D01*
X19069690Y-2610460D01*
X18869690Y-2810460D01*
X19069690Y-3010460D01*
X19386000Y-1108000D02*
X19586000Y-908000D01*
X19386000Y-708000D01*
X19186000Y-908000D01*
X19386000Y-1108000D01*
X19552290Y-4915460D02*
X19752290Y-4715460D01*
X19552290Y-4515460D01*
X19352290Y-4715460D01*
X19552290Y-4915460D01*
X20459075Y-8720750D02*
X20659075Y-8520750D01*
X20459075Y-8320750D01*
X20259075Y-8520750D01*
X20459075Y-8720750D01*
X20517490Y-6820460D02*
X20717490Y-6620460D01*
X20517490Y-6420460D01*
X20317490Y-6620460D01*
X20517490Y-6820460D01*
X20974690Y-3010460D02*
X21174690Y-2810460D01*
X20974690Y-2610460D01*
X20774690Y-2810460D01*
X20974690Y-3010460D01*
X21291000Y-1108000D02*
X21491000Y-908000D01*
X21291000Y-708000D01*
X21091000Y-908000D01*
X21291000Y-1108000D01*
X21457290Y-4915460D02*
X21657290Y-4715460D01*
X21457290Y-4515460D01*
X21257290Y-4715460D01*
X21457290Y-4915460D01*
X22364075Y-8720750D02*
X22564075Y-8520750D01*
X22364075Y-8320750D01*
X22164075Y-8520750D01*
X22364075Y-8720750D01*
X22422490Y-6820460D02*
X22622490Y-6620460D01*
X22422490Y-6420460D01*
X22222490Y-6620460D01*
X22422490Y-6820460D01*
X22879690Y-3010460D02*
X23079690Y-2810460D01*
X22879690Y-2610460D01*
X22679690Y-2810460D01*
X22879690Y-3010460D01*
X23199175Y-1108000D02*
X23399175Y-908000D01*
X23199175Y-708000D01*
X22999175Y-908000D01*
X23199175Y-1108000D01*
X23362290Y-4915460D02*
X23562290Y-4715460D01*
X23362290Y-4515460D01*
X23162290Y-4715460D01*
X23362290Y-4915460D01*
X24784690Y-3010460D02*
X24984690Y-2810460D01*
X24784690Y-2610460D01*
X24584690Y-2810460D01*
X24784690Y-3010460D01*
X25038690Y-6820460D02*
X25238690Y-6620460D01*
X25038690Y-6420460D01*
X24838690Y-6620460D01*
X25038690Y-6820460D01*
X25104175Y-1108000D02*
X25304175Y-908000D01*
X25104175Y-708000D01*
X24904175Y-908000D01*
X25104175Y-1108000D01*
X25267290Y-4915460D02*
X25467290Y-4715460D01*
X25267290Y-4515460D01*
X25067290Y-4715460D01*
X25267290Y-4915460D01*
X25696000Y-8728000D02*
X25896000Y-8528000D01*
X25696000Y-8328000D01*
X25496000Y-8528000D01*
X25696000Y-8728000D01*
X26782000Y-1934250D02*
X26982000Y-1734250D01*
X26782000Y-1534250D01*
X26582000Y-1734250D01*
X26782000Y-1934250D01*
X27601000Y-8728000D02*
X27801000Y-8528000D01*
X27601000Y-8328000D01*
X27401000Y-8528000D01*
X27601000Y-8728000D01*
X27654890Y-6820460D02*
X27854890Y-6620460D01*
X27654890Y-6420460D01*
X27454890Y-6620460D01*
X27654890Y-6820460D01*
X27972000Y-1110250D02*
X28172000Y-910250D01*
X27972000Y-710250D01*
X27772000Y-910250D01*
X27972000Y-1110250D01*
X28698000Y-3966000D02*
X28898000Y-3766000D01*
X28698000Y-3566000D01*
X28498000Y-3766000D01*
X28698000Y-3966000D01*
X29162000Y-1934250D02*
X29362000Y-1734250D01*
X29162000Y-1534250D01*
X28962000Y-1734250D01*
X29162000Y-1934250D01*
X29506000Y-8728000D02*
X29706000Y-8528000D01*
X29506000Y-8328000D01*
X29306000Y-8528000D01*
X29506000Y-8728000D01*
X29522000Y-2776000D02*
X29722000Y-2576000D01*
X29522000Y-2376000D01*
X29322000Y-2576000D01*
X29522000Y-2776000D01*
X29522000Y-5156000D02*
X29722000Y-4956000D01*
X29522000Y-4756000D01*
X29322000Y-4956000D01*
X29522000Y-5156000D01*
D11*
X258277Y-9863984D02*
X258277Y-9663984D01*
X258277Y-9663984D02*
X305896Y-9663984D01*
X305896Y-9663984D02*
X334467Y-9673508D01*
X334467Y-9673508D02*
X353515Y-9692555D01*
X353515Y-9692555D02*
X363039Y-9711603D01*
X363039Y-9711603D02*
X372562Y-9749698D01*
X372562Y-9749698D02*
X372562Y-9778270D01*
X372562Y-9778270D02*
X363039Y-9816365D01*
X363039Y-9816365D02*
X353515Y-9835412D01*
X353515Y-9835412D02*
X334467Y-9854460D01*
X334467Y-9854460D02*
X305896Y-9863984D01*
X305896Y-9863984D02*
X258277Y-9863984D01*
X458277Y-9863984D02*
X458277Y-9730650D01*
X458277Y-9768746D02*
X467801Y-9749698D01*
X467801Y-9749698D02*
X477324Y-9740174D01*
X477324Y-9740174D02*
X496372Y-9730650D01*
X496372Y-9730650D02*
X515420Y-9730650D01*
X582086Y-9863984D02*
X582086Y-9730650D01*
X582086Y-9663984D02*
X572563Y-9673508D01*
X572563Y-9673508D02*
X582086Y-9683031D01*
X582086Y-9683031D02*
X591610Y-9673508D01*
X591610Y-9673508D02*
X582086Y-9663984D01*
X582086Y-9663984D02*
X582086Y-9683031D01*
X705896Y-9863984D02*
X686848Y-9854460D01*
X686848Y-9854460D02*
X677324Y-9835412D01*
X677324Y-9835412D02*
X677324Y-9663984D01*
X810658Y-9863984D02*
X791610Y-9854460D01*
X791610Y-9854460D02*
X782086Y-9835412D01*
X782086Y-9835412D02*
X782086Y-9663984D01*
X1039229Y-9863984D02*
X1039229Y-9663984D01*
X1039229Y-9663984D02*
X1105896Y-9806841D01*
X1105896Y-9806841D02*
X1172563Y-9663984D01*
X1172563Y-9663984D02*
X1172563Y-9863984D01*
X1353515Y-9863984D02*
X1353515Y-9759222D01*
X1353515Y-9759222D02*
X1343991Y-9740174D01*
X1343991Y-9740174D02*
X1324944Y-9730650D01*
X1324944Y-9730650D02*
X1286848Y-9730650D01*
X1286848Y-9730650D02*
X1267801Y-9740174D01*
X1353515Y-9854460D02*
X1334467Y-9863984D01*
X1334467Y-9863984D02*
X1286848Y-9863984D01*
X1286848Y-9863984D02*
X1267801Y-9854460D01*
X1267801Y-9854460D02*
X1258277Y-9835412D01*
X1258277Y-9835412D02*
X1258277Y-9816365D01*
X1258277Y-9816365D02*
X1267801Y-9797317D01*
X1267801Y-9797317D02*
X1286848Y-9787793D01*
X1286848Y-9787793D02*
X1334467Y-9787793D01*
X1334467Y-9787793D02*
X1353515Y-9778270D01*
X1448753Y-9730650D02*
X1448753Y-9930650D01*
X1448753Y-9740174D02*
X1467801Y-9730650D01*
X1467801Y-9730650D02*
X1505896Y-9730650D01*
X1505896Y-9730650D02*
X1524943Y-9740174D01*
X1524943Y-9740174D02*
X1534467Y-9749698D01*
X1534467Y-9749698D02*
X1543991Y-9768746D01*
X1543991Y-9768746D02*
X1543991Y-9825889D01*
X1543991Y-9825889D02*
X1534467Y-9844936D01*
X1534467Y-9844936D02*
X1524943Y-9854460D01*
X1524943Y-9854460D02*
X1505896Y-9863984D01*
X1505896Y-9863984D02*
X1467801Y-9863984D01*
X1467801Y-9863984D02*
X1448753Y-9854460D01*
X1629705Y-9844936D02*
X1639229Y-9854460D01*
X1639229Y-9854460D02*
X1629705Y-9863984D01*
X1629705Y-9863984D02*
X1620182Y-9854460D01*
X1620182Y-9854460D02*
X1629705Y-9844936D01*
X1629705Y-9844936D02*
X1629705Y-9863984D01*
X1629705Y-9740174D02*
X1639229Y-9749698D01*
X1639229Y-9749698D02*
X1629705Y-9759222D01*
X1629705Y-9759222D02*
X1620182Y-9749698D01*
X1620182Y-9749698D02*
X1629705Y-9740174D01*
X1629705Y-9740174D02*
X1629705Y-9759222D01*
D12*
X-67500Y-10160000D02*
X-2500Y-10225000D01*
X-2500Y-10160000D02*
X-67500Y-10225000D01*
D11*
X296372Y-10083984D02*
X315420Y-10083984D01*
X315420Y-10083984D02*
X334467Y-10093508D01*
X334467Y-10093508D02*
X343991Y-10103031D01*
X343991Y-10103031D02*
X353515Y-10122079D01*
X353515Y-10122079D02*
X363039Y-10160174D01*
X363039Y-10160174D02*
X363039Y-10207793D01*
X363039Y-10207793D02*
X353515Y-10245889D01*
X353515Y-10245889D02*
X343991Y-10264936D01*
X343991Y-10264936D02*
X334467Y-10274460D01*
X334467Y-10274460D02*
X315420Y-10283984D01*
X315420Y-10283984D02*
X296372Y-10283984D01*
X296372Y-10283984D02*
X277324Y-10274460D01*
X277324Y-10274460D02*
X267801Y-10264936D01*
X267801Y-10264936D02*
X258277Y-10245889D01*
X258277Y-10245889D02*
X248753Y-10207793D01*
X248753Y-10207793D02*
X248753Y-10160174D01*
X248753Y-10160174D02*
X258277Y-10122079D01*
X258277Y-10122079D02*
X267801Y-10103031D01*
X267801Y-10103031D02*
X277324Y-10093508D01*
X277324Y-10093508D02*
X296372Y-10083984D01*
X448753Y-10264936D02*
X458277Y-10274460D01*
X458277Y-10274460D02*
X448753Y-10283984D01*
X448753Y-10283984D02*
X439229Y-10274460D01*
X439229Y-10274460D02*
X448753Y-10264936D01*
X448753Y-10264936D02*
X448753Y-10283984D01*
X629705Y-10083984D02*
X591610Y-10083984D01*
X591610Y-10083984D02*
X572563Y-10093508D01*
X572563Y-10093508D02*
X563039Y-10103031D01*
X563039Y-10103031D02*
X543991Y-10131603D01*
X543991Y-10131603D02*
X534467Y-10169698D01*
X534467Y-10169698D02*
X534467Y-10245889D01*
X534467Y-10245889D02*
X543991Y-10264936D01*
X543991Y-10264936D02*
X553515Y-10274460D01*
X553515Y-10274460D02*
X572563Y-10283984D01*
X572563Y-10283984D02*
X610658Y-10283984D01*
X610658Y-10283984D02*
X629705Y-10274460D01*
X629705Y-10274460D02*
X639229Y-10264936D01*
X639229Y-10264936D02*
X648753Y-10245889D01*
X648753Y-10245889D02*
X648753Y-10198270D01*
X648753Y-10198270D02*
X639229Y-10179222D01*
X639229Y-10179222D02*
X629705Y-10169698D01*
X629705Y-10169698D02*
X610658Y-10160174D01*
X610658Y-10160174D02*
X572563Y-10160174D01*
X572563Y-10160174D02*
X553515Y-10169698D01*
X553515Y-10169698D02*
X543991Y-10179222D01*
X543991Y-10179222D02*
X534467Y-10198270D01*
X829705Y-10083984D02*
X734467Y-10083984D01*
X734467Y-10083984D02*
X724943Y-10179222D01*
X724943Y-10179222D02*
X734467Y-10169698D01*
X734467Y-10169698D02*
X753515Y-10160174D01*
X753515Y-10160174D02*
X801134Y-10160174D01*
X801134Y-10160174D02*
X820182Y-10169698D01*
X820182Y-10169698D02*
X829705Y-10179222D01*
X829705Y-10179222D02*
X839229Y-10198270D01*
X839229Y-10198270D02*
X839229Y-10245889D01*
X839229Y-10245889D02*
X829705Y-10264936D01*
X829705Y-10264936D02*
X820182Y-10274460D01*
X820182Y-10274460D02*
X801134Y-10283984D01*
X801134Y-10283984D02*
X753515Y-10283984D01*
X753515Y-10283984D02*
X734467Y-10274460D01*
X734467Y-10274460D02*
X724943Y-10264936D01*
X963039Y-10083984D02*
X982086Y-10083984D01*
X982086Y-10083984D02*
X1001134Y-10093508D01*
X1001134Y-10093508D02*
X1010658Y-10103031D01*
X1010658Y-10103031D02*
X1020182Y-10122079D01*
X1020182Y-10122079D02*
X1029705Y-10160174D01*
X1029705Y-10160174D02*
X1029705Y-10207793D01*
X1029705Y-10207793D02*
X1020182Y-10245889D01*
X1020182Y-10245889D02*
X1010658Y-10264936D01*
X1010658Y-10264936D02*
X1001134Y-10274460D01*
X1001134Y-10274460D02*
X982086Y-10283984D01*
X982086Y-10283984D02*
X963039Y-10283984D01*
X963039Y-10283984D02*
X943991Y-10274460D01*
X943991Y-10274460D02*
X934467Y-10264936D01*
X934467Y-10264936D02*
X924943Y-10245889D01*
X924943Y-10245889D02*
X915420Y-10207793D01*
X915420Y-10207793D02*
X915420Y-10160174D01*
X915420Y-10160174D02*
X924943Y-10122079D01*
X924943Y-10122079D02*
X934467Y-10103031D01*
X934467Y-10103031D02*
X943991Y-10093508D01*
X943991Y-10093508D02*
X963039Y-10083984D01*
X1115420Y-10283984D02*
X1115420Y-10150650D01*
X1115420Y-10169698D02*
X1124944Y-10160174D01*
X1124944Y-10160174D02*
X1143991Y-10150650D01*
X1143991Y-10150650D02*
X1172563Y-10150650D01*
X1172563Y-10150650D02*
X1191610Y-10160174D01*
X1191610Y-10160174D02*
X1201134Y-10179222D01*
X1201134Y-10179222D02*
X1201134Y-10283984D01*
X1201134Y-10179222D02*
X1210658Y-10160174D01*
X1210658Y-10160174D02*
X1229705Y-10150650D01*
X1229705Y-10150650D02*
X1258277Y-10150650D01*
X1258277Y-10150650D02*
X1277325Y-10160174D01*
X1277325Y-10160174D02*
X1286848Y-10179222D01*
X1286848Y-10179222D02*
X1286848Y-10283984D01*
X1382086Y-10283984D02*
X1382086Y-10150650D01*
X1382086Y-10169698D02*
X1391610Y-10160174D01*
X1391610Y-10160174D02*
X1410658Y-10150650D01*
X1410658Y-10150650D02*
X1439229Y-10150650D01*
X1439229Y-10150650D02*
X1458277Y-10160174D01*
X1458277Y-10160174D02*
X1467801Y-10179222D01*
X1467801Y-10179222D02*
X1467801Y-10283984D01*
X1467801Y-10179222D02*
X1477324Y-10160174D01*
X1477324Y-10160174D02*
X1496372Y-10150650D01*
X1496372Y-10150650D02*
X1524943Y-10150650D01*
X1524943Y-10150650D02*
X1543991Y-10160174D01*
X1543991Y-10160174D02*
X1553515Y-10179222D01*
X1553515Y-10179222D02*
X1553515Y-10283984D01*
X1943991Y-10074460D02*
X1772563Y-10331603D01*
X2201134Y-10083984D02*
X2220182Y-10083984D01*
X2220182Y-10083984D02*
X2239229Y-10093508D01*
X2239229Y-10093508D02*
X2248753Y-10103031D01*
X2248753Y-10103031D02*
X2258277Y-10122079D01*
X2258277Y-10122079D02*
X2267801Y-10160174D01*
X2267801Y-10160174D02*
X2267801Y-10207793D01*
X2267801Y-10207793D02*
X2258277Y-10245889D01*
X2258277Y-10245889D02*
X2248753Y-10264936D01*
X2248753Y-10264936D02*
X2239229Y-10274460D01*
X2239229Y-10274460D02*
X2220182Y-10283984D01*
X2220182Y-10283984D02*
X2201134Y-10283984D01*
X2201134Y-10283984D02*
X2182087Y-10274460D01*
X2182087Y-10274460D02*
X2172563Y-10264936D01*
X2172563Y-10264936D02*
X2163039Y-10245889D01*
X2163039Y-10245889D02*
X2153515Y-10207793D01*
X2153515Y-10207793D02*
X2153515Y-10160174D01*
X2153515Y-10160174D02*
X2163039Y-10122079D01*
X2163039Y-10122079D02*
X2172563Y-10103031D01*
X2172563Y-10103031D02*
X2182087Y-10093508D01*
X2182087Y-10093508D02*
X2201134Y-10083984D01*
X2353515Y-10264936D02*
X2363039Y-10274460D01*
X2363039Y-10274460D02*
X2353515Y-10283984D01*
X2353515Y-10283984D02*
X2343991Y-10274460D01*
X2343991Y-10274460D02*
X2353515Y-10264936D01*
X2353515Y-10264936D02*
X2353515Y-10283984D01*
X2486848Y-10083984D02*
X2505896Y-10083984D01*
X2505896Y-10083984D02*
X2524944Y-10093508D01*
X2524944Y-10093508D02*
X2534468Y-10103031D01*
X2534468Y-10103031D02*
X2543991Y-10122079D01*
X2543991Y-10122079D02*
X2553515Y-10160174D01*
X2553515Y-10160174D02*
X2553515Y-10207793D01*
X2553515Y-10207793D02*
X2543991Y-10245889D01*
X2543991Y-10245889D02*
X2534468Y-10264936D01*
X2534468Y-10264936D02*
X2524944Y-10274460D01*
X2524944Y-10274460D02*
X2505896Y-10283984D01*
X2505896Y-10283984D02*
X2486848Y-10283984D01*
X2486848Y-10283984D02*
X2467801Y-10274460D01*
X2467801Y-10274460D02*
X2458277Y-10264936D01*
X2458277Y-10264936D02*
X2448753Y-10245889D01*
X2448753Y-10245889D02*
X2439229Y-10207793D01*
X2439229Y-10207793D02*
X2439229Y-10160174D01*
X2439229Y-10160174D02*
X2448753Y-10122079D01*
X2448753Y-10122079D02*
X2458277Y-10103031D01*
X2458277Y-10103031D02*
X2467801Y-10093508D01*
X2467801Y-10093508D02*
X2486848Y-10083984D01*
X2629706Y-10103031D02*
X2639229Y-10093508D01*
X2639229Y-10093508D02*
X2658277Y-10083984D01*
X2658277Y-10083984D02*
X2705896Y-10083984D01*
X2705896Y-10083984D02*
X2724944Y-10093508D01*
X2724944Y-10093508D02*
X2734468Y-10103031D01*
X2734468Y-10103031D02*
X2743991Y-10122079D01*
X2743991Y-10122079D02*
X2743991Y-10141127D01*
X2743991Y-10141127D02*
X2734468Y-10169698D01*
X2734468Y-10169698D02*
X2620182Y-10283984D01*
X2620182Y-10283984D02*
X2743991Y-10283984D01*
X2924944Y-10083984D02*
X2829706Y-10083984D01*
X2829706Y-10083984D02*
X2820182Y-10179222D01*
X2820182Y-10179222D02*
X2829706Y-10169698D01*
X2829706Y-10169698D02*
X2848753Y-10160174D01*
X2848753Y-10160174D02*
X2896372Y-10160174D01*
X2896372Y-10160174D02*
X2915420Y-10169698D01*
X2915420Y-10169698D02*
X2924944Y-10179222D01*
X2924944Y-10179222D02*
X2934467Y-10198270D01*
X2934467Y-10198270D02*
X2934467Y-10245889D01*
X2934467Y-10245889D02*
X2924944Y-10264936D01*
X2924944Y-10264936D02*
X2915420Y-10274460D01*
X2915420Y-10274460D02*
X2896372Y-10283984D01*
X2896372Y-10283984D02*
X2848753Y-10283984D01*
X2848753Y-10283984D02*
X2829706Y-10274460D01*
X2829706Y-10274460D02*
X2820182Y-10264936D01*
X3105896Y-10083984D02*
X3067801Y-10083984D01*
X3067801Y-10083984D02*
X3048753Y-10093508D01*
X3048753Y-10093508D02*
X3039229Y-10103031D01*
X3039229Y-10103031D02*
X3020182Y-10131603D01*
X3020182Y-10131603D02*
X3010658Y-10169698D01*
X3010658Y-10169698D02*
X3010658Y-10245889D01*
X3010658Y-10245889D02*
X3020182Y-10264936D01*
X3020182Y-10264936D02*
X3029706Y-10274460D01*
X3029706Y-10274460D02*
X3048753Y-10283984D01*
X3048753Y-10283984D02*
X3086848Y-10283984D01*
X3086848Y-10283984D02*
X3105896Y-10274460D01*
X3105896Y-10274460D02*
X3115420Y-10264936D01*
X3115420Y-10264936D02*
X3124944Y-10245889D01*
X3124944Y-10245889D02*
X3124944Y-10198270D01*
X3124944Y-10198270D02*
X3115420Y-10179222D01*
X3115420Y-10179222D02*
X3105896Y-10169698D01*
X3105896Y-10169698D02*
X3086848Y-10160174D01*
X3086848Y-10160174D02*
X3048753Y-10160174D01*
X3048753Y-10160174D02*
X3029706Y-10169698D01*
X3029706Y-10169698D02*
X3020182Y-10179222D01*
X3020182Y-10179222D02*
X3010658Y-10198270D01*
X3201134Y-10083984D02*
X3201134Y-10122079D01*
X3277325Y-10083984D02*
X3277325Y-10122079D01*
X3572563Y-10360174D02*
X3563039Y-10350650D01*
X3563039Y-10350650D02*
X3543991Y-10322079D01*
X3543991Y-10322079D02*
X3534468Y-10303031D01*
X3534468Y-10303031D02*
X3524944Y-10274460D01*
X3524944Y-10274460D02*
X3515420Y-10226841D01*
X3515420Y-10226841D02*
X3515420Y-10188746D01*
X3515420Y-10188746D02*
X3524944Y-10141127D01*
X3524944Y-10141127D02*
X3534468Y-10112555D01*
X3534468Y-10112555D02*
X3543991Y-10093508D01*
X3543991Y-10093508D02*
X3563039Y-10064936D01*
X3563039Y-10064936D02*
X3572563Y-10055412D01*
X3639229Y-10103031D02*
X3648753Y-10093508D01*
X3648753Y-10093508D02*
X3667801Y-10083984D01*
X3667801Y-10083984D02*
X3715420Y-10083984D01*
X3715420Y-10083984D02*
X3734468Y-10093508D01*
X3734468Y-10093508D02*
X3743991Y-10103031D01*
X3743991Y-10103031D02*
X3753515Y-10122079D01*
X3753515Y-10122079D02*
X3753515Y-10141127D01*
X3753515Y-10141127D02*
X3743991Y-10169698D01*
X3743991Y-10169698D02*
X3629706Y-10283984D01*
X3629706Y-10283984D02*
X3753515Y-10283984D01*
X3991610Y-10283984D02*
X3991610Y-10083984D01*
X4077325Y-10283984D02*
X4077325Y-10179222D01*
X4077325Y-10179222D02*
X4067801Y-10160174D01*
X4067801Y-10160174D02*
X4048753Y-10150650D01*
X4048753Y-10150650D02*
X4020182Y-10150650D01*
X4020182Y-10150650D02*
X4001134Y-10160174D01*
X4001134Y-10160174D02*
X3991610Y-10169698D01*
X4201134Y-10283984D02*
X4182087Y-10274460D01*
X4182087Y-10274460D02*
X4172563Y-10264936D01*
X4172563Y-10264936D02*
X4163039Y-10245889D01*
X4163039Y-10245889D02*
X4163039Y-10188746D01*
X4163039Y-10188746D02*
X4172563Y-10169698D01*
X4172563Y-10169698D02*
X4182087Y-10160174D01*
X4182087Y-10160174D02*
X4201134Y-10150650D01*
X4201134Y-10150650D02*
X4229706Y-10150650D01*
X4229706Y-10150650D02*
X4248753Y-10160174D01*
X4248753Y-10160174D02*
X4258277Y-10169698D01*
X4258277Y-10169698D02*
X4267801Y-10188746D01*
X4267801Y-10188746D02*
X4267801Y-10245889D01*
X4267801Y-10245889D02*
X4258277Y-10264936D01*
X4258277Y-10264936D02*
X4248753Y-10274460D01*
X4248753Y-10274460D02*
X4229706Y-10283984D01*
X4229706Y-10283984D02*
X4201134Y-10283984D01*
X4382087Y-10283984D02*
X4363039Y-10274460D01*
X4363039Y-10274460D02*
X4353515Y-10255412D01*
X4353515Y-10255412D02*
X4353515Y-10083984D01*
X4534468Y-10274460D02*
X4515420Y-10283984D01*
X4515420Y-10283984D02*
X4477325Y-10283984D01*
X4477325Y-10283984D02*
X4458277Y-10274460D01*
X4458277Y-10274460D02*
X4448753Y-10255412D01*
X4448753Y-10255412D02*
X4448753Y-10179222D01*
X4448753Y-10179222D02*
X4458277Y-10160174D01*
X4458277Y-10160174D02*
X4477325Y-10150650D01*
X4477325Y-10150650D02*
X4515420Y-10150650D01*
X4515420Y-10150650D02*
X4534468Y-10160174D01*
X4534468Y-10160174D02*
X4543992Y-10179222D01*
X4543992Y-10179222D02*
X4543992Y-10198270D01*
X4543992Y-10198270D02*
X4448753Y-10217317D01*
X4620182Y-10274460D02*
X4639230Y-10283984D01*
X4639230Y-10283984D02*
X4677325Y-10283984D01*
X4677325Y-10283984D02*
X4696373Y-10274460D01*
X4696373Y-10274460D02*
X4705896Y-10255412D01*
X4705896Y-10255412D02*
X4705896Y-10245889D01*
X4705896Y-10245889D02*
X4696373Y-10226841D01*
X4696373Y-10226841D02*
X4677325Y-10217317D01*
X4677325Y-10217317D02*
X4648753Y-10217317D01*
X4648753Y-10217317D02*
X4629706Y-10207793D01*
X4629706Y-10207793D02*
X4620182Y-10188746D01*
X4620182Y-10188746D02*
X4620182Y-10179222D01*
X4620182Y-10179222D02*
X4629706Y-10160174D01*
X4629706Y-10160174D02*
X4648753Y-10150650D01*
X4648753Y-10150650D02*
X4677325Y-10150650D01*
X4677325Y-10150650D02*
X4696373Y-10160174D01*
X4772563Y-10360174D02*
X4782087Y-10350650D01*
X4782087Y-10350650D02*
X4801134Y-10322079D01*
X4801134Y-10322079D02*
X4810658Y-10303031D01*
X4810658Y-10303031D02*
X4820182Y-10274460D01*
X4820182Y-10274460D02*
X4829706Y-10226841D01*
X4829706Y-10226841D02*
X4829706Y-10188746D01*
X4829706Y-10188746D02*
X4820182Y-10141127D01*
X4820182Y-10141127D02*
X4810658Y-10112555D01*
X4810658Y-10112555D02*
X4801134Y-10093508D01*
X4801134Y-10093508D02*
X4782087Y-10064936D01*
X4782087Y-10064936D02*
X4772563Y-10055412D01*
X5134468Y-10360174D02*
X5124944Y-10350650D01*
X5124944Y-10350650D02*
X5105896Y-10322079D01*
X5105896Y-10322079D02*
X5096373Y-10303031D01*
X5096373Y-10303031D02*
X5086849Y-10274460D01*
X5086849Y-10274460D02*
X5077325Y-10226841D01*
X5077325Y-10226841D02*
X5077325Y-10188746D01*
X5077325Y-10188746D02*
X5086849Y-10141127D01*
X5086849Y-10141127D02*
X5096373Y-10112555D01*
X5096373Y-10112555D02*
X5105896Y-10093508D01*
X5105896Y-10093508D02*
X5124944Y-10064936D01*
X5124944Y-10064936D02*
X5134468Y-10055412D01*
X5210658Y-10150650D02*
X5210658Y-10283984D01*
X5210658Y-10169698D02*
X5220182Y-10160174D01*
X5220182Y-10160174D02*
X5239230Y-10150650D01*
X5239230Y-10150650D02*
X5267801Y-10150650D01*
X5267801Y-10150650D02*
X5286849Y-10160174D01*
X5286849Y-10160174D02*
X5296373Y-10179222D01*
X5296373Y-10179222D02*
X5296373Y-10283984D01*
X5420182Y-10283984D02*
X5401134Y-10274460D01*
X5401134Y-10274460D02*
X5391611Y-10264936D01*
X5391611Y-10264936D02*
X5382087Y-10245889D01*
X5382087Y-10245889D02*
X5382087Y-10188746D01*
X5382087Y-10188746D02*
X5391611Y-10169698D01*
X5391611Y-10169698D02*
X5401134Y-10160174D01*
X5401134Y-10160174D02*
X5420182Y-10150650D01*
X5420182Y-10150650D02*
X5448754Y-10150650D01*
X5448754Y-10150650D02*
X5467801Y-10160174D01*
X5467801Y-10160174D02*
X5477325Y-10169698D01*
X5477325Y-10169698D02*
X5486849Y-10188746D01*
X5486849Y-10188746D02*
X5486849Y-10245889D01*
X5486849Y-10245889D02*
X5477325Y-10264936D01*
X5477325Y-10264936D02*
X5467801Y-10274460D01*
X5467801Y-10274460D02*
X5448754Y-10283984D01*
X5448754Y-10283984D02*
X5420182Y-10283984D01*
X5543992Y-10150650D02*
X5620182Y-10150650D01*
X5572563Y-10083984D02*
X5572563Y-10255412D01*
X5572563Y-10255412D02*
X5582087Y-10274460D01*
X5582087Y-10274460D02*
X5601134Y-10283984D01*
X5601134Y-10283984D02*
X5620182Y-10283984D01*
X5839230Y-10150650D02*
X5839230Y-10350650D01*
X5839230Y-10160174D02*
X5858277Y-10150650D01*
X5858277Y-10150650D02*
X5896373Y-10150650D01*
X5896373Y-10150650D02*
X5915420Y-10160174D01*
X5915420Y-10160174D02*
X5924944Y-10169698D01*
X5924944Y-10169698D02*
X5934468Y-10188746D01*
X5934468Y-10188746D02*
X5934468Y-10245889D01*
X5934468Y-10245889D02*
X5924944Y-10264936D01*
X5924944Y-10264936D02*
X5915420Y-10274460D01*
X5915420Y-10274460D02*
X5896373Y-10283984D01*
X5896373Y-10283984D02*
X5858277Y-10283984D01*
X5858277Y-10283984D02*
X5839230Y-10274460D01*
X6048753Y-10283984D02*
X6029706Y-10274460D01*
X6029706Y-10274460D02*
X6020182Y-10255412D01*
X6020182Y-10255412D02*
X6020182Y-10083984D01*
X6210658Y-10283984D02*
X6210658Y-10179222D01*
X6210658Y-10179222D02*
X6201134Y-10160174D01*
X6201134Y-10160174D02*
X6182087Y-10150650D01*
X6182087Y-10150650D02*
X6143992Y-10150650D01*
X6143992Y-10150650D02*
X6124944Y-10160174D01*
X6210658Y-10274460D02*
X6191611Y-10283984D01*
X6191611Y-10283984D02*
X6143992Y-10283984D01*
X6143992Y-10283984D02*
X6124944Y-10274460D01*
X6124944Y-10274460D02*
X6115420Y-10255412D01*
X6115420Y-10255412D02*
X6115420Y-10236365D01*
X6115420Y-10236365D02*
X6124944Y-10217317D01*
X6124944Y-10217317D02*
X6143992Y-10207793D01*
X6143992Y-10207793D02*
X6191611Y-10207793D01*
X6191611Y-10207793D02*
X6210658Y-10198270D01*
X6277325Y-10150650D02*
X6353515Y-10150650D01*
X6305896Y-10083984D02*
X6305896Y-10255412D01*
X6305896Y-10255412D02*
X6315420Y-10274460D01*
X6315420Y-10274460D02*
X6334468Y-10283984D01*
X6334468Y-10283984D02*
X6353515Y-10283984D01*
X6496373Y-10274460D02*
X6477325Y-10283984D01*
X6477325Y-10283984D02*
X6439230Y-10283984D01*
X6439230Y-10283984D02*
X6420182Y-10274460D01*
X6420182Y-10274460D02*
X6410658Y-10255412D01*
X6410658Y-10255412D02*
X6410658Y-10179222D01*
X6410658Y-10179222D02*
X6420182Y-10160174D01*
X6420182Y-10160174D02*
X6439230Y-10150650D01*
X6439230Y-10150650D02*
X6477325Y-10150650D01*
X6477325Y-10150650D02*
X6496373Y-10160174D01*
X6496373Y-10160174D02*
X6505896Y-10179222D01*
X6505896Y-10179222D02*
X6505896Y-10198270D01*
X6505896Y-10198270D02*
X6410658Y-10217317D01*
X6677325Y-10283984D02*
X6677325Y-10083984D01*
X6677325Y-10274460D02*
X6658277Y-10283984D01*
X6658277Y-10283984D02*
X6620182Y-10283984D01*
X6620182Y-10283984D02*
X6601134Y-10274460D01*
X6601134Y-10274460D02*
X6591611Y-10264936D01*
X6591611Y-10264936D02*
X6582087Y-10245889D01*
X6582087Y-10245889D02*
X6582087Y-10188746D01*
X6582087Y-10188746D02*
X6591611Y-10169698D01*
X6591611Y-10169698D02*
X6601134Y-10160174D01*
X6601134Y-10160174D02*
X6620182Y-10150650D01*
X6620182Y-10150650D02*
X6658277Y-10150650D01*
X6658277Y-10150650D02*
X6677325Y-10160174D01*
X6753515Y-10360174D02*
X6763039Y-10350650D01*
X6763039Y-10350650D02*
X6782087Y-10322079D01*
X6782087Y-10322079D02*
X6791611Y-10303031D01*
X6791611Y-10303031D02*
X6801134Y-10274460D01*
X6801134Y-10274460D02*
X6810658Y-10226841D01*
X6810658Y-10226841D02*
X6810658Y-10188746D01*
X6810658Y-10188746D02*
X6801134Y-10141127D01*
X6801134Y-10141127D02*
X6791611Y-10112555D01*
X6791611Y-10112555D02*
X6782087Y-10093508D01*
X6782087Y-10093508D02*
X6763039Y-10064936D01*
X6763039Y-10064936D02*
X6753515Y-10055412D01*
D13*
X-2500Y-10456500D02*
G75*
G02*
X-172500Y-10456500I-85000J0D01*
G01*
X-172500Y-10456500D02*
G75*
G02*
X-2500Y-10456500I85000J0D01*
G01*
D11*
X363039Y-10547984D02*
X248753Y-10547984D01*
X305896Y-10547984D02*
X305896Y-10347984D01*
X305896Y-10347984D02*
X286848Y-10376555D01*
X286848Y-10376555D02*
X267801Y-10395603D01*
X267801Y-10395603D02*
X248753Y-10405127D01*
X448753Y-10528936D02*
X458277Y-10538460D01*
X458277Y-10538460D02*
X448753Y-10547984D01*
X448753Y-10547984D02*
X439229Y-10538460D01*
X439229Y-10538460D02*
X448753Y-10528936D01*
X448753Y-10528936D02*
X448753Y-10547984D01*
X524944Y-10347984D02*
X658277Y-10347984D01*
X658277Y-10347984D02*
X572563Y-10547984D01*
X772562Y-10347984D02*
X791610Y-10347984D01*
X791610Y-10347984D02*
X810658Y-10357508D01*
X810658Y-10357508D02*
X820182Y-10367031D01*
X820182Y-10367031D02*
X829705Y-10386079D01*
X829705Y-10386079D02*
X839229Y-10424174D01*
X839229Y-10424174D02*
X839229Y-10471793D01*
X839229Y-10471793D02*
X829705Y-10509889D01*
X829705Y-10509889D02*
X820182Y-10528936D01*
X820182Y-10528936D02*
X810658Y-10538460D01*
X810658Y-10538460D02*
X791610Y-10547984D01*
X791610Y-10547984D02*
X772562Y-10547984D01*
X772562Y-10547984D02*
X753515Y-10538460D01*
X753515Y-10538460D02*
X743991Y-10528936D01*
X743991Y-10528936D02*
X734467Y-10509889D01*
X734467Y-10509889D02*
X724943Y-10471793D01*
X724943Y-10471793D02*
X724943Y-10424174D01*
X724943Y-10424174D02*
X734467Y-10386079D01*
X734467Y-10386079D02*
X743991Y-10367031D01*
X743991Y-10367031D02*
X753515Y-10357508D01*
X753515Y-10357508D02*
X772562Y-10347984D01*
X963039Y-10347984D02*
X982086Y-10347984D01*
X982086Y-10347984D02*
X1001134Y-10357508D01*
X1001134Y-10357508D02*
X1010658Y-10367031D01*
X1010658Y-10367031D02*
X1020182Y-10386079D01*
X1020182Y-10386079D02*
X1029705Y-10424174D01*
X1029705Y-10424174D02*
X1029705Y-10471793D01*
X1029705Y-10471793D02*
X1020182Y-10509889D01*
X1020182Y-10509889D02*
X1010658Y-10528936D01*
X1010658Y-10528936D02*
X1001134Y-10538460D01*
X1001134Y-10538460D02*
X982086Y-10547984D01*
X982086Y-10547984D02*
X963039Y-10547984D01*
X963039Y-10547984D02*
X943991Y-10538460D01*
X943991Y-10538460D02*
X934467Y-10528936D01*
X934467Y-10528936D02*
X924943Y-10509889D01*
X924943Y-10509889D02*
X915420Y-10471793D01*
X915420Y-10471793D02*
X915420Y-10424174D01*
X915420Y-10424174D02*
X924943Y-10386079D01*
X924943Y-10386079D02*
X934467Y-10367031D01*
X934467Y-10367031D02*
X943991Y-10357508D01*
X943991Y-10357508D02*
X963039Y-10347984D01*
X1115420Y-10547984D02*
X1115420Y-10414650D01*
X1115420Y-10433698D02*
X1124944Y-10424174D01*
X1124944Y-10424174D02*
X1143991Y-10414650D01*
X1143991Y-10414650D02*
X1172563Y-10414650D01*
X1172563Y-10414650D02*
X1191610Y-10424174D01*
X1191610Y-10424174D02*
X1201134Y-10443222D01*
X1201134Y-10443222D02*
X1201134Y-10547984D01*
X1201134Y-10443222D02*
X1210658Y-10424174D01*
X1210658Y-10424174D02*
X1229705Y-10414650D01*
X1229705Y-10414650D02*
X1258277Y-10414650D01*
X1258277Y-10414650D02*
X1277325Y-10424174D01*
X1277325Y-10424174D02*
X1286848Y-10443222D01*
X1286848Y-10443222D02*
X1286848Y-10547984D01*
X1382086Y-10547984D02*
X1382086Y-10414650D01*
X1382086Y-10433698D02*
X1391610Y-10424174D01*
X1391610Y-10424174D02*
X1410658Y-10414650D01*
X1410658Y-10414650D02*
X1439229Y-10414650D01*
X1439229Y-10414650D02*
X1458277Y-10424174D01*
X1458277Y-10424174D02*
X1467801Y-10443222D01*
X1467801Y-10443222D02*
X1467801Y-10547984D01*
X1467801Y-10443222D02*
X1477324Y-10424174D01*
X1477324Y-10424174D02*
X1496372Y-10414650D01*
X1496372Y-10414650D02*
X1524943Y-10414650D01*
X1524943Y-10414650D02*
X1543991Y-10424174D01*
X1543991Y-10424174D02*
X1553515Y-10443222D01*
X1553515Y-10443222D02*
X1553515Y-10547984D01*
X1943991Y-10338460D02*
X1772563Y-10595603D01*
X2201134Y-10347984D02*
X2220182Y-10347984D01*
X2220182Y-10347984D02*
X2239229Y-10357508D01*
X2239229Y-10357508D02*
X2248753Y-10367031D01*
X2248753Y-10367031D02*
X2258277Y-10386079D01*
X2258277Y-10386079D02*
X2267801Y-10424174D01*
X2267801Y-10424174D02*
X2267801Y-10471793D01*
X2267801Y-10471793D02*
X2258277Y-10509889D01*
X2258277Y-10509889D02*
X2248753Y-10528936D01*
X2248753Y-10528936D02*
X2239229Y-10538460D01*
X2239229Y-10538460D02*
X2220182Y-10547984D01*
X2220182Y-10547984D02*
X2201134Y-10547984D01*
X2201134Y-10547984D02*
X2182087Y-10538460D01*
X2182087Y-10538460D02*
X2172563Y-10528936D01*
X2172563Y-10528936D02*
X2163039Y-10509889D01*
X2163039Y-10509889D02*
X2153515Y-10471793D01*
X2153515Y-10471793D02*
X2153515Y-10424174D01*
X2153515Y-10424174D02*
X2163039Y-10386079D01*
X2163039Y-10386079D02*
X2172563Y-10367031D01*
X2172563Y-10367031D02*
X2182087Y-10357508D01*
X2182087Y-10357508D02*
X2201134Y-10347984D01*
X2353515Y-10528936D02*
X2363039Y-10538460D01*
X2363039Y-10538460D02*
X2353515Y-10547984D01*
X2353515Y-10547984D02*
X2343991Y-10538460D01*
X2343991Y-10538460D02*
X2353515Y-10528936D01*
X2353515Y-10528936D02*
X2353515Y-10547984D01*
X2486848Y-10347984D02*
X2505896Y-10347984D01*
X2505896Y-10347984D02*
X2524944Y-10357508D01*
X2524944Y-10357508D02*
X2534468Y-10367031D01*
X2534468Y-10367031D02*
X2543991Y-10386079D01*
X2543991Y-10386079D02*
X2553515Y-10424174D01*
X2553515Y-10424174D02*
X2553515Y-10471793D01*
X2553515Y-10471793D02*
X2543991Y-10509889D01*
X2543991Y-10509889D02*
X2534468Y-10528936D01*
X2534468Y-10528936D02*
X2524944Y-10538460D01*
X2524944Y-10538460D02*
X2505896Y-10547984D01*
X2505896Y-10547984D02*
X2486848Y-10547984D01*
X2486848Y-10547984D02*
X2467801Y-10538460D01*
X2467801Y-10538460D02*
X2458277Y-10528936D01*
X2458277Y-10528936D02*
X2448753Y-10509889D01*
X2448753Y-10509889D02*
X2439229Y-10471793D01*
X2439229Y-10471793D02*
X2439229Y-10424174D01*
X2439229Y-10424174D02*
X2448753Y-10386079D01*
X2448753Y-10386079D02*
X2458277Y-10367031D01*
X2458277Y-10367031D02*
X2467801Y-10357508D01*
X2467801Y-10357508D02*
X2486848Y-10347984D01*
X2724944Y-10347984D02*
X2686848Y-10347984D01*
X2686848Y-10347984D02*
X2667801Y-10357508D01*
X2667801Y-10357508D02*
X2658277Y-10367031D01*
X2658277Y-10367031D02*
X2639229Y-10395603D01*
X2639229Y-10395603D02*
X2629706Y-10433698D01*
X2629706Y-10433698D02*
X2629706Y-10509889D01*
X2629706Y-10509889D02*
X2639229Y-10528936D01*
X2639229Y-10528936D02*
X2648753Y-10538460D01*
X2648753Y-10538460D02*
X2667801Y-10547984D01*
X2667801Y-10547984D02*
X2705896Y-10547984D01*
X2705896Y-10547984D02*
X2724944Y-10538460D01*
X2724944Y-10538460D02*
X2734468Y-10528936D01*
X2734468Y-10528936D02*
X2743991Y-10509889D01*
X2743991Y-10509889D02*
X2743991Y-10462270D01*
X2743991Y-10462270D02*
X2734468Y-10443222D01*
X2734468Y-10443222D02*
X2724944Y-10433698D01*
X2724944Y-10433698D02*
X2705896Y-10424174D01*
X2705896Y-10424174D02*
X2667801Y-10424174D01*
X2667801Y-10424174D02*
X2648753Y-10433698D01*
X2648753Y-10433698D02*
X2639229Y-10443222D01*
X2639229Y-10443222D02*
X2629706Y-10462270D01*
X2915420Y-10347984D02*
X2877325Y-10347984D01*
X2877325Y-10347984D02*
X2858277Y-10357508D01*
X2858277Y-10357508D02*
X2848753Y-10367031D01*
X2848753Y-10367031D02*
X2829706Y-10395603D01*
X2829706Y-10395603D02*
X2820182Y-10433698D01*
X2820182Y-10433698D02*
X2820182Y-10509889D01*
X2820182Y-10509889D02*
X2829706Y-10528936D01*
X2829706Y-10528936D02*
X2839229Y-10538460D01*
X2839229Y-10538460D02*
X2858277Y-10547984D01*
X2858277Y-10547984D02*
X2896372Y-10547984D01*
X2896372Y-10547984D02*
X2915420Y-10538460D01*
X2915420Y-10538460D02*
X2924944Y-10528936D01*
X2924944Y-10528936D02*
X2934467Y-10509889D01*
X2934467Y-10509889D02*
X2934467Y-10462270D01*
X2934467Y-10462270D02*
X2924944Y-10443222D01*
X2924944Y-10443222D02*
X2915420Y-10433698D01*
X2915420Y-10433698D02*
X2896372Y-10424174D01*
X2896372Y-10424174D02*
X2858277Y-10424174D01*
X2858277Y-10424174D02*
X2839229Y-10433698D01*
X2839229Y-10433698D02*
X2829706Y-10443222D01*
X2829706Y-10443222D02*
X2820182Y-10462270D01*
X3029706Y-10547984D02*
X3067801Y-10547984D01*
X3067801Y-10547984D02*
X3086848Y-10538460D01*
X3086848Y-10538460D02*
X3096372Y-10528936D01*
X3096372Y-10528936D02*
X3115420Y-10500365D01*
X3115420Y-10500365D02*
X3124944Y-10462270D01*
X3124944Y-10462270D02*
X3124944Y-10386079D01*
X3124944Y-10386079D02*
X3115420Y-10367031D01*
X3115420Y-10367031D02*
X3105896Y-10357508D01*
X3105896Y-10357508D02*
X3086848Y-10347984D01*
X3086848Y-10347984D02*
X3048753Y-10347984D01*
X3048753Y-10347984D02*
X3029706Y-10357508D01*
X3029706Y-10357508D02*
X3020182Y-10367031D01*
X3020182Y-10367031D02*
X3010658Y-10386079D01*
X3010658Y-10386079D02*
X3010658Y-10433698D01*
X3010658Y-10433698D02*
X3020182Y-10452746D01*
X3020182Y-10452746D02*
X3029706Y-10462270D01*
X3029706Y-10462270D02*
X3048753Y-10471793D01*
X3048753Y-10471793D02*
X3086848Y-10471793D01*
X3086848Y-10471793D02*
X3105896Y-10462270D01*
X3105896Y-10462270D02*
X3115420Y-10452746D01*
X3115420Y-10452746D02*
X3124944Y-10433698D01*
X3201134Y-10347984D02*
X3201134Y-10386079D01*
X3277325Y-10347984D02*
X3277325Y-10386079D01*
X3572563Y-10624174D02*
X3563039Y-10614650D01*
X3563039Y-10614650D02*
X3543991Y-10586079D01*
X3543991Y-10586079D02*
X3534468Y-10567031D01*
X3534468Y-10567031D02*
X3524944Y-10538460D01*
X3524944Y-10538460D02*
X3515420Y-10490841D01*
X3515420Y-10490841D02*
X3515420Y-10452746D01*
X3515420Y-10452746D02*
X3524944Y-10405127D01*
X3524944Y-10405127D02*
X3534468Y-10376555D01*
X3534468Y-10376555D02*
X3543991Y-10357508D01*
X3543991Y-10357508D02*
X3563039Y-10328936D01*
X3563039Y-10328936D02*
X3572563Y-10319412D01*
X3753515Y-10547984D02*
X3639229Y-10547984D01*
X3696372Y-10547984D02*
X3696372Y-10347984D01*
X3696372Y-10347984D02*
X3677325Y-10376555D01*
X3677325Y-10376555D02*
X3658277Y-10395603D01*
X3658277Y-10395603D02*
X3639229Y-10405127D01*
X3829706Y-10367031D02*
X3839229Y-10357508D01*
X3839229Y-10357508D02*
X3858277Y-10347984D01*
X3858277Y-10347984D02*
X3905896Y-10347984D01*
X3905896Y-10347984D02*
X3924944Y-10357508D01*
X3924944Y-10357508D02*
X3934468Y-10367031D01*
X3934468Y-10367031D02*
X3943991Y-10386079D01*
X3943991Y-10386079D02*
X3943991Y-10405127D01*
X3943991Y-10405127D02*
X3934468Y-10433698D01*
X3934468Y-10433698D02*
X3820182Y-10547984D01*
X3820182Y-10547984D02*
X3943991Y-10547984D01*
X4058277Y-10433698D02*
X4039229Y-10424174D01*
X4039229Y-10424174D02*
X4029706Y-10414650D01*
X4029706Y-10414650D02*
X4020182Y-10395603D01*
X4020182Y-10395603D02*
X4020182Y-10386079D01*
X4020182Y-10386079D02*
X4029706Y-10367031D01*
X4029706Y-10367031D02*
X4039229Y-10357508D01*
X4039229Y-10357508D02*
X4058277Y-10347984D01*
X4058277Y-10347984D02*
X4096372Y-10347984D01*
X4096372Y-10347984D02*
X4115420Y-10357508D01*
X4115420Y-10357508D02*
X4124944Y-10367031D01*
X4124944Y-10367031D02*
X4134468Y-10386079D01*
X4134468Y-10386079D02*
X4134468Y-10395603D01*
X4134468Y-10395603D02*
X4124944Y-10414650D01*
X4124944Y-10414650D02*
X4115420Y-10424174D01*
X4115420Y-10424174D02*
X4096372Y-10433698D01*
X4096372Y-10433698D02*
X4058277Y-10433698D01*
X4058277Y-10433698D02*
X4039229Y-10443222D01*
X4039229Y-10443222D02*
X4029706Y-10452746D01*
X4029706Y-10452746D02*
X4020182Y-10471793D01*
X4020182Y-10471793D02*
X4020182Y-10509889D01*
X4020182Y-10509889D02*
X4029706Y-10528936D01*
X4029706Y-10528936D02*
X4039229Y-10538460D01*
X4039229Y-10538460D02*
X4058277Y-10547984D01*
X4058277Y-10547984D02*
X4096372Y-10547984D01*
X4096372Y-10547984D02*
X4115420Y-10538460D01*
X4115420Y-10538460D02*
X4124944Y-10528936D01*
X4124944Y-10528936D02*
X4134468Y-10509889D01*
X4134468Y-10509889D02*
X4134468Y-10471793D01*
X4134468Y-10471793D02*
X4124944Y-10452746D01*
X4124944Y-10452746D02*
X4115420Y-10443222D01*
X4115420Y-10443222D02*
X4096372Y-10433698D01*
X4372563Y-10547984D02*
X4372563Y-10347984D01*
X4458277Y-10547984D02*
X4458277Y-10443222D01*
X4458277Y-10443222D02*
X4448753Y-10424174D01*
X4448753Y-10424174D02*
X4429706Y-10414650D01*
X4429706Y-10414650D02*
X4401134Y-10414650D01*
X4401134Y-10414650D02*
X4382087Y-10424174D01*
X4382087Y-10424174D02*
X4372563Y-10433698D01*
X4582087Y-10547984D02*
X4563039Y-10538460D01*
X4563039Y-10538460D02*
X4553515Y-10528936D01*
X4553515Y-10528936D02*
X4543992Y-10509889D01*
X4543992Y-10509889D02*
X4543992Y-10452746D01*
X4543992Y-10452746D02*
X4553515Y-10433698D01*
X4553515Y-10433698D02*
X4563039Y-10424174D01*
X4563039Y-10424174D02*
X4582087Y-10414650D01*
X4582087Y-10414650D02*
X4610658Y-10414650D01*
X4610658Y-10414650D02*
X4629706Y-10424174D01*
X4629706Y-10424174D02*
X4639230Y-10433698D01*
X4639230Y-10433698D02*
X4648753Y-10452746D01*
X4648753Y-10452746D02*
X4648753Y-10509889D01*
X4648753Y-10509889D02*
X4639230Y-10528936D01*
X4639230Y-10528936D02*
X4629706Y-10538460D01*
X4629706Y-10538460D02*
X4610658Y-10547984D01*
X4610658Y-10547984D02*
X4582087Y-10547984D01*
X4763039Y-10547984D02*
X4743992Y-10538460D01*
X4743992Y-10538460D02*
X4734468Y-10519412D01*
X4734468Y-10519412D02*
X4734468Y-10347984D01*
X4915420Y-10538460D02*
X4896373Y-10547984D01*
X4896373Y-10547984D02*
X4858277Y-10547984D01*
X4858277Y-10547984D02*
X4839230Y-10538460D01*
X4839230Y-10538460D02*
X4829706Y-10519412D01*
X4829706Y-10519412D02*
X4829706Y-10443222D01*
X4829706Y-10443222D02*
X4839230Y-10424174D01*
X4839230Y-10424174D02*
X4858277Y-10414650D01*
X4858277Y-10414650D02*
X4896373Y-10414650D01*
X4896373Y-10414650D02*
X4915420Y-10424174D01*
X4915420Y-10424174D02*
X4924944Y-10443222D01*
X4924944Y-10443222D02*
X4924944Y-10462270D01*
X4924944Y-10462270D02*
X4829706Y-10481317D01*
X5001134Y-10538460D02*
X5020182Y-10547984D01*
X5020182Y-10547984D02*
X5058277Y-10547984D01*
X5058277Y-10547984D02*
X5077325Y-10538460D01*
X5077325Y-10538460D02*
X5086849Y-10519412D01*
X5086849Y-10519412D02*
X5086849Y-10509889D01*
X5086849Y-10509889D02*
X5077325Y-10490841D01*
X5077325Y-10490841D02*
X5058277Y-10481317D01*
X5058277Y-10481317D02*
X5029706Y-10481317D01*
X5029706Y-10481317D02*
X5010658Y-10471793D01*
X5010658Y-10471793D02*
X5001134Y-10452746D01*
X5001134Y-10452746D02*
X5001134Y-10443222D01*
X5001134Y-10443222D02*
X5010658Y-10424174D01*
X5010658Y-10424174D02*
X5029706Y-10414650D01*
X5029706Y-10414650D02*
X5058277Y-10414650D01*
X5058277Y-10414650D02*
X5077325Y-10424174D01*
X5153515Y-10624174D02*
X5163039Y-10614650D01*
X5163039Y-10614650D02*
X5182087Y-10586079D01*
X5182087Y-10586079D02*
X5191611Y-10567031D01*
X5191611Y-10567031D02*
X5201134Y-10538460D01*
X5201134Y-10538460D02*
X5210658Y-10490841D01*
X5210658Y-10490841D02*
X5210658Y-10452746D01*
X5210658Y-10452746D02*
X5201134Y-10405127D01*
X5201134Y-10405127D02*
X5191611Y-10376555D01*
X5191611Y-10376555D02*
X5182087Y-10357508D01*
X5182087Y-10357508D02*
X5163039Y-10328936D01*
X5163039Y-10328936D02*
X5153515Y-10319412D01*
X5515420Y-10624174D02*
X5505896Y-10614650D01*
X5505896Y-10614650D02*
X5486849Y-10586079D01*
X5486849Y-10586079D02*
X5477325Y-10567031D01*
X5477325Y-10567031D02*
X5467801Y-10538460D01*
X5467801Y-10538460D02*
X5458277Y-10490841D01*
X5458277Y-10490841D02*
X5458277Y-10452746D01*
X5458277Y-10452746D02*
X5467801Y-10405127D01*
X5467801Y-10405127D02*
X5477325Y-10376555D01*
X5477325Y-10376555D02*
X5486849Y-10357508D01*
X5486849Y-10357508D02*
X5505896Y-10328936D01*
X5505896Y-10328936D02*
X5515420Y-10319412D01*
X5591611Y-10414650D02*
X5591611Y-10547984D01*
X5591611Y-10433698D02*
X5601134Y-10424174D01*
X5601134Y-10424174D02*
X5620182Y-10414650D01*
X5620182Y-10414650D02*
X5648753Y-10414650D01*
X5648753Y-10414650D02*
X5667801Y-10424174D01*
X5667801Y-10424174D02*
X5677325Y-10443222D01*
X5677325Y-10443222D02*
X5677325Y-10547984D01*
X5801134Y-10547984D02*
X5782087Y-10538460D01*
X5782087Y-10538460D02*
X5772563Y-10528936D01*
X5772563Y-10528936D02*
X5763039Y-10509889D01*
X5763039Y-10509889D02*
X5763039Y-10452746D01*
X5763039Y-10452746D02*
X5772563Y-10433698D01*
X5772563Y-10433698D02*
X5782087Y-10424174D01*
X5782087Y-10424174D02*
X5801134Y-10414650D01*
X5801134Y-10414650D02*
X5829706Y-10414650D01*
X5829706Y-10414650D02*
X5848753Y-10424174D01*
X5848753Y-10424174D02*
X5858277Y-10433698D01*
X5858277Y-10433698D02*
X5867801Y-10452746D01*
X5867801Y-10452746D02*
X5867801Y-10509889D01*
X5867801Y-10509889D02*
X5858277Y-10528936D01*
X5858277Y-10528936D02*
X5848753Y-10538460D01*
X5848753Y-10538460D02*
X5829706Y-10547984D01*
X5829706Y-10547984D02*
X5801134Y-10547984D01*
X5924944Y-10414650D02*
X6001134Y-10414650D01*
X5953515Y-10347984D02*
X5953515Y-10519412D01*
X5953515Y-10519412D02*
X5963039Y-10538460D01*
X5963039Y-10538460D02*
X5982087Y-10547984D01*
X5982087Y-10547984D02*
X6001134Y-10547984D01*
X6220182Y-10414650D02*
X6220182Y-10614650D01*
X6220182Y-10424174D02*
X6239230Y-10414650D01*
X6239230Y-10414650D02*
X6277325Y-10414650D01*
X6277325Y-10414650D02*
X6296373Y-10424174D01*
X6296373Y-10424174D02*
X6305896Y-10433698D01*
X6305896Y-10433698D02*
X6315420Y-10452746D01*
X6315420Y-10452746D02*
X6315420Y-10509889D01*
X6315420Y-10509889D02*
X6305896Y-10528936D01*
X6305896Y-10528936D02*
X6296373Y-10538460D01*
X6296373Y-10538460D02*
X6277325Y-10547984D01*
X6277325Y-10547984D02*
X6239230Y-10547984D01*
X6239230Y-10547984D02*
X6220182Y-10538460D01*
X6429706Y-10547984D02*
X6410658Y-10538460D01*
X6410658Y-10538460D02*
X6401134Y-10519412D01*
X6401134Y-10519412D02*
X6401134Y-10347984D01*
X6591611Y-10547984D02*
X6591611Y-10443222D01*
X6591611Y-10443222D02*
X6582087Y-10424174D01*
X6582087Y-10424174D02*
X6563039Y-10414650D01*
X6563039Y-10414650D02*
X6524944Y-10414650D01*
X6524944Y-10414650D02*
X6505896Y-10424174D01*
X6591611Y-10538460D02*
X6572563Y-10547984D01*
X6572563Y-10547984D02*
X6524944Y-10547984D01*
X6524944Y-10547984D02*
X6505896Y-10538460D01*
X6505896Y-10538460D02*
X6496373Y-10519412D01*
X6496373Y-10519412D02*
X6496373Y-10500365D01*
X6496373Y-10500365D02*
X6505896Y-10481317D01*
X6505896Y-10481317D02*
X6524944Y-10471793D01*
X6524944Y-10471793D02*
X6572563Y-10471793D01*
X6572563Y-10471793D02*
X6591611Y-10462270D01*
X6658277Y-10414650D02*
X6734468Y-10414650D01*
X6686849Y-10347984D02*
X6686849Y-10519412D01*
X6686849Y-10519412D02*
X6696373Y-10538460D01*
X6696373Y-10538460D02*
X6715420Y-10547984D01*
X6715420Y-10547984D02*
X6734468Y-10547984D01*
X6877325Y-10538460D02*
X6858277Y-10547984D01*
X6858277Y-10547984D02*
X6820182Y-10547984D01*
X6820182Y-10547984D02*
X6801134Y-10538460D01*
X6801134Y-10538460D02*
X6791611Y-10519412D01*
X6791611Y-10519412D02*
X6791611Y-10443222D01*
X6791611Y-10443222D02*
X6801134Y-10424174D01*
X6801134Y-10424174D02*
X6820182Y-10414650D01*
X6820182Y-10414650D02*
X6858277Y-10414650D01*
X6858277Y-10414650D02*
X6877325Y-10424174D01*
X6877325Y-10424174D02*
X6886849Y-10443222D01*
X6886849Y-10443222D02*
X6886849Y-10462270D01*
X6886849Y-10462270D02*
X6791611Y-10481317D01*
X7058277Y-10547984D02*
X7058277Y-10347984D01*
X7058277Y-10538460D02*
X7039230Y-10547984D01*
X7039230Y-10547984D02*
X7001134Y-10547984D01*
X7001134Y-10547984D02*
X6982087Y-10538460D01*
X6982087Y-10538460D02*
X6972563Y-10528936D01*
X6972563Y-10528936D02*
X6963039Y-10509889D01*
X6963039Y-10509889D02*
X6963039Y-10452746D01*
X6963039Y-10452746D02*
X6972563Y-10433698D01*
X6972563Y-10433698D02*
X6982087Y-10424174D01*
X6982087Y-10424174D02*
X7001134Y-10414650D01*
X7001134Y-10414650D02*
X7039230Y-10414650D01*
X7039230Y-10414650D02*
X7058277Y-10424174D01*
X7134468Y-10624174D02*
X7143992Y-10614650D01*
X7143992Y-10614650D02*
X7163039Y-10586079D01*
X7163039Y-10586079D02*
X7172563Y-10567031D01*
X7172563Y-10567031D02*
X7182087Y-10538460D01*
X7182087Y-10538460D02*
X7191611Y-10490841D01*
X7191611Y-10490841D02*
X7191611Y-10452746D01*
X7191611Y-10452746D02*
X7182087Y-10405127D01*
X7182087Y-10405127D02*
X7172563Y-10376555D01*
X7172563Y-10376555D02*
X7163039Y-10357508D01*
X7163039Y-10357508D02*
X7143992Y-10328936D01*
X7143992Y-10328936D02*
X7134468Y-10319412D01*
X-102500Y-10646500D02*
X-102500Y-10846500D01*
X-202500Y-10746500D02*
X-2500Y-10746500D01*
X248753Y-10657031D02*
X258277Y-10647508D01*
X258277Y-10647508D02*
X277324Y-10637984D01*
X277324Y-10637984D02*
X324944Y-10637984D01*
X324944Y-10637984D02*
X343991Y-10647508D01*
X343991Y-10647508D02*
X353515Y-10657031D01*
X353515Y-10657031D02*
X363039Y-10676079D01*
X363039Y-10676079D02*
X363039Y-10695127D01*
X363039Y-10695127D02*
X353515Y-10723698D01*
X353515Y-10723698D02*
X239229Y-10837984D01*
X239229Y-10837984D02*
X363039Y-10837984D01*
X448753Y-10818936D02*
X458277Y-10828460D01*
X458277Y-10828460D02*
X448753Y-10837984D01*
X448753Y-10837984D02*
X439229Y-10828460D01*
X439229Y-10828460D02*
X448753Y-10818936D01*
X448753Y-10818936D02*
X448753Y-10837984D01*
X648753Y-10837984D02*
X534467Y-10837984D01*
X591610Y-10837984D02*
X591610Y-10637984D01*
X591610Y-10637984D02*
X572563Y-10666555D01*
X572563Y-10666555D02*
X553515Y-10685603D01*
X553515Y-10685603D02*
X534467Y-10695127D01*
X772562Y-10637984D02*
X791610Y-10637984D01*
X791610Y-10637984D02*
X810658Y-10647508D01*
X810658Y-10647508D02*
X820182Y-10657031D01*
X820182Y-10657031D02*
X829705Y-10676079D01*
X829705Y-10676079D02*
X839229Y-10714174D01*
X839229Y-10714174D02*
X839229Y-10761793D01*
X839229Y-10761793D02*
X829705Y-10799889D01*
X829705Y-10799889D02*
X820182Y-10818936D01*
X820182Y-10818936D02*
X810658Y-10828460D01*
X810658Y-10828460D02*
X791610Y-10837984D01*
X791610Y-10837984D02*
X772562Y-10837984D01*
X772562Y-10837984D02*
X753515Y-10828460D01*
X753515Y-10828460D02*
X743991Y-10818936D01*
X743991Y-10818936D02*
X734467Y-10799889D01*
X734467Y-10799889D02*
X724943Y-10761793D01*
X724943Y-10761793D02*
X724943Y-10714174D01*
X724943Y-10714174D02*
X734467Y-10676079D01*
X734467Y-10676079D02*
X743991Y-10657031D01*
X743991Y-10657031D02*
X753515Y-10647508D01*
X753515Y-10647508D02*
X772562Y-10637984D01*
X963039Y-10637984D02*
X982086Y-10637984D01*
X982086Y-10637984D02*
X1001134Y-10647508D01*
X1001134Y-10647508D02*
X1010658Y-10657031D01*
X1010658Y-10657031D02*
X1020182Y-10676079D01*
X1020182Y-10676079D02*
X1029705Y-10714174D01*
X1029705Y-10714174D02*
X1029705Y-10761793D01*
X1029705Y-10761793D02*
X1020182Y-10799889D01*
X1020182Y-10799889D02*
X1010658Y-10818936D01*
X1010658Y-10818936D02*
X1001134Y-10828460D01*
X1001134Y-10828460D02*
X982086Y-10837984D01*
X982086Y-10837984D02*
X963039Y-10837984D01*
X963039Y-10837984D02*
X943991Y-10828460D01*
X943991Y-10828460D02*
X934467Y-10818936D01*
X934467Y-10818936D02*
X924943Y-10799889D01*
X924943Y-10799889D02*
X915420Y-10761793D01*
X915420Y-10761793D02*
X915420Y-10714174D01*
X915420Y-10714174D02*
X924943Y-10676079D01*
X924943Y-10676079D02*
X934467Y-10657031D01*
X934467Y-10657031D02*
X943991Y-10647508D01*
X943991Y-10647508D02*
X963039Y-10637984D01*
X1115420Y-10837984D02*
X1115420Y-10704650D01*
X1115420Y-10723698D02*
X1124944Y-10714174D01*
X1124944Y-10714174D02*
X1143991Y-10704650D01*
X1143991Y-10704650D02*
X1172563Y-10704650D01*
X1172563Y-10704650D02*
X1191610Y-10714174D01*
X1191610Y-10714174D02*
X1201134Y-10733222D01*
X1201134Y-10733222D02*
X1201134Y-10837984D01*
X1201134Y-10733222D02*
X1210658Y-10714174D01*
X1210658Y-10714174D02*
X1229705Y-10704650D01*
X1229705Y-10704650D02*
X1258277Y-10704650D01*
X1258277Y-10704650D02*
X1277325Y-10714174D01*
X1277325Y-10714174D02*
X1286848Y-10733222D01*
X1286848Y-10733222D02*
X1286848Y-10837984D01*
X1382086Y-10837984D02*
X1382086Y-10704650D01*
X1382086Y-10723698D02*
X1391610Y-10714174D01*
X1391610Y-10714174D02*
X1410658Y-10704650D01*
X1410658Y-10704650D02*
X1439229Y-10704650D01*
X1439229Y-10704650D02*
X1458277Y-10714174D01*
X1458277Y-10714174D02*
X1467801Y-10733222D01*
X1467801Y-10733222D02*
X1467801Y-10837984D01*
X1467801Y-10733222D02*
X1477324Y-10714174D01*
X1477324Y-10714174D02*
X1496372Y-10704650D01*
X1496372Y-10704650D02*
X1524943Y-10704650D01*
X1524943Y-10704650D02*
X1543991Y-10714174D01*
X1543991Y-10714174D02*
X1553515Y-10733222D01*
X1553515Y-10733222D02*
X1553515Y-10837984D01*
X1943991Y-10628460D02*
X1772563Y-10885603D01*
X2201134Y-10637984D02*
X2220182Y-10637984D01*
X2220182Y-10637984D02*
X2239229Y-10647508D01*
X2239229Y-10647508D02*
X2248753Y-10657031D01*
X2248753Y-10657031D02*
X2258277Y-10676079D01*
X2258277Y-10676079D02*
X2267801Y-10714174D01*
X2267801Y-10714174D02*
X2267801Y-10761793D01*
X2267801Y-10761793D02*
X2258277Y-10799889D01*
X2258277Y-10799889D02*
X2248753Y-10818936D01*
X2248753Y-10818936D02*
X2239229Y-10828460D01*
X2239229Y-10828460D02*
X2220182Y-10837984D01*
X2220182Y-10837984D02*
X2201134Y-10837984D01*
X2201134Y-10837984D02*
X2182087Y-10828460D01*
X2182087Y-10828460D02*
X2172563Y-10818936D01*
X2172563Y-10818936D02*
X2163039Y-10799889D01*
X2163039Y-10799889D02*
X2153515Y-10761793D01*
X2153515Y-10761793D02*
X2153515Y-10714174D01*
X2153515Y-10714174D02*
X2163039Y-10676079D01*
X2163039Y-10676079D02*
X2172563Y-10657031D01*
X2172563Y-10657031D02*
X2182087Y-10647508D01*
X2182087Y-10647508D02*
X2201134Y-10637984D01*
X2353515Y-10818936D02*
X2363039Y-10828460D01*
X2363039Y-10828460D02*
X2353515Y-10837984D01*
X2353515Y-10837984D02*
X2343991Y-10828460D01*
X2343991Y-10828460D02*
X2353515Y-10818936D01*
X2353515Y-10818936D02*
X2353515Y-10837984D01*
X2486848Y-10637984D02*
X2505896Y-10637984D01*
X2505896Y-10637984D02*
X2524944Y-10647508D01*
X2524944Y-10647508D02*
X2534468Y-10657031D01*
X2534468Y-10657031D02*
X2543991Y-10676079D01*
X2543991Y-10676079D02*
X2553515Y-10714174D01*
X2553515Y-10714174D02*
X2553515Y-10761793D01*
X2553515Y-10761793D02*
X2543991Y-10799889D01*
X2543991Y-10799889D02*
X2534468Y-10818936D01*
X2534468Y-10818936D02*
X2524944Y-10828460D01*
X2524944Y-10828460D02*
X2505896Y-10837984D01*
X2505896Y-10837984D02*
X2486848Y-10837984D01*
X2486848Y-10837984D02*
X2467801Y-10828460D01*
X2467801Y-10828460D02*
X2458277Y-10818936D01*
X2458277Y-10818936D02*
X2448753Y-10799889D01*
X2448753Y-10799889D02*
X2439229Y-10761793D01*
X2439229Y-10761793D02*
X2439229Y-10714174D01*
X2439229Y-10714174D02*
X2448753Y-10676079D01*
X2448753Y-10676079D02*
X2458277Y-10657031D01*
X2458277Y-10657031D02*
X2467801Y-10647508D01*
X2467801Y-10647508D02*
X2486848Y-10637984D01*
X2667801Y-10723698D02*
X2648753Y-10714174D01*
X2648753Y-10714174D02*
X2639229Y-10704650D01*
X2639229Y-10704650D02*
X2629706Y-10685603D01*
X2629706Y-10685603D02*
X2629706Y-10676079D01*
X2629706Y-10676079D02*
X2639229Y-10657031D01*
X2639229Y-10657031D02*
X2648753Y-10647508D01*
X2648753Y-10647508D02*
X2667801Y-10637984D01*
X2667801Y-10637984D02*
X2705896Y-10637984D01*
X2705896Y-10637984D02*
X2724944Y-10647508D01*
X2724944Y-10647508D02*
X2734468Y-10657031D01*
X2734468Y-10657031D02*
X2743991Y-10676079D01*
X2743991Y-10676079D02*
X2743991Y-10685603D01*
X2743991Y-10685603D02*
X2734468Y-10704650D01*
X2734468Y-10704650D02*
X2724944Y-10714174D01*
X2724944Y-10714174D02*
X2705896Y-10723698D01*
X2705896Y-10723698D02*
X2667801Y-10723698D01*
X2667801Y-10723698D02*
X2648753Y-10733222D01*
X2648753Y-10733222D02*
X2639229Y-10742746D01*
X2639229Y-10742746D02*
X2629706Y-10761793D01*
X2629706Y-10761793D02*
X2629706Y-10799889D01*
X2629706Y-10799889D02*
X2639229Y-10818936D01*
X2639229Y-10818936D02*
X2648753Y-10828460D01*
X2648753Y-10828460D02*
X2667801Y-10837984D01*
X2667801Y-10837984D02*
X2705896Y-10837984D01*
X2705896Y-10837984D02*
X2724944Y-10828460D01*
X2724944Y-10828460D02*
X2734468Y-10818936D01*
X2734468Y-10818936D02*
X2743991Y-10799889D01*
X2743991Y-10799889D02*
X2743991Y-10761793D01*
X2743991Y-10761793D02*
X2734468Y-10742746D01*
X2734468Y-10742746D02*
X2724944Y-10733222D01*
X2724944Y-10733222D02*
X2705896Y-10723698D01*
X2820182Y-10657031D02*
X2829706Y-10647508D01*
X2829706Y-10647508D02*
X2848753Y-10637984D01*
X2848753Y-10637984D02*
X2896372Y-10637984D01*
X2896372Y-10637984D02*
X2915420Y-10647508D01*
X2915420Y-10647508D02*
X2924944Y-10657031D01*
X2924944Y-10657031D02*
X2934467Y-10676079D01*
X2934467Y-10676079D02*
X2934467Y-10695127D01*
X2934467Y-10695127D02*
X2924944Y-10723698D01*
X2924944Y-10723698D02*
X2810658Y-10837984D01*
X2810658Y-10837984D02*
X2934467Y-10837984D01*
X3001134Y-10637984D02*
X3134467Y-10637984D01*
X3134467Y-10637984D02*
X3048753Y-10837984D01*
X3201134Y-10637984D02*
X3201134Y-10676079D01*
X3277325Y-10637984D02*
X3277325Y-10676079D01*
X3572563Y-10914174D02*
X3563039Y-10904650D01*
X3563039Y-10904650D02*
X3543991Y-10876079D01*
X3543991Y-10876079D02*
X3534468Y-10857031D01*
X3534468Y-10857031D02*
X3524944Y-10828460D01*
X3524944Y-10828460D02*
X3515420Y-10780841D01*
X3515420Y-10780841D02*
X3515420Y-10742746D01*
X3515420Y-10742746D02*
X3524944Y-10695127D01*
X3524944Y-10695127D02*
X3534468Y-10666555D01*
X3534468Y-10666555D02*
X3543991Y-10647508D01*
X3543991Y-10647508D02*
X3563039Y-10618936D01*
X3563039Y-10618936D02*
X3572563Y-10609412D01*
X3753515Y-10837984D02*
X3639229Y-10837984D01*
X3696372Y-10837984D02*
X3696372Y-10637984D01*
X3696372Y-10637984D02*
X3677325Y-10666555D01*
X3677325Y-10666555D02*
X3658277Y-10685603D01*
X3658277Y-10685603D02*
X3639229Y-10695127D01*
X3877325Y-10637984D02*
X3896372Y-10637984D01*
X3896372Y-10637984D02*
X3915420Y-10647508D01*
X3915420Y-10647508D02*
X3924944Y-10657031D01*
X3924944Y-10657031D02*
X3934468Y-10676079D01*
X3934468Y-10676079D02*
X3943991Y-10714174D01*
X3943991Y-10714174D02*
X3943991Y-10761793D01*
X3943991Y-10761793D02*
X3934468Y-10799889D01*
X3934468Y-10799889D02*
X3924944Y-10818936D01*
X3924944Y-10818936D02*
X3915420Y-10828460D01*
X3915420Y-10828460D02*
X3896372Y-10837984D01*
X3896372Y-10837984D02*
X3877325Y-10837984D01*
X3877325Y-10837984D02*
X3858277Y-10828460D01*
X3858277Y-10828460D02*
X3848753Y-10818936D01*
X3848753Y-10818936D02*
X3839229Y-10799889D01*
X3839229Y-10799889D02*
X3829706Y-10761793D01*
X3829706Y-10761793D02*
X3829706Y-10714174D01*
X3829706Y-10714174D02*
X3839229Y-10676079D01*
X3839229Y-10676079D02*
X3848753Y-10657031D01*
X3848753Y-10657031D02*
X3858277Y-10647508D01*
X3858277Y-10647508D02*
X3877325Y-10637984D01*
X4182087Y-10837984D02*
X4182087Y-10637984D01*
X4267801Y-10837984D02*
X4267801Y-10733222D01*
X4267801Y-10733222D02*
X4258277Y-10714174D01*
X4258277Y-10714174D02*
X4239230Y-10704650D01*
X4239230Y-10704650D02*
X4210658Y-10704650D01*
X4210658Y-10704650D02*
X4191610Y-10714174D01*
X4191610Y-10714174D02*
X4182087Y-10723698D01*
X4391611Y-10837984D02*
X4372563Y-10828460D01*
X4372563Y-10828460D02*
X4363039Y-10818936D01*
X4363039Y-10818936D02*
X4353515Y-10799889D01*
X4353515Y-10799889D02*
X4353515Y-10742746D01*
X4353515Y-10742746D02*
X4363039Y-10723698D01*
X4363039Y-10723698D02*
X4372563Y-10714174D01*
X4372563Y-10714174D02*
X4391611Y-10704650D01*
X4391611Y-10704650D02*
X4420182Y-10704650D01*
X4420182Y-10704650D02*
X4439230Y-10714174D01*
X4439230Y-10714174D02*
X4448753Y-10723698D01*
X4448753Y-10723698D02*
X4458277Y-10742746D01*
X4458277Y-10742746D02*
X4458277Y-10799889D01*
X4458277Y-10799889D02*
X4448753Y-10818936D01*
X4448753Y-10818936D02*
X4439230Y-10828460D01*
X4439230Y-10828460D02*
X4420182Y-10837984D01*
X4420182Y-10837984D02*
X4391611Y-10837984D01*
X4572563Y-10837984D02*
X4553515Y-10828460D01*
X4553515Y-10828460D02*
X4543992Y-10809412D01*
X4543992Y-10809412D02*
X4543992Y-10637984D01*
X4724944Y-10828460D02*
X4705896Y-10837984D01*
X4705896Y-10837984D02*
X4667801Y-10837984D01*
X4667801Y-10837984D02*
X4648753Y-10828460D01*
X4648753Y-10828460D02*
X4639230Y-10809412D01*
X4639230Y-10809412D02*
X4639230Y-10733222D01*
X4639230Y-10733222D02*
X4648753Y-10714174D01*
X4648753Y-10714174D02*
X4667801Y-10704650D01*
X4667801Y-10704650D02*
X4705896Y-10704650D01*
X4705896Y-10704650D02*
X4724944Y-10714174D01*
X4724944Y-10714174D02*
X4734468Y-10733222D01*
X4734468Y-10733222D02*
X4734468Y-10752270D01*
X4734468Y-10752270D02*
X4639230Y-10771317D01*
X4810658Y-10828460D02*
X4829706Y-10837984D01*
X4829706Y-10837984D02*
X4867801Y-10837984D01*
X4867801Y-10837984D02*
X4886849Y-10828460D01*
X4886849Y-10828460D02*
X4896373Y-10809412D01*
X4896373Y-10809412D02*
X4896373Y-10799889D01*
X4896373Y-10799889D02*
X4886849Y-10780841D01*
X4886849Y-10780841D02*
X4867801Y-10771317D01*
X4867801Y-10771317D02*
X4839230Y-10771317D01*
X4839230Y-10771317D02*
X4820182Y-10761793D01*
X4820182Y-10761793D02*
X4810658Y-10742746D01*
X4810658Y-10742746D02*
X4810658Y-10733222D01*
X4810658Y-10733222D02*
X4820182Y-10714174D01*
X4820182Y-10714174D02*
X4839230Y-10704650D01*
X4839230Y-10704650D02*
X4867801Y-10704650D01*
X4867801Y-10704650D02*
X4886849Y-10714174D01*
X4963039Y-10914174D02*
X4972563Y-10904650D01*
X4972563Y-10904650D02*
X4991611Y-10876079D01*
X4991611Y-10876079D02*
X5001134Y-10857031D01*
X5001134Y-10857031D02*
X5010658Y-10828460D01*
X5010658Y-10828460D02*
X5020182Y-10780841D01*
X5020182Y-10780841D02*
X5020182Y-10742746D01*
X5020182Y-10742746D02*
X5010658Y-10695127D01*
X5010658Y-10695127D02*
X5001134Y-10666555D01*
X5001134Y-10666555D02*
X4991611Y-10647508D01*
X4991611Y-10647508D02*
X4972563Y-10618936D01*
X4972563Y-10618936D02*
X4963039Y-10609412D01*
X5324944Y-10914174D02*
X5315420Y-10904650D01*
X5315420Y-10904650D02*
X5296373Y-10876079D01*
X5296373Y-10876079D02*
X5286849Y-10857031D01*
X5286849Y-10857031D02*
X5277325Y-10828460D01*
X5277325Y-10828460D02*
X5267801Y-10780841D01*
X5267801Y-10780841D02*
X5267801Y-10742746D01*
X5267801Y-10742746D02*
X5277325Y-10695127D01*
X5277325Y-10695127D02*
X5286849Y-10666555D01*
X5286849Y-10666555D02*
X5296373Y-10647508D01*
X5296373Y-10647508D02*
X5315420Y-10618936D01*
X5315420Y-10618936D02*
X5324944Y-10609412D01*
X5401134Y-10704650D02*
X5401134Y-10837984D01*
X5401134Y-10723698D02*
X5410658Y-10714174D01*
X5410658Y-10714174D02*
X5429706Y-10704650D01*
X5429706Y-10704650D02*
X5458277Y-10704650D01*
X5458277Y-10704650D02*
X5477325Y-10714174D01*
X5477325Y-10714174D02*
X5486849Y-10733222D01*
X5486849Y-10733222D02*
X5486849Y-10837984D01*
X5610658Y-10837984D02*
X5591611Y-10828460D01*
X5591611Y-10828460D02*
X5582087Y-10818936D01*
X5582087Y-10818936D02*
X5572563Y-10799889D01*
X5572563Y-10799889D02*
X5572563Y-10742746D01*
X5572563Y-10742746D02*
X5582087Y-10723698D01*
X5582087Y-10723698D02*
X5591611Y-10714174D01*
X5591611Y-10714174D02*
X5610658Y-10704650D01*
X5610658Y-10704650D02*
X5639230Y-10704650D01*
X5639230Y-10704650D02*
X5658277Y-10714174D01*
X5658277Y-10714174D02*
X5667801Y-10723698D01*
X5667801Y-10723698D02*
X5677325Y-10742746D01*
X5677325Y-10742746D02*
X5677325Y-10799889D01*
X5677325Y-10799889D02*
X5667801Y-10818936D01*
X5667801Y-10818936D02*
X5658277Y-10828460D01*
X5658277Y-10828460D02*
X5639230Y-10837984D01*
X5639230Y-10837984D02*
X5610658Y-10837984D01*
X5734468Y-10704650D02*
X5810658Y-10704650D01*
X5763039Y-10637984D02*
X5763039Y-10809412D01*
X5763039Y-10809412D02*
X5772563Y-10828460D01*
X5772563Y-10828460D02*
X5791611Y-10837984D01*
X5791611Y-10837984D02*
X5810658Y-10837984D01*
X6029706Y-10704650D02*
X6029706Y-10904650D01*
X6029706Y-10714174D02*
X6048753Y-10704650D01*
X6048753Y-10704650D02*
X6086849Y-10704650D01*
X6086849Y-10704650D02*
X6105896Y-10714174D01*
X6105896Y-10714174D02*
X6115420Y-10723698D01*
X6115420Y-10723698D02*
X6124944Y-10742746D01*
X6124944Y-10742746D02*
X6124944Y-10799889D01*
X6124944Y-10799889D02*
X6115420Y-10818936D01*
X6115420Y-10818936D02*
X6105896Y-10828460D01*
X6105896Y-10828460D02*
X6086849Y-10837984D01*
X6086849Y-10837984D02*
X6048753Y-10837984D01*
X6048753Y-10837984D02*
X6029706Y-10828460D01*
X6239230Y-10837984D02*
X6220182Y-10828460D01*
X6220182Y-10828460D02*
X6210658Y-10809412D01*
X6210658Y-10809412D02*
X6210658Y-10637984D01*
X6401134Y-10837984D02*
X6401134Y-10733222D01*
X6401134Y-10733222D02*
X6391611Y-10714174D01*
X6391611Y-10714174D02*
X6372563Y-10704650D01*
X6372563Y-10704650D02*
X6334468Y-10704650D01*
X6334468Y-10704650D02*
X6315420Y-10714174D01*
X6401134Y-10828460D02*
X6382087Y-10837984D01*
X6382087Y-10837984D02*
X6334468Y-10837984D01*
X6334468Y-10837984D02*
X6315420Y-10828460D01*
X6315420Y-10828460D02*
X6305896Y-10809412D01*
X6305896Y-10809412D02*
X6305896Y-10790365D01*
X6305896Y-10790365D02*
X6315420Y-10771317D01*
X6315420Y-10771317D02*
X6334468Y-10761793D01*
X6334468Y-10761793D02*
X6382087Y-10761793D01*
X6382087Y-10761793D02*
X6401134Y-10752270D01*
X6467801Y-10704650D02*
X6543992Y-10704650D01*
X6496373Y-10637984D02*
X6496373Y-10809412D01*
X6496373Y-10809412D02*
X6505896Y-10828460D01*
X6505896Y-10828460D02*
X6524944Y-10837984D01*
X6524944Y-10837984D02*
X6543992Y-10837984D01*
X6686849Y-10828460D02*
X6667801Y-10837984D01*
X6667801Y-10837984D02*
X6629706Y-10837984D01*
X6629706Y-10837984D02*
X6610658Y-10828460D01*
X6610658Y-10828460D02*
X6601134Y-10809412D01*
X6601134Y-10809412D02*
X6601134Y-10733222D01*
X6601134Y-10733222D02*
X6610658Y-10714174D01*
X6610658Y-10714174D02*
X6629706Y-10704650D01*
X6629706Y-10704650D02*
X6667801Y-10704650D01*
X6667801Y-10704650D02*
X6686849Y-10714174D01*
X6686849Y-10714174D02*
X6696373Y-10733222D01*
X6696373Y-10733222D02*
X6696373Y-10752270D01*
X6696373Y-10752270D02*
X6601134Y-10771317D01*
X6867801Y-10837984D02*
X6867801Y-10637984D01*
X6867801Y-10828460D02*
X6848754Y-10837984D01*
X6848754Y-10837984D02*
X6810658Y-10837984D01*
X6810658Y-10837984D02*
X6791611Y-10828460D01*
X6791611Y-10828460D02*
X6782087Y-10818936D01*
X6782087Y-10818936D02*
X6772563Y-10799889D01*
X6772563Y-10799889D02*
X6772563Y-10742746D01*
X6772563Y-10742746D02*
X6782087Y-10723698D01*
X6782087Y-10723698D02*
X6791611Y-10714174D01*
X6791611Y-10714174D02*
X6810658Y-10704650D01*
X6810658Y-10704650D02*
X6848754Y-10704650D01*
X6848754Y-10704650D02*
X6867801Y-10714174D01*
X6943992Y-10914174D02*
X6953515Y-10904650D01*
X6953515Y-10904650D02*
X6972563Y-10876079D01*
X6972563Y-10876079D02*
X6982087Y-10857031D01*
X6982087Y-10857031D02*
X6991611Y-10828460D01*
X6991611Y-10828460D02*
X7001134Y-10780841D01*
X7001134Y-10780841D02*
X7001134Y-10742746D01*
X7001134Y-10742746D02*
X6991611Y-10695127D01*
X6991611Y-10695127D02*
X6982087Y-10666555D01*
X6982087Y-10666555D02*
X6972563Y-10647508D01*
X6972563Y-10647508D02*
X6953515Y-10618936D01*
X6953515Y-10618936D02*
X6943992Y-10609412D01*
X-31789Y-11137211D02*
X-31789Y-10995789D01*
X-173211Y-10995789D01*
X-173211Y-11137211D01*
X-31789Y-11137211D01*
X239229Y-10957984D02*
X363039Y-10957984D01*
X363039Y-10957984D02*
X296372Y-11034174D01*
X296372Y-11034174D02*
X324944Y-11034174D01*
X324944Y-11034174D02*
X343991Y-11043698D01*
X343991Y-11043698D02*
X353515Y-11053222D01*
X353515Y-11053222D02*
X363039Y-11072270D01*
X363039Y-11072270D02*
X363039Y-11119889D01*
X363039Y-11119889D02*
X353515Y-11138936D01*
X353515Y-11138936D02*
X343991Y-11148460D01*
X343991Y-11148460D02*
X324944Y-11157984D01*
X324944Y-11157984D02*
X267801Y-11157984D01*
X267801Y-11157984D02*
X248753Y-11148460D01*
X248753Y-11148460D02*
X239229Y-11138936D01*
X448753Y-11138936D02*
X458277Y-11148460D01*
X458277Y-11148460D02*
X448753Y-11157984D01*
X448753Y-11157984D02*
X439229Y-11148460D01*
X439229Y-11148460D02*
X448753Y-11138936D01*
X448753Y-11138936D02*
X448753Y-11157984D01*
X582086Y-10957984D02*
X601134Y-10957984D01*
X601134Y-10957984D02*
X620182Y-10967508D01*
X620182Y-10967508D02*
X629705Y-10977031D01*
X629705Y-10977031D02*
X639229Y-10996079D01*
X639229Y-10996079D02*
X648753Y-11034174D01*
X648753Y-11034174D02*
X648753Y-11081793D01*
X648753Y-11081793D02*
X639229Y-11119889D01*
X639229Y-11119889D02*
X629705Y-11138936D01*
X629705Y-11138936D02*
X620182Y-11148460D01*
X620182Y-11148460D02*
X601134Y-11157984D01*
X601134Y-11157984D02*
X582086Y-11157984D01*
X582086Y-11157984D02*
X563039Y-11148460D01*
X563039Y-11148460D02*
X553515Y-11138936D01*
X553515Y-11138936D02*
X543991Y-11119889D01*
X543991Y-11119889D02*
X534467Y-11081793D01*
X534467Y-11081793D02*
X534467Y-11034174D01*
X534467Y-11034174D02*
X543991Y-10996079D01*
X543991Y-10996079D02*
X553515Y-10977031D01*
X553515Y-10977031D02*
X563039Y-10967508D01*
X563039Y-10967508D02*
X582086Y-10957984D01*
X829705Y-10957984D02*
X734467Y-10957984D01*
X734467Y-10957984D02*
X724943Y-11053222D01*
X724943Y-11053222D02*
X734467Y-11043698D01*
X734467Y-11043698D02*
X753515Y-11034174D01*
X753515Y-11034174D02*
X801134Y-11034174D01*
X801134Y-11034174D02*
X820182Y-11043698D01*
X820182Y-11043698D02*
X829705Y-11053222D01*
X829705Y-11053222D02*
X839229Y-11072270D01*
X839229Y-11072270D02*
X839229Y-11119889D01*
X839229Y-11119889D02*
X829705Y-11138936D01*
X829705Y-11138936D02*
X820182Y-11148460D01*
X820182Y-11148460D02*
X801134Y-11157984D01*
X801134Y-11157984D02*
X753515Y-11157984D01*
X753515Y-11157984D02*
X734467Y-11148460D01*
X734467Y-11148460D02*
X724943Y-11138936D01*
X963039Y-10957984D02*
X982086Y-10957984D01*
X982086Y-10957984D02*
X1001134Y-10967508D01*
X1001134Y-10967508D02*
X1010658Y-10977031D01*
X1010658Y-10977031D02*
X1020182Y-10996079D01*
X1020182Y-10996079D02*
X1029705Y-11034174D01*
X1029705Y-11034174D02*
X1029705Y-11081793D01*
X1029705Y-11081793D02*
X1020182Y-11119889D01*
X1020182Y-11119889D02*
X1010658Y-11138936D01*
X1010658Y-11138936D02*
X1001134Y-11148460D01*
X1001134Y-11148460D02*
X982086Y-11157984D01*
X982086Y-11157984D02*
X963039Y-11157984D01*
X963039Y-11157984D02*
X943991Y-11148460D01*
X943991Y-11148460D02*
X934467Y-11138936D01*
X934467Y-11138936D02*
X924943Y-11119889D01*
X924943Y-11119889D02*
X915420Y-11081793D01*
X915420Y-11081793D02*
X915420Y-11034174D01*
X915420Y-11034174D02*
X924943Y-10996079D01*
X924943Y-10996079D02*
X934467Y-10977031D01*
X934467Y-10977031D02*
X943991Y-10967508D01*
X943991Y-10967508D02*
X963039Y-10957984D01*
X1115420Y-11157984D02*
X1115420Y-11024650D01*
X1115420Y-11043698D02*
X1124944Y-11034174D01*
X1124944Y-11034174D02*
X1143991Y-11024650D01*
X1143991Y-11024650D02*
X1172563Y-11024650D01*
X1172563Y-11024650D02*
X1191610Y-11034174D01*
X1191610Y-11034174D02*
X1201134Y-11053222D01*
X1201134Y-11053222D02*
X1201134Y-11157984D01*
X1201134Y-11053222D02*
X1210658Y-11034174D01*
X1210658Y-11034174D02*
X1229705Y-11024650D01*
X1229705Y-11024650D02*
X1258277Y-11024650D01*
X1258277Y-11024650D02*
X1277325Y-11034174D01*
X1277325Y-11034174D02*
X1286848Y-11053222D01*
X1286848Y-11053222D02*
X1286848Y-11157984D01*
X1382086Y-11157984D02*
X1382086Y-11024650D01*
X1382086Y-11043698D02*
X1391610Y-11034174D01*
X1391610Y-11034174D02*
X1410658Y-11024650D01*
X1410658Y-11024650D02*
X1439229Y-11024650D01*
X1439229Y-11024650D02*
X1458277Y-11034174D01*
X1458277Y-11034174D02*
X1467801Y-11053222D01*
X1467801Y-11053222D02*
X1467801Y-11157984D01*
X1467801Y-11053222D02*
X1477324Y-11034174D01*
X1477324Y-11034174D02*
X1496372Y-11024650D01*
X1496372Y-11024650D02*
X1524943Y-11024650D01*
X1524943Y-11024650D02*
X1543991Y-11034174D01*
X1543991Y-11034174D02*
X1553515Y-11053222D01*
X1553515Y-11053222D02*
X1553515Y-11157984D01*
X1943991Y-10948460D02*
X1772563Y-11205603D01*
X2201134Y-10957984D02*
X2220182Y-10957984D01*
X2220182Y-10957984D02*
X2239229Y-10967508D01*
X2239229Y-10967508D02*
X2248753Y-10977031D01*
X2248753Y-10977031D02*
X2258277Y-10996079D01*
X2258277Y-10996079D02*
X2267801Y-11034174D01*
X2267801Y-11034174D02*
X2267801Y-11081793D01*
X2267801Y-11081793D02*
X2258277Y-11119889D01*
X2258277Y-11119889D02*
X2248753Y-11138936D01*
X2248753Y-11138936D02*
X2239229Y-11148460D01*
X2239229Y-11148460D02*
X2220182Y-11157984D01*
X2220182Y-11157984D02*
X2201134Y-11157984D01*
X2201134Y-11157984D02*
X2182087Y-11148460D01*
X2182087Y-11148460D02*
X2172563Y-11138936D01*
X2172563Y-11138936D02*
X2163039Y-11119889D01*
X2163039Y-11119889D02*
X2153515Y-11081793D01*
X2153515Y-11081793D02*
X2153515Y-11034174D01*
X2153515Y-11034174D02*
X2163039Y-10996079D01*
X2163039Y-10996079D02*
X2172563Y-10977031D01*
X2172563Y-10977031D02*
X2182087Y-10967508D01*
X2182087Y-10967508D02*
X2201134Y-10957984D01*
X2353515Y-11138936D02*
X2363039Y-11148460D01*
X2363039Y-11148460D02*
X2353515Y-11157984D01*
X2353515Y-11157984D02*
X2343991Y-11148460D01*
X2343991Y-11148460D02*
X2353515Y-11138936D01*
X2353515Y-11138936D02*
X2353515Y-11157984D01*
X2553515Y-11157984D02*
X2439229Y-11157984D01*
X2496372Y-11157984D02*
X2496372Y-10957984D01*
X2496372Y-10957984D02*
X2477325Y-10986555D01*
X2477325Y-10986555D02*
X2458277Y-11005603D01*
X2458277Y-11005603D02*
X2439229Y-11015127D01*
X2629706Y-10977031D02*
X2639229Y-10967508D01*
X2639229Y-10967508D02*
X2658277Y-10957984D01*
X2658277Y-10957984D02*
X2705896Y-10957984D01*
X2705896Y-10957984D02*
X2724944Y-10967508D01*
X2724944Y-10967508D02*
X2734468Y-10977031D01*
X2734468Y-10977031D02*
X2743991Y-10996079D01*
X2743991Y-10996079D02*
X2743991Y-11015127D01*
X2743991Y-11015127D02*
X2734468Y-11043698D01*
X2734468Y-11043698D02*
X2620182Y-11157984D01*
X2620182Y-11157984D02*
X2743991Y-11157984D01*
X2867801Y-10957984D02*
X2886848Y-10957984D01*
X2886848Y-10957984D02*
X2905896Y-10967508D01*
X2905896Y-10967508D02*
X2915420Y-10977031D01*
X2915420Y-10977031D02*
X2924944Y-10996079D01*
X2924944Y-10996079D02*
X2934467Y-11034174D01*
X2934467Y-11034174D02*
X2934467Y-11081793D01*
X2934467Y-11081793D02*
X2924944Y-11119889D01*
X2924944Y-11119889D02*
X2915420Y-11138936D01*
X2915420Y-11138936D02*
X2905896Y-11148460D01*
X2905896Y-11148460D02*
X2886848Y-11157984D01*
X2886848Y-11157984D02*
X2867801Y-11157984D01*
X2867801Y-11157984D02*
X2848753Y-11148460D01*
X2848753Y-11148460D02*
X2839229Y-11138936D01*
X2839229Y-11138936D02*
X2829706Y-11119889D01*
X2829706Y-11119889D02*
X2820182Y-11081793D01*
X2820182Y-11081793D02*
X2820182Y-11034174D01*
X2820182Y-11034174D02*
X2829706Y-10996079D01*
X2829706Y-10996079D02*
X2839229Y-10977031D01*
X2839229Y-10977031D02*
X2848753Y-10967508D01*
X2848753Y-10967508D02*
X2867801Y-10957984D01*
X3124944Y-11157984D02*
X3010658Y-11157984D01*
X3067801Y-11157984D02*
X3067801Y-10957984D01*
X3067801Y-10957984D02*
X3048753Y-10986555D01*
X3048753Y-10986555D02*
X3029706Y-11005603D01*
X3029706Y-11005603D02*
X3010658Y-11015127D01*
X3201134Y-10957984D02*
X3201134Y-10996079D01*
X3277325Y-10957984D02*
X3277325Y-10996079D01*
X3572563Y-11234174D02*
X3563039Y-11224650D01*
X3563039Y-11224650D02*
X3543991Y-11196079D01*
X3543991Y-11196079D02*
X3534468Y-11177031D01*
X3534468Y-11177031D02*
X3524944Y-11148460D01*
X3524944Y-11148460D02*
X3515420Y-11100841D01*
X3515420Y-11100841D02*
X3515420Y-11062746D01*
X3515420Y-11062746D02*
X3524944Y-11015127D01*
X3524944Y-11015127D02*
X3534468Y-10986555D01*
X3534468Y-10986555D02*
X3543991Y-10967508D01*
X3543991Y-10967508D02*
X3563039Y-10938936D01*
X3563039Y-10938936D02*
X3572563Y-10929412D01*
X3734468Y-10957984D02*
X3696372Y-10957984D01*
X3696372Y-10957984D02*
X3677325Y-10967508D01*
X3677325Y-10967508D02*
X3667801Y-10977031D01*
X3667801Y-10977031D02*
X3648753Y-11005603D01*
X3648753Y-11005603D02*
X3639229Y-11043698D01*
X3639229Y-11043698D02*
X3639229Y-11119889D01*
X3639229Y-11119889D02*
X3648753Y-11138936D01*
X3648753Y-11138936D02*
X3658277Y-11148460D01*
X3658277Y-11148460D02*
X3677325Y-11157984D01*
X3677325Y-11157984D02*
X3715420Y-11157984D01*
X3715420Y-11157984D02*
X3734468Y-11148460D01*
X3734468Y-11148460D02*
X3743991Y-11138936D01*
X3743991Y-11138936D02*
X3753515Y-11119889D01*
X3753515Y-11119889D02*
X3753515Y-11072270D01*
X3753515Y-11072270D02*
X3743991Y-11053222D01*
X3743991Y-11053222D02*
X3734468Y-11043698D01*
X3734468Y-11043698D02*
X3715420Y-11034174D01*
X3715420Y-11034174D02*
X3677325Y-11034174D01*
X3677325Y-11034174D02*
X3658277Y-11043698D01*
X3658277Y-11043698D02*
X3648753Y-11053222D01*
X3648753Y-11053222D02*
X3639229Y-11072270D01*
X3991610Y-11157984D02*
X3991610Y-10957984D01*
X4077325Y-11157984D02*
X4077325Y-11053222D01*
X4077325Y-11053222D02*
X4067801Y-11034174D01*
X4067801Y-11034174D02*
X4048753Y-11024650D01*
X4048753Y-11024650D02*
X4020182Y-11024650D01*
X4020182Y-11024650D02*
X4001134Y-11034174D01*
X4001134Y-11034174D02*
X3991610Y-11043698D01*
X4201134Y-11157984D02*
X4182087Y-11148460D01*
X4182087Y-11148460D02*
X4172563Y-11138936D01*
X4172563Y-11138936D02*
X4163039Y-11119889D01*
X4163039Y-11119889D02*
X4163039Y-11062746D01*
X4163039Y-11062746D02*
X4172563Y-11043698D01*
X4172563Y-11043698D02*
X4182087Y-11034174D01*
X4182087Y-11034174D02*
X4201134Y-11024650D01*
X4201134Y-11024650D02*
X4229706Y-11024650D01*
X4229706Y-11024650D02*
X4248753Y-11034174D01*
X4248753Y-11034174D02*
X4258277Y-11043698D01*
X4258277Y-11043698D02*
X4267801Y-11062746D01*
X4267801Y-11062746D02*
X4267801Y-11119889D01*
X4267801Y-11119889D02*
X4258277Y-11138936D01*
X4258277Y-11138936D02*
X4248753Y-11148460D01*
X4248753Y-11148460D02*
X4229706Y-11157984D01*
X4229706Y-11157984D02*
X4201134Y-11157984D01*
X4382087Y-11157984D02*
X4363039Y-11148460D01*
X4363039Y-11148460D02*
X4353515Y-11129412D01*
X4353515Y-11129412D02*
X4353515Y-10957984D01*
X4534468Y-11148460D02*
X4515420Y-11157984D01*
X4515420Y-11157984D02*
X4477325Y-11157984D01*
X4477325Y-11157984D02*
X4458277Y-11148460D01*
X4458277Y-11148460D02*
X4448753Y-11129412D01*
X4448753Y-11129412D02*
X4448753Y-11053222D01*
X4448753Y-11053222D02*
X4458277Y-11034174D01*
X4458277Y-11034174D02*
X4477325Y-11024650D01*
X4477325Y-11024650D02*
X4515420Y-11024650D01*
X4515420Y-11024650D02*
X4534468Y-11034174D01*
X4534468Y-11034174D02*
X4543992Y-11053222D01*
X4543992Y-11053222D02*
X4543992Y-11072270D01*
X4543992Y-11072270D02*
X4448753Y-11091317D01*
X4620182Y-11148460D02*
X4639230Y-11157984D01*
X4639230Y-11157984D02*
X4677325Y-11157984D01*
X4677325Y-11157984D02*
X4696373Y-11148460D01*
X4696373Y-11148460D02*
X4705896Y-11129412D01*
X4705896Y-11129412D02*
X4705896Y-11119889D01*
X4705896Y-11119889D02*
X4696373Y-11100841D01*
X4696373Y-11100841D02*
X4677325Y-11091317D01*
X4677325Y-11091317D02*
X4648753Y-11091317D01*
X4648753Y-11091317D02*
X4629706Y-11081793D01*
X4629706Y-11081793D02*
X4620182Y-11062746D01*
X4620182Y-11062746D02*
X4620182Y-11053222D01*
X4620182Y-11053222D02*
X4629706Y-11034174D01*
X4629706Y-11034174D02*
X4648753Y-11024650D01*
X4648753Y-11024650D02*
X4677325Y-11024650D01*
X4677325Y-11024650D02*
X4696373Y-11034174D01*
X4772563Y-11234174D02*
X4782087Y-11224650D01*
X4782087Y-11224650D02*
X4801134Y-11196079D01*
X4801134Y-11196079D02*
X4810658Y-11177031D01*
X4810658Y-11177031D02*
X4820182Y-11148460D01*
X4820182Y-11148460D02*
X4829706Y-11100841D01*
X4829706Y-11100841D02*
X4829706Y-11062746D01*
X4829706Y-11062746D02*
X4820182Y-11015127D01*
X4820182Y-11015127D02*
X4810658Y-10986555D01*
X4810658Y-10986555D02*
X4801134Y-10967508D01*
X4801134Y-10967508D02*
X4782087Y-10938936D01*
X4782087Y-10938936D02*
X4772563Y-10929412D01*
X5134468Y-11234174D02*
X5124944Y-11224650D01*
X5124944Y-11224650D02*
X5105896Y-11196079D01*
X5105896Y-11196079D02*
X5096373Y-11177031D01*
X5096373Y-11177031D02*
X5086849Y-11148460D01*
X5086849Y-11148460D02*
X5077325Y-11100841D01*
X5077325Y-11100841D02*
X5077325Y-11062746D01*
X5077325Y-11062746D02*
X5086849Y-11015127D01*
X5086849Y-11015127D02*
X5096373Y-10986555D01*
X5096373Y-10986555D02*
X5105896Y-10967508D01*
X5105896Y-10967508D02*
X5124944Y-10938936D01*
X5124944Y-10938936D02*
X5134468Y-10929412D01*
X5210658Y-11024650D02*
X5210658Y-11157984D01*
X5210658Y-11043698D02*
X5220182Y-11034174D01*
X5220182Y-11034174D02*
X5239230Y-11024650D01*
X5239230Y-11024650D02*
X5267801Y-11024650D01*
X5267801Y-11024650D02*
X5286849Y-11034174D01*
X5286849Y-11034174D02*
X5296373Y-11053222D01*
X5296373Y-11053222D02*
X5296373Y-11157984D01*
X5420182Y-11157984D02*
X5401134Y-11148460D01*
X5401134Y-11148460D02*
X5391611Y-11138936D01*
X5391611Y-11138936D02*
X5382087Y-11119889D01*
X5382087Y-11119889D02*
X5382087Y-11062746D01*
X5382087Y-11062746D02*
X5391611Y-11043698D01*
X5391611Y-11043698D02*
X5401134Y-11034174D01*
X5401134Y-11034174D02*
X5420182Y-11024650D01*
X5420182Y-11024650D02*
X5448754Y-11024650D01*
X5448754Y-11024650D02*
X5467801Y-11034174D01*
X5467801Y-11034174D02*
X5477325Y-11043698D01*
X5477325Y-11043698D02*
X5486849Y-11062746D01*
X5486849Y-11062746D02*
X5486849Y-11119889D01*
X5486849Y-11119889D02*
X5477325Y-11138936D01*
X5477325Y-11138936D02*
X5467801Y-11148460D01*
X5467801Y-11148460D02*
X5448754Y-11157984D01*
X5448754Y-11157984D02*
X5420182Y-11157984D01*
X5543992Y-11024650D02*
X5620182Y-11024650D01*
X5572563Y-10957984D02*
X5572563Y-11129412D01*
X5572563Y-11129412D02*
X5582087Y-11148460D01*
X5582087Y-11148460D02*
X5601134Y-11157984D01*
X5601134Y-11157984D02*
X5620182Y-11157984D01*
X5839230Y-11024650D02*
X5839230Y-11224650D01*
X5839230Y-11034174D02*
X5858277Y-11024650D01*
X5858277Y-11024650D02*
X5896373Y-11024650D01*
X5896373Y-11024650D02*
X5915420Y-11034174D01*
X5915420Y-11034174D02*
X5924944Y-11043698D01*
X5924944Y-11043698D02*
X5934468Y-11062746D01*
X5934468Y-11062746D02*
X5934468Y-11119889D01*
X5934468Y-11119889D02*
X5924944Y-11138936D01*
X5924944Y-11138936D02*
X5915420Y-11148460D01*
X5915420Y-11148460D02*
X5896373Y-11157984D01*
X5896373Y-11157984D02*
X5858277Y-11157984D01*
X5858277Y-11157984D02*
X5839230Y-11148460D01*
X6048753Y-11157984D02*
X6029706Y-11148460D01*
X6029706Y-11148460D02*
X6020182Y-11129412D01*
X6020182Y-11129412D02*
X6020182Y-10957984D01*
X6210658Y-11157984D02*
X6210658Y-11053222D01*
X6210658Y-11053222D02*
X6201134Y-11034174D01*
X6201134Y-11034174D02*
X6182087Y-11024650D01*
X6182087Y-11024650D02*
X6143992Y-11024650D01*
X6143992Y-11024650D02*
X6124944Y-11034174D01*
X6210658Y-11148460D02*
X6191611Y-11157984D01*
X6191611Y-11157984D02*
X6143992Y-11157984D01*
X6143992Y-11157984D02*
X6124944Y-11148460D01*
X6124944Y-11148460D02*
X6115420Y-11129412D01*
X6115420Y-11129412D02*
X6115420Y-11110365D01*
X6115420Y-11110365D02*
X6124944Y-11091317D01*
X6124944Y-11091317D02*
X6143992Y-11081793D01*
X6143992Y-11081793D02*
X6191611Y-11081793D01*
X6191611Y-11081793D02*
X6210658Y-11072270D01*
X6277325Y-11024650D02*
X6353515Y-11024650D01*
X6305896Y-10957984D02*
X6305896Y-11129412D01*
X6305896Y-11129412D02*
X6315420Y-11148460D01*
X6315420Y-11148460D02*
X6334468Y-11157984D01*
X6334468Y-11157984D02*
X6353515Y-11157984D01*
X6496373Y-11148460D02*
X6477325Y-11157984D01*
X6477325Y-11157984D02*
X6439230Y-11157984D01*
X6439230Y-11157984D02*
X6420182Y-11148460D01*
X6420182Y-11148460D02*
X6410658Y-11129412D01*
X6410658Y-11129412D02*
X6410658Y-11053222D01*
X6410658Y-11053222D02*
X6420182Y-11034174D01*
X6420182Y-11034174D02*
X6439230Y-11024650D01*
X6439230Y-11024650D02*
X6477325Y-11024650D01*
X6477325Y-11024650D02*
X6496373Y-11034174D01*
X6496373Y-11034174D02*
X6505896Y-11053222D01*
X6505896Y-11053222D02*
X6505896Y-11072270D01*
X6505896Y-11072270D02*
X6410658Y-11091317D01*
X6677325Y-11157984D02*
X6677325Y-10957984D01*
X6677325Y-11148460D02*
X6658277Y-11157984D01*
X6658277Y-11157984D02*
X6620182Y-11157984D01*
X6620182Y-11157984D02*
X6601134Y-11148460D01*
X6601134Y-11148460D02*
X6591611Y-11138936D01*
X6591611Y-11138936D02*
X6582087Y-11119889D01*
X6582087Y-11119889D02*
X6582087Y-11062746D01*
X6582087Y-11062746D02*
X6591611Y-11043698D01*
X6591611Y-11043698D02*
X6601134Y-11034174D01*
X6601134Y-11034174D02*
X6620182Y-11024650D01*
X6620182Y-11024650D02*
X6658277Y-11024650D01*
X6658277Y-11024650D02*
X6677325Y-11034174D01*
X6753515Y-11234174D02*
X6763039Y-11224650D01*
X6763039Y-11224650D02*
X6782087Y-11196079D01*
X6782087Y-11196079D02*
X6791611Y-11177031D01*
X6791611Y-11177031D02*
X6801134Y-11148460D01*
X6801134Y-11148460D02*
X6810658Y-11100841D01*
X6810658Y-11100841D02*
X6810658Y-11062746D01*
X6810658Y-11062746D02*
X6801134Y-11015127D01*
X6801134Y-11015127D02*
X6791611Y-10986555D01*
X6791611Y-10986555D02*
X6782087Y-10967508D01*
X6782087Y-10967508D02*
X6763039Y-10938936D01*
X6763039Y-10938936D02*
X6753515Y-10929412D01*
X-102500Y-11486500D02*
X-2500Y-11386500D01*
X-102500Y-11286500D01*
X-202500Y-11386500D01*
X-102500Y-11486500D01*
X343991Y-11344650D02*
X343991Y-11477984D01*
X296372Y-11268460D02*
X248753Y-11411317D01*
X248753Y-11411317D02*
X372562Y-11411317D01*
X448753Y-11458936D02*
X458277Y-11468460D01*
X458277Y-11468460D02*
X448753Y-11477984D01*
X448753Y-11477984D02*
X439229Y-11468460D01*
X439229Y-11468460D02*
X448753Y-11458936D01*
X448753Y-11458936D02*
X448753Y-11477984D01*
X582086Y-11277984D02*
X601134Y-11277984D01*
X601134Y-11277984D02*
X620182Y-11287508D01*
X620182Y-11287508D02*
X629705Y-11297031D01*
X629705Y-11297031D02*
X639229Y-11316079D01*
X639229Y-11316079D02*
X648753Y-11354174D01*
X648753Y-11354174D02*
X648753Y-11401793D01*
X648753Y-11401793D02*
X639229Y-11439888D01*
X639229Y-11439888D02*
X629705Y-11458936D01*
X629705Y-11458936D02*
X620182Y-11468460D01*
X620182Y-11468460D02*
X601134Y-11477984D01*
X601134Y-11477984D02*
X582086Y-11477984D01*
X582086Y-11477984D02*
X563039Y-11468460D01*
X563039Y-11468460D02*
X553515Y-11458936D01*
X553515Y-11458936D02*
X543991Y-11439888D01*
X543991Y-11439888D02*
X534467Y-11401793D01*
X534467Y-11401793D02*
X534467Y-11354174D01*
X534467Y-11354174D02*
X543991Y-11316079D01*
X543991Y-11316079D02*
X553515Y-11297031D01*
X553515Y-11297031D02*
X563039Y-11287508D01*
X563039Y-11287508D02*
X582086Y-11277984D01*
X772562Y-11277984D02*
X791610Y-11277984D01*
X791610Y-11277984D02*
X810658Y-11287508D01*
X810658Y-11287508D02*
X820182Y-11297031D01*
X820182Y-11297031D02*
X829705Y-11316079D01*
X829705Y-11316079D02*
X839229Y-11354174D01*
X839229Y-11354174D02*
X839229Y-11401793D01*
X839229Y-11401793D02*
X829705Y-11439888D01*
X829705Y-11439888D02*
X820182Y-11458936D01*
X820182Y-11458936D02*
X810658Y-11468460D01*
X810658Y-11468460D02*
X791610Y-11477984D01*
X791610Y-11477984D02*
X772562Y-11477984D01*
X772562Y-11477984D02*
X753515Y-11468460D01*
X753515Y-11468460D02*
X743991Y-11458936D01*
X743991Y-11458936D02*
X734467Y-11439888D01*
X734467Y-11439888D02*
X724943Y-11401793D01*
X724943Y-11401793D02*
X724943Y-11354174D01*
X724943Y-11354174D02*
X734467Y-11316079D01*
X734467Y-11316079D02*
X743991Y-11297031D01*
X743991Y-11297031D02*
X753515Y-11287508D01*
X753515Y-11287508D02*
X772562Y-11277984D01*
X963039Y-11277984D02*
X982086Y-11277984D01*
X982086Y-11277984D02*
X1001134Y-11287508D01*
X1001134Y-11287508D02*
X1010658Y-11297031D01*
X1010658Y-11297031D02*
X1020182Y-11316079D01*
X1020182Y-11316079D02*
X1029705Y-11354174D01*
X1029705Y-11354174D02*
X1029705Y-11401793D01*
X1029705Y-11401793D02*
X1020182Y-11439888D01*
X1020182Y-11439888D02*
X1010658Y-11458936D01*
X1010658Y-11458936D02*
X1001134Y-11468460D01*
X1001134Y-11468460D02*
X982086Y-11477984D01*
X982086Y-11477984D02*
X963039Y-11477984D01*
X963039Y-11477984D02*
X943991Y-11468460D01*
X943991Y-11468460D02*
X934467Y-11458936D01*
X934467Y-11458936D02*
X924943Y-11439888D01*
X924943Y-11439888D02*
X915420Y-11401793D01*
X915420Y-11401793D02*
X915420Y-11354174D01*
X915420Y-11354174D02*
X924943Y-11316079D01*
X924943Y-11316079D02*
X934467Y-11297031D01*
X934467Y-11297031D02*
X943991Y-11287508D01*
X943991Y-11287508D02*
X963039Y-11277984D01*
X1115420Y-11477984D02*
X1115420Y-11344650D01*
X1115420Y-11363698D02*
X1124944Y-11354174D01*
X1124944Y-11354174D02*
X1143991Y-11344650D01*
X1143991Y-11344650D02*
X1172563Y-11344650D01*
X1172563Y-11344650D02*
X1191610Y-11354174D01*
X1191610Y-11354174D02*
X1201134Y-11373222D01*
X1201134Y-11373222D02*
X1201134Y-11477984D01*
X1201134Y-11373222D02*
X1210658Y-11354174D01*
X1210658Y-11354174D02*
X1229705Y-11344650D01*
X1229705Y-11344650D02*
X1258277Y-11344650D01*
X1258277Y-11344650D02*
X1277325Y-11354174D01*
X1277325Y-11354174D02*
X1286848Y-11373222D01*
X1286848Y-11373222D02*
X1286848Y-11477984D01*
X1382086Y-11477984D02*
X1382086Y-11344650D01*
X1382086Y-11363698D02*
X1391610Y-11354174D01*
X1391610Y-11354174D02*
X1410658Y-11344650D01*
X1410658Y-11344650D02*
X1439229Y-11344650D01*
X1439229Y-11344650D02*
X1458277Y-11354174D01*
X1458277Y-11354174D02*
X1467801Y-11373222D01*
X1467801Y-11373222D02*
X1467801Y-11477984D01*
X1467801Y-11373222D02*
X1477324Y-11354174D01*
X1477324Y-11354174D02*
X1496372Y-11344650D01*
X1496372Y-11344650D02*
X1524943Y-11344650D01*
X1524943Y-11344650D02*
X1543991Y-11354174D01*
X1543991Y-11354174D02*
X1553515Y-11373222D01*
X1553515Y-11373222D02*
X1553515Y-11477984D01*
X1943991Y-11268460D02*
X1772563Y-11525603D01*
X2201134Y-11277984D02*
X2220182Y-11277984D01*
X2220182Y-11277984D02*
X2239229Y-11287508D01*
X2239229Y-11287508D02*
X2248753Y-11297031D01*
X2248753Y-11297031D02*
X2258277Y-11316079D01*
X2258277Y-11316079D02*
X2267801Y-11354174D01*
X2267801Y-11354174D02*
X2267801Y-11401793D01*
X2267801Y-11401793D02*
X2258277Y-11439888D01*
X2258277Y-11439888D02*
X2248753Y-11458936D01*
X2248753Y-11458936D02*
X2239229Y-11468460D01*
X2239229Y-11468460D02*
X2220182Y-11477984D01*
X2220182Y-11477984D02*
X2201134Y-11477984D01*
X2201134Y-11477984D02*
X2182087Y-11468460D01*
X2182087Y-11468460D02*
X2172563Y-11458936D01*
X2172563Y-11458936D02*
X2163039Y-11439888D01*
X2163039Y-11439888D02*
X2153515Y-11401793D01*
X2153515Y-11401793D02*
X2153515Y-11354174D01*
X2153515Y-11354174D02*
X2163039Y-11316079D01*
X2163039Y-11316079D02*
X2172563Y-11297031D01*
X2172563Y-11297031D02*
X2182087Y-11287508D01*
X2182087Y-11287508D02*
X2201134Y-11277984D01*
X2353515Y-11458936D02*
X2363039Y-11468460D01*
X2363039Y-11468460D02*
X2353515Y-11477984D01*
X2353515Y-11477984D02*
X2343991Y-11468460D01*
X2343991Y-11468460D02*
X2353515Y-11458936D01*
X2353515Y-11458936D02*
X2353515Y-11477984D01*
X2553515Y-11477984D02*
X2439229Y-11477984D01*
X2496372Y-11477984D02*
X2496372Y-11277984D01*
X2496372Y-11277984D02*
X2477325Y-11306555D01*
X2477325Y-11306555D02*
X2458277Y-11325603D01*
X2458277Y-11325603D02*
X2439229Y-11335127D01*
X2734468Y-11277984D02*
X2639229Y-11277984D01*
X2639229Y-11277984D02*
X2629706Y-11373222D01*
X2629706Y-11373222D02*
X2639229Y-11363698D01*
X2639229Y-11363698D02*
X2658277Y-11354174D01*
X2658277Y-11354174D02*
X2705896Y-11354174D01*
X2705896Y-11354174D02*
X2724944Y-11363698D01*
X2724944Y-11363698D02*
X2734468Y-11373222D01*
X2734468Y-11373222D02*
X2743991Y-11392269D01*
X2743991Y-11392269D02*
X2743991Y-11439888D01*
X2743991Y-11439888D02*
X2734468Y-11458936D01*
X2734468Y-11458936D02*
X2724944Y-11468460D01*
X2724944Y-11468460D02*
X2705896Y-11477984D01*
X2705896Y-11477984D02*
X2658277Y-11477984D01*
X2658277Y-11477984D02*
X2639229Y-11468460D01*
X2639229Y-11468460D02*
X2629706Y-11458936D01*
X2810658Y-11277984D02*
X2943991Y-11277984D01*
X2943991Y-11277984D02*
X2858277Y-11477984D01*
X3115420Y-11277984D02*
X3020182Y-11277984D01*
X3020182Y-11277984D02*
X3010658Y-11373222D01*
X3010658Y-11373222D02*
X3020182Y-11363698D01*
X3020182Y-11363698D02*
X3039229Y-11354174D01*
X3039229Y-11354174D02*
X3086848Y-11354174D01*
X3086848Y-11354174D02*
X3105896Y-11363698D01*
X3105896Y-11363698D02*
X3115420Y-11373222D01*
X3115420Y-11373222D02*
X3124944Y-11392269D01*
X3124944Y-11392269D02*
X3124944Y-11439888D01*
X3124944Y-11439888D02*
X3115420Y-11458936D01*
X3115420Y-11458936D02*
X3105896Y-11468460D01*
X3105896Y-11468460D02*
X3086848Y-11477984D01*
X3086848Y-11477984D02*
X3039229Y-11477984D01*
X3039229Y-11477984D02*
X3020182Y-11468460D01*
X3020182Y-11468460D02*
X3010658Y-11458936D01*
X3201134Y-11277984D02*
X3201134Y-11316079D01*
X3277325Y-11277984D02*
X3277325Y-11316079D01*
X3572563Y-11554174D02*
X3563039Y-11544650D01*
X3563039Y-11544650D02*
X3543991Y-11516079D01*
X3543991Y-11516079D02*
X3534468Y-11497031D01*
X3534468Y-11497031D02*
X3524944Y-11468460D01*
X3524944Y-11468460D02*
X3515420Y-11420841D01*
X3515420Y-11420841D02*
X3515420Y-11382746D01*
X3515420Y-11382746D02*
X3524944Y-11335127D01*
X3524944Y-11335127D02*
X3534468Y-11306555D01*
X3534468Y-11306555D02*
X3543991Y-11287508D01*
X3543991Y-11287508D02*
X3563039Y-11258936D01*
X3563039Y-11258936D02*
X3572563Y-11249412D01*
X3629706Y-11277984D02*
X3763039Y-11277984D01*
X3763039Y-11277984D02*
X3677325Y-11477984D01*
X3877325Y-11277984D02*
X3896372Y-11277984D01*
X3896372Y-11277984D02*
X3915420Y-11287508D01*
X3915420Y-11287508D02*
X3924944Y-11297031D01*
X3924944Y-11297031D02*
X3934468Y-11316079D01*
X3934468Y-11316079D02*
X3943991Y-11354174D01*
X3943991Y-11354174D02*
X3943991Y-11401793D01*
X3943991Y-11401793D02*
X3934468Y-11439888D01*
X3934468Y-11439888D02*
X3924944Y-11458936D01*
X3924944Y-11458936D02*
X3915420Y-11468460D01*
X3915420Y-11468460D02*
X3896372Y-11477984D01*
X3896372Y-11477984D02*
X3877325Y-11477984D01*
X3877325Y-11477984D02*
X3858277Y-11468460D01*
X3858277Y-11468460D02*
X3848753Y-11458936D01*
X3848753Y-11458936D02*
X3839229Y-11439888D01*
X3839229Y-11439888D02*
X3829706Y-11401793D01*
X3829706Y-11401793D02*
X3829706Y-11354174D01*
X3829706Y-11354174D02*
X3839229Y-11316079D01*
X3839229Y-11316079D02*
X3848753Y-11297031D01*
X3848753Y-11297031D02*
X3858277Y-11287508D01*
X3858277Y-11287508D02*
X3877325Y-11277984D01*
X4182087Y-11477984D02*
X4182087Y-11277984D01*
X4267801Y-11477984D02*
X4267801Y-11373222D01*
X4267801Y-11373222D02*
X4258277Y-11354174D01*
X4258277Y-11354174D02*
X4239230Y-11344650D01*
X4239230Y-11344650D02*
X4210658Y-11344650D01*
X4210658Y-11344650D02*
X4191610Y-11354174D01*
X4191610Y-11354174D02*
X4182087Y-11363698D01*
X4391611Y-11477984D02*
X4372563Y-11468460D01*
X4372563Y-11468460D02*
X4363039Y-11458936D01*
X4363039Y-11458936D02*
X4353515Y-11439888D01*
X4353515Y-11439888D02*
X4353515Y-11382746D01*
X4353515Y-11382746D02*
X4363039Y-11363698D01*
X4363039Y-11363698D02*
X4372563Y-11354174D01*
X4372563Y-11354174D02*
X4391611Y-11344650D01*
X4391611Y-11344650D02*
X4420182Y-11344650D01*
X4420182Y-11344650D02*
X4439230Y-11354174D01*
X4439230Y-11354174D02*
X4448753Y-11363698D01*
X4448753Y-11363698D02*
X4458277Y-11382746D01*
X4458277Y-11382746D02*
X4458277Y-11439888D01*
X4458277Y-11439888D02*
X4448753Y-11458936D01*
X4448753Y-11458936D02*
X4439230Y-11468460D01*
X4439230Y-11468460D02*
X4420182Y-11477984D01*
X4420182Y-11477984D02*
X4391611Y-11477984D01*
X4572563Y-11477984D02*
X4553515Y-11468460D01*
X4553515Y-11468460D02*
X4543992Y-11449412D01*
X4543992Y-11449412D02*
X4543992Y-11277984D01*
X4724944Y-11468460D02*
X4705896Y-11477984D01*
X4705896Y-11477984D02*
X4667801Y-11477984D01*
X4667801Y-11477984D02*
X4648753Y-11468460D01*
X4648753Y-11468460D02*
X4639230Y-11449412D01*
X4639230Y-11449412D02*
X4639230Y-11373222D01*
X4639230Y-11373222D02*
X4648753Y-11354174D01*
X4648753Y-11354174D02*
X4667801Y-11344650D01*
X4667801Y-11344650D02*
X4705896Y-11344650D01*
X4705896Y-11344650D02*
X4724944Y-11354174D01*
X4724944Y-11354174D02*
X4734468Y-11373222D01*
X4734468Y-11373222D02*
X4734468Y-11392269D01*
X4734468Y-11392269D02*
X4639230Y-11411317D01*
X4810658Y-11468460D02*
X4829706Y-11477984D01*
X4829706Y-11477984D02*
X4867801Y-11477984D01*
X4867801Y-11477984D02*
X4886849Y-11468460D01*
X4886849Y-11468460D02*
X4896373Y-11449412D01*
X4896373Y-11449412D02*
X4896373Y-11439888D01*
X4896373Y-11439888D02*
X4886849Y-11420841D01*
X4886849Y-11420841D02*
X4867801Y-11411317D01*
X4867801Y-11411317D02*
X4839230Y-11411317D01*
X4839230Y-11411317D02*
X4820182Y-11401793D01*
X4820182Y-11401793D02*
X4810658Y-11382746D01*
X4810658Y-11382746D02*
X4810658Y-11373222D01*
X4810658Y-11373222D02*
X4820182Y-11354174D01*
X4820182Y-11354174D02*
X4839230Y-11344650D01*
X4839230Y-11344650D02*
X4867801Y-11344650D01*
X4867801Y-11344650D02*
X4886849Y-11354174D01*
X4963039Y-11554174D02*
X4972563Y-11544650D01*
X4972563Y-11544650D02*
X4991611Y-11516079D01*
X4991611Y-11516079D02*
X5001134Y-11497031D01*
X5001134Y-11497031D02*
X5010658Y-11468460D01*
X5010658Y-11468460D02*
X5020182Y-11420841D01*
X5020182Y-11420841D02*
X5020182Y-11382746D01*
X5020182Y-11382746D02*
X5010658Y-11335127D01*
X5010658Y-11335127D02*
X5001134Y-11306555D01*
X5001134Y-11306555D02*
X4991611Y-11287508D01*
X4991611Y-11287508D02*
X4972563Y-11258936D01*
X4972563Y-11258936D02*
X4963039Y-11249412D01*
X5324944Y-11554174D02*
X5315420Y-11544650D01*
X5315420Y-11544650D02*
X5296373Y-11516079D01*
X5296373Y-11516079D02*
X5286849Y-11497031D01*
X5286849Y-11497031D02*
X5277325Y-11468460D01*
X5277325Y-11468460D02*
X5267801Y-11420841D01*
X5267801Y-11420841D02*
X5267801Y-11382746D01*
X5267801Y-11382746D02*
X5277325Y-11335127D01*
X5277325Y-11335127D02*
X5286849Y-11306555D01*
X5286849Y-11306555D02*
X5296373Y-11287508D01*
X5296373Y-11287508D02*
X5315420Y-11258936D01*
X5315420Y-11258936D02*
X5324944Y-11249412D01*
X5401134Y-11344650D02*
X5401134Y-11477984D01*
X5401134Y-11363698D02*
X5410658Y-11354174D01*
X5410658Y-11354174D02*
X5429706Y-11344650D01*
X5429706Y-11344650D02*
X5458277Y-11344650D01*
X5458277Y-11344650D02*
X5477325Y-11354174D01*
X5477325Y-11354174D02*
X5486849Y-11373222D01*
X5486849Y-11373222D02*
X5486849Y-11477984D01*
X5610658Y-11477984D02*
X5591611Y-11468460D01*
X5591611Y-11468460D02*
X5582087Y-11458936D01*
X5582087Y-11458936D02*
X5572563Y-11439888D01*
X5572563Y-11439888D02*
X5572563Y-11382746D01*
X5572563Y-11382746D02*
X5582087Y-11363698D01*
X5582087Y-11363698D02*
X5591611Y-11354174D01*
X5591611Y-11354174D02*
X5610658Y-11344650D01*
X5610658Y-11344650D02*
X5639230Y-11344650D01*
X5639230Y-11344650D02*
X5658277Y-11354174D01*
X5658277Y-11354174D02*
X5667801Y-11363698D01*
X5667801Y-11363698D02*
X5677325Y-11382746D01*
X5677325Y-11382746D02*
X5677325Y-11439888D01*
X5677325Y-11439888D02*
X5667801Y-11458936D01*
X5667801Y-11458936D02*
X5658277Y-11468460D01*
X5658277Y-11468460D02*
X5639230Y-11477984D01*
X5639230Y-11477984D02*
X5610658Y-11477984D01*
X5734468Y-11344650D02*
X5810658Y-11344650D01*
X5763039Y-11277984D02*
X5763039Y-11449412D01*
X5763039Y-11449412D02*
X5772563Y-11468460D01*
X5772563Y-11468460D02*
X5791611Y-11477984D01*
X5791611Y-11477984D02*
X5810658Y-11477984D01*
X6029706Y-11344650D02*
X6029706Y-11544650D01*
X6029706Y-11354174D02*
X6048753Y-11344650D01*
X6048753Y-11344650D02*
X6086849Y-11344650D01*
X6086849Y-11344650D02*
X6105896Y-11354174D01*
X6105896Y-11354174D02*
X6115420Y-11363698D01*
X6115420Y-11363698D02*
X6124944Y-11382746D01*
X6124944Y-11382746D02*
X6124944Y-11439888D01*
X6124944Y-11439888D02*
X6115420Y-11458936D01*
X6115420Y-11458936D02*
X6105896Y-11468460D01*
X6105896Y-11468460D02*
X6086849Y-11477984D01*
X6086849Y-11477984D02*
X6048753Y-11477984D01*
X6048753Y-11477984D02*
X6029706Y-11468460D01*
X6239230Y-11477984D02*
X6220182Y-11468460D01*
X6220182Y-11468460D02*
X6210658Y-11449412D01*
X6210658Y-11449412D02*
X6210658Y-11277984D01*
X6401134Y-11477984D02*
X6401134Y-11373222D01*
X6401134Y-11373222D02*
X6391611Y-11354174D01*
X6391611Y-11354174D02*
X6372563Y-11344650D01*
X6372563Y-11344650D02*
X6334468Y-11344650D01*
X6334468Y-11344650D02*
X6315420Y-11354174D01*
X6401134Y-11468460D02*
X6382087Y-11477984D01*
X6382087Y-11477984D02*
X6334468Y-11477984D01*
X6334468Y-11477984D02*
X6315420Y-11468460D01*
X6315420Y-11468460D02*
X6305896Y-11449412D01*
X6305896Y-11449412D02*
X6305896Y-11430365D01*
X6305896Y-11430365D02*
X6315420Y-11411317D01*
X6315420Y-11411317D02*
X6334468Y-11401793D01*
X6334468Y-11401793D02*
X6382087Y-11401793D01*
X6382087Y-11401793D02*
X6401134Y-11392269D01*
X6467801Y-11344650D02*
X6543992Y-11344650D01*
X6496373Y-11277984D02*
X6496373Y-11449412D01*
X6496373Y-11449412D02*
X6505896Y-11468460D01*
X6505896Y-11468460D02*
X6524944Y-11477984D01*
X6524944Y-11477984D02*
X6543992Y-11477984D01*
X6686849Y-11468460D02*
X6667801Y-11477984D01*
X6667801Y-11477984D02*
X6629706Y-11477984D01*
X6629706Y-11477984D02*
X6610658Y-11468460D01*
X6610658Y-11468460D02*
X6601134Y-11449412D01*
X6601134Y-11449412D02*
X6601134Y-11373222D01*
X6601134Y-11373222D02*
X6610658Y-11354174D01*
X6610658Y-11354174D02*
X6629706Y-11344650D01*
X6629706Y-11344650D02*
X6667801Y-11344650D01*
X6667801Y-11344650D02*
X6686849Y-11354174D01*
X6686849Y-11354174D02*
X6696373Y-11373222D01*
X6696373Y-11373222D02*
X6696373Y-11392269D01*
X6696373Y-11392269D02*
X6601134Y-11411317D01*
X6867801Y-11477984D02*
X6867801Y-11277984D01*
X6867801Y-11468460D02*
X6848754Y-11477984D01*
X6848754Y-11477984D02*
X6810658Y-11477984D01*
X6810658Y-11477984D02*
X6791611Y-11468460D01*
X6791611Y-11468460D02*
X6782087Y-11458936D01*
X6782087Y-11458936D02*
X6772563Y-11439888D01*
X6772563Y-11439888D02*
X6772563Y-11382746D01*
X6772563Y-11382746D02*
X6782087Y-11363698D01*
X6782087Y-11363698D02*
X6791611Y-11354174D01*
X6791611Y-11354174D02*
X6810658Y-11344650D01*
X6810658Y-11344650D02*
X6848754Y-11344650D01*
X6848754Y-11344650D02*
X6867801Y-11354174D01*
X6943992Y-11554174D02*
X6953515Y-11544650D01*
X6953515Y-11544650D02*
X6972563Y-11516079D01*
X6972563Y-11516079D02*
X6982087Y-11497031D01*
X6982087Y-11497031D02*
X6991611Y-11468460D01*
X6991611Y-11468460D02*
X7001134Y-11420841D01*
X7001134Y-11420841D02*
X7001134Y-11382746D01*
X7001134Y-11382746D02*
X6991611Y-11335127D01*
X6991611Y-11335127D02*
X6982087Y-11306555D01*
X6982087Y-11306555D02*
X6972563Y-11287508D01*
X6972563Y-11287508D02*
X6953515Y-11258936D01*
X6953515Y-11258936D02*
X6943992Y-11249412D01*
M02*
