%TF.GenerationSoftware,KiCad,Pcbnew,9.0.3*%
%TF.CreationDate,2025-07-20T18:38:52+02:00*%
%TF.ProjectId,keeb2,6b656562-322e-46b6-9963-61645f706362,rev?*%
%TF.SameCoordinates,Original*%
%TF.FileFunction,Legend,Bot*%
%TF.FilePolarity,Positive*%
%FSLAX46Y46*%
G04 Gerber Fmt 4.6, Leading zero omitted, Abs format (unit mm)*
G04 Created by KiCad (PCBNEW 9.0.3) date 2025-07-20 18:38:52*
%MOMM*%
%LPD*%
G01*
G04 APERTURE LIST*
G04 Aperture macros list*
%AMRoundRect*
0 Rectangle with rounded corners*
0 $1 Rounding radius*
0 $2 $3 $4 $5 $6 $7 $8 $9 X,Y pos of 4 corners*
0 Add a 4 corners polygon primitive as box body*
4,1,4,$2,$3,$4,$5,$6,$7,$8,$9,$2,$3,0*
0 Add four circle primitives for the rounded corners*
1,1,$1+$1,$2,$3*
1,1,$1+$1,$4,$5*
1,1,$1+$1,$6,$7*
1,1,$1+$1,$8,$9*
0 Add four rect primitives between the rounded corners*
20,1,$1+$1,$2,$3,$4,$5,0*
20,1,$1+$1,$4,$5,$6,$7,0*
20,1,$1+$1,$6,$7,$8,$9,0*
20,1,$1+$1,$8,$9,$2,$3,0*%
G04 Aperture macros list end*
%ADD10C,0.150000*%
%ADD11C,0.120000*%
%ADD12RoundRect,0.250000X-0.325000X-0.450000X0.325000X-0.450000X0.325000X0.450000X-0.325000X0.450000X0*%
%ADD13C,1.700000*%
%ADD14C,4.000000*%
%ADD15C,2.200000*%
%ADD16C,2.100000*%
%ADD17C,3.050000*%
%ADD18RoundRect,0.225000X-0.375000X0.225000X-0.375000X-0.225000X0.375000X-0.225000X0.375000X0.225000X0*%
%ADD19RoundRect,0.225000X0.375000X-0.225000X0.375000X0.225000X-0.375000X0.225000X-0.375000X-0.225000X0*%
%ADD20RoundRect,0.250000X-0.337500X-0.475000X0.337500X-0.475000X0.337500X0.475000X-0.337500X0.475000X0*%
%ADD21RoundRect,0.225000X0.225000X0.375000X-0.225000X0.375000X-0.225000X-0.375000X0.225000X-0.375000X0*%
%ADD22RoundRect,0.250000X-0.450000X0.350000X-0.450000X-0.350000X0.450000X-0.350000X0.450000X0.350000X0*%
%ADD23R,0.550000X1.500000*%
%ADD24R,1.500000X0.550000*%
%ADD25RoundRect,0.250000X0.337500X0.475000X-0.337500X0.475000X-0.337500X-0.475000X0.337500X-0.475000X0*%
%ADD26RoundRect,0.250000X-0.350000X-0.450000X0.350000X-0.450000X0.350000X0.450000X-0.350000X0.450000X0*%
%ADD27R,1.800000X2.100000*%
%ADD28C,0.650000*%
%ADD29R,0.600000X2.450000*%
%ADD30R,0.300000X2.450000*%
%ADD31RoundRect,0.250000X0.600000X0.250000X-0.600000X0.250000X-0.600000X-0.250000X0.600000X-0.250000X0*%
%ADD32RoundRect,0.150000X0.700000X0.150000X-0.700000X0.150000X-0.700000X-0.150000X0.700000X-0.150000X0*%
%ADD33RoundRect,0.250000X0.350000X0.450000X-0.350000X0.450000X-0.350000X-0.450000X0.350000X-0.450000X0*%
%ADD34RoundRect,0.225000X-0.225000X-0.375000X0.225000X-0.375000X0.225000X0.375000X-0.225000X0.375000X0*%
%ADD35RoundRect,0.250000X0.475000X-0.337500X0.475000X0.337500X-0.475000X0.337500X-0.475000X-0.337500X0*%
%ADD36R,1.800000X1.100000*%
%ADD37RoundRect,0.250001X-0.624999X0.462499X-0.624999X-0.462499X0.624999X-0.462499X0.624999X0.462499X0*%
%ADD38RoundRect,0.250000X-0.475000X0.337500X-0.475000X-0.337500X0.475000X-0.337500X0.475000X0.337500X0*%
G04 APERTURE END LIST*
D10*
X29083333Y-2891009D02*
X29416666Y-2891009D01*
X29416666Y-3414819D02*
X29416666Y-2414819D01*
X29416666Y-2414819D02*
X28940476Y-2414819D01*
X28226190Y-2891009D02*
X28083333Y-2938628D01*
X28083333Y-2938628D02*
X28035714Y-2986247D01*
X28035714Y-2986247D02*
X27988095Y-3081485D01*
X27988095Y-3081485D02*
X27988095Y-3224342D01*
X27988095Y-3224342D02*
X28035714Y-3319580D01*
X28035714Y-3319580D02*
X28083333Y-3367200D01*
X28083333Y-3367200D02*
X28178571Y-3414819D01*
X28178571Y-3414819D02*
X28559523Y-3414819D01*
X28559523Y-3414819D02*
X28559523Y-2414819D01*
X28559523Y-2414819D02*
X28226190Y-2414819D01*
X28226190Y-2414819D02*
X28130952Y-2462438D01*
X28130952Y-2462438D02*
X28083333Y-2510057D01*
X28083333Y-2510057D02*
X28035714Y-2605295D01*
X28035714Y-2605295D02*
X28035714Y-2700533D01*
X28035714Y-2700533D02*
X28083333Y-2795771D01*
X28083333Y-2795771D02*
X28130952Y-2843390D01*
X28130952Y-2843390D02*
X28226190Y-2891009D01*
X28226190Y-2891009D02*
X28559523Y-2891009D01*
X27035714Y-3414819D02*
X27607142Y-3414819D01*
X27321428Y-3414819D02*
X27321428Y-2414819D01*
X27321428Y-2414819D02*
X27416666Y-2557676D01*
X27416666Y-2557676D02*
X27511904Y-2652914D01*
X27511904Y-2652914D02*
X27607142Y-2700533D01*
X264964819Y-77478214D02*
X263964819Y-77478214D01*
X263964819Y-77478214D02*
X263964819Y-77716309D01*
X263964819Y-77716309D02*
X264012438Y-77859166D01*
X264012438Y-77859166D02*
X264107676Y-77954404D01*
X264107676Y-77954404D02*
X264202914Y-78002023D01*
X264202914Y-78002023D02*
X264393390Y-78049642D01*
X264393390Y-78049642D02*
X264536247Y-78049642D01*
X264536247Y-78049642D02*
X264726723Y-78002023D01*
X264726723Y-78002023D02*
X264821961Y-77954404D01*
X264821961Y-77954404D02*
X264917200Y-77859166D01*
X264917200Y-77859166D02*
X264964819Y-77716309D01*
X264964819Y-77716309D02*
X264964819Y-77478214D01*
X263964819Y-78906785D02*
X263964819Y-78716309D01*
X263964819Y-78716309D02*
X264012438Y-78621071D01*
X264012438Y-78621071D02*
X264060057Y-78573452D01*
X264060057Y-78573452D02*
X264202914Y-78478214D01*
X264202914Y-78478214D02*
X264393390Y-78430595D01*
X264393390Y-78430595D02*
X264774342Y-78430595D01*
X264774342Y-78430595D02*
X264869580Y-78478214D01*
X264869580Y-78478214D02*
X264917200Y-78525833D01*
X264917200Y-78525833D02*
X264964819Y-78621071D01*
X264964819Y-78621071D02*
X264964819Y-78811547D01*
X264964819Y-78811547D02*
X264917200Y-78906785D01*
X264917200Y-78906785D02*
X264869580Y-78954404D01*
X264869580Y-78954404D02*
X264774342Y-79002023D01*
X264774342Y-79002023D02*
X264536247Y-79002023D01*
X264536247Y-79002023D02*
X264441009Y-78954404D01*
X264441009Y-78954404D02*
X264393390Y-78906785D01*
X264393390Y-78906785D02*
X264345771Y-78811547D01*
X264345771Y-78811547D02*
X264345771Y-78621071D01*
X264345771Y-78621071D02*
X264393390Y-78525833D01*
X264393390Y-78525833D02*
X264441009Y-78478214D01*
X264441009Y-78478214D02*
X264536247Y-78430595D01*
X263964819Y-79859166D02*
X263964819Y-79668690D01*
X263964819Y-79668690D02*
X264012438Y-79573452D01*
X264012438Y-79573452D02*
X264060057Y-79525833D01*
X264060057Y-79525833D02*
X264202914Y-79430595D01*
X264202914Y-79430595D02*
X264393390Y-79382976D01*
X264393390Y-79382976D02*
X264774342Y-79382976D01*
X264774342Y-79382976D02*
X264869580Y-79430595D01*
X264869580Y-79430595D02*
X264917200Y-79478214D01*
X264917200Y-79478214D02*
X264964819Y-79573452D01*
X264964819Y-79573452D02*
X264964819Y-79763928D01*
X264964819Y-79763928D02*
X264917200Y-79859166D01*
X264917200Y-79859166D02*
X264869580Y-79906785D01*
X264869580Y-79906785D02*
X264774342Y-79954404D01*
X264774342Y-79954404D02*
X264536247Y-79954404D01*
X264536247Y-79954404D02*
X264441009Y-79906785D01*
X264441009Y-79906785D02*
X264393390Y-79859166D01*
X264393390Y-79859166D02*
X264345771Y-79763928D01*
X264345771Y-79763928D02*
X264345771Y-79573452D01*
X264345771Y-79573452D02*
X264393390Y-79478214D01*
X264393390Y-79478214D02*
X264441009Y-79430595D01*
X264441009Y-79430595D02*
X264536247Y-79382976D01*
X107524819Y-24985714D02*
X106524819Y-24985714D01*
X106524819Y-24985714D02*
X106524819Y-25223809D01*
X106524819Y-25223809D02*
X106572438Y-25366666D01*
X106572438Y-25366666D02*
X106667676Y-25461904D01*
X106667676Y-25461904D02*
X106762914Y-25509523D01*
X106762914Y-25509523D02*
X106953390Y-25557142D01*
X106953390Y-25557142D02*
X107096247Y-25557142D01*
X107096247Y-25557142D02*
X107286723Y-25509523D01*
X107286723Y-25509523D02*
X107381961Y-25461904D01*
X107381961Y-25461904D02*
X107477200Y-25366666D01*
X107477200Y-25366666D02*
X107524819Y-25223809D01*
X107524819Y-25223809D02*
X107524819Y-24985714D01*
X106620057Y-25938095D02*
X106572438Y-25985714D01*
X106572438Y-25985714D02*
X106524819Y-26080952D01*
X106524819Y-26080952D02*
X106524819Y-26319047D01*
X106524819Y-26319047D02*
X106572438Y-26414285D01*
X106572438Y-26414285D02*
X106620057Y-26461904D01*
X106620057Y-26461904D02*
X106715295Y-26509523D01*
X106715295Y-26509523D02*
X106810533Y-26509523D01*
X106810533Y-26509523D02*
X106953390Y-26461904D01*
X106953390Y-26461904D02*
X107524819Y-25890476D01*
X107524819Y-25890476D02*
X107524819Y-26509523D01*
X106524819Y-27128571D02*
X106524819Y-27223809D01*
X106524819Y-27223809D02*
X106572438Y-27319047D01*
X106572438Y-27319047D02*
X106620057Y-27366666D01*
X106620057Y-27366666D02*
X106715295Y-27414285D01*
X106715295Y-27414285D02*
X106905771Y-27461904D01*
X106905771Y-27461904D02*
X107143866Y-27461904D01*
X107143866Y-27461904D02*
X107334342Y-27414285D01*
X107334342Y-27414285D02*
X107429580Y-27366666D01*
X107429580Y-27366666D02*
X107477200Y-27319047D01*
X107477200Y-27319047D02*
X107524819Y-27223809D01*
X107524819Y-27223809D02*
X107524819Y-27128571D01*
X107524819Y-27128571D02*
X107477200Y-27033333D01*
X107477200Y-27033333D02*
X107429580Y-26985714D01*
X107429580Y-26985714D02*
X107334342Y-26938095D01*
X107334342Y-26938095D02*
X107143866Y-26890476D01*
X107143866Y-26890476D02*
X106905771Y-26890476D01*
X106905771Y-26890476D02*
X106715295Y-26938095D01*
X106715295Y-26938095D02*
X106620057Y-26985714D01*
X106620057Y-26985714D02*
X106572438Y-27033333D01*
X106572438Y-27033333D02*
X106524819Y-27128571D01*
X263464819Y-4725714D02*
X262464819Y-4725714D01*
X262464819Y-4725714D02*
X262464819Y-4963809D01*
X262464819Y-4963809D02*
X262512438Y-5106666D01*
X262512438Y-5106666D02*
X262607676Y-5201904D01*
X262607676Y-5201904D02*
X262702914Y-5249523D01*
X262702914Y-5249523D02*
X262893390Y-5297142D01*
X262893390Y-5297142D02*
X263036247Y-5297142D01*
X263036247Y-5297142D02*
X263226723Y-5249523D01*
X263226723Y-5249523D02*
X263321961Y-5201904D01*
X263321961Y-5201904D02*
X263417200Y-5106666D01*
X263417200Y-5106666D02*
X263464819Y-4963809D01*
X263464819Y-4963809D02*
X263464819Y-4725714D01*
X263464819Y-6249523D02*
X263464819Y-5678095D01*
X263464819Y-5963809D02*
X262464819Y-5963809D01*
X262464819Y-5963809D02*
X262607676Y-5868571D01*
X262607676Y-5868571D02*
X262702914Y-5773333D01*
X262702914Y-5773333D02*
X262750533Y-5678095D01*
X262798152Y-7106666D02*
X263464819Y-7106666D01*
X262417200Y-6868571D02*
X263131485Y-6630476D01*
X263131485Y-6630476D02*
X263131485Y-7249523D01*
X284014819Y-77445714D02*
X283014819Y-77445714D01*
X283014819Y-77445714D02*
X283014819Y-77683809D01*
X283014819Y-77683809D02*
X283062438Y-77826666D01*
X283062438Y-77826666D02*
X283157676Y-77921904D01*
X283157676Y-77921904D02*
X283252914Y-77969523D01*
X283252914Y-77969523D02*
X283443390Y-78017142D01*
X283443390Y-78017142D02*
X283586247Y-78017142D01*
X283586247Y-78017142D02*
X283776723Y-77969523D01*
X283776723Y-77969523D02*
X283871961Y-77921904D01*
X283871961Y-77921904D02*
X283967200Y-77826666D01*
X283967200Y-77826666D02*
X284014819Y-77683809D01*
X284014819Y-77683809D02*
X284014819Y-77445714D01*
X283014819Y-78874285D02*
X283014819Y-78683809D01*
X283014819Y-78683809D02*
X283062438Y-78588571D01*
X283062438Y-78588571D02*
X283110057Y-78540952D01*
X283110057Y-78540952D02*
X283252914Y-78445714D01*
X283252914Y-78445714D02*
X283443390Y-78398095D01*
X283443390Y-78398095D02*
X283824342Y-78398095D01*
X283824342Y-78398095D02*
X283919580Y-78445714D01*
X283919580Y-78445714D02*
X283967200Y-78493333D01*
X283967200Y-78493333D02*
X284014819Y-78588571D01*
X284014819Y-78588571D02*
X284014819Y-78779047D01*
X284014819Y-78779047D02*
X283967200Y-78874285D01*
X283967200Y-78874285D02*
X283919580Y-78921904D01*
X283919580Y-78921904D02*
X283824342Y-78969523D01*
X283824342Y-78969523D02*
X283586247Y-78969523D01*
X283586247Y-78969523D02*
X283491009Y-78921904D01*
X283491009Y-78921904D02*
X283443390Y-78874285D01*
X283443390Y-78874285D02*
X283395771Y-78779047D01*
X283395771Y-78779047D02*
X283395771Y-78588571D01*
X283395771Y-78588571D02*
X283443390Y-78493333D01*
X283443390Y-78493333D02*
X283491009Y-78445714D01*
X283491009Y-78445714D02*
X283586247Y-78398095D01*
X283014819Y-79302857D02*
X283014819Y-79969523D01*
X283014819Y-79969523D02*
X284014819Y-79540952D01*
X27684819Y-84123214D02*
X26684819Y-84123214D01*
X26684819Y-84123214D02*
X26684819Y-84361309D01*
X26684819Y-84361309D02*
X26732438Y-84504166D01*
X26732438Y-84504166D02*
X26827676Y-84599404D01*
X26827676Y-84599404D02*
X26922914Y-84647023D01*
X26922914Y-84647023D02*
X27113390Y-84694642D01*
X27113390Y-84694642D02*
X27256247Y-84694642D01*
X27256247Y-84694642D02*
X27446723Y-84647023D01*
X27446723Y-84647023D02*
X27541961Y-84599404D01*
X27541961Y-84599404D02*
X27637200Y-84504166D01*
X27637200Y-84504166D02*
X27684819Y-84361309D01*
X27684819Y-84361309D02*
X27684819Y-84123214D01*
X26684819Y-85551785D02*
X26684819Y-85361309D01*
X26684819Y-85361309D02*
X26732438Y-85266071D01*
X26732438Y-85266071D02*
X26780057Y-85218452D01*
X26780057Y-85218452D02*
X26922914Y-85123214D01*
X26922914Y-85123214D02*
X27113390Y-85075595D01*
X27113390Y-85075595D02*
X27494342Y-85075595D01*
X27494342Y-85075595D02*
X27589580Y-85123214D01*
X27589580Y-85123214D02*
X27637200Y-85170833D01*
X27637200Y-85170833D02*
X27684819Y-85266071D01*
X27684819Y-85266071D02*
X27684819Y-85456547D01*
X27684819Y-85456547D02*
X27637200Y-85551785D01*
X27637200Y-85551785D02*
X27589580Y-85599404D01*
X27589580Y-85599404D02*
X27494342Y-85647023D01*
X27494342Y-85647023D02*
X27256247Y-85647023D01*
X27256247Y-85647023D02*
X27161009Y-85599404D01*
X27161009Y-85599404D02*
X27113390Y-85551785D01*
X27113390Y-85551785D02*
X27065771Y-85456547D01*
X27065771Y-85456547D02*
X27065771Y-85266071D01*
X27065771Y-85266071D02*
X27113390Y-85170833D01*
X27113390Y-85170833D02*
X27161009Y-85123214D01*
X27161009Y-85123214D02*
X27256247Y-85075595D01*
X26684819Y-86266071D02*
X26684819Y-86361309D01*
X26684819Y-86361309D02*
X26732438Y-86456547D01*
X26732438Y-86456547D02*
X26780057Y-86504166D01*
X26780057Y-86504166D02*
X26875295Y-86551785D01*
X26875295Y-86551785D02*
X27065771Y-86599404D01*
X27065771Y-86599404D02*
X27303866Y-86599404D01*
X27303866Y-86599404D02*
X27494342Y-86551785D01*
X27494342Y-86551785D02*
X27589580Y-86504166D01*
X27589580Y-86504166D02*
X27637200Y-86456547D01*
X27637200Y-86456547D02*
X27684819Y-86361309D01*
X27684819Y-86361309D02*
X27684819Y-86266071D01*
X27684819Y-86266071D02*
X27637200Y-86170833D01*
X27637200Y-86170833D02*
X27589580Y-86123214D01*
X27589580Y-86123214D02*
X27494342Y-86075595D01*
X27494342Y-86075595D02*
X27303866Y-86027976D01*
X27303866Y-86027976D02*
X27065771Y-86027976D01*
X27065771Y-86027976D02*
X26875295Y-86075595D01*
X26875295Y-86075595D02*
X26780057Y-86123214D01*
X26780057Y-86123214D02*
X26732438Y-86170833D01*
X26732438Y-86170833D02*
X26684819Y-86266071D01*
X55114819Y-42548214D02*
X54114819Y-42548214D01*
X54114819Y-42548214D02*
X54114819Y-42786309D01*
X54114819Y-42786309D02*
X54162438Y-42929166D01*
X54162438Y-42929166D02*
X54257676Y-43024404D01*
X54257676Y-43024404D02*
X54352914Y-43072023D01*
X54352914Y-43072023D02*
X54543390Y-43119642D01*
X54543390Y-43119642D02*
X54686247Y-43119642D01*
X54686247Y-43119642D02*
X54876723Y-43072023D01*
X54876723Y-43072023D02*
X54971961Y-43024404D01*
X54971961Y-43024404D02*
X55067200Y-42929166D01*
X55067200Y-42929166D02*
X55114819Y-42786309D01*
X55114819Y-42786309D02*
X55114819Y-42548214D01*
X54114819Y-43452976D02*
X54114819Y-44072023D01*
X54114819Y-44072023D02*
X54495771Y-43738690D01*
X54495771Y-43738690D02*
X54495771Y-43881547D01*
X54495771Y-43881547D02*
X54543390Y-43976785D01*
X54543390Y-43976785D02*
X54591009Y-44024404D01*
X54591009Y-44024404D02*
X54686247Y-44072023D01*
X54686247Y-44072023D02*
X54924342Y-44072023D01*
X54924342Y-44072023D02*
X55019580Y-44024404D01*
X55019580Y-44024404D02*
X55067200Y-43976785D01*
X55067200Y-43976785D02*
X55114819Y-43881547D01*
X55114819Y-43881547D02*
X55114819Y-43595833D01*
X55114819Y-43595833D02*
X55067200Y-43500595D01*
X55067200Y-43500595D02*
X55019580Y-43452976D01*
X55114819Y-45024404D02*
X55114819Y-44452976D01*
X55114819Y-44738690D02*
X54114819Y-44738690D01*
X54114819Y-44738690D02*
X54257676Y-44643452D01*
X54257676Y-44643452D02*
X54352914Y-44548214D01*
X54352914Y-44548214D02*
X54400533Y-44452976D01*
X76384819Y-84135714D02*
X75384819Y-84135714D01*
X75384819Y-84135714D02*
X75384819Y-84373809D01*
X75384819Y-84373809D02*
X75432438Y-84516666D01*
X75432438Y-84516666D02*
X75527676Y-84611904D01*
X75527676Y-84611904D02*
X75622914Y-84659523D01*
X75622914Y-84659523D02*
X75813390Y-84707142D01*
X75813390Y-84707142D02*
X75956247Y-84707142D01*
X75956247Y-84707142D02*
X76146723Y-84659523D01*
X76146723Y-84659523D02*
X76241961Y-84611904D01*
X76241961Y-84611904D02*
X76337200Y-84516666D01*
X76337200Y-84516666D02*
X76384819Y-84373809D01*
X76384819Y-84373809D02*
X76384819Y-84135714D01*
X75384819Y-85564285D02*
X75384819Y-85373809D01*
X75384819Y-85373809D02*
X75432438Y-85278571D01*
X75432438Y-85278571D02*
X75480057Y-85230952D01*
X75480057Y-85230952D02*
X75622914Y-85135714D01*
X75622914Y-85135714D02*
X75813390Y-85088095D01*
X75813390Y-85088095D02*
X76194342Y-85088095D01*
X76194342Y-85088095D02*
X76289580Y-85135714D01*
X76289580Y-85135714D02*
X76337200Y-85183333D01*
X76337200Y-85183333D02*
X76384819Y-85278571D01*
X76384819Y-85278571D02*
X76384819Y-85469047D01*
X76384819Y-85469047D02*
X76337200Y-85564285D01*
X76337200Y-85564285D02*
X76289580Y-85611904D01*
X76289580Y-85611904D02*
X76194342Y-85659523D01*
X76194342Y-85659523D02*
X75956247Y-85659523D01*
X75956247Y-85659523D02*
X75861009Y-85611904D01*
X75861009Y-85611904D02*
X75813390Y-85564285D01*
X75813390Y-85564285D02*
X75765771Y-85469047D01*
X75765771Y-85469047D02*
X75765771Y-85278571D01*
X75765771Y-85278571D02*
X75813390Y-85183333D01*
X75813390Y-85183333D02*
X75861009Y-85135714D01*
X75861009Y-85135714D02*
X75956247Y-85088095D01*
X75480057Y-86040476D02*
X75432438Y-86088095D01*
X75432438Y-86088095D02*
X75384819Y-86183333D01*
X75384819Y-86183333D02*
X75384819Y-86421428D01*
X75384819Y-86421428D02*
X75432438Y-86516666D01*
X75432438Y-86516666D02*
X75480057Y-86564285D01*
X75480057Y-86564285D02*
X75575295Y-86611904D01*
X75575295Y-86611904D02*
X75670533Y-86611904D01*
X75670533Y-86611904D02*
X75813390Y-86564285D01*
X75813390Y-86564285D02*
X76384819Y-85992857D01*
X76384819Y-85992857D02*
X76384819Y-86611904D01*
X131284819Y-42593214D02*
X130284819Y-42593214D01*
X130284819Y-42593214D02*
X130284819Y-42831309D01*
X130284819Y-42831309D02*
X130332438Y-42974166D01*
X130332438Y-42974166D02*
X130427676Y-43069404D01*
X130427676Y-43069404D02*
X130522914Y-43117023D01*
X130522914Y-43117023D02*
X130713390Y-43164642D01*
X130713390Y-43164642D02*
X130856247Y-43164642D01*
X130856247Y-43164642D02*
X131046723Y-43117023D01*
X131046723Y-43117023D02*
X131141961Y-43069404D01*
X131141961Y-43069404D02*
X131237200Y-42974166D01*
X131237200Y-42974166D02*
X131284819Y-42831309D01*
X131284819Y-42831309D02*
X131284819Y-42593214D01*
X130284819Y-43497976D02*
X130284819Y-44117023D01*
X130284819Y-44117023D02*
X130665771Y-43783690D01*
X130665771Y-43783690D02*
X130665771Y-43926547D01*
X130665771Y-43926547D02*
X130713390Y-44021785D01*
X130713390Y-44021785D02*
X130761009Y-44069404D01*
X130761009Y-44069404D02*
X130856247Y-44117023D01*
X130856247Y-44117023D02*
X131094342Y-44117023D01*
X131094342Y-44117023D02*
X131189580Y-44069404D01*
X131189580Y-44069404D02*
X131237200Y-44021785D01*
X131237200Y-44021785D02*
X131284819Y-43926547D01*
X131284819Y-43926547D02*
X131284819Y-43640833D01*
X131284819Y-43640833D02*
X131237200Y-43545595D01*
X131237200Y-43545595D02*
X131189580Y-43497976D01*
X130284819Y-45021785D02*
X130284819Y-44545595D01*
X130284819Y-44545595D02*
X130761009Y-44497976D01*
X130761009Y-44497976D02*
X130713390Y-44545595D01*
X130713390Y-44545595D02*
X130665771Y-44640833D01*
X130665771Y-44640833D02*
X130665771Y-44878928D01*
X130665771Y-44878928D02*
X130713390Y-44974166D01*
X130713390Y-44974166D02*
X130761009Y-45021785D01*
X130761009Y-45021785D02*
X130856247Y-45069404D01*
X130856247Y-45069404D02*
X131094342Y-45069404D01*
X131094342Y-45069404D02*
X131189580Y-45021785D01*
X131189580Y-45021785D02*
X131237200Y-44974166D01*
X131237200Y-44974166D02*
X131284819Y-44878928D01*
X131284819Y-44878928D02*
X131284819Y-44640833D01*
X131284819Y-44640833D02*
X131237200Y-44545595D01*
X131237200Y-44545595D02*
X131189580Y-44497976D01*
X202734819Y-24865714D02*
X201734819Y-24865714D01*
X201734819Y-24865714D02*
X201734819Y-25103809D01*
X201734819Y-25103809D02*
X201782438Y-25246666D01*
X201782438Y-25246666D02*
X201877676Y-25341904D01*
X201877676Y-25341904D02*
X201972914Y-25389523D01*
X201972914Y-25389523D02*
X202163390Y-25437142D01*
X202163390Y-25437142D02*
X202306247Y-25437142D01*
X202306247Y-25437142D02*
X202496723Y-25389523D01*
X202496723Y-25389523D02*
X202591961Y-25341904D01*
X202591961Y-25341904D02*
X202687200Y-25246666D01*
X202687200Y-25246666D02*
X202734819Y-25103809D01*
X202734819Y-25103809D02*
X202734819Y-24865714D01*
X201830057Y-25818095D02*
X201782438Y-25865714D01*
X201782438Y-25865714D02*
X201734819Y-25960952D01*
X201734819Y-25960952D02*
X201734819Y-26199047D01*
X201734819Y-26199047D02*
X201782438Y-26294285D01*
X201782438Y-26294285D02*
X201830057Y-26341904D01*
X201830057Y-26341904D02*
X201925295Y-26389523D01*
X201925295Y-26389523D02*
X202020533Y-26389523D01*
X202020533Y-26389523D02*
X202163390Y-26341904D01*
X202163390Y-26341904D02*
X202734819Y-25770476D01*
X202734819Y-25770476D02*
X202734819Y-26389523D01*
X201734819Y-27294285D02*
X201734819Y-26818095D01*
X201734819Y-26818095D02*
X202211009Y-26770476D01*
X202211009Y-26770476D02*
X202163390Y-26818095D01*
X202163390Y-26818095D02*
X202115771Y-26913333D01*
X202115771Y-26913333D02*
X202115771Y-27151428D01*
X202115771Y-27151428D02*
X202163390Y-27246666D01*
X202163390Y-27246666D02*
X202211009Y-27294285D01*
X202211009Y-27294285D02*
X202306247Y-27341904D01*
X202306247Y-27341904D02*
X202544342Y-27341904D01*
X202544342Y-27341904D02*
X202639580Y-27294285D01*
X202639580Y-27294285D02*
X202687200Y-27246666D01*
X202687200Y-27246666D02*
X202734819Y-27151428D01*
X202734819Y-27151428D02*
X202734819Y-26913333D01*
X202734819Y-26913333D02*
X202687200Y-26818095D01*
X202687200Y-26818095D02*
X202639580Y-26770476D01*
X141694819Y-5191905D02*
X140694819Y-5191905D01*
X140694819Y-5191905D02*
X140694819Y-5430000D01*
X140694819Y-5430000D02*
X140742438Y-5572857D01*
X140742438Y-5572857D02*
X140837676Y-5668095D01*
X140837676Y-5668095D02*
X140932914Y-5715714D01*
X140932914Y-5715714D02*
X141123390Y-5763333D01*
X141123390Y-5763333D02*
X141266247Y-5763333D01*
X141266247Y-5763333D02*
X141456723Y-5715714D01*
X141456723Y-5715714D02*
X141551961Y-5668095D01*
X141551961Y-5668095D02*
X141647200Y-5572857D01*
X141647200Y-5572857D02*
X141694819Y-5430000D01*
X141694819Y-5430000D02*
X141694819Y-5191905D01*
X141123390Y-6334762D02*
X141075771Y-6239524D01*
X141075771Y-6239524D02*
X141028152Y-6191905D01*
X141028152Y-6191905D02*
X140932914Y-6144286D01*
X140932914Y-6144286D02*
X140885295Y-6144286D01*
X140885295Y-6144286D02*
X140790057Y-6191905D01*
X140790057Y-6191905D02*
X140742438Y-6239524D01*
X140742438Y-6239524D02*
X140694819Y-6334762D01*
X140694819Y-6334762D02*
X140694819Y-6525238D01*
X140694819Y-6525238D02*
X140742438Y-6620476D01*
X140742438Y-6620476D02*
X140790057Y-6668095D01*
X140790057Y-6668095D02*
X140885295Y-6715714D01*
X140885295Y-6715714D02*
X140932914Y-6715714D01*
X140932914Y-6715714D02*
X141028152Y-6668095D01*
X141028152Y-6668095D02*
X141075771Y-6620476D01*
X141075771Y-6620476D02*
X141123390Y-6525238D01*
X141123390Y-6525238D02*
X141123390Y-6334762D01*
X141123390Y-6334762D02*
X141171009Y-6239524D01*
X141171009Y-6239524D02*
X141218628Y-6191905D01*
X141218628Y-6191905D02*
X141313866Y-6144286D01*
X141313866Y-6144286D02*
X141504342Y-6144286D01*
X141504342Y-6144286D02*
X141599580Y-6191905D01*
X141599580Y-6191905D02*
X141647200Y-6239524D01*
X141647200Y-6239524D02*
X141694819Y-6334762D01*
X141694819Y-6334762D02*
X141694819Y-6525238D01*
X141694819Y-6525238D02*
X141647200Y-6620476D01*
X141647200Y-6620476D02*
X141599580Y-6668095D01*
X141599580Y-6668095D02*
X141504342Y-6715714D01*
X141504342Y-6715714D02*
X141313866Y-6715714D01*
X141313866Y-6715714D02*
X141218628Y-6668095D01*
X141218628Y-6668095D02*
X141171009Y-6620476D01*
X141171009Y-6620476D02*
X141123390Y-6525238D01*
X79784819Y-61515714D02*
X78784819Y-61515714D01*
X78784819Y-61515714D02*
X78784819Y-61753809D01*
X78784819Y-61753809D02*
X78832438Y-61896666D01*
X78832438Y-61896666D02*
X78927676Y-61991904D01*
X78927676Y-61991904D02*
X79022914Y-62039523D01*
X79022914Y-62039523D02*
X79213390Y-62087142D01*
X79213390Y-62087142D02*
X79356247Y-62087142D01*
X79356247Y-62087142D02*
X79546723Y-62039523D01*
X79546723Y-62039523D02*
X79641961Y-61991904D01*
X79641961Y-61991904D02*
X79737200Y-61896666D01*
X79737200Y-61896666D02*
X79784819Y-61753809D01*
X79784819Y-61753809D02*
X79784819Y-61515714D01*
X79118152Y-62944285D02*
X79784819Y-62944285D01*
X78737200Y-62706190D02*
X79451485Y-62468095D01*
X79451485Y-62468095D02*
X79451485Y-63087142D01*
X79213390Y-63610952D02*
X79165771Y-63515714D01*
X79165771Y-63515714D02*
X79118152Y-63468095D01*
X79118152Y-63468095D02*
X79022914Y-63420476D01*
X79022914Y-63420476D02*
X78975295Y-63420476D01*
X78975295Y-63420476D02*
X78880057Y-63468095D01*
X78880057Y-63468095D02*
X78832438Y-63515714D01*
X78832438Y-63515714D02*
X78784819Y-63610952D01*
X78784819Y-63610952D02*
X78784819Y-63801428D01*
X78784819Y-63801428D02*
X78832438Y-63896666D01*
X78832438Y-63896666D02*
X78880057Y-63944285D01*
X78880057Y-63944285D02*
X78975295Y-63991904D01*
X78975295Y-63991904D02*
X79022914Y-63991904D01*
X79022914Y-63991904D02*
X79118152Y-63944285D01*
X79118152Y-63944285D02*
X79165771Y-63896666D01*
X79165771Y-63896666D02*
X79213390Y-63801428D01*
X79213390Y-63801428D02*
X79213390Y-63610952D01*
X79213390Y-63610952D02*
X79261009Y-63515714D01*
X79261009Y-63515714D02*
X79308628Y-63468095D01*
X79308628Y-63468095D02*
X79403866Y-63420476D01*
X79403866Y-63420476D02*
X79594342Y-63420476D01*
X79594342Y-63420476D02*
X79689580Y-63468095D01*
X79689580Y-63468095D02*
X79737200Y-63515714D01*
X79737200Y-63515714D02*
X79784819Y-63610952D01*
X79784819Y-63610952D02*
X79784819Y-63801428D01*
X79784819Y-63801428D02*
X79737200Y-63896666D01*
X79737200Y-63896666D02*
X79689580Y-63944285D01*
X79689580Y-63944285D02*
X79594342Y-63991904D01*
X79594342Y-63991904D02*
X79403866Y-63991904D01*
X79403866Y-63991904D02*
X79308628Y-63944285D01*
X79308628Y-63944285D02*
X79261009Y-63896666D01*
X79261009Y-63896666D02*
X79213390Y-63801428D01*
X88564819Y-25025714D02*
X87564819Y-25025714D01*
X87564819Y-25025714D02*
X87564819Y-25263809D01*
X87564819Y-25263809D02*
X87612438Y-25406666D01*
X87612438Y-25406666D02*
X87707676Y-25501904D01*
X87707676Y-25501904D02*
X87802914Y-25549523D01*
X87802914Y-25549523D02*
X87993390Y-25597142D01*
X87993390Y-25597142D02*
X88136247Y-25597142D01*
X88136247Y-25597142D02*
X88326723Y-25549523D01*
X88326723Y-25549523D02*
X88421961Y-25501904D01*
X88421961Y-25501904D02*
X88517200Y-25406666D01*
X88517200Y-25406666D02*
X88564819Y-25263809D01*
X88564819Y-25263809D02*
X88564819Y-25025714D01*
X88564819Y-26549523D02*
X88564819Y-25978095D01*
X88564819Y-26263809D02*
X87564819Y-26263809D01*
X87564819Y-26263809D02*
X87707676Y-26168571D01*
X87707676Y-26168571D02*
X87802914Y-26073333D01*
X87802914Y-26073333D02*
X87850533Y-25978095D01*
X88564819Y-27025714D02*
X88564819Y-27216190D01*
X88564819Y-27216190D02*
X88517200Y-27311428D01*
X88517200Y-27311428D02*
X88469580Y-27359047D01*
X88469580Y-27359047D02*
X88326723Y-27454285D01*
X88326723Y-27454285D02*
X88136247Y-27501904D01*
X88136247Y-27501904D02*
X87755295Y-27501904D01*
X87755295Y-27501904D02*
X87660057Y-27454285D01*
X87660057Y-27454285D02*
X87612438Y-27406666D01*
X87612438Y-27406666D02*
X87564819Y-27311428D01*
X87564819Y-27311428D02*
X87564819Y-27120952D01*
X87564819Y-27120952D02*
X87612438Y-27025714D01*
X87612438Y-27025714D02*
X87660057Y-26978095D01*
X87660057Y-26978095D02*
X87755295Y-26930476D01*
X87755295Y-26930476D02*
X87993390Y-26930476D01*
X87993390Y-26930476D02*
X88088628Y-26978095D01*
X88088628Y-26978095D02*
X88136247Y-27025714D01*
X88136247Y-27025714D02*
X88183866Y-27120952D01*
X88183866Y-27120952D02*
X88183866Y-27311428D01*
X88183866Y-27311428D02*
X88136247Y-27406666D01*
X88136247Y-27406666D02*
X88088628Y-27454285D01*
X88088628Y-27454285D02*
X87993390Y-27501904D01*
X169334819Y-42638214D02*
X168334819Y-42638214D01*
X168334819Y-42638214D02*
X168334819Y-42876309D01*
X168334819Y-42876309D02*
X168382438Y-43019166D01*
X168382438Y-43019166D02*
X168477676Y-43114404D01*
X168477676Y-43114404D02*
X168572914Y-43162023D01*
X168572914Y-43162023D02*
X168763390Y-43209642D01*
X168763390Y-43209642D02*
X168906247Y-43209642D01*
X168906247Y-43209642D02*
X169096723Y-43162023D01*
X169096723Y-43162023D02*
X169191961Y-43114404D01*
X169191961Y-43114404D02*
X169287200Y-43019166D01*
X169287200Y-43019166D02*
X169334819Y-42876309D01*
X169334819Y-42876309D02*
X169334819Y-42638214D01*
X168334819Y-43542976D02*
X168334819Y-44162023D01*
X168334819Y-44162023D02*
X168715771Y-43828690D01*
X168715771Y-43828690D02*
X168715771Y-43971547D01*
X168715771Y-43971547D02*
X168763390Y-44066785D01*
X168763390Y-44066785D02*
X168811009Y-44114404D01*
X168811009Y-44114404D02*
X168906247Y-44162023D01*
X168906247Y-44162023D02*
X169144342Y-44162023D01*
X169144342Y-44162023D02*
X169239580Y-44114404D01*
X169239580Y-44114404D02*
X169287200Y-44066785D01*
X169287200Y-44066785D02*
X169334819Y-43971547D01*
X169334819Y-43971547D02*
X169334819Y-43685833D01*
X169334819Y-43685833D02*
X169287200Y-43590595D01*
X169287200Y-43590595D02*
X169239580Y-43542976D01*
X168334819Y-44495357D02*
X168334819Y-45162023D01*
X168334819Y-45162023D02*
X169334819Y-44733452D01*
X69964819Y-25145714D02*
X68964819Y-25145714D01*
X68964819Y-25145714D02*
X68964819Y-25383809D01*
X68964819Y-25383809D02*
X69012438Y-25526666D01*
X69012438Y-25526666D02*
X69107676Y-25621904D01*
X69107676Y-25621904D02*
X69202914Y-25669523D01*
X69202914Y-25669523D02*
X69393390Y-25717142D01*
X69393390Y-25717142D02*
X69536247Y-25717142D01*
X69536247Y-25717142D02*
X69726723Y-25669523D01*
X69726723Y-25669523D02*
X69821961Y-25621904D01*
X69821961Y-25621904D02*
X69917200Y-25526666D01*
X69917200Y-25526666D02*
X69964819Y-25383809D01*
X69964819Y-25383809D02*
X69964819Y-25145714D01*
X69964819Y-26669523D02*
X69964819Y-26098095D01*
X69964819Y-26383809D02*
X68964819Y-26383809D01*
X68964819Y-26383809D02*
X69107676Y-26288571D01*
X69107676Y-26288571D02*
X69202914Y-26193333D01*
X69202914Y-26193333D02*
X69250533Y-26098095D01*
X69393390Y-27240952D02*
X69345771Y-27145714D01*
X69345771Y-27145714D02*
X69298152Y-27098095D01*
X69298152Y-27098095D02*
X69202914Y-27050476D01*
X69202914Y-27050476D02*
X69155295Y-27050476D01*
X69155295Y-27050476D02*
X69060057Y-27098095D01*
X69060057Y-27098095D02*
X69012438Y-27145714D01*
X69012438Y-27145714D02*
X68964819Y-27240952D01*
X68964819Y-27240952D02*
X68964819Y-27431428D01*
X68964819Y-27431428D02*
X69012438Y-27526666D01*
X69012438Y-27526666D02*
X69060057Y-27574285D01*
X69060057Y-27574285D02*
X69155295Y-27621904D01*
X69155295Y-27621904D02*
X69202914Y-27621904D01*
X69202914Y-27621904D02*
X69298152Y-27574285D01*
X69298152Y-27574285D02*
X69345771Y-27526666D01*
X69345771Y-27526666D02*
X69393390Y-27431428D01*
X69393390Y-27431428D02*
X69393390Y-27240952D01*
X69393390Y-27240952D02*
X69441009Y-27145714D01*
X69441009Y-27145714D02*
X69488628Y-27098095D01*
X69488628Y-27098095D02*
X69583866Y-27050476D01*
X69583866Y-27050476D02*
X69774342Y-27050476D01*
X69774342Y-27050476D02*
X69869580Y-27098095D01*
X69869580Y-27098095D02*
X69917200Y-27145714D01*
X69917200Y-27145714D02*
X69964819Y-27240952D01*
X69964819Y-27240952D02*
X69964819Y-27431428D01*
X69964819Y-27431428D02*
X69917200Y-27526666D01*
X69917200Y-27526666D02*
X69869580Y-27574285D01*
X69869580Y-27574285D02*
X69774342Y-27621904D01*
X69774342Y-27621904D02*
X69583866Y-27621904D01*
X69583866Y-27621904D02*
X69488628Y-27574285D01*
X69488628Y-27574285D02*
X69441009Y-27526666D01*
X69441009Y-27526666D02*
X69393390Y-27431428D01*
X259784819Y-24945714D02*
X258784819Y-24945714D01*
X258784819Y-24945714D02*
X258784819Y-25183809D01*
X258784819Y-25183809D02*
X258832438Y-25326666D01*
X258832438Y-25326666D02*
X258927676Y-25421904D01*
X258927676Y-25421904D02*
X259022914Y-25469523D01*
X259022914Y-25469523D02*
X259213390Y-25517142D01*
X259213390Y-25517142D02*
X259356247Y-25517142D01*
X259356247Y-25517142D02*
X259546723Y-25469523D01*
X259546723Y-25469523D02*
X259641961Y-25421904D01*
X259641961Y-25421904D02*
X259737200Y-25326666D01*
X259737200Y-25326666D02*
X259784819Y-25183809D01*
X259784819Y-25183809D02*
X259784819Y-24945714D01*
X258880057Y-25898095D02*
X258832438Y-25945714D01*
X258832438Y-25945714D02*
X258784819Y-26040952D01*
X258784819Y-26040952D02*
X258784819Y-26279047D01*
X258784819Y-26279047D02*
X258832438Y-26374285D01*
X258832438Y-26374285D02*
X258880057Y-26421904D01*
X258880057Y-26421904D02*
X258975295Y-26469523D01*
X258975295Y-26469523D02*
X259070533Y-26469523D01*
X259070533Y-26469523D02*
X259213390Y-26421904D01*
X259213390Y-26421904D02*
X259784819Y-25850476D01*
X259784819Y-25850476D02*
X259784819Y-26469523D01*
X259213390Y-27040952D02*
X259165771Y-26945714D01*
X259165771Y-26945714D02*
X259118152Y-26898095D01*
X259118152Y-26898095D02*
X259022914Y-26850476D01*
X259022914Y-26850476D02*
X258975295Y-26850476D01*
X258975295Y-26850476D02*
X258880057Y-26898095D01*
X258880057Y-26898095D02*
X258832438Y-26945714D01*
X258832438Y-26945714D02*
X258784819Y-27040952D01*
X258784819Y-27040952D02*
X258784819Y-27231428D01*
X258784819Y-27231428D02*
X258832438Y-27326666D01*
X258832438Y-27326666D02*
X258880057Y-27374285D01*
X258880057Y-27374285D02*
X258975295Y-27421904D01*
X258975295Y-27421904D02*
X259022914Y-27421904D01*
X259022914Y-27421904D02*
X259118152Y-27374285D01*
X259118152Y-27374285D02*
X259165771Y-27326666D01*
X259165771Y-27326666D02*
X259213390Y-27231428D01*
X259213390Y-27231428D02*
X259213390Y-27040952D01*
X259213390Y-27040952D02*
X259261009Y-26945714D01*
X259261009Y-26945714D02*
X259308628Y-26898095D01*
X259308628Y-26898095D02*
X259403866Y-26850476D01*
X259403866Y-26850476D02*
X259594342Y-26850476D01*
X259594342Y-26850476D02*
X259689580Y-26898095D01*
X259689580Y-26898095D02*
X259737200Y-26945714D01*
X259737200Y-26945714D02*
X259784819Y-27040952D01*
X259784819Y-27040952D02*
X259784819Y-27231428D01*
X259784819Y-27231428D02*
X259737200Y-27326666D01*
X259737200Y-27326666D02*
X259689580Y-27374285D01*
X259689580Y-27374285D02*
X259594342Y-27421904D01*
X259594342Y-27421904D02*
X259403866Y-27421904D01*
X259403866Y-27421904D02*
X259308628Y-27374285D01*
X259308628Y-27374285D02*
X259261009Y-27326666D01*
X259261009Y-27326666D02*
X259213390Y-27231428D01*
X25624819Y-26865714D02*
X24624819Y-26865714D01*
X24624819Y-26865714D02*
X24624819Y-27103809D01*
X24624819Y-27103809D02*
X24672438Y-27246666D01*
X24672438Y-27246666D02*
X24767676Y-27341904D01*
X24767676Y-27341904D02*
X24862914Y-27389523D01*
X24862914Y-27389523D02*
X25053390Y-27437142D01*
X25053390Y-27437142D02*
X25196247Y-27437142D01*
X25196247Y-27437142D02*
X25386723Y-27389523D01*
X25386723Y-27389523D02*
X25481961Y-27341904D01*
X25481961Y-27341904D02*
X25577200Y-27246666D01*
X25577200Y-27246666D02*
X25624819Y-27103809D01*
X25624819Y-27103809D02*
X25624819Y-26865714D01*
X25624819Y-28389523D02*
X25624819Y-27818095D01*
X25624819Y-28103809D02*
X24624819Y-28103809D01*
X24624819Y-28103809D02*
X24767676Y-28008571D01*
X24767676Y-28008571D02*
X24862914Y-27913333D01*
X24862914Y-27913333D02*
X24910533Y-27818095D01*
X24624819Y-29246666D02*
X24624819Y-29056190D01*
X24624819Y-29056190D02*
X24672438Y-28960952D01*
X24672438Y-28960952D02*
X24720057Y-28913333D01*
X24720057Y-28913333D02*
X24862914Y-28818095D01*
X24862914Y-28818095D02*
X25053390Y-28770476D01*
X25053390Y-28770476D02*
X25434342Y-28770476D01*
X25434342Y-28770476D02*
X25529580Y-28818095D01*
X25529580Y-28818095D02*
X25577200Y-28865714D01*
X25577200Y-28865714D02*
X25624819Y-28960952D01*
X25624819Y-28960952D02*
X25624819Y-29151428D01*
X25624819Y-29151428D02*
X25577200Y-29246666D01*
X25577200Y-29246666D02*
X25529580Y-29294285D01*
X25529580Y-29294285D02*
X25434342Y-29341904D01*
X25434342Y-29341904D02*
X25196247Y-29341904D01*
X25196247Y-29341904D02*
X25101009Y-29294285D01*
X25101009Y-29294285D02*
X25053390Y-29246666D01*
X25053390Y-29246666D02*
X25005771Y-29151428D01*
X25005771Y-29151428D02*
X25005771Y-28960952D01*
X25005771Y-28960952D02*
X25053390Y-28865714D01*
X25053390Y-28865714D02*
X25101009Y-28818095D01*
X25101009Y-28818095D02*
X25196247Y-28770476D01*
X188454819Y-42638214D02*
X187454819Y-42638214D01*
X187454819Y-42638214D02*
X187454819Y-42876309D01*
X187454819Y-42876309D02*
X187502438Y-43019166D01*
X187502438Y-43019166D02*
X187597676Y-43114404D01*
X187597676Y-43114404D02*
X187692914Y-43162023D01*
X187692914Y-43162023D02*
X187883390Y-43209642D01*
X187883390Y-43209642D02*
X188026247Y-43209642D01*
X188026247Y-43209642D02*
X188216723Y-43162023D01*
X188216723Y-43162023D02*
X188311961Y-43114404D01*
X188311961Y-43114404D02*
X188407200Y-43019166D01*
X188407200Y-43019166D02*
X188454819Y-42876309D01*
X188454819Y-42876309D02*
X188454819Y-42638214D01*
X187454819Y-43542976D02*
X187454819Y-44162023D01*
X187454819Y-44162023D02*
X187835771Y-43828690D01*
X187835771Y-43828690D02*
X187835771Y-43971547D01*
X187835771Y-43971547D02*
X187883390Y-44066785D01*
X187883390Y-44066785D02*
X187931009Y-44114404D01*
X187931009Y-44114404D02*
X188026247Y-44162023D01*
X188026247Y-44162023D02*
X188264342Y-44162023D01*
X188264342Y-44162023D02*
X188359580Y-44114404D01*
X188359580Y-44114404D02*
X188407200Y-44066785D01*
X188407200Y-44066785D02*
X188454819Y-43971547D01*
X188454819Y-43971547D02*
X188454819Y-43685833D01*
X188454819Y-43685833D02*
X188407200Y-43590595D01*
X188407200Y-43590595D02*
X188359580Y-43542976D01*
X187883390Y-44733452D02*
X187835771Y-44638214D01*
X187835771Y-44638214D02*
X187788152Y-44590595D01*
X187788152Y-44590595D02*
X187692914Y-44542976D01*
X187692914Y-44542976D02*
X187645295Y-44542976D01*
X187645295Y-44542976D02*
X187550057Y-44590595D01*
X187550057Y-44590595D02*
X187502438Y-44638214D01*
X187502438Y-44638214D02*
X187454819Y-44733452D01*
X187454819Y-44733452D02*
X187454819Y-44923928D01*
X187454819Y-44923928D02*
X187502438Y-45019166D01*
X187502438Y-45019166D02*
X187550057Y-45066785D01*
X187550057Y-45066785D02*
X187645295Y-45114404D01*
X187645295Y-45114404D02*
X187692914Y-45114404D01*
X187692914Y-45114404D02*
X187788152Y-45066785D01*
X187788152Y-45066785D02*
X187835771Y-45019166D01*
X187835771Y-45019166D02*
X187883390Y-44923928D01*
X187883390Y-44923928D02*
X187883390Y-44733452D01*
X187883390Y-44733452D02*
X187931009Y-44638214D01*
X187931009Y-44638214D02*
X187978628Y-44590595D01*
X187978628Y-44590595D02*
X188073866Y-44542976D01*
X188073866Y-44542976D02*
X188264342Y-44542976D01*
X188264342Y-44542976D02*
X188359580Y-44590595D01*
X188359580Y-44590595D02*
X188407200Y-44638214D01*
X188407200Y-44638214D02*
X188454819Y-44733452D01*
X188454819Y-44733452D02*
X188454819Y-44923928D01*
X188454819Y-44923928D02*
X188407200Y-45019166D01*
X188407200Y-45019166D02*
X188359580Y-45066785D01*
X188359580Y-45066785D02*
X188264342Y-45114404D01*
X188264342Y-45114404D02*
X188073866Y-45114404D01*
X188073866Y-45114404D02*
X187978628Y-45066785D01*
X187978628Y-45066785D02*
X187931009Y-45019166D01*
X187931009Y-45019166D02*
X187883390Y-44923928D01*
X226624819Y-42660714D02*
X225624819Y-42660714D01*
X225624819Y-42660714D02*
X225624819Y-42898809D01*
X225624819Y-42898809D02*
X225672438Y-43041666D01*
X225672438Y-43041666D02*
X225767676Y-43136904D01*
X225767676Y-43136904D02*
X225862914Y-43184523D01*
X225862914Y-43184523D02*
X226053390Y-43232142D01*
X226053390Y-43232142D02*
X226196247Y-43232142D01*
X226196247Y-43232142D02*
X226386723Y-43184523D01*
X226386723Y-43184523D02*
X226481961Y-43136904D01*
X226481961Y-43136904D02*
X226577200Y-43041666D01*
X226577200Y-43041666D02*
X226624819Y-42898809D01*
X226624819Y-42898809D02*
X226624819Y-42660714D01*
X225958152Y-44089285D02*
X226624819Y-44089285D01*
X225577200Y-43851190D02*
X226291485Y-43613095D01*
X226291485Y-43613095D02*
X226291485Y-44232142D01*
X225624819Y-44803571D02*
X225624819Y-44898809D01*
X225624819Y-44898809D02*
X225672438Y-44994047D01*
X225672438Y-44994047D02*
X225720057Y-45041666D01*
X225720057Y-45041666D02*
X225815295Y-45089285D01*
X225815295Y-45089285D02*
X226005771Y-45136904D01*
X226005771Y-45136904D02*
X226243866Y-45136904D01*
X226243866Y-45136904D02*
X226434342Y-45089285D01*
X226434342Y-45089285D02*
X226529580Y-45041666D01*
X226529580Y-45041666D02*
X226577200Y-44994047D01*
X226577200Y-44994047D02*
X226624819Y-44898809D01*
X226624819Y-44898809D02*
X226624819Y-44803571D01*
X226624819Y-44803571D02*
X226577200Y-44708333D01*
X226577200Y-44708333D02*
X226529580Y-44660714D01*
X226529580Y-44660714D02*
X226434342Y-44613095D01*
X226434342Y-44613095D02*
X226243866Y-44565476D01*
X226243866Y-44565476D02*
X226005771Y-44565476D01*
X226005771Y-44565476D02*
X225815295Y-44613095D01*
X225815295Y-44613095D02*
X225720057Y-44660714D01*
X225720057Y-44660714D02*
X225672438Y-44708333D01*
X225672438Y-44708333D02*
X225624819Y-44803571D01*
X267344819Y-4725714D02*
X266344819Y-4725714D01*
X266344819Y-4725714D02*
X266344819Y-4963809D01*
X266344819Y-4963809D02*
X266392438Y-5106666D01*
X266392438Y-5106666D02*
X266487676Y-5201904D01*
X266487676Y-5201904D02*
X266582914Y-5249523D01*
X266582914Y-5249523D02*
X266773390Y-5297142D01*
X266773390Y-5297142D02*
X266916247Y-5297142D01*
X266916247Y-5297142D02*
X267106723Y-5249523D01*
X267106723Y-5249523D02*
X267201961Y-5201904D01*
X267201961Y-5201904D02*
X267297200Y-5106666D01*
X267297200Y-5106666D02*
X267344819Y-4963809D01*
X267344819Y-4963809D02*
X267344819Y-4725714D01*
X267344819Y-6249523D02*
X267344819Y-5678095D01*
X267344819Y-5963809D02*
X266344819Y-5963809D01*
X266344819Y-5963809D02*
X266487676Y-5868571D01*
X266487676Y-5868571D02*
X266582914Y-5773333D01*
X266582914Y-5773333D02*
X266630533Y-5678095D01*
X266344819Y-7154285D02*
X266344819Y-6678095D01*
X266344819Y-6678095D02*
X266821009Y-6630476D01*
X266821009Y-6630476D02*
X266773390Y-6678095D01*
X266773390Y-6678095D02*
X266725771Y-6773333D01*
X266725771Y-6773333D02*
X266725771Y-7011428D01*
X266725771Y-7011428D02*
X266773390Y-7106666D01*
X266773390Y-7106666D02*
X266821009Y-7154285D01*
X266821009Y-7154285D02*
X266916247Y-7201904D01*
X266916247Y-7201904D02*
X267154342Y-7201904D01*
X267154342Y-7201904D02*
X267249580Y-7154285D01*
X267249580Y-7154285D02*
X267297200Y-7106666D01*
X267297200Y-7106666D02*
X267344819Y-7011428D01*
X267344819Y-7011428D02*
X267344819Y-6773333D01*
X267344819Y-6773333D02*
X267297200Y-6678095D01*
X267297200Y-6678095D02*
X267249580Y-6630476D01*
X176161266Y-84085580D02*
X176208885Y-84133200D01*
X176208885Y-84133200D02*
X176351742Y-84180819D01*
X176351742Y-84180819D02*
X176446980Y-84180819D01*
X176446980Y-84180819D02*
X176589837Y-84133200D01*
X176589837Y-84133200D02*
X176685075Y-84037961D01*
X176685075Y-84037961D02*
X176732694Y-83942723D01*
X176732694Y-83942723D02*
X176780313Y-83752247D01*
X176780313Y-83752247D02*
X176780313Y-83609390D01*
X176780313Y-83609390D02*
X176732694Y-83418914D01*
X176732694Y-83418914D02*
X176685075Y-83323676D01*
X176685075Y-83323676D02*
X176589837Y-83228438D01*
X176589837Y-83228438D02*
X176446980Y-83180819D01*
X176446980Y-83180819D02*
X176351742Y-83180819D01*
X176351742Y-83180819D02*
X176208885Y-83228438D01*
X176208885Y-83228438D02*
X176161266Y-83276057D01*
X175827932Y-83180819D02*
X175208885Y-83180819D01*
X175208885Y-83180819D02*
X175542218Y-83561771D01*
X175542218Y-83561771D02*
X175399361Y-83561771D01*
X175399361Y-83561771D02*
X175304123Y-83609390D01*
X175304123Y-83609390D02*
X175256504Y-83657009D01*
X175256504Y-83657009D02*
X175208885Y-83752247D01*
X175208885Y-83752247D02*
X175208885Y-83990342D01*
X175208885Y-83990342D02*
X175256504Y-84085580D01*
X175256504Y-84085580D02*
X175304123Y-84133200D01*
X175304123Y-84133200D02*
X175399361Y-84180819D01*
X175399361Y-84180819D02*
X175685075Y-84180819D01*
X175685075Y-84180819D02*
X175780313Y-84133200D01*
X175780313Y-84133200D02*
X175827932Y-84085580D01*
X175024819Y-61515714D02*
X174024819Y-61515714D01*
X174024819Y-61515714D02*
X174024819Y-61753809D01*
X174024819Y-61753809D02*
X174072438Y-61896666D01*
X174072438Y-61896666D02*
X174167676Y-61991904D01*
X174167676Y-61991904D02*
X174262914Y-62039523D01*
X174262914Y-62039523D02*
X174453390Y-62087142D01*
X174453390Y-62087142D02*
X174596247Y-62087142D01*
X174596247Y-62087142D02*
X174786723Y-62039523D01*
X174786723Y-62039523D02*
X174881961Y-61991904D01*
X174881961Y-61991904D02*
X174977200Y-61896666D01*
X174977200Y-61896666D02*
X175024819Y-61753809D01*
X175024819Y-61753809D02*
X175024819Y-61515714D01*
X174024819Y-62991904D02*
X174024819Y-62515714D01*
X174024819Y-62515714D02*
X174501009Y-62468095D01*
X174501009Y-62468095D02*
X174453390Y-62515714D01*
X174453390Y-62515714D02*
X174405771Y-62610952D01*
X174405771Y-62610952D02*
X174405771Y-62849047D01*
X174405771Y-62849047D02*
X174453390Y-62944285D01*
X174453390Y-62944285D02*
X174501009Y-62991904D01*
X174501009Y-62991904D02*
X174596247Y-63039523D01*
X174596247Y-63039523D02*
X174834342Y-63039523D01*
X174834342Y-63039523D02*
X174929580Y-62991904D01*
X174929580Y-62991904D02*
X174977200Y-62944285D01*
X174977200Y-62944285D02*
X175024819Y-62849047D01*
X175024819Y-62849047D02*
X175024819Y-62610952D01*
X175024819Y-62610952D02*
X174977200Y-62515714D01*
X174977200Y-62515714D02*
X174929580Y-62468095D01*
X174024819Y-63372857D02*
X174024819Y-63991904D01*
X174024819Y-63991904D02*
X174405771Y-63658571D01*
X174405771Y-63658571D02*
X174405771Y-63801428D01*
X174405771Y-63801428D02*
X174453390Y-63896666D01*
X174453390Y-63896666D02*
X174501009Y-63944285D01*
X174501009Y-63944285D02*
X174596247Y-63991904D01*
X174596247Y-63991904D02*
X174834342Y-63991904D01*
X174834342Y-63991904D02*
X174929580Y-63944285D01*
X174929580Y-63944285D02*
X174977200Y-63896666D01*
X174977200Y-63896666D02*
X175024819Y-63801428D01*
X175024819Y-63801428D02*
X175024819Y-63515714D01*
X175024819Y-63515714D02*
X174977200Y-63420476D01*
X174977200Y-63420476D02*
X174929580Y-63372857D01*
X164444819Y-24865714D02*
X163444819Y-24865714D01*
X163444819Y-24865714D02*
X163444819Y-25103809D01*
X163444819Y-25103809D02*
X163492438Y-25246666D01*
X163492438Y-25246666D02*
X163587676Y-25341904D01*
X163587676Y-25341904D02*
X163682914Y-25389523D01*
X163682914Y-25389523D02*
X163873390Y-25437142D01*
X163873390Y-25437142D02*
X164016247Y-25437142D01*
X164016247Y-25437142D02*
X164206723Y-25389523D01*
X164206723Y-25389523D02*
X164301961Y-25341904D01*
X164301961Y-25341904D02*
X164397200Y-25246666D01*
X164397200Y-25246666D02*
X164444819Y-25103809D01*
X164444819Y-25103809D02*
X164444819Y-24865714D01*
X163540057Y-25818095D02*
X163492438Y-25865714D01*
X163492438Y-25865714D02*
X163444819Y-25960952D01*
X163444819Y-25960952D02*
X163444819Y-26199047D01*
X163444819Y-26199047D02*
X163492438Y-26294285D01*
X163492438Y-26294285D02*
X163540057Y-26341904D01*
X163540057Y-26341904D02*
X163635295Y-26389523D01*
X163635295Y-26389523D02*
X163730533Y-26389523D01*
X163730533Y-26389523D02*
X163873390Y-26341904D01*
X163873390Y-26341904D02*
X164444819Y-25770476D01*
X164444819Y-25770476D02*
X164444819Y-26389523D01*
X163444819Y-26722857D02*
X163444819Y-27341904D01*
X163444819Y-27341904D02*
X163825771Y-27008571D01*
X163825771Y-27008571D02*
X163825771Y-27151428D01*
X163825771Y-27151428D02*
X163873390Y-27246666D01*
X163873390Y-27246666D02*
X163921009Y-27294285D01*
X163921009Y-27294285D02*
X164016247Y-27341904D01*
X164016247Y-27341904D02*
X164254342Y-27341904D01*
X164254342Y-27341904D02*
X164349580Y-27294285D01*
X164349580Y-27294285D02*
X164397200Y-27246666D01*
X164397200Y-27246666D02*
X164444819Y-27151428D01*
X164444819Y-27151428D02*
X164444819Y-26865714D01*
X164444819Y-26865714D02*
X164397200Y-26770476D01*
X164397200Y-26770476D02*
X164349580Y-26722857D01*
X101764819Y-5321905D02*
X100764819Y-5321905D01*
X100764819Y-5321905D02*
X100764819Y-5560000D01*
X100764819Y-5560000D02*
X100812438Y-5702857D01*
X100812438Y-5702857D02*
X100907676Y-5798095D01*
X100907676Y-5798095D02*
X101002914Y-5845714D01*
X101002914Y-5845714D02*
X101193390Y-5893333D01*
X101193390Y-5893333D02*
X101336247Y-5893333D01*
X101336247Y-5893333D02*
X101526723Y-5845714D01*
X101526723Y-5845714D02*
X101621961Y-5798095D01*
X101621961Y-5798095D02*
X101717200Y-5702857D01*
X101717200Y-5702857D02*
X101764819Y-5560000D01*
X101764819Y-5560000D02*
X101764819Y-5321905D01*
X100764819Y-6750476D02*
X100764819Y-6560000D01*
X100764819Y-6560000D02*
X100812438Y-6464762D01*
X100812438Y-6464762D02*
X100860057Y-6417143D01*
X100860057Y-6417143D02*
X101002914Y-6321905D01*
X101002914Y-6321905D02*
X101193390Y-6274286D01*
X101193390Y-6274286D02*
X101574342Y-6274286D01*
X101574342Y-6274286D02*
X101669580Y-6321905D01*
X101669580Y-6321905D02*
X101717200Y-6369524D01*
X101717200Y-6369524D02*
X101764819Y-6464762D01*
X101764819Y-6464762D02*
X101764819Y-6655238D01*
X101764819Y-6655238D02*
X101717200Y-6750476D01*
X101717200Y-6750476D02*
X101669580Y-6798095D01*
X101669580Y-6798095D02*
X101574342Y-6845714D01*
X101574342Y-6845714D02*
X101336247Y-6845714D01*
X101336247Y-6845714D02*
X101241009Y-6798095D01*
X101241009Y-6798095D02*
X101193390Y-6750476D01*
X101193390Y-6750476D02*
X101145771Y-6655238D01*
X101145771Y-6655238D02*
X101145771Y-6464762D01*
X101145771Y-6464762D02*
X101193390Y-6369524D01*
X101193390Y-6369524D02*
X101241009Y-6321905D01*
X101241009Y-6321905D02*
X101336247Y-6274286D01*
X44374819Y-5091905D02*
X43374819Y-5091905D01*
X43374819Y-5091905D02*
X43374819Y-5330000D01*
X43374819Y-5330000D02*
X43422438Y-5472857D01*
X43422438Y-5472857D02*
X43517676Y-5568095D01*
X43517676Y-5568095D02*
X43612914Y-5615714D01*
X43612914Y-5615714D02*
X43803390Y-5663333D01*
X43803390Y-5663333D02*
X43946247Y-5663333D01*
X43946247Y-5663333D02*
X44136723Y-5615714D01*
X44136723Y-5615714D02*
X44231961Y-5568095D01*
X44231961Y-5568095D02*
X44327200Y-5472857D01*
X44327200Y-5472857D02*
X44374819Y-5330000D01*
X44374819Y-5330000D02*
X44374819Y-5091905D01*
X43374819Y-5996667D02*
X43374819Y-6615714D01*
X43374819Y-6615714D02*
X43755771Y-6282381D01*
X43755771Y-6282381D02*
X43755771Y-6425238D01*
X43755771Y-6425238D02*
X43803390Y-6520476D01*
X43803390Y-6520476D02*
X43851009Y-6568095D01*
X43851009Y-6568095D02*
X43946247Y-6615714D01*
X43946247Y-6615714D02*
X44184342Y-6615714D01*
X44184342Y-6615714D02*
X44279580Y-6568095D01*
X44279580Y-6568095D02*
X44327200Y-6520476D01*
X44327200Y-6520476D02*
X44374819Y-6425238D01*
X44374819Y-6425238D02*
X44374819Y-6139524D01*
X44374819Y-6139524D02*
X44327200Y-6044286D01*
X44327200Y-6044286D02*
X44279580Y-5996667D01*
X141011785Y-75254819D02*
X141011785Y-74254819D01*
X141011785Y-74254819D02*
X140773690Y-74254819D01*
X140773690Y-74254819D02*
X140630833Y-74302438D01*
X140630833Y-74302438D02*
X140535595Y-74397676D01*
X140535595Y-74397676D02*
X140487976Y-74492914D01*
X140487976Y-74492914D02*
X140440357Y-74683390D01*
X140440357Y-74683390D02*
X140440357Y-74826247D01*
X140440357Y-74826247D02*
X140487976Y-75016723D01*
X140487976Y-75016723D02*
X140535595Y-75111961D01*
X140535595Y-75111961D02*
X140630833Y-75207200D01*
X140630833Y-75207200D02*
X140773690Y-75254819D01*
X140773690Y-75254819D02*
X141011785Y-75254819D01*
X139583214Y-74254819D02*
X139773690Y-74254819D01*
X139773690Y-74254819D02*
X139868928Y-74302438D01*
X139868928Y-74302438D02*
X139916547Y-74350057D01*
X139916547Y-74350057D02*
X140011785Y-74492914D01*
X140011785Y-74492914D02*
X140059404Y-74683390D01*
X140059404Y-74683390D02*
X140059404Y-75064342D01*
X140059404Y-75064342D02*
X140011785Y-75159580D01*
X140011785Y-75159580D02*
X139964166Y-75207200D01*
X139964166Y-75207200D02*
X139868928Y-75254819D01*
X139868928Y-75254819D02*
X139678452Y-75254819D01*
X139678452Y-75254819D02*
X139583214Y-75207200D01*
X139583214Y-75207200D02*
X139535595Y-75159580D01*
X139535595Y-75159580D02*
X139487976Y-75064342D01*
X139487976Y-75064342D02*
X139487976Y-74826247D01*
X139487976Y-74826247D02*
X139535595Y-74731009D01*
X139535595Y-74731009D02*
X139583214Y-74683390D01*
X139583214Y-74683390D02*
X139678452Y-74635771D01*
X139678452Y-74635771D02*
X139868928Y-74635771D01*
X139868928Y-74635771D02*
X139964166Y-74683390D01*
X139964166Y-74683390D02*
X140011785Y-74731009D01*
X140011785Y-74731009D02*
X140059404Y-74826247D01*
X139154642Y-74254819D02*
X138535595Y-74254819D01*
X138535595Y-74254819D02*
X138868928Y-74635771D01*
X138868928Y-74635771D02*
X138726071Y-74635771D01*
X138726071Y-74635771D02*
X138630833Y-74683390D01*
X138630833Y-74683390D02*
X138583214Y-74731009D01*
X138583214Y-74731009D02*
X138535595Y-74826247D01*
X138535595Y-74826247D02*
X138535595Y-75064342D01*
X138535595Y-75064342D02*
X138583214Y-75159580D01*
X138583214Y-75159580D02*
X138630833Y-75207200D01*
X138630833Y-75207200D02*
X138726071Y-75254819D01*
X138726071Y-75254819D02*
X139011785Y-75254819D01*
X139011785Y-75254819D02*
X139107023Y-75207200D01*
X139107023Y-75207200D02*
X139154642Y-75159580D01*
X176415266Y-77481580D02*
X176462885Y-77529200D01*
X176462885Y-77529200D02*
X176605742Y-77576819D01*
X176605742Y-77576819D02*
X176700980Y-77576819D01*
X176700980Y-77576819D02*
X176843837Y-77529200D01*
X176843837Y-77529200D02*
X176939075Y-77433961D01*
X176939075Y-77433961D02*
X176986694Y-77338723D01*
X176986694Y-77338723D02*
X177034313Y-77148247D01*
X177034313Y-77148247D02*
X177034313Y-77005390D01*
X177034313Y-77005390D02*
X176986694Y-76814914D01*
X176986694Y-76814914D02*
X176939075Y-76719676D01*
X176939075Y-76719676D02*
X176843837Y-76624438D01*
X176843837Y-76624438D02*
X176700980Y-76576819D01*
X176700980Y-76576819D02*
X176605742Y-76576819D01*
X176605742Y-76576819D02*
X176462885Y-76624438D01*
X176462885Y-76624438D02*
X176415266Y-76672057D01*
X176034313Y-76672057D02*
X175986694Y-76624438D01*
X175986694Y-76624438D02*
X175891456Y-76576819D01*
X175891456Y-76576819D02*
X175653361Y-76576819D01*
X175653361Y-76576819D02*
X175558123Y-76624438D01*
X175558123Y-76624438D02*
X175510504Y-76672057D01*
X175510504Y-76672057D02*
X175462885Y-76767295D01*
X175462885Y-76767295D02*
X175462885Y-76862533D01*
X175462885Y-76862533D02*
X175510504Y-77005390D01*
X175510504Y-77005390D02*
X176081932Y-77576819D01*
X176081932Y-77576819D02*
X175462885Y-77576819D01*
X16724569Y-14528083D02*
X16248378Y-14194750D01*
X16724569Y-13956655D02*
X15724569Y-13956655D01*
X15724569Y-13956655D02*
X15724569Y-14337607D01*
X15724569Y-14337607D02*
X15772188Y-14432845D01*
X15772188Y-14432845D02*
X15819807Y-14480464D01*
X15819807Y-14480464D02*
X15915045Y-14528083D01*
X15915045Y-14528083D02*
X16057902Y-14528083D01*
X16057902Y-14528083D02*
X16153140Y-14480464D01*
X16153140Y-14480464D02*
X16200759Y-14432845D01*
X16200759Y-14432845D02*
X16248378Y-14337607D01*
X16248378Y-14337607D02*
X16248378Y-13956655D01*
X15724569Y-14861417D02*
X15724569Y-15480464D01*
X15724569Y-15480464D02*
X16105521Y-15147131D01*
X16105521Y-15147131D02*
X16105521Y-15289988D01*
X16105521Y-15289988D02*
X16153140Y-15385226D01*
X16153140Y-15385226D02*
X16200759Y-15432845D01*
X16200759Y-15432845D02*
X16295997Y-15480464D01*
X16295997Y-15480464D02*
X16534092Y-15480464D01*
X16534092Y-15480464D02*
X16629330Y-15432845D01*
X16629330Y-15432845D02*
X16676950Y-15385226D01*
X16676950Y-15385226D02*
X16724569Y-15289988D01*
X16724569Y-15289988D02*
X16724569Y-15004274D01*
X16724569Y-15004274D02*
X16676950Y-14909036D01*
X16676950Y-14909036D02*
X16629330Y-14861417D01*
X167354819Y-5231905D02*
X166354819Y-5231905D01*
X166354819Y-5231905D02*
X166354819Y-5470000D01*
X166354819Y-5470000D02*
X166402438Y-5612857D01*
X166402438Y-5612857D02*
X166497676Y-5708095D01*
X166497676Y-5708095D02*
X166592914Y-5755714D01*
X166592914Y-5755714D02*
X166783390Y-5803333D01*
X166783390Y-5803333D02*
X166926247Y-5803333D01*
X166926247Y-5803333D02*
X167116723Y-5755714D01*
X167116723Y-5755714D02*
X167211961Y-5708095D01*
X167211961Y-5708095D02*
X167307200Y-5612857D01*
X167307200Y-5612857D02*
X167354819Y-5470000D01*
X167354819Y-5470000D02*
X167354819Y-5231905D01*
X167354819Y-6279524D02*
X167354819Y-6470000D01*
X167354819Y-6470000D02*
X167307200Y-6565238D01*
X167307200Y-6565238D02*
X167259580Y-6612857D01*
X167259580Y-6612857D02*
X167116723Y-6708095D01*
X167116723Y-6708095D02*
X166926247Y-6755714D01*
X166926247Y-6755714D02*
X166545295Y-6755714D01*
X166545295Y-6755714D02*
X166450057Y-6708095D01*
X166450057Y-6708095D02*
X166402438Y-6660476D01*
X166402438Y-6660476D02*
X166354819Y-6565238D01*
X166354819Y-6565238D02*
X166354819Y-6374762D01*
X166354819Y-6374762D02*
X166402438Y-6279524D01*
X166402438Y-6279524D02*
X166450057Y-6231905D01*
X166450057Y-6231905D02*
X166545295Y-6184286D01*
X166545295Y-6184286D02*
X166783390Y-6184286D01*
X166783390Y-6184286D02*
X166878628Y-6231905D01*
X166878628Y-6231905D02*
X166926247Y-6279524D01*
X166926247Y-6279524D02*
X166973866Y-6374762D01*
X166973866Y-6374762D02*
X166973866Y-6565238D01*
X166973866Y-6565238D02*
X166926247Y-6660476D01*
X166926247Y-6660476D02*
X166878628Y-6708095D01*
X166878628Y-6708095D02*
X166783390Y-6755714D01*
X286714819Y-61495714D02*
X285714819Y-61495714D01*
X285714819Y-61495714D02*
X285714819Y-61733809D01*
X285714819Y-61733809D02*
X285762438Y-61876666D01*
X285762438Y-61876666D02*
X285857676Y-61971904D01*
X285857676Y-61971904D02*
X285952914Y-62019523D01*
X285952914Y-62019523D02*
X286143390Y-62067142D01*
X286143390Y-62067142D02*
X286286247Y-62067142D01*
X286286247Y-62067142D02*
X286476723Y-62019523D01*
X286476723Y-62019523D02*
X286571961Y-61971904D01*
X286571961Y-61971904D02*
X286667200Y-61876666D01*
X286667200Y-61876666D02*
X286714819Y-61733809D01*
X286714819Y-61733809D02*
X286714819Y-61495714D01*
X285714819Y-62971904D02*
X285714819Y-62495714D01*
X285714819Y-62495714D02*
X286191009Y-62448095D01*
X286191009Y-62448095D02*
X286143390Y-62495714D01*
X286143390Y-62495714D02*
X286095771Y-62590952D01*
X286095771Y-62590952D02*
X286095771Y-62829047D01*
X286095771Y-62829047D02*
X286143390Y-62924285D01*
X286143390Y-62924285D02*
X286191009Y-62971904D01*
X286191009Y-62971904D02*
X286286247Y-63019523D01*
X286286247Y-63019523D02*
X286524342Y-63019523D01*
X286524342Y-63019523D02*
X286619580Y-62971904D01*
X286619580Y-62971904D02*
X286667200Y-62924285D01*
X286667200Y-62924285D02*
X286714819Y-62829047D01*
X286714819Y-62829047D02*
X286714819Y-62590952D01*
X286714819Y-62590952D02*
X286667200Y-62495714D01*
X286667200Y-62495714D02*
X286619580Y-62448095D01*
X286143390Y-63590952D02*
X286095771Y-63495714D01*
X286095771Y-63495714D02*
X286048152Y-63448095D01*
X286048152Y-63448095D02*
X285952914Y-63400476D01*
X285952914Y-63400476D02*
X285905295Y-63400476D01*
X285905295Y-63400476D02*
X285810057Y-63448095D01*
X285810057Y-63448095D02*
X285762438Y-63495714D01*
X285762438Y-63495714D02*
X285714819Y-63590952D01*
X285714819Y-63590952D02*
X285714819Y-63781428D01*
X285714819Y-63781428D02*
X285762438Y-63876666D01*
X285762438Y-63876666D02*
X285810057Y-63924285D01*
X285810057Y-63924285D02*
X285905295Y-63971904D01*
X285905295Y-63971904D02*
X285952914Y-63971904D01*
X285952914Y-63971904D02*
X286048152Y-63924285D01*
X286048152Y-63924285D02*
X286095771Y-63876666D01*
X286095771Y-63876666D02*
X286143390Y-63781428D01*
X286143390Y-63781428D02*
X286143390Y-63590952D01*
X286143390Y-63590952D02*
X286191009Y-63495714D01*
X286191009Y-63495714D02*
X286238628Y-63448095D01*
X286238628Y-63448095D02*
X286333866Y-63400476D01*
X286333866Y-63400476D02*
X286524342Y-63400476D01*
X286524342Y-63400476D02*
X286619580Y-63448095D01*
X286619580Y-63448095D02*
X286667200Y-63495714D01*
X286667200Y-63495714D02*
X286714819Y-63590952D01*
X286714819Y-63590952D02*
X286714819Y-63781428D01*
X286714819Y-63781428D02*
X286667200Y-63876666D01*
X286667200Y-63876666D02*
X286619580Y-63924285D01*
X286619580Y-63924285D02*
X286524342Y-63971904D01*
X286524342Y-63971904D02*
X286333866Y-63971904D01*
X286333866Y-63971904D02*
X286238628Y-63924285D01*
X286238628Y-63924285D02*
X286191009Y-63876666D01*
X286191009Y-63876666D02*
X286143390Y-63781428D01*
X52144819Y-84183214D02*
X51144819Y-84183214D01*
X51144819Y-84183214D02*
X51144819Y-84421309D01*
X51144819Y-84421309D02*
X51192438Y-84564166D01*
X51192438Y-84564166D02*
X51287676Y-84659404D01*
X51287676Y-84659404D02*
X51382914Y-84707023D01*
X51382914Y-84707023D02*
X51573390Y-84754642D01*
X51573390Y-84754642D02*
X51716247Y-84754642D01*
X51716247Y-84754642D02*
X51906723Y-84707023D01*
X51906723Y-84707023D02*
X52001961Y-84659404D01*
X52001961Y-84659404D02*
X52097200Y-84564166D01*
X52097200Y-84564166D02*
X52144819Y-84421309D01*
X52144819Y-84421309D02*
X52144819Y-84183214D01*
X51144819Y-85611785D02*
X51144819Y-85421309D01*
X51144819Y-85421309D02*
X51192438Y-85326071D01*
X51192438Y-85326071D02*
X51240057Y-85278452D01*
X51240057Y-85278452D02*
X51382914Y-85183214D01*
X51382914Y-85183214D02*
X51573390Y-85135595D01*
X51573390Y-85135595D02*
X51954342Y-85135595D01*
X51954342Y-85135595D02*
X52049580Y-85183214D01*
X52049580Y-85183214D02*
X52097200Y-85230833D01*
X52097200Y-85230833D02*
X52144819Y-85326071D01*
X52144819Y-85326071D02*
X52144819Y-85516547D01*
X52144819Y-85516547D02*
X52097200Y-85611785D01*
X52097200Y-85611785D02*
X52049580Y-85659404D01*
X52049580Y-85659404D02*
X51954342Y-85707023D01*
X51954342Y-85707023D02*
X51716247Y-85707023D01*
X51716247Y-85707023D02*
X51621009Y-85659404D01*
X51621009Y-85659404D02*
X51573390Y-85611785D01*
X51573390Y-85611785D02*
X51525771Y-85516547D01*
X51525771Y-85516547D02*
X51525771Y-85326071D01*
X51525771Y-85326071D02*
X51573390Y-85230833D01*
X51573390Y-85230833D02*
X51621009Y-85183214D01*
X51621009Y-85183214D02*
X51716247Y-85135595D01*
X52144819Y-86659404D02*
X52144819Y-86087976D01*
X52144819Y-86373690D02*
X51144819Y-86373690D01*
X51144819Y-86373690D02*
X51287676Y-86278452D01*
X51287676Y-86278452D02*
X51382914Y-86183214D01*
X51382914Y-86183214D02*
X51430533Y-86087976D01*
X212404819Y-77478214D02*
X211404819Y-77478214D01*
X211404819Y-77478214D02*
X211404819Y-77716309D01*
X211404819Y-77716309D02*
X211452438Y-77859166D01*
X211452438Y-77859166D02*
X211547676Y-77954404D01*
X211547676Y-77954404D02*
X211642914Y-78002023D01*
X211642914Y-78002023D02*
X211833390Y-78049642D01*
X211833390Y-78049642D02*
X211976247Y-78049642D01*
X211976247Y-78049642D02*
X212166723Y-78002023D01*
X212166723Y-78002023D02*
X212261961Y-77954404D01*
X212261961Y-77954404D02*
X212357200Y-77859166D01*
X212357200Y-77859166D02*
X212404819Y-77716309D01*
X212404819Y-77716309D02*
X212404819Y-77478214D01*
X211404819Y-78906785D02*
X211404819Y-78716309D01*
X211404819Y-78716309D02*
X211452438Y-78621071D01*
X211452438Y-78621071D02*
X211500057Y-78573452D01*
X211500057Y-78573452D02*
X211642914Y-78478214D01*
X211642914Y-78478214D02*
X211833390Y-78430595D01*
X211833390Y-78430595D02*
X212214342Y-78430595D01*
X212214342Y-78430595D02*
X212309580Y-78478214D01*
X212309580Y-78478214D02*
X212357200Y-78525833D01*
X212357200Y-78525833D02*
X212404819Y-78621071D01*
X212404819Y-78621071D02*
X212404819Y-78811547D01*
X212404819Y-78811547D02*
X212357200Y-78906785D01*
X212357200Y-78906785D02*
X212309580Y-78954404D01*
X212309580Y-78954404D02*
X212214342Y-79002023D01*
X212214342Y-79002023D02*
X211976247Y-79002023D01*
X211976247Y-79002023D02*
X211881009Y-78954404D01*
X211881009Y-78954404D02*
X211833390Y-78906785D01*
X211833390Y-78906785D02*
X211785771Y-78811547D01*
X211785771Y-78811547D02*
X211785771Y-78621071D01*
X211785771Y-78621071D02*
X211833390Y-78525833D01*
X211833390Y-78525833D02*
X211881009Y-78478214D01*
X211881009Y-78478214D02*
X211976247Y-78430595D01*
X211738152Y-79859166D02*
X212404819Y-79859166D01*
X211357200Y-79621071D02*
X212071485Y-79382976D01*
X212071485Y-79382976D02*
X212071485Y-80002023D01*
X112244819Y-42570714D02*
X111244819Y-42570714D01*
X111244819Y-42570714D02*
X111244819Y-42808809D01*
X111244819Y-42808809D02*
X111292438Y-42951666D01*
X111292438Y-42951666D02*
X111387676Y-43046904D01*
X111387676Y-43046904D02*
X111482914Y-43094523D01*
X111482914Y-43094523D02*
X111673390Y-43142142D01*
X111673390Y-43142142D02*
X111816247Y-43142142D01*
X111816247Y-43142142D02*
X112006723Y-43094523D01*
X112006723Y-43094523D02*
X112101961Y-43046904D01*
X112101961Y-43046904D02*
X112197200Y-42951666D01*
X112197200Y-42951666D02*
X112244819Y-42808809D01*
X112244819Y-42808809D02*
X112244819Y-42570714D01*
X111244819Y-43475476D02*
X111244819Y-44094523D01*
X111244819Y-44094523D02*
X111625771Y-43761190D01*
X111625771Y-43761190D02*
X111625771Y-43904047D01*
X111625771Y-43904047D02*
X111673390Y-43999285D01*
X111673390Y-43999285D02*
X111721009Y-44046904D01*
X111721009Y-44046904D02*
X111816247Y-44094523D01*
X111816247Y-44094523D02*
X112054342Y-44094523D01*
X112054342Y-44094523D02*
X112149580Y-44046904D01*
X112149580Y-44046904D02*
X112197200Y-43999285D01*
X112197200Y-43999285D02*
X112244819Y-43904047D01*
X112244819Y-43904047D02*
X112244819Y-43618333D01*
X112244819Y-43618333D02*
X112197200Y-43523095D01*
X112197200Y-43523095D02*
X112149580Y-43475476D01*
X111578152Y-44951666D02*
X112244819Y-44951666D01*
X111197200Y-44713571D02*
X111911485Y-44475476D01*
X111911485Y-44475476D02*
X111911485Y-45094523D01*
X31534819Y-42525714D02*
X30534819Y-42525714D01*
X30534819Y-42525714D02*
X30534819Y-42763809D01*
X30534819Y-42763809D02*
X30582438Y-42906666D01*
X30582438Y-42906666D02*
X30677676Y-43001904D01*
X30677676Y-43001904D02*
X30772914Y-43049523D01*
X30772914Y-43049523D02*
X30963390Y-43097142D01*
X30963390Y-43097142D02*
X31106247Y-43097142D01*
X31106247Y-43097142D02*
X31296723Y-43049523D01*
X31296723Y-43049523D02*
X31391961Y-43001904D01*
X31391961Y-43001904D02*
X31487200Y-42906666D01*
X31487200Y-42906666D02*
X31534819Y-42763809D01*
X31534819Y-42763809D02*
X31534819Y-42525714D01*
X30534819Y-43430476D02*
X30534819Y-44049523D01*
X30534819Y-44049523D02*
X30915771Y-43716190D01*
X30915771Y-43716190D02*
X30915771Y-43859047D01*
X30915771Y-43859047D02*
X30963390Y-43954285D01*
X30963390Y-43954285D02*
X31011009Y-44001904D01*
X31011009Y-44001904D02*
X31106247Y-44049523D01*
X31106247Y-44049523D02*
X31344342Y-44049523D01*
X31344342Y-44049523D02*
X31439580Y-44001904D01*
X31439580Y-44001904D02*
X31487200Y-43954285D01*
X31487200Y-43954285D02*
X31534819Y-43859047D01*
X31534819Y-43859047D02*
X31534819Y-43573333D01*
X31534819Y-43573333D02*
X31487200Y-43478095D01*
X31487200Y-43478095D02*
X31439580Y-43430476D01*
X30534819Y-44668571D02*
X30534819Y-44763809D01*
X30534819Y-44763809D02*
X30582438Y-44859047D01*
X30582438Y-44859047D02*
X30630057Y-44906666D01*
X30630057Y-44906666D02*
X30725295Y-44954285D01*
X30725295Y-44954285D02*
X30915771Y-45001904D01*
X30915771Y-45001904D02*
X31153866Y-45001904D01*
X31153866Y-45001904D02*
X31344342Y-44954285D01*
X31344342Y-44954285D02*
X31439580Y-44906666D01*
X31439580Y-44906666D02*
X31487200Y-44859047D01*
X31487200Y-44859047D02*
X31534819Y-44763809D01*
X31534819Y-44763809D02*
X31534819Y-44668571D01*
X31534819Y-44668571D02*
X31487200Y-44573333D01*
X31487200Y-44573333D02*
X31439580Y-44525714D01*
X31439580Y-44525714D02*
X31344342Y-44478095D01*
X31344342Y-44478095D02*
X31153866Y-44430476D01*
X31153866Y-44430476D02*
X30915771Y-44430476D01*
X30915771Y-44430476D02*
X30725295Y-44478095D01*
X30725295Y-44478095D02*
X30630057Y-44525714D01*
X30630057Y-44525714D02*
X30582438Y-44573333D01*
X30582438Y-44573333D02*
X30534819Y-44668571D01*
X120894819Y-5321905D02*
X119894819Y-5321905D01*
X119894819Y-5321905D02*
X119894819Y-5560000D01*
X119894819Y-5560000D02*
X119942438Y-5702857D01*
X119942438Y-5702857D02*
X120037676Y-5798095D01*
X120037676Y-5798095D02*
X120132914Y-5845714D01*
X120132914Y-5845714D02*
X120323390Y-5893333D01*
X120323390Y-5893333D02*
X120466247Y-5893333D01*
X120466247Y-5893333D02*
X120656723Y-5845714D01*
X120656723Y-5845714D02*
X120751961Y-5798095D01*
X120751961Y-5798095D02*
X120847200Y-5702857D01*
X120847200Y-5702857D02*
X120894819Y-5560000D01*
X120894819Y-5560000D02*
X120894819Y-5321905D01*
X119894819Y-6226667D02*
X119894819Y-6893333D01*
X119894819Y-6893333D02*
X120894819Y-6464762D01*
X149282919Y-79547095D02*
X150092442Y-79547095D01*
X150092442Y-79547095D02*
X150187680Y-79594714D01*
X150187680Y-79594714D02*
X150235300Y-79642333D01*
X150235300Y-79642333D02*
X150282919Y-79737571D01*
X150282919Y-79737571D02*
X150282919Y-79928047D01*
X150282919Y-79928047D02*
X150235300Y-80023285D01*
X150235300Y-80023285D02*
X150187680Y-80070904D01*
X150187680Y-80070904D02*
X150092442Y-80118523D01*
X150092442Y-80118523D02*
X149282919Y-80118523D01*
X150282919Y-81118523D02*
X150282919Y-80547095D01*
X150282919Y-80832809D02*
X149282919Y-80832809D01*
X149282919Y-80832809D02*
X149425776Y-80737571D01*
X149425776Y-80737571D02*
X149521014Y-80642333D01*
X149521014Y-80642333D02*
X149568633Y-80547095D01*
X232034819Y-61475714D02*
X231034819Y-61475714D01*
X231034819Y-61475714D02*
X231034819Y-61713809D01*
X231034819Y-61713809D02*
X231082438Y-61856666D01*
X231082438Y-61856666D02*
X231177676Y-61951904D01*
X231177676Y-61951904D02*
X231272914Y-61999523D01*
X231272914Y-61999523D02*
X231463390Y-62047142D01*
X231463390Y-62047142D02*
X231606247Y-62047142D01*
X231606247Y-62047142D02*
X231796723Y-61999523D01*
X231796723Y-61999523D02*
X231891961Y-61951904D01*
X231891961Y-61951904D02*
X231987200Y-61856666D01*
X231987200Y-61856666D02*
X232034819Y-61713809D01*
X232034819Y-61713809D02*
X232034819Y-61475714D01*
X231034819Y-62951904D02*
X231034819Y-62475714D01*
X231034819Y-62475714D02*
X231511009Y-62428095D01*
X231511009Y-62428095D02*
X231463390Y-62475714D01*
X231463390Y-62475714D02*
X231415771Y-62570952D01*
X231415771Y-62570952D02*
X231415771Y-62809047D01*
X231415771Y-62809047D02*
X231463390Y-62904285D01*
X231463390Y-62904285D02*
X231511009Y-62951904D01*
X231511009Y-62951904D02*
X231606247Y-62999523D01*
X231606247Y-62999523D02*
X231844342Y-62999523D01*
X231844342Y-62999523D02*
X231939580Y-62951904D01*
X231939580Y-62951904D02*
X231987200Y-62904285D01*
X231987200Y-62904285D02*
X232034819Y-62809047D01*
X232034819Y-62809047D02*
X232034819Y-62570952D01*
X232034819Y-62570952D02*
X231987200Y-62475714D01*
X231987200Y-62475714D02*
X231939580Y-62428095D01*
X231034819Y-63856666D02*
X231034819Y-63666190D01*
X231034819Y-63666190D02*
X231082438Y-63570952D01*
X231082438Y-63570952D02*
X231130057Y-63523333D01*
X231130057Y-63523333D02*
X231272914Y-63428095D01*
X231272914Y-63428095D02*
X231463390Y-63380476D01*
X231463390Y-63380476D02*
X231844342Y-63380476D01*
X231844342Y-63380476D02*
X231939580Y-63428095D01*
X231939580Y-63428095D02*
X231987200Y-63475714D01*
X231987200Y-63475714D02*
X232034819Y-63570952D01*
X232034819Y-63570952D02*
X232034819Y-63761428D01*
X232034819Y-63761428D02*
X231987200Y-63856666D01*
X231987200Y-63856666D02*
X231939580Y-63904285D01*
X231939580Y-63904285D02*
X231844342Y-63951904D01*
X231844342Y-63951904D02*
X231606247Y-63951904D01*
X231606247Y-63951904D02*
X231511009Y-63904285D01*
X231511009Y-63904285D02*
X231463390Y-63856666D01*
X231463390Y-63856666D02*
X231415771Y-63761428D01*
X231415771Y-63761428D02*
X231415771Y-63570952D01*
X231415771Y-63570952D02*
X231463390Y-63475714D01*
X231463390Y-63475714D02*
X231511009Y-63428095D01*
X231511009Y-63428095D02*
X231606247Y-63380476D01*
X150253266Y-71229580D02*
X150300885Y-71277200D01*
X150300885Y-71277200D02*
X150443742Y-71324819D01*
X150443742Y-71324819D02*
X150538980Y-71324819D01*
X150538980Y-71324819D02*
X150681837Y-71277200D01*
X150681837Y-71277200D02*
X150777075Y-71181961D01*
X150777075Y-71181961D02*
X150824694Y-71086723D01*
X150824694Y-71086723D02*
X150872313Y-70896247D01*
X150872313Y-70896247D02*
X150872313Y-70753390D01*
X150872313Y-70753390D02*
X150824694Y-70562914D01*
X150824694Y-70562914D02*
X150777075Y-70467676D01*
X150777075Y-70467676D02*
X150681837Y-70372438D01*
X150681837Y-70372438D02*
X150538980Y-70324819D01*
X150538980Y-70324819D02*
X150443742Y-70324819D01*
X150443742Y-70324819D02*
X150300885Y-70372438D01*
X150300885Y-70372438D02*
X150253266Y-70420057D01*
X149348504Y-70324819D02*
X149824694Y-70324819D01*
X149824694Y-70324819D02*
X149872313Y-70801009D01*
X149872313Y-70801009D02*
X149824694Y-70753390D01*
X149824694Y-70753390D02*
X149729456Y-70705771D01*
X149729456Y-70705771D02*
X149491361Y-70705771D01*
X149491361Y-70705771D02*
X149396123Y-70753390D01*
X149396123Y-70753390D02*
X149348504Y-70801009D01*
X149348504Y-70801009D02*
X149300885Y-70896247D01*
X149300885Y-70896247D02*
X149300885Y-71134342D01*
X149300885Y-71134342D02*
X149348504Y-71229580D01*
X149348504Y-71229580D02*
X149396123Y-71277200D01*
X149396123Y-71277200D02*
X149491361Y-71324819D01*
X149491361Y-71324819D02*
X149729456Y-71324819D01*
X149729456Y-71324819D02*
X149824694Y-71277200D01*
X149824694Y-71277200D02*
X149872313Y-71229580D01*
X8044819Y-13091905D02*
X7044819Y-13091905D01*
X7044819Y-13091905D02*
X7044819Y-13330000D01*
X7044819Y-13330000D02*
X7092438Y-13472857D01*
X7092438Y-13472857D02*
X7187676Y-13568095D01*
X7187676Y-13568095D02*
X7282914Y-13615714D01*
X7282914Y-13615714D02*
X7473390Y-13663333D01*
X7473390Y-13663333D02*
X7616247Y-13663333D01*
X7616247Y-13663333D02*
X7806723Y-13615714D01*
X7806723Y-13615714D02*
X7901961Y-13568095D01*
X7901961Y-13568095D02*
X7997200Y-13472857D01*
X7997200Y-13472857D02*
X8044819Y-13330000D01*
X8044819Y-13330000D02*
X8044819Y-13091905D01*
X7140057Y-14044286D02*
X7092438Y-14091905D01*
X7092438Y-14091905D02*
X7044819Y-14187143D01*
X7044819Y-14187143D02*
X7044819Y-14425238D01*
X7044819Y-14425238D02*
X7092438Y-14520476D01*
X7092438Y-14520476D02*
X7140057Y-14568095D01*
X7140057Y-14568095D02*
X7235295Y-14615714D01*
X7235295Y-14615714D02*
X7330533Y-14615714D01*
X7330533Y-14615714D02*
X7473390Y-14568095D01*
X7473390Y-14568095D02*
X8044819Y-13996667D01*
X8044819Y-13996667D02*
X8044819Y-14615714D01*
X41764819Y-61545714D02*
X40764819Y-61545714D01*
X40764819Y-61545714D02*
X40764819Y-61783809D01*
X40764819Y-61783809D02*
X40812438Y-61926666D01*
X40812438Y-61926666D02*
X40907676Y-62021904D01*
X40907676Y-62021904D02*
X41002914Y-62069523D01*
X41002914Y-62069523D02*
X41193390Y-62117142D01*
X41193390Y-62117142D02*
X41336247Y-62117142D01*
X41336247Y-62117142D02*
X41526723Y-62069523D01*
X41526723Y-62069523D02*
X41621961Y-62021904D01*
X41621961Y-62021904D02*
X41717200Y-61926666D01*
X41717200Y-61926666D02*
X41764819Y-61783809D01*
X41764819Y-61783809D02*
X41764819Y-61545714D01*
X41098152Y-62974285D02*
X41764819Y-62974285D01*
X40717200Y-62736190D02*
X41431485Y-62498095D01*
X41431485Y-62498095D02*
X41431485Y-63117142D01*
X40764819Y-63926666D02*
X40764819Y-63736190D01*
X40764819Y-63736190D02*
X40812438Y-63640952D01*
X40812438Y-63640952D02*
X40860057Y-63593333D01*
X40860057Y-63593333D02*
X41002914Y-63498095D01*
X41002914Y-63498095D02*
X41193390Y-63450476D01*
X41193390Y-63450476D02*
X41574342Y-63450476D01*
X41574342Y-63450476D02*
X41669580Y-63498095D01*
X41669580Y-63498095D02*
X41717200Y-63545714D01*
X41717200Y-63545714D02*
X41764819Y-63640952D01*
X41764819Y-63640952D02*
X41764819Y-63831428D01*
X41764819Y-63831428D02*
X41717200Y-63926666D01*
X41717200Y-63926666D02*
X41669580Y-63974285D01*
X41669580Y-63974285D02*
X41574342Y-64021904D01*
X41574342Y-64021904D02*
X41336247Y-64021904D01*
X41336247Y-64021904D02*
X41241009Y-63974285D01*
X41241009Y-63974285D02*
X41193390Y-63926666D01*
X41193390Y-63926666D02*
X41145771Y-63831428D01*
X41145771Y-63831428D02*
X41145771Y-63640952D01*
X41145771Y-63640952D02*
X41193390Y-63545714D01*
X41193390Y-63545714D02*
X41241009Y-63498095D01*
X41241009Y-63498095D02*
X41336247Y-63450476D01*
X163334266Y-90083580D02*
X163381885Y-90131200D01*
X163381885Y-90131200D02*
X163524742Y-90178819D01*
X163524742Y-90178819D02*
X163619980Y-90178819D01*
X163619980Y-90178819D02*
X163762837Y-90131200D01*
X163762837Y-90131200D02*
X163858075Y-90035961D01*
X163858075Y-90035961D02*
X163905694Y-89940723D01*
X163905694Y-89940723D02*
X163953313Y-89750247D01*
X163953313Y-89750247D02*
X163953313Y-89607390D01*
X163953313Y-89607390D02*
X163905694Y-89416914D01*
X163905694Y-89416914D02*
X163858075Y-89321676D01*
X163858075Y-89321676D02*
X163762837Y-89226438D01*
X163762837Y-89226438D02*
X163619980Y-89178819D01*
X163619980Y-89178819D02*
X163524742Y-89178819D01*
X163524742Y-89178819D02*
X163381885Y-89226438D01*
X163381885Y-89226438D02*
X163334266Y-89274057D01*
X162477123Y-89178819D02*
X162667599Y-89178819D01*
X162667599Y-89178819D02*
X162762837Y-89226438D01*
X162762837Y-89226438D02*
X162810456Y-89274057D01*
X162810456Y-89274057D02*
X162905694Y-89416914D01*
X162905694Y-89416914D02*
X162953313Y-89607390D01*
X162953313Y-89607390D02*
X162953313Y-89988342D01*
X162953313Y-89988342D02*
X162905694Y-90083580D01*
X162905694Y-90083580D02*
X162858075Y-90131200D01*
X162858075Y-90131200D02*
X162762837Y-90178819D01*
X162762837Y-90178819D02*
X162572361Y-90178819D01*
X162572361Y-90178819D02*
X162477123Y-90131200D01*
X162477123Y-90131200D02*
X162429504Y-90083580D01*
X162429504Y-90083580D02*
X162381885Y-89988342D01*
X162381885Y-89988342D02*
X162381885Y-89750247D01*
X162381885Y-89750247D02*
X162429504Y-89655009D01*
X162429504Y-89655009D02*
X162477123Y-89607390D01*
X162477123Y-89607390D02*
X162572361Y-89559771D01*
X162572361Y-89559771D02*
X162762837Y-89559771D01*
X162762837Y-89559771D02*
X162858075Y-89607390D01*
X162858075Y-89607390D02*
X162905694Y-89655009D01*
X162905694Y-89655009D02*
X162953313Y-89750247D01*
X22404916Y-9469169D02*
X22738249Y-8992978D01*
X22976344Y-9469169D02*
X22976344Y-8469169D01*
X22976344Y-8469169D02*
X22595392Y-8469169D01*
X22595392Y-8469169D02*
X22500154Y-8516788D01*
X22500154Y-8516788D02*
X22452535Y-8564407D01*
X22452535Y-8564407D02*
X22404916Y-8659645D01*
X22404916Y-8659645D02*
X22404916Y-8802502D01*
X22404916Y-8802502D02*
X22452535Y-8897740D01*
X22452535Y-8897740D02*
X22500154Y-8945359D01*
X22500154Y-8945359D02*
X22595392Y-8992978D01*
X22595392Y-8992978D02*
X22976344Y-8992978D01*
X21500154Y-8469169D02*
X21976344Y-8469169D01*
X21976344Y-8469169D02*
X22023963Y-8945359D01*
X22023963Y-8945359D02*
X21976344Y-8897740D01*
X21976344Y-8897740D02*
X21881106Y-8850121D01*
X21881106Y-8850121D02*
X21643011Y-8850121D01*
X21643011Y-8850121D02*
X21547773Y-8897740D01*
X21547773Y-8897740D02*
X21500154Y-8945359D01*
X21500154Y-8945359D02*
X21452535Y-9040597D01*
X21452535Y-9040597D02*
X21452535Y-9278692D01*
X21452535Y-9278692D02*
X21500154Y-9373930D01*
X21500154Y-9373930D02*
X21547773Y-9421550D01*
X21547773Y-9421550D02*
X21643011Y-9469169D01*
X21643011Y-9469169D02*
X21881106Y-9469169D01*
X21881106Y-9469169D02*
X21976344Y-9421550D01*
X21976344Y-9421550D02*
X22023963Y-9373930D01*
X207454819Y-42638214D02*
X206454819Y-42638214D01*
X206454819Y-42638214D02*
X206454819Y-42876309D01*
X206454819Y-42876309D02*
X206502438Y-43019166D01*
X206502438Y-43019166D02*
X206597676Y-43114404D01*
X206597676Y-43114404D02*
X206692914Y-43162023D01*
X206692914Y-43162023D02*
X206883390Y-43209642D01*
X206883390Y-43209642D02*
X207026247Y-43209642D01*
X207026247Y-43209642D02*
X207216723Y-43162023D01*
X207216723Y-43162023D02*
X207311961Y-43114404D01*
X207311961Y-43114404D02*
X207407200Y-43019166D01*
X207407200Y-43019166D02*
X207454819Y-42876309D01*
X207454819Y-42876309D02*
X207454819Y-42638214D01*
X206454819Y-43542976D02*
X206454819Y-44162023D01*
X206454819Y-44162023D02*
X206835771Y-43828690D01*
X206835771Y-43828690D02*
X206835771Y-43971547D01*
X206835771Y-43971547D02*
X206883390Y-44066785D01*
X206883390Y-44066785D02*
X206931009Y-44114404D01*
X206931009Y-44114404D02*
X207026247Y-44162023D01*
X207026247Y-44162023D02*
X207264342Y-44162023D01*
X207264342Y-44162023D02*
X207359580Y-44114404D01*
X207359580Y-44114404D02*
X207407200Y-44066785D01*
X207407200Y-44066785D02*
X207454819Y-43971547D01*
X207454819Y-43971547D02*
X207454819Y-43685833D01*
X207454819Y-43685833D02*
X207407200Y-43590595D01*
X207407200Y-43590595D02*
X207359580Y-43542976D01*
X207454819Y-44638214D02*
X207454819Y-44828690D01*
X207454819Y-44828690D02*
X207407200Y-44923928D01*
X207407200Y-44923928D02*
X207359580Y-44971547D01*
X207359580Y-44971547D02*
X207216723Y-45066785D01*
X207216723Y-45066785D02*
X207026247Y-45114404D01*
X207026247Y-45114404D02*
X206645295Y-45114404D01*
X206645295Y-45114404D02*
X206550057Y-45066785D01*
X206550057Y-45066785D02*
X206502438Y-45019166D01*
X206502438Y-45019166D02*
X206454819Y-44923928D01*
X206454819Y-44923928D02*
X206454819Y-44733452D01*
X206454819Y-44733452D02*
X206502438Y-44638214D01*
X206502438Y-44638214D02*
X206550057Y-44590595D01*
X206550057Y-44590595D02*
X206645295Y-44542976D01*
X206645295Y-44542976D02*
X206883390Y-44542976D01*
X206883390Y-44542976D02*
X206978628Y-44590595D01*
X206978628Y-44590595D02*
X207026247Y-44638214D01*
X207026247Y-44638214D02*
X207073866Y-44733452D01*
X207073866Y-44733452D02*
X207073866Y-44923928D01*
X207073866Y-44923928D02*
X207026247Y-45019166D01*
X207026247Y-45019166D02*
X206978628Y-45066785D01*
X206978628Y-45066785D02*
X206883390Y-45114404D01*
X145404819Y-24865714D02*
X144404819Y-24865714D01*
X144404819Y-24865714D02*
X144404819Y-25103809D01*
X144404819Y-25103809D02*
X144452438Y-25246666D01*
X144452438Y-25246666D02*
X144547676Y-25341904D01*
X144547676Y-25341904D02*
X144642914Y-25389523D01*
X144642914Y-25389523D02*
X144833390Y-25437142D01*
X144833390Y-25437142D02*
X144976247Y-25437142D01*
X144976247Y-25437142D02*
X145166723Y-25389523D01*
X145166723Y-25389523D02*
X145261961Y-25341904D01*
X145261961Y-25341904D02*
X145357200Y-25246666D01*
X145357200Y-25246666D02*
X145404819Y-25103809D01*
X145404819Y-25103809D02*
X145404819Y-24865714D01*
X144500057Y-25818095D02*
X144452438Y-25865714D01*
X144452438Y-25865714D02*
X144404819Y-25960952D01*
X144404819Y-25960952D02*
X144404819Y-26199047D01*
X144404819Y-26199047D02*
X144452438Y-26294285D01*
X144452438Y-26294285D02*
X144500057Y-26341904D01*
X144500057Y-26341904D02*
X144595295Y-26389523D01*
X144595295Y-26389523D02*
X144690533Y-26389523D01*
X144690533Y-26389523D02*
X144833390Y-26341904D01*
X144833390Y-26341904D02*
X145404819Y-25770476D01*
X145404819Y-25770476D02*
X145404819Y-26389523D01*
X144500057Y-26770476D02*
X144452438Y-26818095D01*
X144452438Y-26818095D02*
X144404819Y-26913333D01*
X144404819Y-26913333D02*
X144404819Y-27151428D01*
X144404819Y-27151428D02*
X144452438Y-27246666D01*
X144452438Y-27246666D02*
X144500057Y-27294285D01*
X144500057Y-27294285D02*
X144595295Y-27341904D01*
X144595295Y-27341904D02*
X144690533Y-27341904D01*
X144690533Y-27341904D02*
X144833390Y-27294285D01*
X144833390Y-27294285D02*
X145404819Y-26722857D01*
X145404819Y-26722857D02*
X145404819Y-27341904D01*
X224714819Y-4765714D02*
X223714819Y-4765714D01*
X223714819Y-4765714D02*
X223714819Y-5003809D01*
X223714819Y-5003809D02*
X223762438Y-5146666D01*
X223762438Y-5146666D02*
X223857676Y-5241904D01*
X223857676Y-5241904D02*
X223952914Y-5289523D01*
X223952914Y-5289523D02*
X224143390Y-5337142D01*
X224143390Y-5337142D02*
X224286247Y-5337142D01*
X224286247Y-5337142D02*
X224476723Y-5289523D01*
X224476723Y-5289523D02*
X224571961Y-5241904D01*
X224571961Y-5241904D02*
X224667200Y-5146666D01*
X224667200Y-5146666D02*
X224714819Y-5003809D01*
X224714819Y-5003809D02*
X224714819Y-4765714D01*
X224714819Y-6289523D02*
X224714819Y-5718095D01*
X224714819Y-6003809D02*
X223714819Y-6003809D01*
X223714819Y-6003809D02*
X223857676Y-5908571D01*
X223857676Y-5908571D02*
X223952914Y-5813333D01*
X223952914Y-5813333D02*
X224000533Y-5718095D01*
X223810057Y-6670476D02*
X223762438Y-6718095D01*
X223762438Y-6718095D02*
X223714819Y-6813333D01*
X223714819Y-6813333D02*
X223714819Y-7051428D01*
X223714819Y-7051428D02*
X223762438Y-7146666D01*
X223762438Y-7146666D02*
X223810057Y-7194285D01*
X223810057Y-7194285D02*
X223905295Y-7241904D01*
X223905295Y-7241904D02*
X224000533Y-7241904D01*
X224000533Y-7241904D02*
X224143390Y-7194285D01*
X224143390Y-7194285D02*
X224714819Y-6622857D01*
X224714819Y-6622857D02*
X224714819Y-7241904D01*
X245544819Y-42683214D02*
X244544819Y-42683214D01*
X244544819Y-42683214D02*
X244544819Y-42921309D01*
X244544819Y-42921309D02*
X244592438Y-43064166D01*
X244592438Y-43064166D02*
X244687676Y-43159404D01*
X244687676Y-43159404D02*
X244782914Y-43207023D01*
X244782914Y-43207023D02*
X244973390Y-43254642D01*
X244973390Y-43254642D02*
X245116247Y-43254642D01*
X245116247Y-43254642D02*
X245306723Y-43207023D01*
X245306723Y-43207023D02*
X245401961Y-43159404D01*
X245401961Y-43159404D02*
X245497200Y-43064166D01*
X245497200Y-43064166D02*
X245544819Y-42921309D01*
X245544819Y-42921309D02*
X245544819Y-42683214D01*
X244878152Y-44111785D02*
X245544819Y-44111785D01*
X244497200Y-43873690D02*
X245211485Y-43635595D01*
X245211485Y-43635595D02*
X245211485Y-44254642D01*
X245544819Y-45159404D02*
X245544819Y-44587976D01*
X245544819Y-44873690D02*
X244544819Y-44873690D01*
X244544819Y-44873690D02*
X244687676Y-44778452D01*
X244687676Y-44778452D02*
X244782914Y-44683214D01*
X244782914Y-44683214D02*
X244830533Y-44587976D01*
X221784819Y-24945714D02*
X220784819Y-24945714D01*
X220784819Y-24945714D02*
X220784819Y-25183809D01*
X220784819Y-25183809D02*
X220832438Y-25326666D01*
X220832438Y-25326666D02*
X220927676Y-25421904D01*
X220927676Y-25421904D02*
X221022914Y-25469523D01*
X221022914Y-25469523D02*
X221213390Y-25517142D01*
X221213390Y-25517142D02*
X221356247Y-25517142D01*
X221356247Y-25517142D02*
X221546723Y-25469523D01*
X221546723Y-25469523D02*
X221641961Y-25421904D01*
X221641961Y-25421904D02*
X221737200Y-25326666D01*
X221737200Y-25326666D02*
X221784819Y-25183809D01*
X221784819Y-25183809D02*
X221784819Y-24945714D01*
X220880057Y-25898095D02*
X220832438Y-25945714D01*
X220832438Y-25945714D02*
X220784819Y-26040952D01*
X220784819Y-26040952D02*
X220784819Y-26279047D01*
X220784819Y-26279047D02*
X220832438Y-26374285D01*
X220832438Y-26374285D02*
X220880057Y-26421904D01*
X220880057Y-26421904D02*
X220975295Y-26469523D01*
X220975295Y-26469523D02*
X221070533Y-26469523D01*
X221070533Y-26469523D02*
X221213390Y-26421904D01*
X221213390Y-26421904D02*
X221784819Y-25850476D01*
X221784819Y-25850476D02*
X221784819Y-26469523D01*
X220784819Y-27326666D02*
X220784819Y-27136190D01*
X220784819Y-27136190D02*
X220832438Y-27040952D01*
X220832438Y-27040952D02*
X220880057Y-26993333D01*
X220880057Y-26993333D02*
X221022914Y-26898095D01*
X221022914Y-26898095D02*
X221213390Y-26850476D01*
X221213390Y-26850476D02*
X221594342Y-26850476D01*
X221594342Y-26850476D02*
X221689580Y-26898095D01*
X221689580Y-26898095D02*
X221737200Y-26945714D01*
X221737200Y-26945714D02*
X221784819Y-27040952D01*
X221784819Y-27040952D02*
X221784819Y-27231428D01*
X221784819Y-27231428D02*
X221737200Y-27326666D01*
X221737200Y-27326666D02*
X221689580Y-27374285D01*
X221689580Y-27374285D02*
X221594342Y-27421904D01*
X221594342Y-27421904D02*
X221356247Y-27421904D01*
X221356247Y-27421904D02*
X221261009Y-27374285D01*
X221261009Y-27374285D02*
X221213390Y-27326666D01*
X221213390Y-27326666D02*
X221165771Y-27231428D01*
X221165771Y-27231428D02*
X221165771Y-27040952D01*
X221165771Y-27040952D02*
X221213390Y-26945714D01*
X221213390Y-26945714D02*
X221261009Y-26898095D01*
X221261009Y-26898095D02*
X221356247Y-26850476D01*
X174456728Y-80045309D02*
X174932919Y-80045309D01*
X173932919Y-79711976D02*
X174456728Y-80045309D01*
X174456728Y-80045309D02*
X173932919Y-80378642D01*
X174932919Y-81235785D02*
X174932919Y-80664357D01*
X174932919Y-80950071D02*
X173932919Y-80950071D01*
X173932919Y-80950071D02*
X174075776Y-80854833D01*
X174075776Y-80854833D02*
X174171014Y-80759595D01*
X174171014Y-80759595D02*
X174218633Y-80664357D01*
X244344819Y-4755714D02*
X243344819Y-4755714D01*
X243344819Y-4755714D02*
X243344819Y-4993809D01*
X243344819Y-4993809D02*
X243392438Y-5136666D01*
X243392438Y-5136666D02*
X243487676Y-5231904D01*
X243487676Y-5231904D02*
X243582914Y-5279523D01*
X243582914Y-5279523D02*
X243773390Y-5327142D01*
X243773390Y-5327142D02*
X243916247Y-5327142D01*
X243916247Y-5327142D02*
X244106723Y-5279523D01*
X244106723Y-5279523D02*
X244201961Y-5231904D01*
X244201961Y-5231904D02*
X244297200Y-5136666D01*
X244297200Y-5136666D02*
X244344819Y-4993809D01*
X244344819Y-4993809D02*
X244344819Y-4755714D01*
X244344819Y-6279523D02*
X244344819Y-5708095D01*
X244344819Y-5993809D02*
X243344819Y-5993809D01*
X243344819Y-5993809D02*
X243487676Y-5898571D01*
X243487676Y-5898571D02*
X243582914Y-5803333D01*
X243582914Y-5803333D02*
X243630533Y-5708095D01*
X243344819Y-6612857D02*
X243344819Y-7231904D01*
X243344819Y-7231904D02*
X243725771Y-6898571D01*
X243725771Y-6898571D02*
X243725771Y-7041428D01*
X243725771Y-7041428D02*
X243773390Y-7136666D01*
X243773390Y-7136666D02*
X243821009Y-7184285D01*
X243821009Y-7184285D02*
X243916247Y-7231904D01*
X243916247Y-7231904D02*
X244154342Y-7231904D01*
X244154342Y-7231904D02*
X244249580Y-7184285D01*
X244249580Y-7184285D02*
X244297200Y-7136666D01*
X244297200Y-7136666D02*
X244344819Y-7041428D01*
X244344819Y-7041428D02*
X244344819Y-6755714D01*
X244344819Y-6755714D02*
X244297200Y-6660476D01*
X244297200Y-6660476D02*
X244249580Y-6612857D01*
X20042094Y-4338694D02*
X20042094Y-5148217D01*
X20042094Y-5148217D02*
X19994475Y-5243455D01*
X19994475Y-5243455D02*
X19946856Y-5291075D01*
X19946856Y-5291075D02*
X19851618Y-5338694D01*
X19851618Y-5338694D02*
X19661142Y-5338694D01*
X19661142Y-5338694D02*
X19565904Y-5291075D01*
X19565904Y-5291075D02*
X19518285Y-5243455D01*
X19518285Y-5243455D02*
X19470666Y-5148217D01*
X19470666Y-5148217D02*
X19470666Y-4338694D01*
X19042094Y-5291075D02*
X18899237Y-5338694D01*
X18899237Y-5338694D02*
X18661142Y-5338694D01*
X18661142Y-5338694D02*
X18565904Y-5291075D01*
X18565904Y-5291075D02*
X18518285Y-5243455D01*
X18518285Y-5243455D02*
X18470666Y-5148217D01*
X18470666Y-5148217D02*
X18470666Y-5052979D01*
X18470666Y-5052979D02*
X18518285Y-4957741D01*
X18518285Y-4957741D02*
X18565904Y-4910122D01*
X18565904Y-4910122D02*
X18661142Y-4862503D01*
X18661142Y-4862503D02*
X18851618Y-4814884D01*
X18851618Y-4814884D02*
X18946856Y-4767265D01*
X18946856Y-4767265D02*
X18994475Y-4719646D01*
X18994475Y-4719646D02*
X19042094Y-4624408D01*
X19042094Y-4624408D02*
X19042094Y-4529170D01*
X19042094Y-4529170D02*
X18994475Y-4433932D01*
X18994475Y-4433932D02*
X18946856Y-4386313D01*
X18946856Y-4386313D02*
X18851618Y-4338694D01*
X18851618Y-4338694D02*
X18613523Y-4338694D01*
X18613523Y-4338694D02*
X18470666Y-4386313D01*
X17708761Y-4814884D02*
X17565904Y-4862503D01*
X17565904Y-4862503D02*
X17518285Y-4910122D01*
X17518285Y-4910122D02*
X17470666Y-5005360D01*
X17470666Y-5005360D02*
X17470666Y-5148217D01*
X17470666Y-5148217D02*
X17518285Y-5243455D01*
X17518285Y-5243455D02*
X17565904Y-5291075D01*
X17565904Y-5291075D02*
X17661142Y-5338694D01*
X17661142Y-5338694D02*
X18042094Y-5338694D01*
X18042094Y-5338694D02*
X18042094Y-4338694D01*
X18042094Y-4338694D02*
X17708761Y-4338694D01*
X17708761Y-4338694D02*
X17613523Y-4386313D01*
X17613523Y-4386313D02*
X17565904Y-4433932D01*
X17565904Y-4433932D02*
X17518285Y-4529170D01*
X17518285Y-4529170D02*
X17518285Y-4624408D01*
X17518285Y-4624408D02*
X17565904Y-4719646D01*
X17565904Y-4719646D02*
X17613523Y-4767265D01*
X17613523Y-4767265D02*
X17708761Y-4814884D01*
X17708761Y-4814884D02*
X18042094Y-4814884D01*
X16518285Y-5338694D02*
X17089713Y-5338694D01*
X16803999Y-5338694D02*
X16803999Y-4338694D01*
X16803999Y-4338694D02*
X16899237Y-4481551D01*
X16899237Y-4481551D02*
X16994475Y-4576789D01*
X16994475Y-4576789D02*
X17089713Y-4624408D01*
X156064819Y-61515714D02*
X155064819Y-61515714D01*
X155064819Y-61515714D02*
X155064819Y-61753809D01*
X155064819Y-61753809D02*
X155112438Y-61896666D01*
X155112438Y-61896666D02*
X155207676Y-61991904D01*
X155207676Y-61991904D02*
X155302914Y-62039523D01*
X155302914Y-62039523D02*
X155493390Y-62087142D01*
X155493390Y-62087142D02*
X155636247Y-62087142D01*
X155636247Y-62087142D02*
X155826723Y-62039523D01*
X155826723Y-62039523D02*
X155921961Y-61991904D01*
X155921961Y-61991904D02*
X156017200Y-61896666D01*
X156017200Y-61896666D02*
X156064819Y-61753809D01*
X156064819Y-61753809D02*
X156064819Y-61515714D01*
X155064819Y-62991904D02*
X155064819Y-62515714D01*
X155064819Y-62515714D02*
X155541009Y-62468095D01*
X155541009Y-62468095D02*
X155493390Y-62515714D01*
X155493390Y-62515714D02*
X155445771Y-62610952D01*
X155445771Y-62610952D02*
X155445771Y-62849047D01*
X155445771Y-62849047D02*
X155493390Y-62944285D01*
X155493390Y-62944285D02*
X155541009Y-62991904D01*
X155541009Y-62991904D02*
X155636247Y-63039523D01*
X155636247Y-63039523D02*
X155874342Y-63039523D01*
X155874342Y-63039523D02*
X155969580Y-62991904D01*
X155969580Y-62991904D02*
X156017200Y-62944285D01*
X156017200Y-62944285D02*
X156064819Y-62849047D01*
X156064819Y-62849047D02*
X156064819Y-62610952D01*
X156064819Y-62610952D02*
X156017200Y-62515714D01*
X156017200Y-62515714D02*
X155969580Y-62468095D01*
X155160057Y-63420476D02*
X155112438Y-63468095D01*
X155112438Y-63468095D02*
X155064819Y-63563333D01*
X155064819Y-63563333D02*
X155064819Y-63801428D01*
X155064819Y-63801428D02*
X155112438Y-63896666D01*
X155112438Y-63896666D02*
X155160057Y-63944285D01*
X155160057Y-63944285D02*
X155255295Y-63991904D01*
X155255295Y-63991904D02*
X155350533Y-63991904D01*
X155350533Y-63991904D02*
X155493390Y-63944285D01*
X155493390Y-63944285D02*
X156064819Y-63372857D01*
X156064819Y-63372857D02*
X156064819Y-63991904D01*
X93244819Y-42570714D02*
X92244819Y-42570714D01*
X92244819Y-42570714D02*
X92244819Y-42808809D01*
X92244819Y-42808809D02*
X92292438Y-42951666D01*
X92292438Y-42951666D02*
X92387676Y-43046904D01*
X92387676Y-43046904D02*
X92482914Y-43094523D01*
X92482914Y-43094523D02*
X92673390Y-43142142D01*
X92673390Y-43142142D02*
X92816247Y-43142142D01*
X92816247Y-43142142D02*
X93006723Y-43094523D01*
X93006723Y-43094523D02*
X93101961Y-43046904D01*
X93101961Y-43046904D02*
X93197200Y-42951666D01*
X93197200Y-42951666D02*
X93244819Y-42808809D01*
X93244819Y-42808809D02*
X93244819Y-42570714D01*
X92244819Y-43475476D02*
X92244819Y-44094523D01*
X92244819Y-44094523D02*
X92625771Y-43761190D01*
X92625771Y-43761190D02*
X92625771Y-43904047D01*
X92625771Y-43904047D02*
X92673390Y-43999285D01*
X92673390Y-43999285D02*
X92721009Y-44046904D01*
X92721009Y-44046904D02*
X92816247Y-44094523D01*
X92816247Y-44094523D02*
X93054342Y-44094523D01*
X93054342Y-44094523D02*
X93149580Y-44046904D01*
X93149580Y-44046904D02*
X93197200Y-43999285D01*
X93197200Y-43999285D02*
X93244819Y-43904047D01*
X93244819Y-43904047D02*
X93244819Y-43618333D01*
X93244819Y-43618333D02*
X93197200Y-43523095D01*
X93197200Y-43523095D02*
X93149580Y-43475476D01*
X92244819Y-44427857D02*
X92244819Y-45046904D01*
X92244819Y-45046904D02*
X92625771Y-44713571D01*
X92625771Y-44713571D02*
X92625771Y-44856428D01*
X92625771Y-44856428D02*
X92673390Y-44951666D01*
X92673390Y-44951666D02*
X92721009Y-44999285D01*
X92721009Y-44999285D02*
X92816247Y-45046904D01*
X92816247Y-45046904D02*
X93054342Y-45046904D01*
X93054342Y-45046904D02*
X93149580Y-44999285D01*
X93149580Y-44999285D02*
X93197200Y-44951666D01*
X93197200Y-44951666D02*
X93244819Y-44856428D01*
X93244819Y-44856428D02*
X93244819Y-44570714D01*
X93244819Y-44570714D02*
X93197200Y-44475476D01*
X93197200Y-44475476D02*
X93149580Y-44427857D01*
X186024819Y-4775714D02*
X185024819Y-4775714D01*
X185024819Y-4775714D02*
X185024819Y-5013809D01*
X185024819Y-5013809D02*
X185072438Y-5156666D01*
X185072438Y-5156666D02*
X185167676Y-5251904D01*
X185167676Y-5251904D02*
X185262914Y-5299523D01*
X185262914Y-5299523D02*
X185453390Y-5347142D01*
X185453390Y-5347142D02*
X185596247Y-5347142D01*
X185596247Y-5347142D02*
X185786723Y-5299523D01*
X185786723Y-5299523D02*
X185881961Y-5251904D01*
X185881961Y-5251904D02*
X185977200Y-5156666D01*
X185977200Y-5156666D02*
X186024819Y-5013809D01*
X186024819Y-5013809D02*
X186024819Y-4775714D01*
X186024819Y-6299523D02*
X186024819Y-5728095D01*
X186024819Y-6013809D02*
X185024819Y-6013809D01*
X185024819Y-6013809D02*
X185167676Y-5918571D01*
X185167676Y-5918571D02*
X185262914Y-5823333D01*
X185262914Y-5823333D02*
X185310533Y-5728095D01*
X185024819Y-6918571D02*
X185024819Y-7013809D01*
X185024819Y-7013809D02*
X185072438Y-7109047D01*
X185072438Y-7109047D02*
X185120057Y-7156666D01*
X185120057Y-7156666D02*
X185215295Y-7204285D01*
X185215295Y-7204285D02*
X185405771Y-7251904D01*
X185405771Y-7251904D02*
X185643866Y-7251904D01*
X185643866Y-7251904D02*
X185834342Y-7204285D01*
X185834342Y-7204285D02*
X185929580Y-7156666D01*
X185929580Y-7156666D02*
X185977200Y-7109047D01*
X185977200Y-7109047D02*
X186024819Y-7013809D01*
X186024819Y-7013809D02*
X186024819Y-6918571D01*
X186024819Y-6918571D02*
X185977200Y-6823333D01*
X185977200Y-6823333D02*
X185929580Y-6775714D01*
X185929580Y-6775714D02*
X185834342Y-6728095D01*
X185834342Y-6728095D02*
X185643866Y-6680476D01*
X185643866Y-6680476D02*
X185405771Y-6680476D01*
X185405771Y-6680476D02*
X185215295Y-6728095D01*
X185215295Y-6728095D02*
X185120057Y-6775714D01*
X185120057Y-6775714D02*
X185072438Y-6823333D01*
X185072438Y-6823333D02*
X185024819Y-6918571D01*
X20194094Y-8523019D02*
X20194094Y-7523019D01*
X20194094Y-7523019D02*
X19955999Y-7523019D01*
X19955999Y-7523019D02*
X19813142Y-7570638D01*
X19813142Y-7570638D02*
X19717904Y-7665876D01*
X19717904Y-7665876D02*
X19670285Y-7761114D01*
X19670285Y-7761114D02*
X19622666Y-7951590D01*
X19622666Y-7951590D02*
X19622666Y-8094447D01*
X19622666Y-8094447D02*
X19670285Y-8284923D01*
X19670285Y-8284923D02*
X19717904Y-8380161D01*
X19717904Y-8380161D02*
X19813142Y-8475400D01*
X19813142Y-8475400D02*
X19955999Y-8523019D01*
X19955999Y-8523019D02*
X20194094Y-8523019D01*
X18670285Y-8523019D02*
X19241713Y-8523019D01*
X18955999Y-8523019D02*
X18955999Y-7523019D01*
X18955999Y-7523019D02*
X19051237Y-7665876D01*
X19051237Y-7665876D02*
X19146475Y-7761114D01*
X19146475Y-7761114D02*
X19241713Y-7808733D01*
X14832666Y-5404819D02*
X15165999Y-4928628D01*
X15404094Y-5404819D02*
X15404094Y-4404819D01*
X15404094Y-4404819D02*
X15023142Y-4404819D01*
X15023142Y-4404819D02*
X14927904Y-4452438D01*
X14927904Y-4452438D02*
X14880285Y-4500057D01*
X14880285Y-4500057D02*
X14832666Y-4595295D01*
X14832666Y-4595295D02*
X14832666Y-4738152D01*
X14832666Y-4738152D02*
X14880285Y-4833390D01*
X14880285Y-4833390D02*
X14927904Y-4881009D01*
X14927904Y-4881009D02*
X15023142Y-4928628D01*
X15023142Y-4928628D02*
X15404094Y-4928628D01*
X13975523Y-4404819D02*
X14165999Y-4404819D01*
X14165999Y-4404819D02*
X14261237Y-4452438D01*
X14261237Y-4452438D02*
X14308856Y-4500057D01*
X14308856Y-4500057D02*
X14404094Y-4642914D01*
X14404094Y-4642914D02*
X14451713Y-4833390D01*
X14451713Y-4833390D02*
X14451713Y-5214342D01*
X14451713Y-5214342D02*
X14404094Y-5309580D01*
X14404094Y-5309580D02*
X14356475Y-5357200D01*
X14356475Y-5357200D02*
X14261237Y-5404819D01*
X14261237Y-5404819D02*
X14070761Y-5404819D01*
X14070761Y-5404819D02*
X13975523Y-5357200D01*
X13975523Y-5357200D02*
X13927904Y-5309580D01*
X13927904Y-5309580D02*
X13880285Y-5214342D01*
X13880285Y-5214342D02*
X13880285Y-4976247D01*
X13880285Y-4976247D02*
X13927904Y-4881009D01*
X13927904Y-4881009D02*
X13975523Y-4833390D01*
X13975523Y-4833390D02*
X14070761Y-4785771D01*
X14070761Y-4785771D02*
X14261237Y-4785771D01*
X14261237Y-4785771D02*
X14356475Y-4833390D01*
X14356475Y-4833390D02*
X14404094Y-4881009D01*
X14404094Y-4881009D02*
X14451713Y-4976247D01*
X205644819Y-4735714D02*
X204644819Y-4735714D01*
X204644819Y-4735714D02*
X204644819Y-4973809D01*
X204644819Y-4973809D02*
X204692438Y-5116666D01*
X204692438Y-5116666D02*
X204787676Y-5211904D01*
X204787676Y-5211904D02*
X204882914Y-5259523D01*
X204882914Y-5259523D02*
X205073390Y-5307142D01*
X205073390Y-5307142D02*
X205216247Y-5307142D01*
X205216247Y-5307142D02*
X205406723Y-5259523D01*
X205406723Y-5259523D02*
X205501961Y-5211904D01*
X205501961Y-5211904D02*
X205597200Y-5116666D01*
X205597200Y-5116666D02*
X205644819Y-4973809D01*
X205644819Y-4973809D02*
X205644819Y-4735714D01*
X205644819Y-6259523D02*
X205644819Y-5688095D01*
X205644819Y-5973809D02*
X204644819Y-5973809D01*
X204644819Y-5973809D02*
X204787676Y-5878571D01*
X204787676Y-5878571D02*
X204882914Y-5783333D01*
X204882914Y-5783333D02*
X204930533Y-5688095D01*
X205644819Y-7211904D02*
X205644819Y-6640476D01*
X205644819Y-6926190D02*
X204644819Y-6926190D01*
X204644819Y-6926190D02*
X204787676Y-6830952D01*
X204787676Y-6830952D02*
X204882914Y-6735714D01*
X204882914Y-6735714D02*
X204930533Y-6640476D01*
X63294819Y-5349405D02*
X62294819Y-5349405D01*
X62294819Y-5349405D02*
X62294819Y-5587500D01*
X62294819Y-5587500D02*
X62342438Y-5730357D01*
X62342438Y-5730357D02*
X62437676Y-5825595D01*
X62437676Y-5825595D02*
X62532914Y-5873214D01*
X62532914Y-5873214D02*
X62723390Y-5920833D01*
X62723390Y-5920833D02*
X62866247Y-5920833D01*
X62866247Y-5920833D02*
X63056723Y-5873214D01*
X63056723Y-5873214D02*
X63151961Y-5825595D01*
X63151961Y-5825595D02*
X63247200Y-5730357D01*
X63247200Y-5730357D02*
X63294819Y-5587500D01*
X63294819Y-5587500D02*
X63294819Y-5349405D01*
X62628152Y-6777976D02*
X63294819Y-6777976D01*
X62247200Y-6539881D02*
X62961485Y-6301786D01*
X62961485Y-6301786D02*
X62961485Y-6920833D01*
X183734819Y-24865714D02*
X182734819Y-24865714D01*
X182734819Y-24865714D02*
X182734819Y-25103809D01*
X182734819Y-25103809D02*
X182782438Y-25246666D01*
X182782438Y-25246666D02*
X182877676Y-25341904D01*
X182877676Y-25341904D02*
X182972914Y-25389523D01*
X182972914Y-25389523D02*
X183163390Y-25437142D01*
X183163390Y-25437142D02*
X183306247Y-25437142D01*
X183306247Y-25437142D02*
X183496723Y-25389523D01*
X183496723Y-25389523D02*
X183591961Y-25341904D01*
X183591961Y-25341904D02*
X183687200Y-25246666D01*
X183687200Y-25246666D02*
X183734819Y-25103809D01*
X183734819Y-25103809D02*
X183734819Y-24865714D01*
X182830057Y-25818095D02*
X182782438Y-25865714D01*
X182782438Y-25865714D02*
X182734819Y-25960952D01*
X182734819Y-25960952D02*
X182734819Y-26199047D01*
X182734819Y-26199047D02*
X182782438Y-26294285D01*
X182782438Y-26294285D02*
X182830057Y-26341904D01*
X182830057Y-26341904D02*
X182925295Y-26389523D01*
X182925295Y-26389523D02*
X183020533Y-26389523D01*
X183020533Y-26389523D02*
X183163390Y-26341904D01*
X183163390Y-26341904D02*
X183734819Y-25770476D01*
X183734819Y-25770476D02*
X183734819Y-26389523D01*
X183068152Y-27246666D02*
X183734819Y-27246666D01*
X182687200Y-27008571D02*
X183401485Y-26770476D01*
X183401485Y-26770476D02*
X183401485Y-27389523D01*
X74194819Y-42570714D02*
X73194819Y-42570714D01*
X73194819Y-42570714D02*
X73194819Y-42808809D01*
X73194819Y-42808809D02*
X73242438Y-42951666D01*
X73242438Y-42951666D02*
X73337676Y-43046904D01*
X73337676Y-43046904D02*
X73432914Y-43094523D01*
X73432914Y-43094523D02*
X73623390Y-43142142D01*
X73623390Y-43142142D02*
X73766247Y-43142142D01*
X73766247Y-43142142D02*
X73956723Y-43094523D01*
X73956723Y-43094523D02*
X74051961Y-43046904D01*
X74051961Y-43046904D02*
X74147200Y-42951666D01*
X74147200Y-42951666D02*
X74194819Y-42808809D01*
X74194819Y-42808809D02*
X74194819Y-42570714D01*
X73194819Y-43475476D02*
X73194819Y-44094523D01*
X73194819Y-44094523D02*
X73575771Y-43761190D01*
X73575771Y-43761190D02*
X73575771Y-43904047D01*
X73575771Y-43904047D02*
X73623390Y-43999285D01*
X73623390Y-43999285D02*
X73671009Y-44046904D01*
X73671009Y-44046904D02*
X73766247Y-44094523D01*
X73766247Y-44094523D02*
X74004342Y-44094523D01*
X74004342Y-44094523D02*
X74099580Y-44046904D01*
X74099580Y-44046904D02*
X74147200Y-43999285D01*
X74147200Y-43999285D02*
X74194819Y-43904047D01*
X74194819Y-43904047D02*
X74194819Y-43618333D01*
X74194819Y-43618333D02*
X74147200Y-43523095D01*
X74147200Y-43523095D02*
X74099580Y-43475476D01*
X73290057Y-44475476D02*
X73242438Y-44523095D01*
X73242438Y-44523095D02*
X73194819Y-44618333D01*
X73194819Y-44618333D02*
X73194819Y-44856428D01*
X73194819Y-44856428D02*
X73242438Y-44951666D01*
X73242438Y-44951666D02*
X73290057Y-44999285D01*
X73290057Y-44999285D02*
X73385295Y-45046904D01*
X73385295Y-45046904D02*
X73480533Y-45046904D01*
X73480533Y-45046904D02*
X73623390Y-44999285D01*
X73623390Y-44999285D02*
X74194819Y-44427857D01*
X74194819Y-44427857D02*
X74194819Y-45046904D01*
X136884819Y-61535714D02*
X135884819Y-61535714D01*
X135884819Y-61535714D02*
X135884819Y-61773809D01*
X135884819Y-61773809D02*
X135932438Y-61916666D01*
X135932438Y-61916666D02*
X136027676Y-62011904D01*
X136027676Y-62011904D02*
X136122914Y-62059523D01*
X136122914Y-62059523D02*
X136313390Y-62107142D01*
X136313390Y-62107142D02*
X136456247Y-62107142D01*
X136456247Y-62107142D02*
X136646723Y-62059523D01*
X136646723Y-62059523D02*
X136741961Y-62011904D01*
X136741961Y-62011904D02*
X136837200Y-61916666D01*
X136837200Y-61916666D02*
X136884819Y-61773809D01*
X136884819Y-61773809D02*
X136884819Y-61535714D01*
X135884819Y-63011904D02*
X135884819Y-62535714D01*
X135884819Y-62535714D02*
X136361009Y-62488095D01*
X136361009Y-62488095D02*
X136313390Y-62535714D01*
X136313390Y-62535714D02*
X136265771Y-62630952D01*
X136265771Y-62630952D02*
X136265771Y-62869047D01*
X136265771Y-62869047D02*
X136313390Y-62964285D01*
X136313390Y-62964285D02*
X136361009Y-63011904D01*
X136361009Y-63011904D02*
X136456247Y-63059523D01*
X136456247Y-63059523D02*
X136694342Y-63059523D01*
X136694342Y-63059523D02*
X136789580Y-63011904D01*
X136789580Y-63011904D02*
X136837200Y-62964285D01*
X136837200Y-62964285D02*
X136884819Y-62869047D01*
X136884819Y-62869047D02*
X136884819Y-62630952D01*
X136884819Y-62630952D02*
X136837200Y-62535714D01*
X136837200Y-62535714D02*
X136789580Y-62488095D01*
X136884819Y-64011904D02*
X136884819Y-63440476D01*
X136884819Y-63726190D02*
X135884819Y-63726190D01*
X135884819Y-63726190D02*
X136027676Y-63630952D01*
X136027676Y-63630952D02*
X136122914Y-63535714D01*
X136122914Y-63535714D02*
X136170533Y-63440476D01*
X60704819Y-61555714D02*
X59704819Y-61555714D01*
X59704819Y-61555714D02*
X59704819Y-61793809D01*
X59704819Y-61793809D02*
X59752438Y-61936666D01*
X59752438Y-61936666D02*
X59847676Y-62031904D01*
X59847676Y-62031904D02*
X59942914Y-62079523D01*
X59942914Y-62079523D02*
X60133390Y-62127142D01*
X60133390Y-62127142D02*
X60276247Y-62127142D01*
X60276247Y-62127142D02*
X60466723Y-62079523D01*
X60466723Y-62079523D02*
X60561961Y-62031904D01*
X60561961Y-62031904D02*
X60657200Y-61936666D01*
X60657200Y-61936666D02*
X60704819Y-61793809D01*
X60704819Y-61793809D02*
X60704819Y-61555714D01*
X60038152Y-62984285D02*
X60704819Y-62984285D01*
X59657200Y-62746190D02*
X60371485Y-62508095D01*
X60371485Y-62508095D02*
X60371485Y-63127142D01*
X59704819Y-63412857D02*
X59704819Y-64079523D01*
X59704819Y-64079523D02*
X60704819Y-63650952D01*
X296984285Y-76904819D02*
X296984285Y-75904819D01*
X296984285Y-75904819D02*
X296746190Y-75904819D01*
X296746190Y-75904819D02*
X296603333Y-75952438D01*
X296603333Y-75952438D02*
X296508095Y-76047676D01*
X296508095Y-76047676D02*
X296460476Y-76142914D01*
X296460476Y-76142914D02*
X296412857Y-76333390D01*
X296412857Y-76333390D02*
X296412857Y-76476247D01*
X296412857Y-76476247D02*
X296460476Y-76666723D01*
X296460476Y-76666723D02*
X296508095Y-76761961D01*
X296508095Y-76761961D02*
X296603333Y-76857200D01*
X296603333Y-76857200D02*
X296746190Y-76904819D01*
X296746190Y-76904819D02*
X296984285Y-76904819D01*
X295555714Y-75904819D02*
X295746190Y-75904819D01*
X295746190Y-75904819D02*
X295841428Y-75952438D01*
X295841428Y-75952438D02*
X295889047Y-76000057D01*
X295889047Y-76000057D02*
X295984285Y-76142914D01*
X295984285Y-76142914D02*
X296031904Y-76333390D01*
X296031904Y-76333390D02*
X296031904Y-76714342D01*
X296031904Y-76714342D02*
X295984285Y-76809580D01*
X295984285Y-76809580D02*
X295936666Y-76857200D01*
X295936666Y-76857200D02*
X295841428Y-76904819D01*
X295841428Y-76904819D02*
X295650952Y-76904819D01*
X295650952Y-76904819D02*
X295555714Y-76857200D01*
X295555714Y-76857200D02*
X295508095Y-76809580D01*
X295508095Y-76809580D02*
X295460476Y-76714342D01*
X295460476Y-76714342D02*
X295460476Y-76476247D01*
X295460476Y-76476247D02*
X295508095Y-76381009D01*
X295508095Y-76381009D02*
X295555714Y-76333390D01*
X295555714Y-76333390D02*
X295650952Y-76285771D01*
X295650952Y-76285771D02*
X295841428Y-76285771D01*
X295841428Y-76285771D02*
X295936666Y-76333390D01*
X295936666Y-76333390D02*
X295984285Y-76381009D01*
X295984285Y-76381009D02*
X296031904Y-76476247D01*
X294889047Y-76333390D02*
X294984285Y-76285771D01*
X294984285Y-76285771D02*
X295031904Y-76238152D01*
X295031904Y-76238152D02*
X295079523Y-76142914D01*
X295079523Y-76142914D02*
X295079523Y-76095295D01*
X295079523Y-76095295D02*
X295031904Y-76000057D01*
X295031904Y-76000057D02*
X294984285Y-75952438D01*
X294984285Y-75952438D02*
X294889047Y-75904819D01*
X294889047Y-75904819D02*
X294698571Y-75904819D01*
X294698571Y-75904819D02*
X294603333Y-75952438D01*
X294603333Y-75952438D02*
X294555714Y-76000057D01*
X294555714Y-76000057D02*
X294508095Y-76095295D01*
X294508095Y-76095295D02*
X294508095Y-76142914D01*
X294508095Y-76142914D02*
X294555714Y-76238152D01*
X294555714Y-76238152D02*
X294603333Y-76285771D01*
X294603333Y-76285771D02*
X294698571Y-76333390D01*
X294698571Y-76333390D02*
X294889047Y-76333390D01*
X294889047Y-76333390D02*
X294984285Y-76381009D01*
X294984285Y-76381009D02*
X295031904Y-76428628D01*
X295031904Y-76428628D02*
X295079523Y-76523866D01*
X295079523Y-76523866D02*
X295079523Y-76714342D01*
X295079523Y-76714342D02*
X295031904Y-76809580D01*
X295031904Y-76809580D02*
X294984285Y-76857200D01*
X294984285Y-76857200D02*
X294889047Y-76904819D01*
X294889047Y-76904819D02*
X294698571Y-76904819D01*
X294698571Y-76904819D02*
X294603333Y-76857200D01*
X294603333Y-76857200D02*
X294555714Y-76809580D01*
X294555714Y-76809580D02*
X294508095Y-76714342D01*
X294508095Y-76714342D02*
X294508095Y-76523866D01*
X294508095Y-76523866D02*
X294555714Y-76428628D01*
X294555714Y-76428628D02*
X294603333Y-76381009D01*
X294603333Y-76381009D02*
X294698571Y-76333390D01*
X151237180Y-84448333D02*
X151284800Y-84400714D01*
X151284800Y-84400714D02*
X151332419Y-84257857D01*
X151332419Y-84257857D02*
X151332419Y-84162619D01*
X151332419Y-84162619D02*
X151284800Y-84019762D01*
X151284800Y-84019762D02*
X151189561Y-83924524D01*
X151189561Y-83924524D02*
X151094323Y-83876905D01*
X151094323Y-83876905D02*
X150903847Y-83829286D01*
X150903847Y-83829286D02*
X150760990Y-83829286D01*
X150760990Y-83829286D02*
X150570514Y-83876905D01*
X150570514Y-83876905D02*
X150475276Y-83924524D01*
X150475276Y-83924524D02*
X150380038Y-84019762D01*
X150380038Y-84019762D02*
X150332419Y-84162619D01*
X150332419Y-84162619D02*
X150332419Y-84257857D01*
X150332419Y-84257857D02*
X150380038Y-84400714D01*
X150380038Y-84400714D02*
X150427657Y-84448333D01*
X150665752Y-85305476D02*
X151332419Y-85305476D01*
X150284800Y-85067381D02*
X150999085Y-84829286D01*
X150999085Y-84829286D02*
X150999085Y-85448333D01*
X119720832Y-78657200D02*
X119577975Y-78704819D01*
X119577975Y-78704819D02*
X119339880Y-78704819D01*
X119339880Y-78704819D02*
X119244642Y-78657200D01*
X119244642Y-78657200D02*
X119197023Y-78609580D01*
X119197023Y-78609580D02*
X119149404Y-78514342D01*
X119149404Y-78514342D02*
X119149404Y-78419104D01*
X119149404Y-78419104D02*
X119197023Y-78323866D01*
X119197023Y-78323866D02*
X119244642Y-78276247D01*
X119244642Y-78276247D02*
X119339880Y-78228628D01*
X119339880Y-78228628D02*
X119530356Y-78181009D01*
X119530356Y-78181009D02*
X119625594Y-78133390D01*
X119625594Y-78133390D02*
X119673213Y-78085771D01*
X119673213Y-78085771D02*
X119720832Y-77990533D01*
X119720832Y-77990533D02*
X119720832Y-77895295D01*
X119720832Y-77895295D02*
X119673213Y-77800057D01*
X119673213Y-77800057D02*
X119625594Y-77752438D01*
X119625594Y-77752438D02*
X119530356Y-77704819D01*
X119530356Y-77704819D02*
X119292261Y-77704819D01*
X119292261Y-77704819D02*
X119149404Y-77752438D01*
X118816070Y-77704819D02*
X118577975Y-78704819D01*
X118577975Y-78704819D02*
X118387499Y-77990533D01*
X118387499Y-77990533D02*
X118197023Y-78704819D01*
X118197023Y-78704819D02*
X117958928Y-77704819D01*
X117625594Y-77800057D02*
X117577975Y-77752438D01*
X117577975Y-77752438D02*
X117482737Y-77704819D01*
X117482737Y-77704819D02*
X117244642Y-77704819D01*
X117244642Y-77704819D02*
X117149404Y-77752438D01*
X117149404Y-77752438D02*
X117101785Y-77800057D01*
X117101785Y-77800057D02*
X117054166Y-77895295D01*
X117054166Y-77895295D02*
X117054166Y-77990533D01*
X117054166Y-77990533D02*
X117101785Y-78133390D01*
X117101785Y-78133390D02*
X117673213Y-78704819D01*
X117673213Y-78704819D02*
X117054166Y-78704819D01*
X259004819Y-61415714D02*
X258004819Y-61415714D01*
X258004819Y-61415714D02*
X258004819Y-61653809D01*
X258004819Y-61653809D02*
X258052438Y-61796666D01*
X258052438Y-61796666D02*
X258147676Y-61891904D01*
X258147676Y-61891904D02*
X258242914Y-61939523D01*
X258242914Y-61939523D02*
X258433390Y-61987142D01*
X258433390Y-61987142D02*
X258576247Y-61987142D01*
X258576247Y-61987142D02*
X258766723Y-61939523D01*
X258766723Y-61939523D02*
X258861961Y-61891904D01*
X258861961Y-61891904D02*
X258957200Y-61796666D01*
X258957200Y-61796666D02*
X259004819Y-61653809D01*
X259004819Y-61653809D02*
X259004819Y-61415714D01*
X258004819Y-62891904D02*
X258004819Y-62415714D01*
X258004819Y-62415714D02*
X258481009Y-62368095D01*
X258481009Y-62368095D02*
X258433390Y-62415714D01*
X258433390Y-62415714D02*
X258385771Y-62510952D01*
X258385771Y-62510952D02*
X258385771Y-62749047D01*
X258385771Y-62749047D02*
X258433390Y-62844285D01*
X258433390Y-62844285D02*
X258481009Y-62891904D01*
X258481009Y-62891904D02*
X258576247Y-62939523D01*
X258576247Y-62939523D02*
X258814342Y-62939523D01*
X258814342Y-62939523D02*
X258909580Y-62891904D01*
X258909580Y-62891904D02*
X258957200Y-62844285D01*
X258957200Y-62844285D02*
X259004819Y-62749047D01*
X259004819Y-62749047D02*
X259004819Y-62510952D01*
X259004819Y-62510952D02*
X258957200Y-62415714D01*
X258957200Y-62415714D02*
X258909580Y-62368095D01*
X258004819Y-63272857D02*
X258004819Y-63939523D01*
X258004819Y-63939523D02*
X259004819Y-63510952D01*
X98874819Y-61515714D02*
X97874819Y-61515714D01*
X97874819Y-61515714D02*
X97874819Y-61753809D01*
X97874819Y-61753809D02*
X97922438Y-61896666D01*
X97922438Y-61896666D02*
X98017676Y-61991904D01*
X98017676Y-61991904D02*
X98112914Y-62039523D01*
X98112914Y-62039523D02*
X98303390Y-62087142D01*
X98303390Y-62087142D02*
X98446247Y-62087142D01*
X98446247Y-62087142D02*
X98636723Y-62039523D01*
X98636723Y-62039523D02*
X98731961Y-61991904D01*
X98731961Y-61991904D02*
X98827200Y-61896666D01*
X98827200Y-61896666D02*
X98874819Y-61753809D01*
X98874819Y-61753809D02*
X98874819Y-61515714D01*
X98208152Y-62944285D02*
X98874819Y-62944285D01*
X97827200Y-62706190D02*
X98541485Y-62468095D01*
X98541485Y-62468095D02*
X98541485Y-63087142D01*
X98874819Y-63515714D02*
X98874819Y-63706190D01*
X98874819Y-63706190D02*
X98827200Y-63801428D01*
X98827200Y-63801428D02*
X98779580Y-63849047D01*
X98779580Y-63849047D02*
X98636723Y-63944285D01*
X98636723Y-63944285D02*
X98446247Y-63991904D01*
X98446247Y-63991904D02*
X98065295Y-63991904D01*
X98065295Y-63991904D02*
X97970057Y-63944285D01*
X97970057Y-63944285D02*
X97922438Y-63896666D01*
X97922438Y-63896666D02*
X97874819Y-63801428D01*
X97874819Y-63801428D02*
X97874819Y-63610952D01*
X97874819Y-63610952D02*
X97922438Y-63515714D01*
X97922438Y-63515714D02*
X97970057Y-63468095D01*
X97970057Y-63468095D02*
X98065295Y-63420476D01*
X98065295Y-63420476D02*
X98303390Y-63420476D01*
X98303390Y-63420476D02*
X98398628Y-63468095D01*
X98398628Y-63468095D02*
X98446247Y-63515714D01*
X98446247Y-63515714D02*
X98493866Y-63610952D01*
X98493866Y-63610952D02*
X98493866Y-63801428D01*
X98493866Y-63801428D02*
X98446247Y-63896666D01*
X98446247Y-63896666D02*
X98398628Y-63944285D01*
X98398628Y-63944285D02*
X98303390Y-63991904D01*
X289736785Y-30474819D02*
X289736785Y-29474819D01*
X289736785Y-29474819D02*
X289498690Y-29474819D01*
X289498690Y-29474819D02*
X289355833Y-29522438D01*
X289355833Y-29522438D02*
X289260595Y-29617676D01*
X289260595Y-29617676D02*
X289212976Y-29712914D01*
X289212976Y-29712914D02*
X289165357Y-29903390D01*
X289165357Y-29903390D02*
X289165357Y-30046247D01*
X289165357Y-30046247D02*
X289212976Y-30236723D01*
X289212976Y-30236723D02*
X289260595Y-30331961D01*
X289260595Y-30331961D02*
X289355833Y-30427200D01*
X289355833Y-30427200D02*
X289498690Y-30474819D01*
X289498690Y-30474819D02*
X289736785Y-30474819D01*
X288308214Y-29808152D02*
X288308214Y-30474819D01*
X288546309Y-29427200D02*
X288784404Y-30141485D01*
X288784404Y-30141485D02*
X288165357Y-30141485D01*
X287879642Y-29474819D02*
X287260595Y-29474819D01*
X287260595Y-29474819D02*
X287593928Y-29855771D01*
X287593928Y-29855771D02*
X287451071Y-29855771D01*
X287451071Y-29855771D02*
X287355833Y-29903390D01*
X287355833Y-29903390D02*
X287308214Y-29951009D01*
X287308214Y-29951009D02*
X287260595Y-30046247D01*
X287260595Y-30046247D02*
X287260595Y-30284342D01*
X287260595Y-30284342D02*
X287308214Y-30379580D01*
X287308214Y-30379580D02*
X287355833Y-30427200D01*
X287355833Y-30427200D02*
X287451071Y-30474819D01*
X287451071Y-30474819D02*
X287736785Y-30474819D01*
X287736785Y-30474819D02*
X287832023Y-30427200D01*
X287832023Y-30427200D02*
X287879642Y-30379580D01*
X50024819Y-25105714D02*
X49024819Y-25105714D01*
X49024819Y-25105714D02*
X49024819Y-25343809D01*
X49024819Y-25343809D02*
X49072438Y-25486666D01*
X49072438Y-25486666D02*
X49167676Y-25581904D01*
X49167676Y-25581904D02*
X49262914Y-25629523D01*
X49262914Y-25629523D02*
X49453390Y-25677142D01*
X49453390Y-25677142D02*
X49596247Y-25677142D01*
X49596247Y-25677142D02*
X49786723Y-25629523D01*
X49786723Y-25629523D02*
X49881961Y-25581904D01*
X49881961Y-25581904D02*
X49977200Y-25486666D01*
X49977200Y-25486666D02*
X50024819Y-25343809D01*
X50024819Y-25343809D02*
X50024819Y-25105714D01*
X50024819Y-26629523D02*
X50024819Y-26058095D01*
X50024819Y-26343809D02*
X49024819Y-26343809D01*
X49024819Y-26343809D02*
X49167676Y-26248571D01*
X49167676Y-26248571D02*
X49262914Y-26153333D01*
X49262914Y-26153333D02*
X49310533Y-26058095D01*
X49024819Y-26962857D02*
X49024819Y-27629523D01*
X49024819Y-27629523D02*
X50024819Y-27200952D01*
X151978266Y-86845319D02*
X152311599Y-86369128D01*
X152549694Y-86845319D02*
X152549694Y-85845319D01*
X152549694Y-85845319D02*
X152168742Y-85845319D01*
X152168742Y-85845319D02*
X152073504Y-85892938D01*
X152073504Y-85892938D02*
X152025885Y-85940557D01*
X152025885Y-85940557D02*
X151978266Y-86035795D01*
X151978266Y-86035795D02*
X151978266Y-86178652D01*
X151978266Y-86178652D02*
X152025885Y-86273890D01*
X152025885Y-86273890D02*
X152073504Y-86321509D01*
X152073504Y-86321509D02*
X152168742Y-86369128D01*
X152168742Y-86369128D02*
X152549694Y-86369128D01*
X151025885Y-86845319D02*
X151597313Y-86845319D01*
X151311599Y-86845319D02*
X151311599Y-85845319D01*
X151311599Y-85845319D02*
X151406837Y-85988176D01*
X151406837Y-85988176D02*
X151502075Y-86083414D01*
X151502075Y-86083414D02*
X151597313Y-86131033D01*
X12745009Y-13852516D02*
X12745009Y-13519183D01*
X13268819Y-13519183D02*
X12268819Y-13519183D01*
X12268819Y-13519183D02*
X12268819Y-13995373D01*
X13268819Y-14900135D02*
X13268819Y-14328707D01*
X13268819Y-14614421D02*
X12268819Y-14614421D01*
X12268819Y-14614421D02*
X12411676Y-14519183D01*
X12411676Y-14519183D02*
X12506914Y-14423945D01*
X12506914Y-14423945D02*
X12554533Y-14328707D01*
X117884819Y-61595714D02*
X116884819Y-61595714D01*
X116884819Y-61595714D02*
X116884819Y-61833809D01*
X116884819Y-61833809D02*
X116932438Y-61976666D01*
X116932438Y-61976666D02*
X117027676Y-62071904D01*
X117027676Y-62071904D02*
X117122914Y-62119523D01*
X117122914Y-62119523D02*
X117313390Y-62167142D01*
X117313390Y-62167142D02*
X117456247Y-62167142D01*
X117456247Y-62167142D02*
X117646723Y-62119523D01*
X117646723Y-62119523D02*
X117741961Y-62071904D01*
X117741961Y-62071904D02*
X117837200Y-61976666D01*
X117837200Y-61976666D02*
X117884819Y-61833809D01*
X117884819Y-61833809D02*
X117884819Y-61595714D01*
X116884819Y-63071904D02*
X116884819Y-62595714D01*
X116884819Y-62595714D02*
X117361009Y-62548095D01*
X117361009Y-62548095D02*
X117313390Y-62595714D01*
X117313390Y-62595714D02*
X117265771Y-62690952D01*
X117265771Y-62690952D02*
X117265771Y-62929047D01*
X117265771Y-62929047D02*
X117313390Y-63024285D01*
X117313390Y-63024285D02*
X117361009Y-63071904D01*
X117361009Y-63071904D02*
X117456247Y-63119523D01*
X117456247Y-63119523D02*
X117694342Y-63119523D01*
X117694342Y-63119523D02*
X117789580Y-63071904D01*
X117789580Y-63071904D02*
X117837200Y-63024285D01*
X117837200Y-63024285D02*
X117884819Y-62929047D01*
X117884819Y-62929047D02*
X117884819Y-62690952D01*
X117884819Y-62690952D02*
X117837200Y-62595714D01*
X117837200Y-62595714D02*
X117789580Y-62548095D01*
X116884819Y-63738571D02*
X116884819Y-63833809D01*
X116884819Y-63833809D02*
X116932438Y-63929047D01*
X116932438Y-63929047D02*
X116980057Y-63976666D01*
X116980057Y-63976666D02*
X117075295Y-64024285D01*
X117075295Y-64024285D02*
X117265771Y-64071904D01*
X117265771Y-64071904D02*
X117503866Y-64071904D01*
X117503866Y-64071904D02*
X117694342Y-64024285D01*
X117694342Y-64024285D02*
X117789580Y-63976666D01*
X117789580Y-63976666D02*
X117837200Y-63929047D01*
X117837200Y-63929047D02*
X117884819Y-63833809D01*
X117884819Y-63833809D02*
X117884819Y-63738571D01*
X117884819Y-63738571D02*
X117837200Y-63643333D01*
X117837200Y-63643333D02*
X117789580Y-63595714D01*
X117789580Y-63595714D02*
X117694342Y-63548095D01*
X117694342Y-63548095D02*
X117503866Y-63500476D01*
X117503866Y-63500476D02*
X117265771Y-63500476D01*
X117265771Y-63500476D02*
X117075295Y-63548095D01*
X117075295Y-63548095D02*
X116980057Y-63595714D01*
X116980057Y-63595714D02*
X116932438Y-63643333D01*
X116932438Y-63643333D02*
X116884819Y-63738571D01*
X167562180Y-75431333D02*
X167609800Y-75383714D01*
X167609800Y-75383714D02*
X167657419Y-75240857D01*
X167657419Y-75240857D02*
X167657419Y-75145619D01*
X167657419Y-75145619D02*
X167609800Y-75002762D01*
X167609800Y-75002762D02*
X167514561Y-74907524D01*
X167514561Y-74907524D02*
X167419323Y-74859905D01*
X167419323Y-74859905D02*
X167228847Y-74812286D01*
X167228847Y-74812286D02*
X167085990Y-74812286D01*
X167085990Y-74812286D02*
X166895514Y-74859905D01*
X166895514Y-74859905D02*
X166800276Y-74907524D01*
X166800276Y-74907524D02*
X166705038Y-75002762D01*
X166705038Y-75002762D02*
X166657419Y-75145619D01*
X166657419Y-75145619D02*
X166657419Y-75240857D01*
X166657419Y-75240857D02*
X166705038Y-75383714D01*
X166705038Y-75383714D02*
X166752657Y-75431333D01*
X166657419Y-75764667D02*
X166657419Y-76431333D01*
X166657419Y-76431333D02*
X167657419Y-76002762D01*
X213154819Y-61515714D02*
X212154819Y-61515714D01*
X212154819Y-61515714D02*
X212154819Y-61753809D01*
X212154819Y-61753809D02*
X212202438Y-61896666D01*
X212202438Y-61896666D02*
X212297676Y-61991904D01*
X212297676Y-61991904D02*
X212392914Y-62039523D01*
X212392914Y-62039523D02*
X212583390Y-62087142D01*
X212583390Y-62087142D02*
X212726247Y-62087142D01*
X212726247Y-62087142D02*
X212916723Y-62039523D01*
X212916723Y-62039523D02*
X213011961Y-61991904D01*
X213011961Y-61991904D02*
X213107200Y-61896666D01*
X213107200Y-61896666D02*
X213154819Y-61753809D01*
X213154819Y-61753809D02*
X213154819Y-61515714D01*
X212154819Y-62991904D02*
X212154819Y-62515714D01*
X212154819Y-62515714D02*
X212631009Y-62468095D01*
X212631009Y-62468095D02*
X212583390Y-62515714D01*
X212583390Y-62515714D02*
X212535771Y-62610952D01*
X212535771Y-62610952D02*
X212535771Y-62849047D01*
X212535771Y-62849047D02*
X212583390Y-62944285D01*
X212583390Y-62944285D02*
X212631009Y-62991904D01*
X212631009Y-62991904D02*
X212726247Y-63039523D01*
X212726247Y-63039523D02*
X212964342Y-63039523D01*
X212964342Y-63039523D02*
X213059580Y-62991904D01*
X213059580Y-62991904D02*
X213107200Y-62944285D01*
X213107200Y-62944285D02*
X213154819Y-62849047D01*
X213154819Y-62849047D02*
X213154819Y-62610952D01*
X213154819Y-62610952D02*
X213107200Y-62515714D01*
X213107200Y-62515714D02*
X213059580Y-62468095D01*
X212154819Y-63944285D02*
X212154819Y-63468095D01*
X212154819Y-63468095D02*
X212631009Y-63420476D01*
X212631009Y-63420476D02*
X212583390Y-63468095D01*
X212583390Y-63468095D02*
X212535771Y-63563333D01*
X212535771Y-63563333D02*
X212535771Y-63801428D01*
X212535771Y-63801428D02*
X212583390Y-63896666D01*
X212583390Y-63896666D02*
X212631009Y-63944285D01*
X212631009Y-63944285D02*
X212726247Y-63991904D01*
X212726247Y-63991904D02*
X212964342Y-63991904D01*
X212964342Y-63991904D02*
X213059580Y-63944285D01*
X213059580Y-63944285D02*
X213107200Y-63896666D01*
X213107200Y-63896666D02*
X213154819Y-63801428D01*
X213154819Y-63801428D02*
X213154819Y-63563333D01*
X213154819Y-63563333D02*
X213107200Y-63468095D01*
X213107200Y-63468095D02*
X213059580Y-63420476D01*
X81804819Y-5291905D02*
X80804819Y-5291905D01*
X80804819Y-5291905D02*
X80804819Y-5530000D01*
X80804819Y-5530000D02*
X80852438Y-5672857D01*
X80852438Y-5672857D02*
X80947676Y-5768095D01*
X80947676Y-5768095D02*
X81042914Y-5815714D01*
X81042914Y-5815714D02*
X81233390Y-5863333D01*
X81233390Y-5863333D02*
X81376247Y-5863333D01*
X81376247Y-5863333D02*
X81566723Y-5815714D01*
X81566723Y-5815714D02*
X81661961Y-5768095D01*
X81661961Y-5768095D02*
X81757200Y-5672857D01*
X81757200Y-5672857D02*
X81804819Y-5530000D01*
X81804819Y-5530000D02*
X81804819Y-5291905D01*
X80804819Y-6768095D02*
X80804819Y-6291905D01*
X80804819Y-6291905D02*
X81281009Y-6244286D01*
X81281009Y-6244286D02*
X81233390Y-6291905D01*
X81233390Y-6291905D02*
X81185771Y-6387143D01*
X81185771Y-6387143D02*
X81185771Y-6625238D01*
X81185771Y-6625238D02*
X81233390Y-6720476D01*
X81233390Y-6720476D02*
X81281009Y-6768095D01*
X81281009Y-6768095D02*
X81376247Y-6815714D01*
X81376247Y-6815714D02*
X81614342Y-6815714D01*
X81614342Y-6815714D02*
X81709580Y-6768095D01*
X81709580Y-6768095D02*
X81757200Y-6720476D01*
X81757200Y-6720476D02*
X81804819Y-6625238D01*
X81804819Y-6625238D02*
X81804819Y-6387143D01*
X81804819Y-6387143D02*
X81757200Y-6291905D01*
X81757200Y-6291905D02*
X81709580Y-6244286D01*
X231694819Y-77478214D02*
X230694819Y-77478214D01*
X230694819Y-77478214D02*
X230694819Y-77716309D01*
X230694819Y-77716309D02*
X230742438Y-77859166D01*
X230742438Y-77859166D02*
X230837676Y-77954404D01*
X230837676Y-77954404D02*
X230932914Y-78002023D01*
X230932914Y-78002023D02*
X231123390Y-78049642D01*
X231123390Y-78049642D02*
X231266247Y-78049642D01*
X231266247Y-78049642D02*
X231456723Y-78002023D01*
X231456723Y-78002023D02*
X231551961Y-77954404D01*
X231551961Y-77954404D02*
X231647200Y-77859166D01*
X231647200Y-77859166D02*
X231694819Y-77716309D01*
X231694819Y-77716309D02*
X231694819Y-77478214D01*
X230694819Y-78906785D02*
X230694819Y-78716309D01*
X230694819Y-78716309D02*
X230742438Y-78621071D01*
X230742438Y-78621071D02*
X230790057Y-78573452D01*
X230790057Y-78573452D02*
X230932914Y-78478214D01*
X230932914Y-78478214D02*
X231123390Y-78430595D01*
X231123390Y-78430595D02*
X231504342Y-78430595D01*
X231504342Y-78430595D02*
X231599580Y-78478214D01*
X231599580Y-78478214D02*
X231647200Y-78525833D01*
X231647200Y-78525833D02*
X231694819Y-78621071D01*
X231694819Y-78621071D02*
X231694819Y-78811547D01*
X231694819Y-78811547D02*
X231647200Y-78906785D01*
X231647200Y-78906785D02*
X231599580Y-78954404D01*
X231599580Y-78954404D02*
X231504342Y-79002023D01*
X231504342Y-79002023D02*
X231266247Y-79002023D01*
X231266247Y-79002023D02*
X231171009Y-78954404D01*
X231171009Y-78954404D02*
X231123390Y-78906785D01*
X231123390Y-78906785D02*
X231075771Y-78811547D01*
X231075771Y-78811547D02*
X231075771Y-78621071D01*
X231075771Y-78621071D02*
X231123390Y-78525833D01*
X231123390Y-78525833D02*
X231171009Y-78478214D01*
X231171009Y-78478214D02*
X231266247Y-78430595D01*
X230694819Y-79906785D02*
X230694819Y-79430595D01*
X230694819Y-79430595D02*
X231171009Y-79382976D01*
X231171009Y-79382976D02*
X231123390Y-79430595D01*
X231123390Y-79430595D02*
X231075771Y-79525833D01*
X231075771Y-79525833D02*
X231075771Y-79763928D01*
X231075771Y-79763928D02*
X231123390Y-79859166D01*
X231123390Y-79859166D02*
X231171009Y-79906785D01*
X231171009Y-79906785D02*
X231266247Y-79954404D01*
X231266247Y-79954404D02*
X231504342Y-79954404D01*
X231504342Y-79954404D02*
X231599580Y-79906785D01*
X231599580Y-79906785D02*
X231647200Y-79859166D01*
X231647200Y-79859166D02*
X231694819Y-79763928D01*
X231694819Y-79763928D02*
X231694819Y-79525833D01*
X231694819Y-79525833D02*
X231647200Y-79430595D01*
X231647200Y-79430595D02*
X231599580Y-79382976D01*
X194154819Y-61475714D02*
X193154819Y-61475714D01*
X193154819Y-61475714D02*
X193154819Y-61713809D01*
X193154819Y-61713809D02*
X193202438Y-61856666D01*
X193202438Y-61856666D02*
X193297676Y-61951904D01*
X193297676Y-61951904D02*
X193392914Y-61999523D01*
X193392914Y-61999523D02*
X193583390Y-62047142D01*
X193583390Y-62047142D02*
X193726247Y-62047142D01*
X193726247Y-62047142D02*
X193916723Y-61999523D01*
X193916723Y-61999523D02*
X194011961Y-61951904D01*
X194011961Y-61951904D02*
X194107200Y-61856666D01*
X194107200Y-61856666D02*
X194154819Y-61713809D01*
X194154819Y-61713809D02*
X194154819Y-61475714D01*
X193154819Y-62951904D02*
X193154819Y-62475714D01*
X193154819Y-62475714D02*
X193631009Y-62428095D01*
X193631009Y-62428095D02*
X193583390Y-62475714D01*
X193583390Y-62475714D02*
X193535771Y-62570952D01*
X193535771Y-62570952D02*
X193535771Y-62809047D01*
X193535771Y-62809047D02*
X193583390Y-62904285D01*
X193583390Y-62904285D02*
X193631009Y-62951904D01*
X193631009Y-62951904D02*
X193726247Y-62999523D01*
X193726247Y-62999523D02*
X193964342Y-62999523D01*
X193964342Y-62999523D02*
X194059580Y-62951904D01*
X194059580Y-62951904D02*
X194107200Y-62904285D01*
X194107200Y-62904285D02*
X194154819Y-62809047D01*
X194154819Y-62809047D02*
X194154819Y-62570952D01*
X194154819Y-62570952D02*
X194107200Y-62475714D01*
X194107200Y-62475714D02*
X194059580Y-62428095D01*
X193488152Y-63856666D02*
X194154819Y-63856666D01*
X193107200Y-63618571D02*
X193821485Y-63380476D01*
X193821485Y-63380476D02*
X193821485Y-63999523D01*
X126564819Y-24985714D02*
X125564819Y-24985714D01*
X125564819Y-24985714D02*
X125564819Y-25223809D01*
X125564819Y-25223809D02*
X125612438Y-25366666D01*
X125612438Y-25366666D02*
X125707676Y-25461904D01*
X125707676Y-25461904D02*
X125802914Y-25509523D01*
X125802914Y-25509523D02*
X125993390Y-25557142D01*
X125993390Y-25557142D02*
X126136247Y-25557142D01*
X126136247Y-25557142D02*
X126326723Y-25509523D01*
X126326723Y-25509523D02*
X126421961Y-25461904D01*
X126421961Y-25461904D02*
X126517200Y-25366666D01*
X126517200Y-25366666D02*
X126564819Y-25223809D01*
X126564819Y-25223809D02*
X126564819Y-24985714D01*
X125660057Y-25938095D02*
X125612438Y-25985714D01*
X125612438Y-25985714D02*
X125564819Y-26080952D01*
X125564819Y-26080952D02*
X125564819Y-26319047D01*
X125564819Y-26319047D02*
X125612438Y-26414285D01*
X125612438Y-26414285D02*
X125660057Y-26461904D01*
X125660057Y-26461904D02*
X125755295Y-26509523D01*
X125755295Y-26509523D02*
X125850533Y-26509523D01*
X125850533Y-26509523D02*
X125993390Y-26461904D01*
X125993390Y-26461904D02*
X126564819Y-25890476D01*
X126564819Y-25890476D02*
X126564819Y-26509523D01*
X126564819Y-27461904D02*
X126564819Y-26890476D01*
X126564819Y-27176190D02*
X125564819Y-27176190D01*
X125564819Y-27176190D02*
X125707676Y-27080952D01*
X125707676Y-27080952D02*
X125802914Y-26985714D01*
X125802914Y-26985714D02*
X125850533Y-26890476D01*
X264674819Y-42705714D02*
X263674819Y-42705714D01*
X263674819Y-42705714D02*
X263674819Y-42943809D01*
X263674819Y-42943809D02*
X263722438Y-43086666D01*
X263722438Y-43086666D02*
X263817676Y-43181904D01*
X263817676Y-43181904D02*
X263912914Y-43229523D01*
X263912914Y-43229523D02*
X264103390Y-43277142D01*
X264103390Y-43277142D02*
X264246247Y-43277142D01*
X264246247Y-43277142D02*
X264436723Y-43229523D01*
X264436723Y-43229523D02*
X264531961Y-43181904D01*
X264531961Y-43181904D02*
X264627200Y-43086666D01*
X264627200Y-43086666D02*
X264674819Y-42943809D01*
X264674819Y-42943809D02*
X264674819Y-42705714D01*
X264008152Y-44134285D02*
X264674819Y-44134285D01*
X263627200Y-43896190D02*
X264341485Y-43658095D01*
X264341485Y-43658095D02*
X264341485Y-44277142D01*
X263770057Y-44610476D02*
X263722438Y-44658095D01*
X263722438Y-44658095D02*
X263674819Y-44753333D01*
X263674819Y-44753333D02*
X263674819Y-44991428D01*
X263674819Y-44991428D02*
X263722438Y-45086666D01*
X263722438Y-45086666D02*
X263770057Y-45134285D01*
X263770057Y-45134285D02*
X263865295Y-45181904D01*
X263865295Y-45181904D02*
X263960533Y-45181904D01*
X263960533Y-45181904D02*
X264103390Y-45134285D01*
X264103390Y-45134285D02*
X264674819Y-44562857D01*
X264674819Y-44562857D02*
X264674819Y-45181904D01*
X19772569Y-14461283D02*
X19296378Y-14127950D01*
X19772569Y-13889855D02*
X18772569Y-13889855D01*
X18772569Y-13889855D02*
X18772569Y-14270807D01*
X18772569Y-14270807D02*
X18820188Y-14366045D01*
X18820188Y-14366045D02*
X18867807Y-14413664D01*
X18867807Y-14413664D02*
X18963045Y-14461283D01*
X18963045Y-14461283D02*
X19105902Y-14461283D01*
X19105902Y-14461283D02*
X19201140Y-14413664D01*
X19201140Y-14413664D02*
X19248759Y-14366045D01*
X19248759Y-14366045D02*
X19296378Y-14270807D01*
X19296378Y-14270807D02*
X19296378Y-13889855D01*
X19105902Y-15318426D02*
X19772569Y-15318426D01*
X18724950Y-15080331D02*
X19439235Y-14842236D01*
X19439235Y-14842236D02*
X19439235Y-15461283D01*
X168033266Y-73638819D02*
X168366599Y-73162628D01*
X168604694Y-73638819D02*
X168604694Y-72638819D01*
X168604694Y-72638819D02*
X168223742Y-72638819D01*
X168223742Y-72638819D02*
X168128504Y-72686438D01*
X168128504Y-72686438D02*
X168080885Y-72734057D01*
X168080885Y-72734057D02*
X168033266Y-72829295D01*
X168033266Y-72829295D02*
X168033266Y-72972152D01*
X168033266Y-72972152D02*
X168080885Y-73067390D01*
X168080885Y-73067390D02*
X168128504Y-73115009D01*
X168128504Y-73115009D02*
X168223742Y-73162628D01*
X168223742Y-73162628D02*
X168604694Y-73162628D01*
X167652313Y-72734057D02*
X167604694Y-72686438D01*
X167604694Y-72686438D02*
X167509456Y-72638819D01*
X167509456Y-72638819D02*
X167271361Y-72638819D01*
X167271361Y-72638819D02*
X167176123Y-72686438D01*
X167176123Y-72686438D02*
X167128504Y-72734057D01*
X167128504Y-72734057D02*
X167080885Y-72829295D01*
X167080885Y-72829295D02*
X167080885Y-72924533D01*
X167080885Y-72924533D02*
X167128504Y-73067390D01*
X167128504Y-73067390D02*
X167699932Y-73638819D01*
X167699932Y-73638819D02*
X167080885Y-73638819D01*
X240904819Y-24945714D02*
X239904819Y-24945714D01*
X239904819Y-24945714D02*
X239904819Y-25183809D01*
X239904819Y-25183809D02*
X239952438Y-25326666D01*
X239952438Y-25326666D02*
X240047676Y-25421904D01*
X240047676Y-25421904D02*
X240142914Y-25469523D01*
X240142914Y-25469523D02*
X240333390Y-25517142D01*
X240333390Y-25517142D02*
X240476247Y-25517142D01*
X240476247Y-25517142D02*
X240666723Y-25469523D01*
X240666723Y-25469523D02*
X240761961Y-25421904D01*
X240761961Y-25421904D02*
X240857200Y-25326666D01*
X240857200Y-25326666D02*
X240904819Y-25183809D01*
X240904819Y-25183809D02*
X240904819Y-24945714D01*
X240000057Y-25898095D02*
X239952438Y-25945714D01*
X239952438Y-25945714D02*
X239904819Y-26040952D01*
X239904819Y-26040952D02*
X239904819Y-26279047D01*
X239904819Y-26279047D02*
X239952438Y-26374285D01*
X239952438Y-26374285D02*
X240000057Y-26421904D01*
X240000057Y-26421904D02*
X240095295Y-26469523D01*
X240095295Y-26469523D02*
X240190533Y-26469523D01*
X240190533Y-26469523D02*
X240333390Y-26421904D01*
X240333390Y-26421904D02*
X240904819Y-25850476D01*
X240904819Y-25850476D02*
X240904819Y-26469523D01*
X239904819Y-26802857D02*
X239904819Y-27469523D01*
X239904819Y-27469523D02*
X240904819Y-27040952D01*
X19744819Y-61565714D02*
X18744819Y-61565714D01*
X18744819Y-61565714D02*
X18744819Y-61803809D01*
X18744819Y-61803809D02*
X18792438Y-61946666D01*
X18792438Y-61946666D02*
X18887676Y-62041904D01*
X18887676Y-62041904D02*
X18982914Y-62089523D01*
X18982914Y-62089523D02*
X19173390Y-62137142D01*
X19173390Y-62137142D02*
X19316247Y-62137142D01*
X19316247Y-62137142D02*
X19506723Y-62089523D01*
X19506723Y-62089523D02*
X19601961Y-62041904D01*
X19601961Y-62041904D02*
X19697200Y-61946666D01*
X19697200Y-61946666D02*
X19744819Y-61803809D01*
X19744819Y-61803809D02*
X19744819Y-61565714D01*
X19078152Y-62994285D02*
X19744819Y-62994285D01*
X18697200Y-62756190D02*
X19411485Y-62518095D01*
X19411485Y-62518095D02*
X19411485Y-63137142D01*
X18744819Y-63994285D02*
X18744819Y-63518095D01*
X18744819Y-63518095D02*
X19221009Y-63470476D01*
X19221009Y-63470476D02*
X19173390Y-63518095D01*
X19173390Y-63518095D02*
X19125771Y-63613333D01*
X19125771Y-63613333D02*
X19125771Y-63851428D01*
X19125771Y-63851428D02*
X19173390Y-63946666D01*
X19173390Y-63946666D02*
X19221009Y-63994285D01*
X19221009Y-63994285D02*
X19316247Y-64041904D01*
X19316247Y-64041904D02*
X19554342Y-64041904D01*
X19554342Y-64041904D02*
X19649580Y-63994285D01*
X19649580Y-63994285D02*
X19697200Y-63946666D01*
X19697200Y-63946666D02*
X19744819Y-63851428D01*
X19744819Y-63851428D02*
X19744819Y-63613333D01*
X19744819Y-63613333D02*
X19697200Y-63518095D01*
X19697200Y-63518095D02*
X19649580Y-63470476D01*
X150414819Y-42615714D02*
X149414819Y-42615714D01*
X149414819Y-42615714D02*
X149414819Y-42853809D01*
X149414819Y-42853809D02*
X149462438Y-42996666D01*
X149462438Y-42996666D02*
X149557676Y-43091904D01*
X149557676Y-43091904D02*
X149652914Y-43139523D01*
X149652914Y-43139523D02*
X149843390Y-43187142D01*
X149843390Y-43187142D02*
X149986247Y-43187142D01*
X149986247Y-43187142D02*
X150176723Y-43139523D01*
X150176723Y-43139523D02*
X150271961Y-43091904D01*
X150271961Y-43091904D02*
X150367200Y-42996666D01*
X150367200Y-42996666D02*
X150414819Y-42853809D01*
X150414819Y-42853809D02*
X150414819Y-42615714D01*
X149414819Y-43520476D02*
X149414819Y-44139523D01*
X149414819Y-44139523D02*
X149795771Y-43806190D01*
X149795771Y-43806190D02*
X149795771Y-43949047D01*
X149795771Y-43949047D02*
X149843390Y-44044285D01*
X149843390Y-44044285D02*
X149891009Y-44091904D01*
X149891009Y-44091904D02*
X149986247Y-44139523D01*
X149986247Y-44139523D02*
X150224342Y-44139523D01*
X150224342Y-44139523D02*
X150319580Y-44091904D01*
X150319580Y-44091904D02*
X150367200Y-44044285D01*
X150367200Y-44044285D02*
X150414819Y-43949047D01*
X150414819Y-43949047D02*
X150414819Y-43663333D01*
X150414819Y-43663333D02*
X150367200Y-43568095D01*
X150367200Y-43568095D02*
X150319580Y-43520476D01*
X149414819Y-44996666D02*
X149414819Y-44806190D01*
X149414819Y-44806190D02*
X149462438Y-44710952D01*
X149462438Y-44710952D02*
X149510057Y-44663333D01*
X149510057Y-44663333D02*
X149652914Y-44568095D01*
X149652914Y-44568095D02*
X149843390Y-44520476D01*
X149843390Y-44520476D02*
X150224342Y-44520476D01*
X150224342Y-44520476D02*
X150319580Y-44568095D01*
X150319580Y-44568095D02*
X150367200Y-44615714D01*
X150367200Y-44615714D02*
X150414819Y-44710952D01*
X150414819Y-44710952D02*
X150414819Y-44901428D01*
X150414819Y-44901428D02*
X150367200Y-44996666D01*
X150367200Y-44996666D02*
X150319580Y-45044285D01*
X150319580Y-45044285D02*
X150224342Y-45091904D01*
X150224342Y-45091904D02*
X149986247Y-45091904D01*
X149986247Y-45091904D02*
X149891009Y-45044285D01*
X149891009Y-45044285D02*
X149843390Y-44996666D01*
X149843390Y-44996666D02*
X149795771Y-44901428D01*
X149795771Y-44901428D02*
X149795771Y-44710952D01*
X149795771Y-44710952D02*
X149843390Y-44615714D01*
X149843390Y-44615714D02*
X149891009Y-44568095D01*
X149891009Y-44568095D02*
X149986247Y-44520476D01*
D11*
%TO.C,FB1*%
X27988748Y-2020000D02*
X28511252Y-2020000D01*
X27988748Y-600000D02*
X28511252Y-600000D01*
%TO.C,D66*%
X265510000Y-76332500D02*
X265510000Y-80342500D01*
X265510000Y-76332500D02*
X267510000Y-76332500D01*
X267510000Y-76332500D02*
X267510000Y-80342500D01*
%TO.C,D20*%
X104070000Y-28560000D02*
X104070000Y-24550000D01*
X106070000Y-28560000D02*
X104070000Y-28560000D01*
X106070000Y-28560000D02*
X106070000Y-24550000D01*
%TO.C,D14*%
X260010000Y-8300000D02*
X260010000Y-4290000D01*
X262010000Y-8300000D02*
X260010000Y-8300000D01*
X262010000Y-8300000D02*
X262010000Y-4290000D01*
%TO.C,D67*%
X284560000Y-76300000D02*
X284560000Y-80310000D01*
X284560000Y-76300000D02*
X286560000Y-76300000D01*
X286560000Y-76300000D02*
X286560000Y-80310000D01*
%TO.C,D60*%
X24230000Y-87697500D02*
X24230000Y-83687500D01*
X26230000Y-87697500D02*
X24230000Y-87697500D01*
X26230000Y-87697500D02*
X26230000Y-83687500D01*
%TO.C,D31*%
X51660000Y-46122500D02*
X51660000Y-42112500D01*
X53660000Y-46122500D02*
X51660000Y-46122500D01*
X53660000Y-46122500D02*
X53660000Y-42112500D01*
%TO.C,D62*%
X72930000Y-87710000D02*
X72930000Y-83700000D01*
X74930000Y-87710000D02*
X72930000Y-87710000D01*
X74930000Y-87710000D02*
X74930000Y-83700000D01*
%TO.C,D35*%
X127830000Y-46167500D02*
X127830000Y-42157500D01*
X129830000Y-46167500D02*
X127830000Y-46167500D01*
X129830000Y-46167500D02*
X129830000Y-42157500D01*
%TO.C,D25*%
X199280000Y-28440000D02*
X199280000Y-24430000D01*
X201280000Y-28440000D02*
X199280000Y-28440000D01*
X201280000Y-28440000D02*
X201280000Y-24430000D01*
%TO.C,D8*%
X138240000Y-8290000D02*
X138240000Y-4280000D01*
X140240000Y-8290000D02*
X138240000Y-8290000D01*
X140240000Y-8290000D02*
X140240000Y-4280000D01*
%TO.C,D48*%
X80330000Y-60370000D02*
X80330000Y-64380000D01*
X80330000Y-60370000D02*
X82330000Y-60370000D01*
X82330000Y-60370000D02*
X82330000Y-64380000D01*
%TO.C,D19*%
X85110000Y-28600000D02*
X85110000Y-24590000D01*
X87110000Y-28600000D02*
X85110000Y-28600000D01*
X87110000Y-28600000D02*
X87110000Y-24590000D01*
%TO.C,D37*%
X165880000Y-46212500D02*
X165880000Y-42202500D01*
X167880000Y-46212500D02*
X165880000Y-46212500D01*
X167880000Y-46212500D02*
X167880000Y-42202500D01*
%TO.C,D18*%
X66510000Y-28720000D02*
X66510000Y-24710000D01*
X68510000Y-28720000D02*
X66510000Y-28720000D01*
X68510000Y-28720000D02*
X68510000Y-24710000D01*
%TO.C,D28*%
X256330000Y-28520000D02*
X256330000Y-24510000D01*
X258330000Y-28520000D02*
X256330000Y-28520000D01*
X258330000Y-28520000D02*
X258330000Y-24510000D01*
%TO.C,D16*%
X22170000Y-30440000D02*
X22170000Y-26430000D01*
X24170000Y-30440000D02*
X22170000Y-30440000D01*
X24170000Y-30440000D02*
X24170000Y-26430000D01*
%TO.C,D38*%
X185000000Y-46212500D02*
X185000000Y-42202500D01*
X187000000Y-46212500D02*
X185000000Y-46212500D01*
X187000000Y-46212500D02*
X187000000Y-42202500D01*
%TO.C,D40*%
X223170000Y-46235000D02*
X223170000Y-42225000D01*
X225170000Y-46235000D02*
X223170000Y-46235000D01*
X225170000Y-46235000D02*
X225170000Y-42225000D01*
%TO.C,D15*%
X263890000Y-8300000D02*
X263890000Y-4290000D01*
X265890000Y-8300000D02*
X263890000Y-8300000D01*
X265890000Y-8300000D02*
X265890000Y-4290000D01*
%TO.C,C3*%
X176255852Y-80959000D02*
X175733348Y-80959000D01*
X176255852Y-82429000D02*
X175733348Y-82429000D01*
%TO.C,D53*%
X175570000Y-60370000D02*
X175570000Y-64380000D01*
X175570000Y-60370000D02*
X177570000Y-60370000D01*
X177570000Y-60370000D02*
X177570000Y-64380000D01*
%TO.C,D23*%
X160990000Y-28440000D02*
X160990000Y-24430000D01*
X162990000Y-28440000D02*
X160990000Y-28440000D01*
X162990000Y-28440000D02*
X162990000Y-24430000D01*
%TO.C,D6*%
X98310000Y-8420000D02*
X98310000Y-4410000D01*
X100310000Y-8420000D02*
X98310000Y-8420000D01*
X100310000Y-8420000D02*
X100310000Y-4410000D01*
%TO.C,D3*%
X40920000Y-8190000D02*
X40920000Y-4180000D01*
X42920000Y-8190000D02*
X40920000Y-8190000D01*
X42920000Y-8190000D02*
X42920000Y-4180000D01*
%TO.C,D63*%
X142157500Y-75800000D02*
X138147500Y-75800000D01*
X142157500Y-75800000D02*
X142157500Y-77800000D01*
X142157500Y-77800000D02*
X138147500Y-77800000D01*
%TO.C,C2*%
X176255852Y-78165000D02*
X175733348Y-78165000D01*
X176255852Y-79635000D02*
X175733348Y-79635000D01*
%TO.C,R3*%
X17184750Y-14921814D02*
X17184750Y-14467686D01*
X18654750Y-14921814D02*
X18654750Y-14467686D01*
%TO.C,D9*%
X163900000Y-8330000D02*
X163900000Y-4320000D01*
X165900000Y-8330000D02*
X163900000Y-8330000D01*
X165900000Y-8330000D02*
X165900000Y-4320000D01*
%TO.C,D58*%
X287260000Y-60350000D02*
X287260000Y-64360000D01*
X287260000Y-60350000D02*
X289260000Y-60350000D01*
X289260000Y-60350000D02*
X289260000Y-64360000D01*
%TO.C,D61*%
X48690000Y-87757500D02*
X48690000Y-83747500D01*
X50690000Y-87757500D02*
X48690000Y-87757500D01*
X50690000Y-87757500D02*
X50690000Y-83747500D01*
%TO.C,D64*%
X212950000Y-76332500D02*
X212950000Y-80342500D01*
X212950000Y-76332500D02*
X214950000Y-76332500D01*
X214950000Y-76332500D02*
X214950000Y-80342500D01*
%TO.C,D34*%
X108790000Y-46145000D02*
X108790000Y-42135000D01*
X110790000Y-46145000D02*
X108790000Y-46145000D01*
X110790000Y-46145000D02*
X110790000Y-42135000D01*
%TO.C,D30*%
X28080000Y-46100000D02*
X28080000Y-42090000D01*
X30080000Y-46100000D02*
X28080000Y-46100000D01*
X30080000Y-46100000D02*
X30080000Y-42090000D01*
%TO.C,D7*%
X117440000Y-8420000D02*
X117440000Y-4410000D01*
X119440000Y-8420000D02*
X117440000Y-8420000D01*
X119440000Y-8420000D02*
X119440000Y-4410000D01*
D10*
%TO.C,U1*%
X152103100Y-75809000D02*
X152103100Y-75134000D01*
X152103100Y-84809000D02*
X152103100Y-85484000D01*
X152718100Y-75134000D02*
X152103100Y-75134000D01*
X152778100Y-85484000D02*
X152103100Y-85484000D01*
X161778100Y-75134000D02*
X162453100Y-75134000D01*
X161778100Y-85484000D02*
X162453100Y-85484000D01*
X162453100Y-75809000D02*
X162453100Y-75134000D01*
X162453100Y-84809000D02*
X162453100Y-85484000D01*
D11*
X152738100Y-74449000D02*
X152268100Y-74789000D01*
X152268100Y-74109000D01*
X152738100Y-74449000D01*
G36*
X152738100Y-74449000D02*
G01*
X152268100Y-74789000D01*
X152268100Y-74109000D01*
X152738100Y-74449000D01*
G37*
%TO.C,D56*%
X232580000Y-60330000D02*
X232580000Y-64340000D01*
X232580000Y-60330000D02*
X234580000Y-60330000D01*
X234580000Y-60330000D02*
X234580000Y-64340000D01*
%TO.C,C5*%
X149825348Y-71815000D02*
X150347852Y-71815000D01*
X149825348Y-73285000D02*
X150347852Y-73285000D01*
%TO.C,D2*%
X4590000Y-12180000D02*
X4590000Y-16190000D01*
X4590000Y-16190000D02*
X6590000Y-16190000D01*
X6590000Y-12180000D02*
X6590000Y-16190000D01*
%TO.C,D46*%
X42310000Y-60400000D02*
X42310000Y-64410000D01*
X42310000Y-60400000D02*
X44310000Y-60400000D01*
X44310000Y-60400000D02*
X44310000Y-64410000D01*
%TO.C,C6*%
X163428852Y-87309000D02*
X162906348Y-87309000D01*
X163428852Y-88779000D02*
X162906348Y-88779000D01*
%TO.C,R5*%
X22465314Y-6629350D02*
X22011186Y-6629350D01*
X22465314Y-8099350D02*
X22011186Y-8099350D01*
%TO.C,D39*%
X204000000Y-46212500D02*
X204000000Y-42202500D01*
X206000000Y-46212500D02*
X204000000Y-46212500D01*
X206000000Y-46212500D02*
X206000000Y-42202500D01*
%TO.C,D22*%
X141950000Y-28440000D02*
X141950000Y-24430000D01*
X143950000Y-28440000D02*
X141950000Y-28440000D01*
X143950000Y-28440000D02*
X143950000Y-24430000D01*
%TO.C,D12*%
X221260000Y-8340000D02*
X221260000Y-4330000D01*
X223260000Y-8340000D02*
X221260000Y-8340000D01*
X223260000Y-8340000D02*
X223260000Y-4330000D01*
%TO.C,D41*%
X242090000Y-46257500D02*
X242090000Y-42247500D01*
X244090000Y-46257500D02*
X242090000Y-46257500D01*
X244090000Y-46257500D02*
X244090000Y-42247500D01*
%TO.C,D26*%
X218330000Y-28520000D02*
X218330000Y-24510000D01*
X220330000Y-28520000D02*
X218330000Y-28520000D01*
X220330000Y-28520000D02*
X220330000Y-24510000D01*
%TO.C,Y1*%
X169178100Y-77821500D02*
X169178100Y-83221500D01*
X169178100Y-83221500D02*
X173678100Y-83221500D01*
%TO.C,D13*%
X240890000Y-8330000D02*
X240890000Y-4320000D01*
X242890000Y-8330000D02*
X240890000Y-8330000D01*
X242890000Y-8330000D02*
X242890000Y-4320000D01*
%TO.C,D52*%
X156610000Y-60370000D02*
X156610000Y-64380000D01*
X156610000Y-60370000D02*
X158610000Y-60370000D01*
X158610000Y-60370000D02*
X158610000Y-64380000D01*
%TO.C,D33*%
X89790000Y-46145000D02*
X89790000Y-42135000D01*
X91790000Y-46145000D02*
X89790000Y-46145000D01*
X91790000Y-46145000D02*
X91790000Y-42135000D01*
%TO.C,D10*%
X182570000Y-8350000D02*
X182570000Y-4340000D01*
X184570000Y-8350000D02*
X182570000Y-8350000D01*
X184570000Y-8350000D02*
X184570000Y-4340000D01*
%TO.C,D1*%
X18786000Y-12328200D02*
X20086000Y-12328200D01*
X20056000Y-9208200D02*
X18786000Y-9208200D01*
X20436000Y-9258200D02*
X20196000Y-8928200D01*
X20676000Y-8928200D01*
X20436000Y-9258200D01*
G36*
X20436000Y-9258200D02*
G01*
X20196000Y-8928200D01*
X20676000Y-8928200D01*
X20436000Y-9258200D01*
G37*
%TO.C,R6*%
X14438936Y-5865000D02*
X14893064Y-5865000D01*
X14438936Y-7335000D02*
X14893064Y-7335000D01*
%TO.C,D11*%
X202190000Y-8310000D02*
X202190000Y-4300000D01*
X204190000Y-8310000D02*
X202190000Y-8310000D01*
X204190000Y-8310000D02*
X204190000Y-4300000D01*
%TO.C,D4*%
X59840000Y-8447500D02*
X59840000Y-4437500D01*
X61840000Y-8447500D02*
X59840000Y-8447500D01*
X61840000Y-8447500D02*
X61840000Y-4437500D01*
%TO.C,D24*%
X180280000Y-28440000D02*
X180280000Y-24430000D01*
X182280000Y-28440000D02*
X180280000Y-28440000D01*
X182280000Y-28440000D02*
X182280000Y-24430000D01*
%TO.C,D32*%
X70740000Y-46145000D02*
X70740000Y-42135000D01*
X72740000Y-46145000D02*
X70740000Y-46145000D01*
X72740000Y-46145000D02*
X72740000Y-42135000D01*
%TO.C,D51*%
X137430000Y-60390000D02*
X137430000Y-64400000D01*
X137430000Y-60390000D02*
X139430000Y-60390000D01*
X139430000Y-60390000D02*
X139430000Y-64400000D01*
%TO.C,D47*%
X61250000Y-60410000D02*
X61250000Y-64420000D01*
X61250000Y-60410000D02*
X63250000Y-60410000D01*
X63250000Y-60410000D02*
X63250000Y-64420000D01*
%TO.C,D68*%
X293410000Y-73450000D02*
X297420000Y-73450000D01*
X293410000Y-75450000D02*
X293410000Y-73450000D01*
X293410000Y-75450000D02*
X297420000Y-75450000D01*
%TO.C,C4*%
X148462600Y-84353748D02*
X148462600Y-84876252D01*
X149932600Y-84353748D02*
X149932600Y-84876252D01*
%TO.C,SW2*%
X115667500Y-80810000D02*
X115667500Y-82890000D01*
X116447500Y-79620000D02*
X116937500Y-79130000D01*
X116447500Y-84080000D02*
X116937500Y-84570000D01*
X116937500Y-79130000D02*
X119837500Y-79130000D01*
X116937500Y-84570000D02*
X119837500Y-84570000D01*
X120327500Y-79620000D02*
X119837500Y-79130000D01*
X120327500Y-84080000D02*
X119837500Y-84570000D01*
X121107500Y-80810000D02*
X121107500Y-82890000D01*
%TO.C,D57*%
X259550000Y-60270000D02*
X259550000Y-64280000D01*
X259550000Y-60270000D02*
X261550000Y-60270000D01*
X261550000Y-60270000D02*
X261550000Y-64280000D01*
%TO.C,D49*%
X99420000Y-60370000D02*
X99420000Y-64380000D01*
X99420000Y-60370000D02*
X101420000Y-60370000D01*
X101420000Y-60370000D02*
X101420000Y-64380000D01*
%TO.C,D43*%
X286162500Y-27020000D02*
X290172500Y-27020000D01*
X286162500Y-29020000D02*
X286162500Y-27020000D01*
X286162500Y-29020000D02*
X290172500Y-29020000D01*
%TO.C,D17*%
X46570000Y-28680000D02*
X46570000Y-24670000D01*
X48570000Y-28680000D02*
X46570000Y-28680000D01*
X48570000Y-28680000D02*
X48570000Y-24670000D01*
%TO.C,R1*%
X151584536Y-87305500D02*
X152038664Y-87305500D01*
X151584536Y-88775500D02*
X152038664Y-88775500D01*
%TO.C,F1*%
X13724000Y-14787914D02*
X13724000Y-13583786D01*
X15544000Y-14787914D02*
X15544000Y-13583786D01*
%TO.C,D50*%
X118430000Y-60450000D02*
X118430000Y-64460000D01*
X118430000Y-60450000D02*
X120430000Y-60450000D01*
X120430000Y-60450000D02*
X120430000Y-64460000D01*
%TO.C,C7*%
X168147600Y-75859252D02*
X168147600Y-75336748D01*
X169617600Y-75859252D02*
X169617600Y-75336748D01*
%TO.C,D55*%
X213700000Y-60370000D02*
X213700000Y-64380000D01*
X213700000Y-60370000D02*
X215700000Y-60370000D01*
X215700000Y-60370000D02*
X215700000Y-64380000D01*
%TO.C,D5*%
X78350000Y-8390000D02*
X78350000Y-4380000D01*
X80350000Y-8390000D02*
X78350000Y-8390000D01*
X80350000Y-8390000D02*
X80350000Y-4380000D01*
%TO.C,D65*%
X232240000Y-76332500D02*
X232240000Y-80342500D01*
X232240000Y-76332500D02*
X234240000Y-76332500D01*
X234240000Y-76332500D02*
X234240000Y-80342500D01*
%TO.C,D54*%
X194700000Y-60330000D02*
X194700000Y-64340000D01*
X194700000Y-60330000D02*
X196700000Y-60330000D01*
X196700000Y-60330000D02*
X196700000Y-64340000D01*
%TO.C,C1*%
X156683348Y-68386000D02*
X157205852Y-68386000D01*
X156683348Y-69856000D02*
X157205852Y-69856000D01*
%TO.C,D21*%
X123110000Y-28560000D02*
X123110000Y-24550000D01*
X125110000Y-28560000D02*
X123110000Y-28560000D01*
X125110000Y-28560000D02*
X125110000Y-24550000D01*
%TO.C,D42*%
X261220000Y-46280000D02*
X261220000Y-42270000D01*
X263220000Y-46280000D02*
X261220000Y-46280000D01*
X263220000Y-46280000D02*
X263220000Y-42270000D01*
%TO.C,R4*%
X20232750Y-14855014D02*
X20232750Y-14400886D01*
X21702750Y-14855014D02*
X21702750Y-14400886D01*
%TO.C,R2*%
X168093664Y-70799000D02*
X167639536Y-70799000D01*
X168093664Y-72269000D02*
X167639536Y-72269000D01*
%TO.C,D27*%
X237450000Y-28520000D02*
X237450000Y-24510000D01*
X239450000Y-28520000D02*
X237450000Y-28520000D01*
X239450000Y-28520000D02*
X239450000Y-24510000D01*
%TO.C,D45*%
X20290000Y-60420000D02*
X20290000Y-64430000D01*
X20290000Y-60420000D02*
X22290000Y-60420000D01*
X22290000Y-60420000D02*
X22290000Y-64430000D01*
%TO.C,D36*%
X146960000Y-46190000D02*
X146960000Y-42180000D01*
X148960000Y-46190000D02*
X146960000Y-46190000D01*
X148960000Y-46190000D02*
X148960000Y-42180000D01*
%TD*%
%LPC*%
D12*
%TO.C,FB1*%
X27225000Y-1310000D03*
X29275000Y-1310000D03*
%TD*%
D13*
%TO.C,SW29*%
X242766900Y-28104600D03*
D14*
X247846900Y-28104600D03*
D13*
X252926900Y-28104600D03*
D15*
X250386900Y-23024600D03*
X244036900Y-25564600D03*
%TD*%
D13*
%TO.C,SW14*%
X226911750Y-9080000D03*
D14*
X231991750Y-9080000D03*
D13*
X237071750Y-9080000D03*
D15*
X234531750Y-4000000D03*
X228181750Y-6540000D03*
%TD*%
D13*
%TO.C,SW66*%
X218560750Y-85207500D03*
D14*
X223640750Y-85207500D03*
D13*
X228720750Y-85207500D03*
D15*
X226180750Y-80127500D03*
X219830750Y-82667500D03*
%TD*%
D13*
%TO.C,SW56*%
X200094900Y-66204600D03*
D14*
X205174900Y-66204600D03*
D13*
X210254900Y-66204600D03*
D15*
X207714900Y-61124600D03*
X201364900Y-63664600D03*
%TD*%
D13*
%TO.C,SW17*%
X9467900Y-28104600D03*
D14*
X14547900Y-28104600D03*
D13*
X19627900Y-28104600D03*
D15*
X17087900Y-23024600D03*
X10737900Y-25564600D03*
%TD*%
D13*
%TO.C,SW34*%
X76142900Y-47154600D03*
D14*
X81222900Y-47154600D03*
D13*
X86302900Y-47154600D03*
D15*
X83762900Y-42074600D03*
X77412900Y-44614600D03*
%TD*%
D16*
%TO.C,H7*%
X193250000Y-80250000D03*
%TD*%
D17*
%TO.C,SW16*%
X267820000Y-2102500D03*
D14*
X267820000Y-17342500D03*
D13*
X274640000Y-9102500D03*
D14*
X279720000Y-9102500D03*
D13*
X284800000Y-9102500D03*
D17*
X291620000Y-2102500D03*
D14*
X291620000Y-17342500D03*
D15*
X282260000Y-4022500D03*
X275910000Y-6562500D03*
%TD*%
D16*
%TO.C,H4*%
X66750000Y-60750000D03*
%TD*%
D13*
%TO.C,SW33*%
X57092900Y-47154600D03*
D14*
X62172900Y-47154600D03*
D13*
X67252900Y-47154600D03*
D15*
X64712900Y-42074600D03*
X58362900Y-44614600D03*
%TD*%
D13*
%TO.C,SW59*%
X271468900Y-66204600D03*
D14*
X276548900Y-66204600D03*
D13*
X281628900Y-66204600D03*
D15*
X279088900Y-61124600D03*
X272738900Y-63664600D03*
%TD*%
D16*
%TO.C,H3*%
X29750000Y-85250000D03*
%TD*%
D13*
%TO.C,SW22*%
X109416900Y-28104600D03*
D14*
X114496900Y-28104600D03*
D13*
X119576900Y-28104600D03*
D15*
X117036900Y-23024600D03*
X110686900Y-25564600D03*
%TD*%
D13*
%TO.C,SW63*%
X59048750Y-85207500D03*
D14*
X64128750Y-85207500D03*
D13*
X69208750Y-85207500D03*
D15*
X66668750Y-80127500D03*
X60318750Y-82667500D03*
%TD*%
D13*
%TO.C,SW12*%
X188780000Y-9080000D03*
D14*
X193860000Y-9080000D03*
D13*
X198940000Y-9080000D03*
D15*
X196400000Y-4000000D03*
X190050000Y-6540000D03*
%TD*%
D13*
%TO.C,SW50*%
X85794900Y-66204600D03*
D14*
X90874900Y-66204600D03*
D13*
X95954900Y-66204600D03*
D15*
X93414900Y-61124600D03*
X87064900Y-63664600D03*
%TD*%
D13*
%TO.C,SW65*%
X199510750Y-85207500D03*
D14*
X204590750Y-85207500D03*
D13*
X209670750Y-85207500D03*
D15*
X207130750Y-80127500D03*
X200780750Y-82667500D03*
%TD*%
D13*
%TO.C,SW26*%
X185616900Y-28104600D03*
D14*
X190696900Y-28104600D03*
D13*
X195776900Y-28104600D03*
D15*
X193236900Y-23024600D03*
X186886900Y-25564600D03*
%TD*%
D17*
%TO.C,SW64*%
X85591750Y-78222500D03*
D14*
X85591750Y-93462500D03*
D13*
X130511750Y-85222500D03*
D14*
X135591750Y-85222500D03*
D13*
X140671750Y-85222500D03*
D17*
X185591750Y-78222500D03*
D14*
X185591750Y-93462500D03*
D15*
X138131750Y-80142500D03*
X131781750Y-82682500D03*
%TD*%
D16*
%TO.C,H5*%
X132750000Y-51750000D03*
%TD*%
D13*
%TO.C,SW39*%
X171392900Y-47154600D03*
D14*
X176472900Y-47154600D03*
D13*
X181552900Y-47154600D03*
D15*
X179012900Y-42074600D03*
X172662900Y-44614600D03*
%TD*%
D13*
%TO.C,SW36*%
X114242900Y-47154600D03*
D14*
X119322900Y-47154600D03*
D13*
X124402900Y-47154600D03*
D15*
X121862900Y-42074600D03*
X115512900Y-44614600D03*
%TD*%
D13*
%TO.C,SW38*%
X152342900Y-47154600D03*
D14*
X157422900Y-47154600D03*
D13*
X162502900Y-47154600D03*
D15*
X159962900Y-42074600D03*
X153612900Y-44614600D03*
%TD*%
D16*
%TO.C,H9*%
X271250000Y-33250000D03*
%TD*%
D13*
%TO.C,SW5*%
X46980000Y-9080000D03*
D14*
X52060000Y-9080000D03*
D13*
X57140000Y-9080000D03*
D15*
X54600000Y-4000000D03*
X48250000Y-6540000D03*
%TD*%
D13*
%TO.C,SW51*%
X104844900Y-66204600D03*
D14*
X109924900Y-66204600D03*
D13*
X115004900Y-66204600D03*
D15*
X112464900Y-61124600D03*
X106114900Y-63664600D03*
%TD*%
D13*
%TO.C,SW19*%
X52266900Y-28104600D03*
D14*
X57346900Y-28104600D03*
D13*
X62426900Y-28104600D03*
D15*
X59886900Y-23024600D03*
X53536900Y-25564600D03*
%TD*%
D13*
%TO.C,SW37*%
X133292900Y-47154600D03*
D14*
X138372900Y-47154600D03*
D13*
X143452900Y-47154600D03*
D15*
X140912900Y-42074600D03*
X134562900Y-44614600D03*
%TD*%
D16*
%TO.C,H1*%
X30250000Y-33250000D03*
%TD*%
D13*
%TO.C,SW47*%
X28644900Y-66204600D03*
D14*
X33724900Y-66204600D03*
D13*
X38804900Y-66204600D03*
D15*
X36264900Y-61124600D03*
X29914900Y-63664600D03*
%TD*%
D13*
%TO.C,SW4*%
X27961750Y-9080000D03*
D14*
X33041750Y-9080000D03*
D13*
X38121750Y-9080000D03*
D15*
X35581750Y-4000000D03*
X29231750Y-6540000D03*
%TD*%
D13*
%TO.C,SW10*%
X150654600Y-9080000D03*
D14*
X155734600Y-9080000D03*
D13*
X160814600Y-9080000D03*
D15*
X158274600Y-4000000D03*
X151924600Y-6540000D03*
%TD*%
D13*
%TO.C,SW24*%
X147516900Y-28104600D03*
D14*
X152596900Y-28104600D03*
D13*
X157676900Y-28104600D03*
D15*
X155136900Y-23024600D03*
X148786900Y-25564600D03*
%TD*%
D13*
%TO.C,SW69*%
X289980000Y-85280000D03*
D14*
X295060000Y-85280000D03*
D13*
X300140000Y-85280000D03*
D15*
X297600000Y-80200000D03*
X291250000Y-82740000D03*
%TD*%
D17*
%TO.C,SW44*%
X279980000Y-25760000D03*
X279980000Y-49560000D03*
D13*
X281900000Y-37660000D03*
D14*
X286980000Y-37660000D03*
D13*
X292060000Y-37660000D03*
D14*
X295220000Y-25760000D03*
X295220000Y-49560000D03*
D15*
X289520000Y-32580000D03*
X283170000Y-35120000D03*
%TD*%
D13*
%TO.C,SW62*%
X35172750Y-85207500D03*
D14*
X40252750Y-85207500D03*
D13*
X45332750Y-85207500D03*
D15*
X42792750Y-80127500D03*
X36442750Y-82667500D03*
%TD*%
D13*
%TO.C,SW58*%
X245306900Y-66204600D03*
D14*
X250386900Y-66204600D03*
D13*
X255466900Y-66204600D03*
D15*
X252926900Y-61124600D03*
X246576900Y-63664600D03*
%TD*%
D13*
%TO.C,SW41*%
X209492900Y-47154600D03*
D14*
X214572900Y-47154600D03*
D13*
X219652900Y-47154600D03*
D15*
X217112900Y-42074600D03*
X210762900Y-44614600D03*
%TD*%
D13*
%TO.C,SW57*%
X219144900Y-66204600D03*
D14*
X224224900Y-66204600D03*
D13*
X229304900Y-66204600D03*
D15*
X226764900Y-61124600D03*
X220414900Y-63664600D03*
%TD*%
D13*
%TO.C,SW21*%
X90366900Y-28104600D03*
D14*
X95446900Y-28104600D03*
D13*
X100526900Y-28104600D03*
D15*
X97986900Y-23024600D03*
X91636900Y-25564600D03*
%TD*%
D13*
%TO.C,SW31*%
X11880900Y-47154600D03*
D14*
X16960900Y-47154600D03*
D13*
X22040900Y-47154600D03*
D15*
X19500900Y-42074600D03*
X13150900Y-44614600D03*
%TD*%
D13*
%TO.C,SW32*%
X38042900Y-47154600D03*
D14*
X43122900Y-47154600D03*
D13*
X48202900Y-47154600D03*
D15*
X45662900Y-42074600D03*
X39312900Y-44614600D03*
%TD*%
D13*
%TO.C,SW61*%
X11296750Y-85207500D03*
D14*
X16376750Y-85207500D03*
D13*
X21456750Y-85207500D03*
D15*
X18916750Y-80127500D03*
X12566750Y-82667500D03*
%TD*%
D13*
%TO.C,SW42*%
X228542900Y-47154600D03*
D14*
X233622900Y-47154600D03*
D13*
X238702900Y-47154600D03*
D15*
X236162900Y-42074600D03*
X229812900Y-44614600D03*
%TD*%
D13*
%TO.C,SW11*%
X169730000Y-9080000D03*
D14*
X174810000Y-9080000D03*
D13*
X179890000Y-9080000D03*
D15*
X177350000Y-4000000D03*
X171000000Y-6540000D03*
%TD*%
D16*
%TO.C,H8*%
X242250000Y-14250000D03*
%TD*%
D13*
%TO.C,SW20*%
X71316900Y-28104600D03*
D14*
X76396900Y-28104600D03*
D13*
X81476900Y-28104600D03*
D15*
X78936900Y-23024600D03*
X72586900Y-25564600D03*
%TD*%
D13*
%TO.C,SW15*%
X245961750Y-9080000D03*
D14*
X251041750Y-9080000D03*
D13*
X256121750Y-9080000D03*
D15*
X253581750Y-4000000D03*
X247231750Y-6540000D03*
%TD*%
D13*
%TO.C,SW25*%
X166566900Y-28104600D03*
D14*
X171646900Y-28104600D03*
D13*
X176726900Y-28104600D03*
D15*
X174186900Y-23024600D03*
X167836900Y-25564600D03*
%TD*%
D13*
%TO.C,SW53*%
X142944900Y-66204600D03*
D14*
X148024900Y-66204600D03*
D13*
X153104900Y-66204600D03*
D15*
X150564900Y-61124600D03*
X144214900Y-63664600D03*
%TD*%
D13*
%TO.C,SW9*%
X123180000Y-9080000D03*
D14*
X128260000Y-9080000D03*
D13*
X133340000Y-9080000D03*
D15*
X130800000Y-4000000D03*
X124450000Y-6540000D03*
%TD*%
D13*
%TO.C,SW54*%
X161994900Y-66204600D03*
D14*
X167074900Y-66204600D03*
D13*
X172154900Y-66204600D03*
D15*
X169614900Y-61124600D03*
X163264900Y-63664600D03*
%TD*%
D13*
%TO.C,SW46*%
X7181900Y-66204600D03*
D14*
X12261900Y-66204600D03*
D13*
X17341900Y-66204600D03*
D15*
X14801900Y-61124600D03*
X8451900Y-63664600D03*
%TD*%
D13*
%TO.C,SW67*%
X251880000Y-85280000D03*
D14*
X256960000Y-85280000D03*
D13*
X262040000Y-85280000D03*
D15*
X259500000Y-80200000D03*
X253150000Y-82740000D03*
%TD*%
D13*
%TO.C,SW7*%
X85080000Y-9080000D03*
D14*
X90160000Y-9080000D03*
D13*
X95240000Y-9080000D03*
D15*
X92700000Y-4000000D03*
X86350000Y-6540000D03*
%TD*%
D16*
%TO.C,H10*%
X279750000Y-70250000D03*
%TD*%
D13*
%TO.C,SW13*%
X207830000Y-9080000D03*
D14*
X212910000Y-9080000D03*
D13*
X217990000Y-9080000D03*
D15*
X215450000Y-4000000D03*
X209100000Y-6540000D03*
%TD*%
D13*
%TO.C,SW55*%
X181044900Y-66204600D03*
D14*
X186124900Y-66204600D03*
D13*
X191204900Y-66204600D03*
D15*
X188664900Y-61124600D03*
X182314900Y-63664600D03*
%TD*%
D16*
%TO.C,H6*%
X167750000Y-34250000D03*
%TD*%
D13*
%TO.C,SW68*%
X270930000Y-85280000D03*
D14*
X276010000Y-85280000D03*
D13*
X281090000Y-85280000D03*
D15*
X278550000Y-80200000D03*
X272200000Y-82740000D03*
%TD*%
D13*
%TO.C,SW6*%
X66030000Y-9080000D03*
D14*
X71110000Y-9080000D03*
D13*
X76190000Y-9080000D03*
D15*
X73650000Y-4000000D03*
X67300000Y-6540000D03*
%TD*%
D13*
%TO.C,SW49*%
X66744900Y-66204600D03*
D14*
X71824900Y-66204600D03*
D13*
X76904900Y-66204600D03*
D15*
X74364900Y-61124600D03*
X68014900Y-63664600D03*
%TD*%
D13*
%TO.C,SW8*%
X104130000Y-9080000D03*
D14*
X109210000Y-9080000D03*
D13*
X114290000Y-9080000D03*
D15*
X111750000Y-4000000D03*
X105400000Y-6540000D03*
%TD*%
D13*
%TO.C,SW35*%
X95192900Y-47154600D03*
D14*
X100272900Y-47154600D03*
D13*
X105352900Y-47154600D03*
D15*
X102812900Y-42074600D03*
X96462900Y-44614600D03*
%TD*%
D13*
%TO.C,SW3*%
X4711750Y-9080000D03*
D14*
X9791750Y-9080000D03*
D13*
X14871750Y-9080000D03*
D15*
X12331750Y-4000000D03*
X5981750Y-6540000D03*
%TD*%
D13*
%TO.C,SW48*%
X47694900Y-66204600D03*
D14*
X52774900Y-66204600D03*
D13*
X57854900Y-66204600D03*
D15*
X55314900Y-61124600D03*
X48964900Y-63664600D03*
%TD*%
D13*
%TO.C,SW52*%
X123894900Y-66204600D03*
D14*
X128974900Y-66204600D03*
D13*
X134054900Y-66204600D03*
D15*
X131514900Y-61124600D03*
X125164900Y-63664600D03*
%TD*%
D13*
%TO.C,SW23*%
X128466900Y-28104600D03*
D14*
X133546900Y-28104600D03*
D13*
X138626900Y-28104600D03*
D15*
X136086900Y-23024600D03*
X129736900Y-25564600D03*
%TD*%
D16*
%TO.C,H2*%
X43250000Y-14750000D03*
%TD*%
D13*
%TO.C,SW28*%
X223716900Y-28104600D03*
D14*
X228796900Y-28104600D03*
D13*
X233876900Y-28104600D03*
D15*
X231336900Y-23024600D03*
X224986900Y-25564600D03*
%TD*%
D13*
%TO.C,SW43*%
X247592900Y-47154600D03*
D14*
X252672900Y-47154600D03*
D13*
X257752900Y-47154600D03*
D15*
X255212900Y-42074600D03*
X248862900Y-44614600D03*
%TD*%
D13*
%TO.C,SW27*%
X204666900Y-28104600D03*
D14*
X209746900Y-28104600D03*
D13*
X214826900Y-28104600D03*
D15*
X212286900Y-23024600D03*
X205936900Y-25564600D03*
%TD*%
D13*
%TO.C,SW18*%
X33216900Y-28104600D03*
D14*
X38296900Y-28104600D03*
D13*
X43376900Y-28104600D03*
D15*
X40836900Y-23024600D03*
X34486900Y-25564600D03*
%TD*%
D13*
%TO.C,SW40*%
X190442900Y-47154600D03*
D14*
X195522900Y-47154600D03*
D13*
X200602900Y-47154600D03*
D15*
X198062900Y-42074600D03*
X191712900Y-44614600D03*
%TD*%
D18*
%TO.C,D66*%
X266510000Y-77042500D03*
X266510000Y-80342500D03*
%TD*%
D19*
%TO.C,D20*%
X105070000Y-27850000D03*
X105070000Y-24550000D03*
%TD*%
%TO.C,D14*%
X261010000Y-7590000D03*
X261010000Y-4290000D03*
%TD*%
D18*
%TO.C,D67*%
X285560000Y-77010000D03*
X285560000Y-80310000D03*
%TD*%
D19*
%TO.C,D60*%
X25230000Y-86987500D03*
X25230000Y-83687500D03*
%TD*%
%TO.C,D31*%
X52660000Y-45412500D03*
X52660000Y-42112500D03*
%TD*%
%TO.C,D62*%
X73930000Y-87000000D03*
X73930000Y-83700000D03*
%TD*%
%TO.C,D35*%
X128830000Y-45457500D03*
X128830000Y-42157500D03*
%TD*%
%TO.C,D25*%
X200280000Y-27730000D03*
X200280000Y-24430000D03*
%TD*%
%TO.C,D8*%
X139240000Y-7580000D03*
X139240000Y-4280000D03*
%TD*%
D18*
%TO.C,D48*%
X81330000Y-61080000D03*
X81330000Y-64380000D03*
%TD*%
D19*
%TO.C,D19*%
X86110000Y-27890000D03*
X86110000Y-24590000D03*
%TD*%
%TO.C,D37*%
X166880000Y-45502500D03*
X166880000Y-42202500D03*
%TD*%
%TO.C,D18*%
X67510000Y-28010000D03*
X67510000Y-24710000D03*
%TD*%
%TO.C,D28*%
X257330000Y-27810000D03*
X257330000Y-24510000D03*
%TD*%
%TO.C,D16*%
X23170000Y-29730000D03*
X23170000Y-26430000D03*
%TD*%
%TO.C,D38*%
X186000000Y-45502500D03*
X186000000Y-42202500D03*
%TD*%
%TO.C,D40*%
X224170000Y-45525000D03*
X224170000Y-42225000D03*
%TD*%
%TO.C,D15*%
X264890000Y-7590000D03*
X264890000Y-4290000D03*
%TD*%
D20*
%TO.C,C3*%
X174957100Y-81694000D03*
X177032100Y-81694000D03*
%TD*%
D18*
%TO.C,D53*%
X176570000Y-61080000D03*
X176570000Y-64380000D03*
%TD*%
D19*
%TO.C,D23*%
X161990000Y-27730000D03*
X161990000Y-24430000D03*
%TD*%
%TO.C,D6*%
X99310000Y-7710000D03*
X99310000Y-4410000D03*
%TD*%
%TO.C,D3*%
X41920000Y-7480000D03*
X41920000Y-4180000D03*
%TD*%
D21*
%TO.C,D63*%
X141447500Y-76800000D03*
X138147500Y-76800000D03*
%TD*%
D20*
%TO.C,C2*%
X174957100Y-78900000D03*
X177032100Y-78900000D03*
%TD*%
D22*
%TO.C,R3*%
X17919750Y-13694750D03*
X17919750Y-15694750D03*
%TD*%
D19*
%TO.C,D9*%
X164900000Y-7620000D03*
X164900000Y-4320000D03*
%TD*%
D18*
%TO.C,D58*%
X288260000Y-61060000D03*
X288260000Y-64360000D03*
%TD*%
D19*
%TO.C,D61*%
X49690000Y-87047500D03*
X49690000Y-83747500D03*
%TD*%
D18*
%TO.C,D64*%
X213950000Y-77042500D03*
X213950000Y-80342500D03*
%TD*%
D19*
%TO.C,D34*%
X109790000Y-45435000D03*
X109790000Y-42135000D03*
%TD*%
%TO.C,D30*%
X29080000Y-45390000D03*
X29080000Y-42090000D03*
%TD*%
%TO.C,D7*%
X118440000Y-7710000D03*
X118440000Y-4410000D03*
%TD*%
D23*
%TO.C,U1*%
X153278100Y-74609000D03*
X154078100Y-74609000D03*
X154878100Y-74609000D03*
X155678100Y-74609000D03*
X156478100Y-74609000D03*
X157278100Y-74609000D03*
X158078100Y-74609000D03*
X158878100Y-74609000D03*
X159678100Y-74609000D03*
X160478100Y-74609000D03*
X161278100Y-74609000D03*
D24*
X162978100Y-76309000D03*
X162978100Y-77109000D03*
X162978100Y-77909000D03*
X162978100Y-78709000D03*
X162978100Y-79509000D03*
X162978100Y-80309000D03*
X162978100Y-81109000D03*
X162978100Y-81909000D03*
X162978100Y-82709000D03*
X162978100Y-83509000D03*
X162978100Y-84309000D03*
D23*
X161278100Y-86009000D03*
X160478100Y-86009000D03*
X159678100Y-86009000D03*
X158878100Y-86009000D03*
X158078100Y-86009000D03*
X157278100Y-86009000D03*
X156478100Y-86009000D03*
X155678100Y-86009000D03*
X154878100Y-86009000D03*
X154078100Y-86009000D03*
X153278100Y-86009000D03*
D24*
X151578100Y-84309000D03*
X151578100Y-83509000D03*
X151578100Y-82709000D03*
X151578100Y-81909000D03*
X151578100Y-81109000D03*
X151578100Y-80309000D03*
X151578100Y-79509000D03*
X151578100Y-78709000D03*
X151578100Y-77909000D03*
X151578100Y-77109000D03*
X151578100Y-76309000D03*
%TD*%
D18*
%TO.C,D56*%
X233580000Y-61040000D03*
X233580000Y-64340000D03*
%TD*%
D25*
%TO.C,C5*%
X151124100Y-72550000D03*
X149049100Y-72550000D03*
%TD*%
D19*
%TO.C,D2*%
X5590000Y-15480000D03*
X5590000Y-12180000D03*
%TD*%
D18*
%TO.C,D46*%
X43310000Y-61110000D03*
X43310000Y-64410000D03*
%TD*%
D20*
%TO.C,C6*%
X162130100Y-88044000D03*
X164205100Y-88044000D03*
%TD*%
D26*
%TO.C,R5*%
X21238250Y-7364350D03*
X23238250Y-7364350D03*
%TD*%
D19*
%TO.C,D39*%
X205000000Y-45502500D03*
X205000000Y-42202500D03*
%TD*%
%TO.C,D22*%
X142950000Y-27730000D03*
X142950000Y-24430000D03*
%TD*%
%TO.C,D12*%
X222260000Y-7630000D03*
X222260000Y-4330000D03*
%TD*%
%TO.C,D41*%
X243090000Y-45547500D03*
X243090000Y-42247500D03*
%TD*%
%TO.C,D26*%
X219330000Y-27810000D03*
X219330000Y-24510000D03*
%TD*%
D27*
%TO.C,Y1*%
X170278100Y-81971500D03*
X170278100Y-79071500D03*
X172578100Y-79071500D03*
X172578100Y-81971500D03*
%TD*%
D19*
%TO.C,D13*%
X241890000Y-7620000D03*
X241890000Y-4320000D03*
%TD*%
D28*
%TO.C,USB1*%
X16430000Y-650000D03*
X22210000Y-650000D03*
D29*
X16095000Y-2595000D03*
X16870000Y-2595000D03*
D30*
X17570000Y-2595000D03*
X18070000Y-2595000D03*
X18570000Y-2595000D03*
X19070000Y-2595000D03*
X19570000Y-2595000D03*
X20070000Y-2595000D03*
X20570000Y-2595000D03*
X21070000Y-2595000D03*
D29*
X21770000Y-2595000D03*
X22545000Y-2595000D03*
%TD*%
D18*
%TO.C,D52*%
X157610000Y-61080000D03*
X157610000Y-64380000D03*
%TD*%
D19*
%TO.C,D33*%
X90790000Y-45435000D03*
X90790000Y-42135000D03*
%TD*%
%TO.C,D10*%
X183570000Y-7640000D03*
X183570000Y-4340000D03*
%TD*%
D31*
%TO.C,D1*%
X20936000Y-10018200D03*
D32*
X20936000Y-11718200D03*
X17936000Y-11718200D03*
X17936000Y-9818200D03*
%TD*%
D33*
%TO.C,R6*%
X15666000Y-6600000D03*
X13666000Y-6600000D03*
%TD*%
D19*
%TO.C,D11*%
X203190000Y-7600000D03*
X203190000Y-4300000D03*
%TD*%
%TO.C,D4*%
X60840000Y-7737500D03*
X60840000Y-4437500D03*
%TD*%
%TO.C,D24*%
X181280000Y-27730000D03*
X181280000Y-24430000D03*
%TD*%
%TO.C,D32*%
X71740000Y-45435000D03*
X71740000Y-42135000D03*
%TD*%
D18*
%TO.C,D51*%
X138430000Y-61100000D03*
X138430000Y-64400000D03*
%TD*%
%TO.C,D47*%
X62250000Y-61120000D03*
X62250000Y-64420000D03*
%TD*%
D34*
%TO.C,D68*%
X294120000Y-74450000D03*
X297420000Y-74450000D03*
%TD*%
D35*
%TO.C,C4*%
X149197600Y-85652500D03*
X149197600Y-83577500D03*
%TD*%
D36*
%TO.C,SW2*%
X121487500Y-80000000D03*
X115287500Y-80000000D03*
X121487500Y-83700000D03*
X115287500Y-83700000D03*
%TD*%
D18*
%TO.C,D57*%
X260550000Y-60980000D03*
X260550000Y-64280000D03*
%TD*%
%TO.C,D49*%
X100420000Y-61080000D03*
X100420000Y-64380000D03*
%TD*%
D34*
%TO.C,D43*%
X286872500Y-28020000D03*
X290172500Y-28020000D03*
%TD*%
D19*
%TO.C,D17*%
X47570000Y-27970000D03*
X47570000Y-24670000D03*
%TD*%
D33*
%TO.C,R1*%
X152811600Y-88040500D03*
X150811600Y-88040500D03*
%TD*%
D37*
%TO.C,F1*%
X14634000Y-12698350D03*
X14634000Y-15673350D03*
%TD*%
D18*
%TO.C,D50*%
X119430000Y-61160000D03*
X119430000Y-64460000D03*
%TD*%
D38*
%TO.C,C7*%
X168882600Y-74560500D03*
X168882600Y-76635500D03*
%TD*%
D18*
%TO.C,D55*%
X214700000Y-61080000D03*
X214700000Y-64380000D03*
%TD*%
D19*
%TO.C,D5*%
X79350000Y-7680000D03*
X79350000Y-4380000D03*
%TD*%
D18*
%TO.C,D65*%
X233240000Y-77042500D03*
X233240000Y-80342500D03*
%TD*%
%TO.C,D54*%
X195700000Y-61040000D03*
X195700000Y-64340000D03*
%TD*%
D25*
%TO.C,C1*%
X157982100Y-69121000D03*
X155907100Y-69121000D03*
%TD*%
D19*
%TO.C,D21*%
X124110000Y-27850000D03*
X124110000Y-24550000D03*
%TD*%
%TO.C,D42*%
X262220000Y-45570000D03*
X262220000Y-42270000D03*
%TD*%
D22*
%TO.C,R4*%
X20967750Y-13627950D03*
X20967750Y-15627950D03*
%TD*%
D26*
%TO.C,R2*%
X166866600Y-71534000D03*
X168866600Y-71534000D03*
%TD*%
D19*
%TO.C,D27*%
X238450000Y-27810000D03*
X238450000Y-24510000D03*
%TD*%
D18*
%TO.C,D45*%
X21290000Y-61130000D03*
X21290000Y-64430000D03*
%TD*%
D19*
%TO.C,D36*%
X147960000Y-45480000D03*
X147960000Y-42180000D03*
%TD*%
%LPD*%
M02*
